<svg xmlns="http://www.w3.org/2000/svg" viewBox="0 0 207.28 334.01"><defs><style>.a{fill:#050403;}.b{fill:#fd6602;}.c{fill:#859b9a;}.d{fill:#93c8fe;}.e{fill:#080704;}.f{fill:#fe6b09;}.g{fill:#599ae0;}.h{fill:#303e3f;}.i{fill:#9ba672;}.j{fill:#e8a83f;}.k{fill:#758546;}.l{fill:#d17d2c;}.m{fill:#839998;}.n{fill:#68807f;}.o{fill:#9aa471;}.p{fill:#d27e2c;}.q{fill:#1e2a2b;}.r{fill:#758547;}.s{fill:#2f3d3e;}.t{fill:#d2fdeb;}.u{fill:#d0fae9;}.v{fill:#cfa736;}.w{fill:#e4cb59;}.x{fill:#fdfa98;}.y{fill:#bd5645;}.z{fill:#fefefe;}.aa{fill:#d6f4fd;}.ab{fill:#010202;}.ac{fill:#edf3d1;}</style></defs><path class="a" d="M198.38,97.47c3-3.28,2.94-3.28,3-7.72,0-1.92.16-3.83.25-5.75a1.44,1.44,0,0,1,.12-.7c.29-.42.63-1,1-1.09a1.57,1.57,0,0,1,1.2.83c.63,1.33,1.09,2.73,1.63,4.11.13.35.29.7.52,1.24,2-2.69,3.93-5.23,5.78-7.83a2.48,2.48,0,0,0,.2-1.57c-.4-4.49-.86-9-1.27-13.47a10,10,0,0,1,.12-2.38c.06-.34.43-.63.65-.94.29.27.7.49.86.82,1.47,3,2.89,5.95,4.32,8.92.11.22.23.42.4.74a9,9,0,0,0,.66-1c1.41-2.9,2.85-5.79,4.17-8.73a4.71,4.71,0,0,0,.18-2.22,46.46,46.46,0,0,0-3.1-12.87A22.66,22.66,0,0,1,218,44.59c-.1-.43.21-1,.33-1.43a3.63,3.63,0,0,1,1.18.59c1.75,2,3.46,4,5.17,6,.36.42.69.86,1.16,1.45,1.5-6.14,2.79-12.12,2.26-18.33s-3.56-11.6-6.06-17.18a1.69,1.69,0,0,1,2.22.08,6.28,6.28,0,0,1,1.16,1.2c5.33,7.39,10,15.12,11.87,24.2A59.3,59.3,0,0,1,238,57.25c-1.37,19.8-8.64,37.47-19.49,53.84-1.55,2.33-3.06,4.68-4.58,7-.06.1-.1.21-.17.34,1,.61,2,1.17,2.87,1.84a7.63,7.63,0,0,1,3.07,5.55,40.46,40.46,0,0,1-1,15.37c2.47.77,2.8,2.92,3.34,5a5.21,5.21,0,0,0,.78,1.69,73,73,0,0,1,10,19.8c.83,2.45,1.43,5,2.21,7.45,1.11,3.54.66,7-.35,10.47a38.91,38.91,0,0,1-11,17.82,63.94,63.94,0,0,1-8.08,6.73,6,6,0,0,0-3,4.07,25.5,25.5,0,0,1-1.81,4.14,1.77,1.77,0,0,0-.16,1.16,7.82,7.82,0,0,1-.25,5.84,24,24,0,0,1-7.67,10c2.51,2.84,5.27,5.45,7.38,8.51a25.48,25.48,0,0,1,3.25,7.65c2.16,7.92.55,15.25-4.09,22-.54.78-1.09,1.57-1.7,2.31a2.67,2.67,0,0,0-.86,2.21c.05.42-.41,1-.8,1.35-1.38,1.18-2.84,2.27-4.25,3.43a4.25,4.25,0,0,0-1,1.12c-1.08,1.94-2.12,3.9-3.16,5.87a5.4,5.4,0,0,0-.44,1.18,9.33,9.33,0,0,0-.18,1.18c-.28,2.28-1.1,4.08-3.77,4.28a4,4,0,0,0-1,.32c0,.76,0,1.44,0,2.11.15,2.12-1.09,3.19-2.87,3.85a19.22,19.22,0,0,1-9.58.59c-.67-.1-1.06,0-1.35.53a2.43,2.43,0,0,1-2.87,1.18c-3.19-.51-7.14-4.79-7.38-8a2.79,2.79,0,0,1,1.17-2.6c1.28-.94,2.52-1.95,3.77-2.94.3-.24.56-.51.84-.77l-.14-.27a13.19,13.19,0,0,0-1.26.4,33.45,33.45,0,0,1-18.28,2.33,8.19,8.19,0,0,1-5.41-2.95l-2.49-3c.12,1.72-.18,2.94-1.37,3.82-.19.14-.07.75,0,1.14A49.41,49.41,0,0,1,139.2,322c-9.12,16.49-23.21,25.79-42,27.19-26.39,2-49.77-16.8-54.09-42.95a51.8,51.8,0,0,1,40.57-58.82c2.92-.59,5.93-.72,8.9-1.06l.74-.1-1.15-1a31.25,31.25,0,0,1-8-10.32,7.81,7.81,0,0,1-.69-4.53,118.64,118.64,0,0,1,8.64-31.87,6.89,6.89,0,0,1,.55-1.2,2.65,2.65,0,0,0,.09-2.69c-1-2.8-2.1-5.6-2.91-8.47a15.63,15.63,0,0,1-.54-5c.16-3.26,2.1-5.36,4.92-6.83,3.12-1.64,6.12-1,9,.38,1,.5,1.46.24,2-.66,3.31-5.08,6.7-10.12,10.07-15.16,1-1.48,2-1.8,3.81-1.38q8.85,2.08,17.71,4.11a1.33,1.33,0,0,0,1.15-.4,13.92,13.92,0,0,0,2.46-8.35,18.43,18.43,0,0,0-.73-2.6c-.66-3.7.8-6.37,4.36-7.58a29.27,29.27,0,0,1,5.37-1,22.75,22.75,0,0,1,3.1,0,6,6,0,0,1,2.37-5.26c.06.89.13,1.77.2,2.66a22.57,22.57,0,0,0-.65,2.27c0,.15.37.39.58.59l5.33,1.14,8.07,3,5.36,3,4.34,3.4c2.2,2.12,4.21,4.38,5.1,7.4,1.18,4-1.1,6.82-4.58,8.12a12.15,12.15,0,0,0-1.85.8,13.51,13.51,0,0,0-4.77,5.42c-1,1.73-1,1.75.37,3.17s2.56,2.78,3.88,4.21a21.55,21.55,0,0,1,7.11-6.05,1.68,1.68,0,0,0,.94-1.59,48.66,48.66,0,0,1,.7-7.36c1.86-8.5,5.83-16.12,10.14-23.57,6.31-10.89,13.18-21.42,20.22-31.85,8.44-12.52,15.12-25.82,18.29-40.72a82.61,82.61,0,0,0,2-24.27,61.81,61.81,0,0,0-1.2-6.44c-.52-3.22-2.94-9.33-4.3-10.82a3.78,3.78,0,0,0,0,.51A34.83,34.83,0,0,1,230,46c-.71,3.14-1.5,6.27-2.25,9.41l-.55,1.16L225,53.7l-3.08-4.45a3.27,3.27,0,0,0-.1.66c.76,3.45,1.5,6.91,2.29,10.36a8.71,8.71,0,0,1-.72,6.68c-1.86,3.16-3.61,6.37-5.4,9.56-1,.23-1.08-.73-1.42-1.21-.74-1-1.32-2.22-2-3.35l-.23-.47-.16-.34-1.27-2.3s0-.07,0-.09,0,0-.07,0l.12.08a7.31,7.31,0,0,0,0,.93c.36,3.42.72,6.83,1.13,10.23a4.2,4.2,0,0,1-.87,3.45c-1.41,1.68-2.7,3.46-4,5.22-.33.45-.47,1-.8,1.47A15.36,15.36,0,0,1,207,91.59l.14.85-.75-.45.29,1.31c-.61.45-.67,0-.83-.45-.65-1.64-1.34-3.26-2-4.89l-.49-1.38c-.27,2-.15,4-.3,6-.2,2.62.44,5.48-1.9,7.58l-.44-.37,1.56-2.33-.29-.19-1.78,2ZM147,253.72l-.2.28-.25.24c-1-.59-.11-1,.22-1.29,2.28-2.11,4.53-4.27,6.95-6.22,3.88-3.1,7.86-6.09,12.74-7.51a3.49,3.49,0,0,1,1.95-.17c.45.16.69.91,1.05,1.45a4.41,4.41,0,0,0,.44-.22,51.87,51.87,0,0,1,14.47-5.53c1.12-.26,1.28-.8,1.19-1.74-.26-2.74-.45-5.49-.79-8.22a2.31,2.31,0,0,0-1-1.55c-2.05-1.14-4.16-2.19-6.29-3.18-2.48-1.15-5-2.21-7.63-3.35-5,7.3-9.88,14.49-14.77,21.68-6.2,9.12-11.77,18.72-19.76,26.49,1.4,1.91,2.88,3.83,4.25,5.84a51.12,51.12,0,0,1,2.75,4.62c.84,1.59,1.49,3.27,2.32,4.86a39.53,39.53,0,0,0,2.59,4.46c1.35,1.92,2.86,3.73,4.33,5.57a1.87,1.87,0,0,0,1,.63,29.61,29.61,0,0,0,10.69.61,41.69,41.69,0,0,0,14.24-5.05,7.17,7.17,0,0,0,2.36-2.09c2-2.78,3.72-5.67,5.63-8.47a4.8,4.8,0,0,1,1.86-1.78c4-1.64,6.85-4.6,9.23-8.08q4.76-6.93,9.45-13.91c.53-.8,1-.9,1.69-.25v.46c-.13.33-.23.66-.37,1-1.29,2.88-2.71,5.7-3.83,8.64a18.38,18.38,0,0,1-6.68,8.28c-1.48,1.09-3.46,1.51-4.51,3.19l-.3.14,0,.11.41-.1c4.73-1.26,9.5-2.43,13.5-5.58l.3.53a17.54,17.54,0,0,1-3.39,2.23Q197,272.84,191,274.59c-2,.57-3.78,1.12-4.64,3.23a12.69,12.69,0,0,1-1.25,2c-1.26,2-1.12,2.37,1.2,3.17a7.36,7.36,0,0,0,.8.24c6.31,1.33,11.69-.75,16.63-4.5a2.19,2.19,0,0,0,.85-2.21c.69-.93,1.39-1.85,2.06-2.79,5.27-7.48,7.08-15.53,3.86-24.34a21.14,21.14,0,0,0-2.46-5,72.07,72.07,0,0,0-5-5.93,5,5,0,0,0-1.72-1.39,11.84,11.84,0,0,0-3.75-1.09,51.94,51.94,0,0,0-8.46,0,51.84,51.84,0,0,0-19.27,6.42c-1.71,1-1.69,1-2.75-.23L167,241c-1.25.38-2.37.77-3.51,1.05-.76.18-1.7,0-2.32.34a59.33,59.33,0,0,0-13.24,10.43l-.71.66-.25.29ZM95.89,329.51l-.33.14-1.2,1.11c1,1.12,2.14,2,3.54,1.76a11.44,11.44,0,0,0,7.27-4.4c.93-1.12,1.81-2.27,2.71-3.41l2.16-.66c3.58-1.05,7.24-1.92,10.74-3.21s7.11-3.14,8.95-6.92a50.19,50.19,0,0,0,2.85-5.92c1.36-4.19,2.43-8.48,3.62-12.73a7.34,7.34,0,0,0-2-7.69,1.24,1.24,0,0,1-.37-.83,6,6,0,0,0-1.57-4.61,37.81,37.81,0,0,0-4.79-5c-3.52-2.8-7.22-5.38-10.9-8-1-.71-1.16-.84-.54-1.94,1.11-2,2.17-4,3.32-6.08l-2.09-1a4.13,4.13,0,0,0-1.24.21c-2.8,1.38-5.58,2.79-8.37,4.2a11.46,11.46,0,0,1-2.17.59,2.23,2.23,0,0,1-1.68-.39,2.26,2.26,0,0,1-.07-1.73c.4-1.44,1-2.83,1.39-4.29a11.7,11.7,0,0,0,.32-5.22l-4.77,5.59-.38.36s-.09,0-.11.06l-1.08.94c-2.71,2.38-5.73,4-9.44,4.11-1.07-.27-1.28-1.1-1.47-2-.29-1.47-.73-2.91-1.11-4.36-.35-.92-.69-1.84-1-2.77l1.91-.73a20.2,20.2,0,0,1,2.21,8,14.94,14.94,0,0,0,8.86-4.87l3.33-3.61,1.33-1.69-2.26-1v0l-.29-.18-5.07-2.15a19.91,19.91,0,0,0-3-.49,46.8,46.8,0,0,0-24.62,6.82A49.36,49.36,0,0,0,108,345.18a78.51,78.51,0,0,0,7.36-3c2-1.08,4-2.06,5.89-3.26a46.3,46.3,0,0,0,11.34-10.24c7.95-9.92,11.95-21.07,10.53-33.91l-.46-4.83L141,284.34a4.59,4.59,0,0,0-.18-.56A69.06,69.06,0,0,0,128.44,266c-1.84-1.88-4.79-2.67-7.29-4-1.05,2.07-2,4-3,5.86a3.81,3.81,0,0,0,.35.28,62.11,62.11,0,0,1,12.64,9.39c2.52,2.48,5,5,4.86,9,0,.05.11.1.17.15l1.37,1.72.32.44h0a10.61,10.61,0,0,1,.17,7.93,50.64,50.64,0,0,0-1.77,5.95A33.3,33.3,0,0,1,131.75,314c-1.25,2-2.63,4.21-4.52,5.49a38.17,38.17,0,0,1-16.65,6.26,4.24,4.24,0,0,0-3.46,2.39c-1.46,3-4,4.5-6.8,5.71a5.81,5.81,0,0,1-6.8-1.4c-1.73-1.67-1.7-2,.09-3.5.81-.66,1.59-1.34.73-2.58a3,3,0,0,1-.3-1.74c0-1.23.91-1.66,2-1.05.37.21.76.38,1.33.67.29-1,.59-1.87.76-2.75a1,1,0,0,0-.41-.84,1.32,1.32,0,0,0-1.09-.09c-1.85,1-3.63,2.14-5.5,3.13a2.42,2.42,0,0,0-1.41,2.16c-.08,1.15-.13,2.31-.2,3.46s-.59,1.65-1.8,1.36a16.45,16.45,0,0,1-1.6-.53,6,6,0,0,1,.29.68c.15.48.29,1,.43,1.44a4.74,4.74,0,0,1-1.55.21,28.63,28.63,0,0,1-2.85-.9c-.62,1.21-1.24,2.44-1.86,3.67a11,11,0,0,1-2.61-.45,17.31,17.31,0,0,1-5.78-4.56c-.75-1.58-1.6-3.11-2.2-4.74a5.55,5.55,0,0,1,.33-4.94A13,13,0,0,0,72,313.81c0-3.91-1.8-7.18-4.2-10.07a8,8,0,0,1-2-5.45c0-.68,0-1.36,0-2a37.91,37.91,0,0,1,6.27-18.49c2.07-3.24,4.53-6.25,6.85-9.34a25.38,25.38,0,0,0,4.41-11.6l2.47-1.23c-.16,1.07-.29,2.14-.5,3.19-.89,4.32-2.33,8.37-5.34,11.74a61.69,61.69,0,0,0-4.6,5.83c-4.36,6.23-7.2,13-7.61,20.74a7.47,7.47,0,0,0,1.73,5.59c5,6.06,6.39,12.66,2.14,19.81a2.55,2.55,0,0,0-.16,1.71c1,4.37,3.81,7.24,7.52,9.15a40.42,40.42,0,0,1,2.83-4.06c1.25-1.4,2.79-2.28,4.68-.92l1,.44.93-5a54.49,54.49,0,0,1,5.35-3.49,7.15,7.15,0,0,0,3-2.74,15.78,15.78,0,0,0,.76-1.67,4.47,4.47,0,0,0,.24-1.21,3.33,3.33,0,0,1,2-3.42c.59-.3,1.22-.55,1.82-.82a17.64,17.64,0,0,1,7-.33,7.16,7.16,0,0,1,4.28,2.11c.93,1.1.58,3.55-.55,3.88a7.71,7.71,0,0,0-4.22,3.29c-.72,1.05-1.24,2.22-1.87,3.32-1,1.81-1.48,2-3.39,1.24-.14-.05-.29-.08-.69-.19.21.68.4,1.18.51,1.69.06.31.11.81-.06.94-1.83,1.46-3.66,2.91-5.59,4.23-.45.31-1.39.4-1.34-.74a.31.31,0,0,0,.2-.09c.5,0,1.12.08,1.49-.17,1.26-.83,2.42-1.8,3.64-2.7a1.55,1.55,0,0,0,.64-2.1c-.21-.51.05-1.21.1-1.82a6.92,6.92,0,0,1,1.22.22c1.77.65,1.73.64,2.74-1s2.22-3.43,3.33-5.14l.09-.06s0,0,0-.07l-.07.14c-1,.33-2.26.4-3,1.05a59.77,59.77,0,0,0-4.45,4.68c-.94.15-.75-.51-.65-1,.21-1.08.5-2.15.73-3.23a1.16,1.16,0,0,0,0-.74c-.5-.8-1-1.56-1.58-2.34l-.23-.51-.15.07.21.58,1.18,2.57-1.36.39-.92-1.12-.76,1.29.34-.14,1.64,2.25c-.09.51-.15,1-.27,1.52-.68,2.93-1.18,3.36-4,3.38.86.95,1.25,1.93.44,3-.08,0-.11.05-.1.13l-.27.6Zm5.78-13.16-.1-.19-.07.13.18,0,.08.4.1-.06Zm96.18-30.66.27-.51.27-.51a79.63,79.63,0,0,1-8,1.22,9.76,9.76,0,0,1-7.6-2.44c-1,1.3-2,2.54-3.06,3.83a5.71,5.71,0,0,0,1,.23c1,0,1.3.63,1.3,1.5a27.85,27.85,0,0,0,1.26,9c.11.32-.29,1.19-.5,1.2-1.46.11-1.64,1.46-2.66,2.31a61.73,61.73,0,0,0,6.7-.05c3-.34,3.74-1.43,3.38-4.54l.41-1.38a9.44,9.44,0,0,1,2.24-.94,1.9,1.9,0,0,0,1.82-2.22l.45-1.91a14.53,14.53,0,0,1,.72-1.55c.52-.87,1.09-1.7,1.64-2.55l.36-.67Zm15.05-147.2.33-.8.69-1.93A30.72,30.72,0,0,0,216,123a1.35,1.35,0,0,0-.4-.91,18.48,18.48,0,0,0-2.45-1.47,1,1,0,0,0-1,.21c-.61.76-1.1,1.61-1.63,2.42,1.6.89,3.1,1.68,4.56,2.54.29.16.47.53.7.8-1.79-.68-3.34-1.55-4.93-2.33a1.14,1.14,0,0,0-1.06.11c-.68.87-1.25,1.83-1.9,2.82,2.35,1.19,4.78,2,6.68,3.73l-.16.31-6.87-3.53c-.49,1.13-.9,2.08-1.25,2.91,1.81,1,3.58,1.84,5.23,2.89a9.52,9.52,0,0,1,1.75,2,9,9,0,0,1-1.34-.81,14.28,14.28,0,0,0-6-3.1c-.1.77-.19,1.39-.28,2a4.23,4.23,0,0,0,.76.95c1.91,1.3,3.84,2.56,5.77,3.83-.11.56-.25.61-.77.23-1.74-1.26-3.56-2.43-5.44-3.7-.2,1.06-.37,1.92-.54,2.77l-.35,1,5.59,3.36a2.87,2.87,0,0,1-1.07-.08c-1.57-.8-3.1-1.65-4.6-2.46l-2.5,4.41c.88.25,1.77.53,2.67.75,1.3.31,2.6.58,4.13.92l2-3.52.43-.92C212.14,140.23,212.52,139.36,212.9,138.49Zm-18,13.08c1.33.45,2.65.91,4,1.35,2.15.7,2.82.43,4-1.62-1.66-.48-3.31-.94-5-1.44s-2.44-.06-3,1.74l-2,2.27c1.25.54,2.2,1,3.2,1.38,2.37.87,2.36.85,4.12-1.19-1.5-.56-3-1.11-4.52-1.72C195.46,152.21,195.23,151.84,195,151.57Zm1.46,4.56c-.53-.24-1-.51-1.58-.72s-1.38-.5-2.07-.75l-1.42,2.51c2.31,1.91,4,2.36,6.48.6A47.85,47.85,0,0,0,208.28,147c.17-.23,0-.69,0-1.05a6.35,6.35,0,0,0-1,1.24,77.24,77.24,0,0,1-5,5.92,49.48,49.48,0,0,1-5.64,4.53,5,5,0,0,1-1.8.43l0-.34,2.58-1.15-.06-.3ZM194.48,270.8a23.26,23.26,0,0,0,2.07-1.38c1.7-1.42,3.71-2.54,4.72-4.66q2.34-4.93,4.66-9.89c.25-.55.4-1.15.6-1.72a1.69,1.69,0,0,0-.85.73l-6.36,9.5c-1.64,2.44-3.3,4.86-4.95,7.3l-.09.25Zm-88.39-7.57A31.83,31.83,0,0,0,115,258.9L108,255.09c-.71,2.73-1.39,5.36-2.07,8l-.13.13Zm-14-84.31c-1.36,1.57-1.18,3.49-.77,5.21.69,2.92,1.75,5.76,2.67,8.63a6.44,6.44,0,0,0,.4.82l2.12-4.29c-4-2.73-4.31-3.12-3.84-4.39a6.89,6.89,0,0,0,4.24,3.5L99.26,184c1.36-2.32,2.72-4.65,4.21-7.18-1.56-.5-3-1.05-4.41-1.38C96.69,174.85,93.14,176.63,92.05,178.92Zm104.76-12c.86,1.94,1.71,3.89,2.67,6.07l1.2.47a23.68,23.68,0,0,0,10.59,2.74c3.33,0,6.41-1.28,9.57-2.14l1,.76a5.44,5.44,0,0,1-3.65,2.86l-.47.06-1.11.1c-2.93-.05-5.88.11-8.78-.21a38.17,38.17,0,0,1-6.09-1.65c.32-.09.68-.32.94-.23a25.13,25.13,0,0,0,8.63,1.47c2-.05,4.05-.22,6.08-.22,1.58,0,2.51-.94,3.39-2.06-1.27.26-2.49.65-3.72,1a19.4,19.4,0,0,1-8.33.86,34.87,34.87,0,0,1-9.37-2.94c-.82-.37-1.59-.59-1.13-1.76.07-.17-.17-.47-.41-1.08l-1.05,1.8c-.89,1-2.11,1.07-3.32,1.26a26.54,26.54,0,0,0-15.9,8.65l5.78,7.7c.18.45.34.9.55,1.33a4,4,0,0,1-.35,4.46c-1.5,2.05-2.78,4.26-4.21,6.48.43.16.75.28,1.07.42,5,2.14,10,4.25,14.92,6.43a7.13,7.13,0,0,1,4.22,5.06,31.57,31.57,0,0,1,.52,4.26c.07.73.37,1.1,1.13,1,1.73-.17,3.48-.26,5.2-.54a3.57,3.57,0,0,0,2.19-1c1.37-2.1,2.6-4.34,2.64-6.95a1.74,1.74,0,0,1,1.11-1.74,24.67,24.67,0,0,0,3.19-1.87,62.48,62.48,0,0,0,10.26-9.51,32.24,32.24,0,0,0,7-14.09c.6-2.37,1.14-4.63.48-7.21a88.87,88.87,0,0,0-10.91-25.54,18.36,18.36,0,0,1-2.74-5.94,5,5,0,0,0-.69-1.64,2.35,2.35,0,0,0-.73-.6,17.31,17.31,0,0,1-.54,2.64,8.42,8.42,0,0,1-1.12,1.82A49.67,49.67,0,0,1,207,158.55a21.15,21.15,0,0,1-10.17,4.32c-.47-.07-.94-.13-1.4-.21A1.81,1.81,0,0,0,193.1,164c.91.13,2,0,2.63.44S196.47,166.08,196.81,166.94Zm-67.57,96.65a2.46,2.46,0,0,0,.27.17l.06-.08-.31-.11a6.15,6.15,0,0,0-.48-1,49.29,49.29,0,0,1-6.25-12.16c.32.22.78.36,1,.67.43.8.68,1.7,1.12,2.5,2,3.68,4.11,7.34,6.24,11.11.75-.32,1.3-.5,1.81-.78a19.18,19.18,0,0,0,5.72-5.34c4.95-6.18,9.15-12.86,13.46-19.47,1.69-2.6,3.33-5.23,5-7.85a2.72,2.72,0,0,0,.43-.4l8-11.63c.73-1.08,1.48-2.14,2.31-3.34-.58-.27-1-.45-1.42-.67a11.31,11.31,0,0,1-2.23-1.27c-1.92-1.7-2.19-4.06-2.29-6.44l0-.72.19-.49.08-1.38.41-.54c.57-1,1.07-2,1.72-2.86a5.93,5.93,0,0,1,8.19-1.74c1.25.69,2.62,1.15,3.92,1.76a1,1,0,0,0,1.46-.46,61.88,61.88,0,0,1,3.68-5.45,2.93,2.93,0,0,0,0-4.08c-1.77-2.3-3.5-4.65-5.42-6.82-2.7-3-5.51-6-8.38-8.87a10.85,10.85,0,0,0-3.66-2.55c-6.41-2.4-12.89-4.65-19.36-6.9a212.43,212.43,0,0,0-24.83-6.43,2.92,2.92,0,0,0-3.42,1.45c-4.44,6.86-9.18,13.55-13.28,20.61A218.89,218.89,0,0,0,92.8,202.05a92.47,92.47,0,0,0-5.93,19.52c-.69,3.42-1.14,6.89-1.7,10.34a37.88,37.88,0,0,0,1.62,3.55c2.58,4.42,5.73,8.45,10.21,11,9,5.07,18.11,9.86,27.19,14.73C125.84,262.05,127.55,262.79,129.24,263.59Zm67.39-30,2.61.46c0-1,.06-1.88,0-2.74-.37-4.72-.86-9.42-1.12-14.14-.16-2.89-1.32-5-4-6.13-4.62-2-9.29-3.79-13.91-5.75-3.32-1.42-6.57-3-9.87-4.46a3,3,0,0,0-1.61-.26,5.14,5.14,0,0,0-3.34,2.11,10.07,10.07,0,0,0-1.84,5.22,5.11,5.11,0,0,1,.15.94c0,2.44,1.13,3.81,3.5,4.74,5,2,9.86,4.29,14.77,6.46.31.14.64.26,1,.39l.52-1.64.29.06c0,.72.07,1.45.11,2.17l.23-.08c.39-1.14.78-2.27,1.16-3.41l.51.13c0,1.35-1.34,2.62-.39,4.12l.92-4.45,1.14-.92-.19,1.12a7.62,7.62,0,0,0-.92,4.58c.22,2,.46,4,.67,6s.36,3.85.52,5.59Zm-43.42-66.69c1.08.4,2.2.73,3.23,1.23,4.42,2.1,9.62,2.57,13.33,6.4.25-.47.48-.93.73-1.38a14.69,14.69,0,0,1,5.2-5.77c1.16-.69,2.38-1.28,3.6-1.85a3.89,3.89,0,0,0,2.21-3.17c.09-2.85-1.54-4.9-3.34-6.78a37.19,37.19,0,0,0-12.52-8.23c-5.28-2.27-10.77-3.8-16.58-3.42a15.81,15.81,0,0,0-5.47,1.42c-2.11,1-2.65,3.2-1.62,5.31a6.3,6.3,0,0,1,.52,4.53c-.69,2.47-1.55,4.89-2.35,7.37L150.53,166Zm38-8.81-.21.36c.6.48,1.19,1,1.81,1.44.93.69,1.87,1.36,2.84,2a1.43,1.43,0,0,0,.89.17,19.93,19.93,0,0,0,9.69-3.9c3.87-3,6.8-6.8,9.62-10.72.58-.8,1-1.48.3-2.42-.15-.2-.08-.61,0-.91.2-1,.45-2,.68-3a47,47,0,0,0,.82-15.82,10.61,10.61,0,0,0-.55-1.88c-.32,2-.31,3.85-.65,5.68a45.14,45.14,0,0,1-6.57,16.8,52.17,52.17,0,0,1-10.75,11.78C196.62,159.77,194,160.27,191.22,158.1Zm-12.54,131a4.2,4.2,0,0,0-1.38.51q-3.36,3-6.64,6.17a1.47,1.47,0,0,0-.51,1.09c.45,2.12,2.64,5.28,5.2,6a1.62,1.62,0,0,0,1.91-.59c1.06-1.39,2.18-2.74,3.2-4.16a2.08,2.08,0,0,0,.32-1.34c-.19-2.05-.53-4.09-.67-6.15C180,289.6,179.83,289.05,178.68,289.1Zm30-69.21L200.22,221c.35,4.26.7,8.66,1.06,13.05l.44.21a64.38,64.38,0,0,0,4.7-5.5C208.26,226,209.69,223.1,208.64,219.89Zm-64.31,68.45a6.92,6.92,0,0,0-.51-4.26,55.19,55.19,0,0,0-10-17.58A1.24,1.24,0,0,0,133,266c-1,.07-1.92.26-3,.42C135.84,272.94,140.13,280.58,144.33,288.34ZM102.1,321.06c.14-.18.28-.37.43-.55,1.5-1.77,3-3.58,5.42-4.08a2.74,2.74,0,0,0,2-1.44c.35-.62.69-1.24,1.14-2-1.83-.53-3.5.22-4.84.79C103.27,315,102.51,318,102.1,321.06ZM203.89,134.37l-.35-.13q-3.33,5.5-6.67,11a16.06,16.06,0,0,0,4.47-3.21A11.54,11.54,0,0,0,203.89,134.37Zm1.79,13.86c-1.81-.35-3.46-.65-5.11-1-1.95-.41-2.52-.15-3.46,1.69,1.85.56,3.69,1.16,5.56,1.63a1.73,1.73,0,0,0,1.38-.34A15.53,15.53,0,0,0,205.68,148.23Zm1.62-2.33c-1.8-.55-3.63-1.11-5.47-1.63a.86.86,0,0,0-.69.22c-.56.54-1.07,1.13-1.73,1.83,1.75.34,3.33.67,4.91.94C206.34,147.6,206.34,147.58,207.3,145.9Zm-13.5,20c-.16,2.24-.31,4.29-.46,6.37l1.12-.12,1.47-2c-.42-1.13-.85-2.36-1.36-3.56C194.44,166.24,194,166.07,193.8,165.89ZM100.6,313l-.31.12.84,2.62.24-.08ZM221.69,49.22s-.07.05-.07.08,0,.05.06.08.07-.05.07-.08S221.71,49.24,221.69,49.22Z" transform="translate(-30.95 -15.27)"/><path class="b" d="M155.15,139.09c-.07-.89-.14-1.77-.2-2.66-.6-2.77-1.21-5.53-1.75-8l5.45,2.9a2.38,2.38,0,0,0,3,0v-7l.49-.15,1.15,1.7c1.12,1.16,2.21,1.19,3.31.11l.45-.69c0-.33,0-.66.05-1,.23-.63-1-1.28,0-1.9l1.92-1.78.49-.6q1.42-2.19,2.86-4.36l.28-.7,1.14-4.66c0-.78.09-1.56.14-2.34-.21-1.44-.4-2.89-.64-4.33a1.88,1.88,0,0,0-.46-1.08c-1-.73-.58-1.56-.31-2.41l4.48.25c.39,3.25.77,6.51,1.16,9.76-.07,1-.14,1.94-.22,2.92l-.14.94c-.8-.78-2.09,0-2.64,1.64l-.35.72-.78,4.8v.74c.18,1.1.36,2.21.55,3.32l1.24,2.44a5.35,5.35,0,0,0,2.88,3.16l.58.32,3.46.89a37,37,0,0,1-5.86,10.81c1.76.49,3.06-.58,4.75-1.12-2.17,3.27-5,5.35-7.85,7.47l-5.36-3,4.42-3.39c-1.88-.17-2.11-.38-2.2-2.08,0-.56,0-1.12,0-1.68,0-2,0-3.92,0-5.82-1.22,1.61-2.51,3.38-5,3.35l-.05-.07.07.06c-.06.5.06,1.12-.19,1.49-1.66,2.36-2,2.41-4.53,1.07-.09,0-.21,0-.31,0-.09,1.37-.18,2.72-.26,4.06L155.08,142C155.1,141,155.13,140,155.15,139.09Z" transform="translate(-30.95 -15.27)"/><path class="c" d="M177.05,100.33l-4.48-.26a65.93,65.93,0,0,0-20.23,3.25c-3.36,1.11-6.76,2.13-10.19,3a9,9,0,0,1-6.08-.58c-3.55-1.65-3.95-5.62-.87-8,.86-.66,1.57-1.51,2.38-2.25.52-.49,1.09-.92,1.57-1.33a15.21,15.21,0,0,1-2.3-1.27,1.61,1.61,0,0,1-.23-2.53,12.11,12.11,0,0,1,2.57-2.1,21.06,21.06,0,0,1,8.73-2.63,35.88,35.88,0,0,1,11.27.62,56.44,56.44,0,0,0,7.49.56c2.06.11,4.13.18,6.19.46-.55,0-1.11,0-1.66,0a42.41,42.41,0,0,0-20.34,3.86,15.65,15.65,0,0,0-6.47,5.37c-1.68,2.36-1,4.33,1.82,5.2a16.86,16.86,0,0,0,9-.11c4.22-1,8.4-2.14,12.63-3.06a34.4,34.4,0,0,1,5.1-.37l3.56.42c4.67.4,9.34.84,14,1.19,1.36.1,3,0,3.51-1.43s-.51-2.55-1.47-3.54l-.8-.88.12-.15,5.38,3.16c.37.21.76.38,1.14.57l1.84,1.79.51.51.44.37c.19.34.36.7.56,1a2.1,2.1,0,0,1-1.8,3.38c-.76,0-1.52,0-2.27,0l-.73-.19-1.21-.06-2.87-.7c-1.48-.29-3-.56-4.43-.87Z" transform="translate(-30.95 -15.27)"/><path class="c" d="M179,31.32a8.41,8.41,0,0,1,6.48.62,4.46,4.46,0,0,0,1.32.23c1.12.14,1.73-.42,2.33-1.36.94-1.48,2.51-1.62,4.07-1.22,3.51.89,7.94,6.21,7.35,10.31a6.3,6.3,0,0,1-3.66,4.71c-5,2.73-9.59,1.48-13.93-1.63l.12-.13,1.95.77c.39-1.24.85-1.52,2-1a19.94,19.94,0,0,1,3.51,2,4.41,4.41,0,0,0,3.3.67.8.8,0,0,0,.49-1.45,7.65,7.65,0,0,0-2-1.51,41.65,41.65,0,0,0-13.88-4c-7-.82-13.83,0-20.69,1.11a8.42,8.42,0,0,1-2.95-.19,1.44,1.44,0,0,1-1.1-2.27,9.28,9.28,0,0,1,2.08-2.55,15.44,15.44,0,0,1,6.54-3,14.72,14.72,0,0,0,2.13-.92l-.07-.36a8.13,8.13,0,0,1-1.58-.19,2.25,2.25,0,0,1-1.06-.81c-.08-.12.32-.75.61-.89a6.53,6.53,0,0,1,2.12-.66A21.89,21.89,0,0,1,174,29.3l1.34.5c.22.14.45.28.66.44,0,0-.08.17-.13.27a22.11,22.11,0,0,0-11.87,1,11.39,11.39,0,0,0-3.57,2.28c-1.22,1.12-.87,2.21.69,2.72a8.07,8.07,0,0,0,5.16.12,47,47,0,0,1,11.43-2.13h1.5C178.17,32.92,178.16,32.82,179,31.32Z" transform="translate(-30.95 -15.27)"/><path class="c" d="M197,96.08a49,49,0,0,0-15.49-7.2c-2-.49-4.11-.79-6.35-1.22l1.33-.22c-2.78-.74-5.26-1.75-7.14-3.85a6,6,0,0,1-1-1.48,2.32,2.32,0,0,1,1-3.2c2.49-1.64,5.74-1.31,8.66.89a8,8,0,0,1,.84.68,2.09,2.09,0,0,0,2.33.85,1.93,1.93,0,0,1,1.57.63,25,25,0,0,1,2.46,3.32c1.49,2.4,3.2,4.54,5.88,5.69l.18,0-.07-.16a2,2,0,0,1-.11-.57c.05-.38.07-1,.26-1.08a1.45,1.45,0,0,1,1.23.17,15.82,15.82,0,0,1,2.28,2.56c.87,1.25,1.58,2.62,2.36,3.94Z" transform="translate(-30.95 -15.27)"/><path class="d" d="M39.69,257.52c-1-2-2.14-4-2.92-6.08-1.76-4.78-3.44-9.6-4.93-14.48a18.41,18.41,0,0,1-.72-8c.23-1.59.72-3,2.38-3.36a3.9,3.9,0,0,1,4,1.6,8.78,8.78,0,0,1,2,5.88c0,3.42-.35,6.84-.38,10.27,0,3.14.13,6.29.3,9.44.09,1.54.41,3.06.63,4.59Zm-4.86-28.43c-.37-1.63-1.16-2.15-2.1-1.41a3.19,3.19,0,0,0-.45,3c.62.84,1.39.55,2.14.19v1.56c-.64-.37-1.29-1-2-.2a1.37,1.37,0,0,0-.12,2c.5.57,1.51.35,2.25-.45a1.47,1.47,0,0,1,.2.42c.34,2.26.55,4.54,1,6.77.31,1.41.23,3.05,1.61,4.07.18,4.87.22,5.1,1.22,5.72V233.33a16.56,16.56,0,0,0-.68-2.94C37.24,228.75,36.49,228.51,34.83,229.09Z" transform="translate(-30.95 -15.27)"/><path class="d" d="M50.13,172c0-.95,0-1.9,0-2.84-.23-5.38-.55-10.75-.68-16.12a15.88,15.88,0,0,1,1.66-7.51A2.47,2.47,0,0,1,53.34,144a2.51,2.51,0,0,1,2.37,1.53c1.1,2.12.76,4.4.55,6.59-.67,6.85-3.13,13.21-5.67,19.53a3,3,0,0,1-.21.4Zm5-19.13c0-.44,0-.88.07-1.31a25,25,0,0,0,.38-3.19c0-1.6-1.13-2.43-2.43-2-1-.69-1.4-.61-2,.44a9.05,9.05,0,0,0-.59,1.31c-.45,1.26-.15,1.72,1.21,1.9l-.09.47a11.35,11.35,0,0,0-1.44.21,1.6,1.6,0,0,0,.06.78,7.61,7.61,0,0,0,1.35.12c0,.63.08,1.26.07,1.89-.07,2.37-.16,4.74-.24,7.11,0,.66.1,1.21,1,1.12-.16.73-.31,1.46-.48,2.19s-.33,1.41-.5,2.11l.36.07A81.61,81.61,0,0,0,55.15,152.84Z" transform="translate(-30.95 -15.27)"/><path class="e" d="M169.56,120l-.49.6c-.81-.12-1.61-.31-2.42-.36-1.15-.07-2.09.23-2.12,1.65L164,124l-.27.81,3.35.42-.45.69-3.31-.11-1.15-1.7-.49.15v7a2.38,2.38,0,0,1-3,0c2.9-4.87,4.06-10.32,5.39-15.73a52.89,52.89,0,0,1,1.74-5.44,4,4,0,0,1,4-2.7,35.88,35.88,0,0,1,4.24.45c0,.78-.1,1.56-.14,2.34-.85-.21-1.68-.5-2.54-.63-3-.44-4.46,1.26-4.83,4.05l6.23,1.24-.28.7c-1.86-.32-3.72-.66-5.58-.93-.25,0-.76.21-.8.41-.36,1.48-.63,3-.88,4.27Z" transform="translate(-30.95 -15.27)"/><path class="f" d="M173.65,42.73A85.31,85.31,0,0,0,176.71,51a7.24,7.24,0,0,1,.78,5.3c-.84,3.45-.29,7,.41,10.43l-.35.12c-.83-2.58-1.83-5.11-2.47-7.73a53.11,53.11,0,0,1-1.38-8.21C173.47,48.16,173.65,45.36,173.65,42.73Z" transform="translate(-30.95 -15.27)"/><path class="d" d="M51.05,225.2c-.44,1.76-.75,3.57-1.36,5.28s-1.55,3.57-2.37,5.35a5.22,5.22,0,0,1-.57.78c-.28-.37-.58-.6-.66-.9-1-3.75-1.76-7.53-1-11.43a4.92,4.92,0,0,1,1.66-3.08,2.42,2.42,0,0,1,2.74-.58,2.58,2.58,0,0,1,1.61,2.57,5.63,5.63,0,0,1-.05.59c-.45-.86-1-1.5-2.12-1.2-.44-.33-.9-.93-1.31-.91a2,2,0,0,0-1.24,1,5.31,5.31,0,0,0-.32,1.72c0,.27-.06.55-.1.83-.05.5-.12,1-.17,1.48l1.39.12c-.11,1.25-.27,2.51-.33,3.77a20.54,20.54,0,0,0,.1,2.21l.45.08,1.27-1.64,1.44-3.9Z" transform="translate(-30.95 -15.27)"/><path class="g" d="M48.93,222.58c1.1-.3,1.67.34,2.12,1.2v1.42c-.31.72-.62,1.45-.94,2.17l-.16-.26s-.06,0-.07.08c-.48,1.19-1,2.39-1.42,3.59-.05.12.13.33.21.49l-1.27,1.64-.45-.08a20.54,20.54,0,0,1-.1-2.21c.06-1.26.22-2.52.33-3.77.18-.54.21-1.39.57-1.57C49,224.66,49,223.67,48.93,222.58Z" transform="translate(-30.95 -15.27)"/><path class="f" d="M179,31.32c-.79,1.5-.78,1.6.22,3.16h-1.5c-.61-1.33-1.22-2.65-1.84-4,0-.1.15-.26.13-.27-.21-.16-.44-.3-.66-.44l2-4.7Z" transform="translate(-30.95 -15.27)"/><path class="f" d="M176.48,98.55l-3.56-.42c.08-1.27.2-2.54.24-3.8s0-2.44,0-3.93A32,32,0,0,1,176.48,98.55Z" transform="translate(-30.95 -15.27)"/><path class="c" d="M191.35,93.54l.51.2-.12.15-.39-.36Z" transform="translate(-30.95 -15.27)"/><path class="c" d="M197.17,95.88l.11.4-.31-.2Z" transform="translate(-30.95 -15.27)"/><path class="c" d="M191.35,93.53l-.29-.1s.08-.08.09-.07.13.12.2.18Z" transform="translate(-30.95 -15.27)"/><path class="c" d="M182.91,43l-.43-.29h0l.57.15Z" transform="translate(-30.95 -15.27)"/><path class="c" d="M182.48,42.69l-.16-.13.14.14Z" transform="translate(-30.95 -15.27)"/><path class="h" d="M161.63,206.74l0,.72a6.69,6.69,0,0,0-.69,1.49c-.33,1.54-.53,3.11-.84,4.66-1,4.84-2,9.68-3,14.52a28.65,28.65,0,0,0-.28,3.08c-1.67,2.62-3.31,5.25-5,7.85-4.31,6.61-8.51,13.29-13.46,19.47a19.18,19.18,0,0,1-5.72,5.34c-.51.28-1.06.46-1.81.78-2.13-3.77-4.2-7.43-6.24-11.11-.44-.8-.69-1.7-1.12-2.5-.17-.31-.63-.45-1-.67l-.23-.22c-.24-.31-.42-.77-.74-.92-4.08-1.88-8.24-3.61-12.29-5.57-6.78-3.27-13.49-6.67-20.23-10l-2.94-1.47-.93-.27c.56-3.45,1-6.92,1.7-10.34a92.47,92.47,0,0,1,5.93-19.52A218.89,218.89,0,0,1,102.92,182c4.1-7.06,8.84-13.75,13.28-20.61a2.92,2.92,0,0,1,3.42-1.45,212.43,212.43,0,0,1,24.83,6.43c6.47,2.25,13,4.5,19.36,6.9a10.85,10.85,0,0,1,3.66,2.55c2.87,2.87,5.68,5.83,8.38,8.87,1.92,2.17,3.65,4.52,5.42,6.82a2.93,2.93,0,0,1,0,4.08A61.88,61.88,0,0,0,177.6,201a1,1,0,0,1-1.46.46c-1.3-.61-2.67-1.07-3.92-1.76a5.93,5.93,0,0,0-8.19,1.74c-.65.9-1.15,1.9-1.72,2.86l-.41.54c0,.46-.05.92-.08,1.38Zm3.24-32.42-.18-.26a3.6,3.6,0,0,0-.95.64c-2.34,3.12-4.72,6.21-7,9.39a244.08,244.08,0,0,0-17.6,30c-4.46,8.77-8.67,17.69-12.94,26.56-1.07,2.23-2,4.53-2.92,6.81-.39.93-.36.94.44,1.18a6.39,6.39,0,0,1,.27-1c2.89-6.26,5.63-12.59,8.73-18.75,4.81-9.59,9.61-19.2,14.9-28.52,4.09-7.23,8.9-14.06,13.45-21C162.25,177.59,163.61,176,164.87,174.32Z" transform="translate(-30.95 -15.27)"/><path class="i" d="M86.54,328.37c-1.89-1.36-3.43-.48-4.68.92A40.42,40.42,0,0,0,79,333.35c-3.71-1.91-6.52-4.78-7.52-9.15a2.55,2.55,0,0,1,.16-1.71c4.25-7.15,2.86-13.75-2.14-19.81a7.47,7.47,0,0,1-1.73-5.59c.41-7.7,3.25-14.51,7.61-20.74a61.69,61.69,0,0,1,4.6-5.83c3-3.37,4.45-7.42,5.34-11.74.21-1,.34-2.12.5-3.19l.24-.15c.34.93.68,1.85,1,2.77,0,.51,0,1,0,1.53,0,1.27,0,2.53,0,3.8,0,.55,0,1.45.33,1.57a1.59,1.59,0,0,0,2.18-.5c3.71-.08,6.73-1.73,9.44-4.11l1.08-.94a5.06,5.06,0,0,1-.31,1.11,14,14,0,0,1-7.46,6.21c-1.66.66-3.3,1.39-4.93,2.13a5.17,5.17,0,0,0-1,.89c.36.09.46.14.51.12a36.59,36.59,0,0,1,11.7-2.56,43,43,0,0,1,16.13,2,13.23,13.23,0,0,1,4.3,1.94,59.3,59.3,0,0,1,6.13,5.84,12.66,12.66,0,0,1,3.26,5.5l-1.34-.36a8.54,8.54,0,0,0,0,1.33c.12,1.11.26,2.21.48,3.29a4.68,4.68,0,0,0,.65,1.2c.35-.25.72-.5,1.06-.77a2.9,2.9,0,0,0,.32-.52c.14,1.44,1.27,1.31,2.12,1.57,3,.88,4,3.05,2.93,5.65a23.18,23.18,0,0,1-14.24,13.43c-2.11.75-3,2-3.44,4.46a5.56,5.56,0,0,1-.85,2.42c-2.39,3-4.9,5.86-7.34,8.79a14.41,14.41,0,0,0-.92,1.46c-.9,1.14-1.78,2.29-2.71,3.41a11.44,11.44,0,0,1-7.27,4.4c-1.4.2-2.49-.64-3.54-1.76l1.2-1.11.18.21c0,1.14.89,1.05,1.34.74,1.93-1.32,3.76-2.77,5.59-4.23.17-.13.12-.63.06-.94-.11-.51-.3-1-.51-1.69.4.11.55.14.69.19,1.91.72,2.34.57,3.39-1.24.63-1.1,1.15-2.27,1.87-3.32a7.71,7.71,0,0,1,4.22-3.29c1.13-.33,1.48-2.78.55-3.88a7.16,7.16,0,0,0-4.28-2.11,17.64,17.64,0,0,0-7,.33c-1.43-.73-4.46.45-4.53,1.87a21.84,21.84,0,0,0,.42,3.58,15.78,15.78,0,0,1-.76,1.67,7.15,7.15,0,0,1-3,2.74,54.49,54.49,0,0,0-5.35,3.49c-.91-.52-1.24-.34-1.4.78S86.71,327.09,86.54,328.37Zm-9.08-11.29c-.61.22-.92.56-.46,1.2l-.09.45a2.73,2.73,0,0,0-.4.75c-.23,1.2-.45,2.4-.6,3.61a3.91,3.91,0,0,0,.2,1.14,3.76,3.76,0,0,0,1.2-.54c.25-.23.28-.71.4-1.08l.23-.5.24-.47.25-.48c.79-.48,2.14-3.24,1.84-4-.14-.34-.72-.84-.87-.77-.63.28-1.67-.55-1.94.67ZM78.66,284l-.71-.66c-.16.28-.48.6-.44.85.16.93.43,1.83.66,2.76-1.28.08-1.41.29-.93,1.45a19,19,0,0,1,1.23,3c.42,1.85,1.7,2.58,3.33,3a9.39,9.39,0,0,1,4.34,1.79,3.31,3.31,0,0,0,1.11.39,35.84,35.84,0,0,0,5.36,8.74c.29.38.7,1.45,1.45.33l1.77,0,.8-.11.46,1.08a3.77,3.77,0,0,0,4.67.59,29.75,29.75,0,0,0,2.75-2.53,6.41,6.41,0,0,0,1-.6c.65-.58,1.21-1.28,1.9-1.82a12.77,12.77,0,0,0,4.09-5.47c.66-1.7,1.11-3.48,1.73-5.2a15.85,15.85,0,0,1,1.05-2.07l-1.57-.78-5.24-2.77-.6-.38a14.91,14.91,0,0,0-12.57-1.95c-3.55,1-7,2.2-10.53,3.34-.13,0-.19.27-.28.42-.3.91-.1,2.26-1.75,2a2.33,2.33,0,0,1-2-1.81C79.41,286.29,79,285.12,78.66,284Zm47.74.58c-1.3.38-.39,1.4-.71,2a2.07,2.07,0,0,0-1,.92c-.09.25.18.63.29.95l1.08-.7.5.59A2.66,2.66,0,0,0,126.4,284.53Z" transform="translate(-30.95 -15.27)"/><path class="j" d="M167.09,242.25c1.06,1.22,1,1.18,2.75.23a51.84,51.84,0,0,1,19.27-6.42,51.94,51.94,0,0,1,8.46,0,11.84,11.84,0,0,1,3.75,1.09A5,5,0,0,1,203,238.5a72.07,72.07,0,0,1,5,5.93,21.14,21.14,0,0,1,2.46,5c3.22,8.81,1.41,16.86-3.86,24.34-.67.94-1.37,1.86-2.06,2.79-1,.48-1.89,1-2.85,1.44-1.76.86-3.53,1.69-5.48,2.62a56.11,56.11,0,0,0,2.86-5.58,4,4,0,0,1,3.56-2.62,4.11,4.11,0,0,0,2-1.1,28.65,28.65,0,0,0,2.51-2.87c.85-1.05,1.72-2.09,2.47-3.21a1.55,1.55,0,0,0-.23-2.34c-.93-.66-1.64-.07-2.28.58a6.22,6.22,0,0,0-.46.56,18.59,18.59,0,0,1-7.29,5.7c-.53.23-1.08.39-1.61.59a6.1,6.1,0,0,1,2.28-1.72,4.62,4.62,0,0,0,2.81-2.74c1.62-4.07,3.23-8.15,4.8-12.24a3.76,3.76,0,0,0,0-1.33v-.46c-.14-.41-.2-1.12-.42-1.18a2.36,2.36,0,0,0-1.71.14c-.9.65-1.55,1.63-2.43,2.3a98.88,98.88,0,0,1-16.84,10.4,6.59,6.59,0,0,0-1.88,1c-2.05,2.16-4.08,4.36-6,6.64-2.68,3.15-5.19,6.43-7.89,9.56-1.37,1.59-3.08,2.63-5.38,1.87a20,20,0,0,0-2.69-.51,35.79,35.79,0,0,1-12.67-5.36,1.24,1.24,0,0,1-.68-1.57c.32-1.06.35-2.19.58-3.28a38.74,38.74,0,0,1,3.5-10.62,54.59,54.59,0,0,1,10.64-13.87,4.3,4.3,0,0,0,.64-1.18l.48-.37a21.23,21.23,0,0,0,2.09-1.41c.64-.55.49-1-.37-1.19l-.85-.24Z" transform="translate(-30.95 -15.27)"/><path class="k" d="M234.48,39.8a61.81,61.81,0,0,1,1.2,6.44,82.61,82.61,0,0,1-2,24.27c-3.17,14.9-9.85,28.2-18.29,40.72-7,10.43-13.91,21-20.22,31.85-4.31,7.45-8.28,15.07-10.14,23.57a48.66,48.66,0,0,0-.7,7.36,1.68,1.68,0,0,1-.94,1.59,21.55,21.55,0,0,0-7.11,6.05c-1.32-1.43-2.59-2.83-3.88-4.21s-1.35-1.44-.37-3.17a13.51,13.51,0,0,1,4.77-5.42,12.15,12.15,0,0,1,1.85-.8c3.48-1.3,5.76-4.09,4.58-8.12-.89-3-2.9-5.28-5.1-7.4a6.11,6.11,0,0,0,.45-.83c1.44-4,2.79-8.06,4.3-12a89.09,89.09,0,0,1,10.28-19.53c5.77-8.31,11.77-16.47,17.2-25,4.93-7.77,9.41-15.84,13.72-24,1.84-3.48,2.77-7.45,4.09-11.2a2.68,2.68,0,0,0-.05-1l-1.75,2.09c-.61-2.59-1.14-4.86-1.66-7.14,0-.06.14-.16.22-.25l2.22,2.85.55-1.16A2.29,2.29,0,0,0,230,54.12c2.33-3.52,3.14-7.53,3.8-11.59C234,41.61,234.25,40.71,234.48,39.8Z" transform="translate(-30.95 -15.27)"/><path class="j" d="M221.85,174.84l-1-.76a14.41,14.41,0,0,0-2.18,0,19.33,19.33,0,0,0-2.39.74l-.07-.2,2.66-2.43-.12-.34-3.46.69c-1.66-3.9-3.29-7.69-4.86-11.51-.11-.25.17-.79.43-1,2.35-2.31,4.76-4.56,7.08-6.9a6.51,6.51,0,0,0,1.2-2.14,1,1,0,0,0-.39-1,1.16,1.16,0,0,0-1,.29c-.8.78-1.54,1.62-2.26,2.47s-1.38,1.71-2.06,2.58c-.27.16-.54.3-.79.48a48.56,48.56,0,0,1-12.57,7l-.54.19a.13.13,0,0,1-.14.07l-.58.18h0l-1.91-.46A21.15,21.15,0,0,0,207,158.55a49.67,49.67,0,0,0,9.52-10.83,8.42,8.42,0,0,0,1.12-1.82,17.31,17.31,0,0,0,.54-2.64,2.35,2.35,0,0,1,.73.6,5,5,0,0,1,.69,1.64,18.36,18.36,0,0,0,2.74,5.94A88.87,88.87,0,0,1,233.29,177c.66,2.58.12,4.84-.48,7.21a11.81,11.81,0,0,0-1.16,1.19,70.87,70.87,0,0,1-12.16,13.71,34.14,34.14,0,0,1-10.84,6.4,2.18,2.18,0,0,1-1.25.14c-1.87-.55-3.73-1.14-5.56-1.81s-3.36-1.33-5-2l-.18.28,7.4,5.34a5.15,5.15,0,0,1-2.52-.58c-3.73-2.43-7.39-5-11.11-7.43a3.19,3.19,0,0,1-1.7-3.45c.1-.64.14-1.64-.22-1.93-1.62-1.3-3.4-2.4-5.13-3.57l-5.78-7.7a26.54,26.54,0,0,1,15.9-8.65c1.21-.19,2.43-.27,3.32-1.26.54.75,1.07,1.51,1.64,2.31-.6,1.19-.49,1.62.72,2.48.32.23.67.43,1,.63a73.29,73.29,0,0,0,13.48,5.78,6.84,6.84,0,0,0,5.31-.08q3.88-1.83,7.77-3.69a1.74,1.74,0,0,0,.37-.3c.69-.65.64-1.15-.27-1.3a5,5,0,0,0-2.4.17c-2.18.75-4.31,1.64-6.46,2.47-1.26-.16-2.53-.29-3.78-.5a37.16,37.16,0,0,1-13-4.52l.58-.31a38.17,38.17,0,0,0,6.09,1.65c2.9.32,5.85.16,8.78.21l1.11-.1.47-.06a14.33,14.33,0,0,0,3-.33C222.23,177,222.44,175.91,221.85,174.84Z" transform="translate(-30.95 -15.27)"/><path class="l" d="M167.09,242.25l-1.32.71.85.24c.86.17,1,.64.37,1.19a21.23,21.23,0,0,1-2.09,1.41l-.59-.56.79-1.67a30.81,30.81,0,0,0-5.92,4,67.58,67.58,0,0,0-6,6.64c-2.23,2.74-4.29,5.62-6.44,8.43-1.19,1.56-1.52,3.84-3.9,4.49,1.49,2,2.88,3.93,4.38,6,.27-.69.49-1.17.65-1.68.25-.76.44-1.53.67-2.28.06-.18.23-.33.29-.51a21.32,21.32,0,0,1,1.27-3.76,24.48,24.48,0,0,0,2.46-5.29c.13-.45.68-.78,1-1.18.09-.1.22-.25.2-.34-.25-1.37,1-1.63,1.47-2.42a2.52,2.52,0,0,1,.41-1.12c.39-.46,1.22-.81,1.26-1.26.11-1.16,1.16-1.4,1.68-2.12a16,16,0,0,1,1.55-1.74c.94-1,1.9-1.89,2.85-2.83l1.41-.37a4.3,4.3,0,0,1-.64,1.18,54.59,54.59,0,0,0-10.64,13.87,38.74,38.74,0,0,0-3.5,10.62c-.23,1.09-.26,2.22-.58,3.28a1.24,1.24,0,0,0,.68,1.57,35.79,35.79,0,0,0,12.67,5.36,20,20,0,0,1,2.69.51c2.3.76,4-.28,5.38-1.87,2.7-3.13,5.21-6.41,7.89-9.56,1.92-2.28,3.95-4.48,6-6.64a6.59,6.59,0,0,1,1.88-1,98.88,98.88,0,0,0,16.84-10.4c.88-.67,1.53-1.65,2.43-2.3a2.36,2.36,0,0,1,1.71-.14c.22.06.28.77.42,1.18-.68-.65-1.16-.55-1.69.25q-4.69,7-9.45,13.91c-2.38,3.48-5.2,6.44-9.23,8.08a4.8,4.8,0,0,0-1.86,1.78c-1.91,2.8-3.68,5.69-5.63,8.47a7.17,7.17,0,0,1-2.36,2.09,41.69,41.69,0,0,1-14.24,5.05,29.61,29.61,0,0,1-10.69-.61,1.87,1.87,0,0,1-1-.63c-1.47-1.84-3-3.65-4.33-5.57a39.53,39.53,0,0,1-2.59-4.46c-.83-1.59-1.48-3.27-2.32-4.86a51.12,51.12,0,0,0-2.75-4.62c-1.37-2-2.85-3.93-4.25-5.84,8-7.77,13.56-17.37,19.76-26.49,4.89-7.19,9.79-14.38,14.77-21.68,2.62,1.14,5.15,2.2,7.63,3.35,2.13,1,4.24,2,6.29,3.18a2.31,2.31,0,0,1,1,1.55c.34,2.73.53,5.48.79,8.22.09.94-.07,1.48-1.19,1.74a51.87,51.87,0,0,0-14.47,5.53,4.41,4.41,0,0,1-.44.22c-.36-.54-.6-1.29-1.05-1.45a3.49,3.49,0,0,0-1.95.17c-4.88,1.42-8.86,4.41-12.74,7.51-2.42,2-4.67,4.11-6.95,6.22-.33.29-1.17.7-.22,1.29-.13.24-.26.48-.37.72l-2.25,4.64a3.81,3.81,0,0,1-.54,1.13,4.19,4.19,0,0,0-.91,3.44c0,.3.29.59.44.89.24-.16.57-.26.72-.49,1.84-2.77,3.67-5.56,5.46-8.37.13-.21,0-.61-.07-.92l-.2-.2,9.43-9-.24-.28c-2.81,2-5.19,4.6-7.86,6.8l-2.21.23a59.33,59.33,0,0,1,13.24-10.43c.62-.36,1.56-.16,2.32-.34,1.14-.28,2.26-.67,3.51-1.05Z" transform="translate(-30.95 -15.27)"/><path class="m" d="M115.33,342.22a78.51,78.51,0,0,1-7.36,3,49.36,49.36,0,0,1-39.5-89.62,46.8,46.8,0,0,1,24.62-6.82,19.91,19.91,0,0,1,3,.49l.72,3.32-5.08.42c.82-1.67.53-2.46-1.28-2.63a16.29,16.29,0,0,0-5,.17,57.81,57.81,0,0,0-23,10.54,13.49,13.49,0,0,0-5.44,7.8,2.58,2.58,0,0,0,.61,2.11,28,28,0,0,0,3.48,2.47,65.23,65.23,0,0,0-4.61,10.72,42.85,42.85,0,0,0-1.34,17.22A42.18,42.18,0,0,0,60.12,317a39.13,39.13,0,0,0,9.36,11.64,23.61,23.61,0,0,0,2.68,1.67,17.31,17.31,0,0,0,5.78,4.56,11,11,0,0,0,2.61.45,42.58,42.58,0,0,0,25,3.37c-1.63,1.67-3.29,3.32-4.88,5-.45.48-1.41.8-.92,1.8a7.11,7.11,0,0,0,1.88-1c1.63-1.57,3.18-3.23,4.7-4.9.25-.27.25-.77.36-1.17l1.72-.28c-1.53,1.82-3.08,3.63-4.57,5.5-.24.29-.17.82-.25,1.25.45-.1,1-.06,1.31-.33a10.47,10.47,0,0,0,1.76-1.94c1.11-1.63,2.15-3.3,3.21-5l2-.45c-1.72,2.35-3.45,4.7-5.22,7.1a6,6,0,0,0,1.59,0c2.06-.6,4.1-1.28,6.15-1.91A8.68,8.68,0,0,1,115.33,342.22ZM93.83,252.5c.33-.66.7-1.07.61-1.3-.15-.4-.59-.69-.91-1-.3.29-.89.68-.83.87C92.83,251.49,93.28,251.83,93.83,252.5Z" transform="translate(-30.95 -15.27)"/><path class="n" d="M72.16,330.27a23.61,23.61,0,0,1-2.68-1.67A39.13,39.13,0,0,1,60.12,317a42.18,42.18,0,0,1-4.92-15.59,42.85,42.85,0,0,1,1.34-17.22,65.23,65.23,0,0,1,4.61-10.72,6.44,6.44,0,0,0,1.86-.6,15.92,15.92,0,0,0,2.89-2.47,65.8,65.8,0,0,1,11.4-9.81c1.92-1.39,4-2.5,6.08-3.73A25.38,25.38,0,0,1,79,268.42c-2.32,3.09-4.78,6.1-6.85,9.34a37.91,37.91,0,0,0-6.27,18.49c0,.68,0,1.36,0,2a8,8,0,0,0,2,5.45c2.4,2.89,4.15,6.16,4.2,10.07a13,13,0,0,1-1.68,6.78,5.55,5.55,0,0,0-.33,4.94C70.56,327.16,71.41,328.69,72.16,330.27Z" transform="translate(-30.95 -15.27)"/><path class="n" d="M108.36,338.17l-1.72.28-1.14.2a42.58,42.58,0,0,1-25-3.37l1.86-3.67a28.63,28.63,0,0,0,2.85.9,4.74,4.74,0,0,0,1.55-.21c-.14-.48-.28-1-.43-1.44a6,6,0,0,0-.29-.68,16.45,16.45,0,0,0,1.6.53c1.21.29,1.73-.12,1.8-1.36s.12-2.31.2-3.46a2.42,2.42,0,0,1,1.41-2.16c1.87-1,3.65-2.12,5.5-3.13a1.32,1.32,0,0,1,1.09.09,1,1,0,0,1,.41.84c-.17.88-.47,1.74-.76,2.75-.57-.29-1-.46-1.33-.67-1.06-.61-1.94-.18-2,1.05a3,3,0,0,0,.3,1.74c.86,1.24.08,1.92-.73,2.58-1.79,1.46-1.82,1.83-.09,3.5a5.81,5.81,0,0,0,6.8,1.4c2.83-1.21,5.34-2.75,6.8-5.71a4.24,4.24,0,0,1,3.46-2.39,38.17,38.17,0,0,0,16.65-6.26c1.89-1.28,3.27-3.48,4.52-5.49a33.3,33.3,0,0,0,4.53-11.39,50.64,50.64,0,0,1,1.77-5.95,10.61,10.61,0,0,0-.17-7.93l1.35.35,3.4.87.46,4.83c-.21.26-.55.5-.6.78-.23,1.26-.32,2.53-.55,3.78-3.33,18-13.94,30.16-30.17,37.87l-2,.45Z" transform="translate(-30.95 -15.27)"/><path class="o" d="M225,53.7c-.08.09-.23.19-.22.25.52,2.28,1.05,4.55,1.66,7.14L228.17,59a2.68,2.68,0,0,1,.05,1c-1.32,3.75-2.25,7.72-4.09,11.2-4.31,8.13-8.79,16.2-13.72,24-5.43,8.53-11.43,16.69-17.2,25a89.09,89.09,0,0,0-10.28,19.53c-1.51,4-2.86,8-4.3,12a6.11,6.11,0,0,1-.45.83l-4.34-3.4c2.82-2.12,5.68-4.2,7.85-7.47-1.69.54-3,1.61-4.75,1.12A37,37,0,0,0,182.8,132l-3.46-.89c.25-.4.49-.82.75-1.21,2-2.94,4-5.86,5.9-8.82a4.49,4.49,0,0,0,.78-2.13c.1-2.54,0-5.08.06-7.62.87,3,2.66,5.88,1.91,9.44,2.21-1.65,2.66-3.66,1.66-6.55.09-.07.22-.11.28-.2l7-9.42c.75,0,1.51,0,2.27,0a2.1,2.1,0,0,0,1.8-3.38c-.2-.34-.37-.7-.56-1,2.34-2.1,1.7-5,1.9-7.58.15-2,0-4,.3-6,.17.46.33.92.49,1.38.13,1.69.18,3.4.41,5.07.3,2.17,1.2,4.32-.12,6.45,0,0,0,.13.08.2,1.89-.42,3.3-4.09,2.47-6.38L206.41,92l.75.45-.14-.85a15.36,15.36,0,0,0,1.33-1.47c.33-.45.47-1,.8-1.47,1.31-1.76,2.6-3.54,4-5.22A4.2,4.2,0,0,0,214,80c-.41-3.4-.77-6.81-1.13-10.23a7.31,7.31,0,0,1,0-.93v0l1.27,2.3c.05.11.11.22.16.34l.23.47c.26,1.37.23,2.88.84,4.06.88,1.68,1.42,3.23.68,5,0,0,.09.12.33.4A9.9,9.9,0,0,0,217.63,80a4.79,4.79,0,0,0,.34-3.47c1.79-3.19,3.54-6.4,5.4-9.56a8.71,8.71,0,0,0,.72-6.68c-.79-3.45-1.53-6.91-2.29-10.36a3.27,3.27,0,0,1,.1-.66Z" transform="translate(-30.95 -15.27)"/><path class="p" d="M183.34,190.47c1.73,1.17,3.51,2.27,5.13,3.57.36.29.32,1.29.22,1.93a3.19,3.19,0,0,0,1.7,3.45c3.72,2.45,7.38,5,11.11,7.43a5.15,5.15,0,0,0,2.52.58l-7.4-5.34.18-.28c1.68.68,3.34,1.4,5,2s3.69,1.26,5.56,1.81a2.18,2.18,0,0,0,1.25-.14,34.14,34.14,0,0,0,10.84-6.4,70.87,70.87,0,0,0,12.16-13.71,11.81,11.81,0,0,1,1.16-1.19,32.24,32.24,0,0,1-7,14.09,62.48,62.48,0,0,1-10.26,9.51,24.67,24.67,0,0,1-3.19,1.87,1.74,1.74,0,0,0-1.11,1.74c0,2.61-1.27,4.85-2.64,6.95a3.57,3.57,0,0,1-2.19,1c-1.72.28-3.47.37-5.2.54-.76.08-1.06-.29-1.13-1a31.57,31.57,0,0,0-.52-4.26,7.13,7.13,0,0,0-4.22-5.06c-4.95-2.18-9.94-4.29-14.92-6.43-.32-.14-.64-.26-1.07-.42,1.43-2.22,2.71-4.43,4.21-6.48a4,4,0,0,0,.35-4.46C183.68,191.37,183.52,190.92,183.34,190.47Z" transform="translate(-30.95 -15.27)"/><path class="q" d="M181.51,162.37a3.89,3.89,0,0,1-2.21,3.17c-1.22.57-2.44,1.16-3.6,1.85a14.69,14.69,0,0,0-5.2,5.77c-.25.45-.48.91-.73,1.38-3.71-3.83-8.91-4.3-13.33-6.4-1-.5-2.15-.83-3.23-1.23a7.27,7.27,0,0,1,.33-1.5,62,62,0,0,1,3.33-6.86c1.93-3.13,4.15-6.08,6.28-9.09a2.21,2.21,0,0,1,2.85-.73,30.39,30.39,0,0,1,12.29,8.18c1.23,1.33,2.42,2.75,2.57,4.73C180.88,161.9,181.28,162.12,181.51,162.37Z" transform="translate(-30.95 -15.27)"/><path class="r" d="M107.88,324.71a14.41,14.41,0,0,1,.92-1.46c2.44-2.93,5-5.81,7.34-8.79A5.56,5.56,0,0,0,117,312c.43-2.49,1.33-3.71,3.44-4.46a23.18,23.18,0,0,0,14.24-13.43c1.08-2.6.05-4.77-2.93-5.65-.85-.26-2-.13-2.12-1.57a2.9,2.9,0,0,1-.32.52c-.34.27-.71.52-1.06.77a4.68,4.68,0,0,1-.65-1.2c-.22-1.08-.36-2.18-.48-3.29a8.54,8.54,0,0,1,0-1.33l1.34.36a12.66,12.66,0,0,0-3.26-5.5,59.3,59.3,0,0,0-6.13-5.84,13.23,13.23,0,0,0-4.3-1.94,43,43,0,0,0-16.13-2A36.59,36.59,0,0,0,87,270s-.15,0-.51-.12a5.17,5.17,0,0,1,1-.89c1.63-.74,3.27-1.47,4.93-2.13a14,14,0,0,0,7.46-6.21,5.06,5.06,0,0,0,.31-1.11c0-.06.06-.08.11-.06l.38-.36,4.77-5.59a11.7,11.7,0,0,1-.32,5.22c-.34,1.46-1,2.85-1.39,4.29a2.26,2.26,0,0,0,.07,1.73,2.23,2.23,0,0,0,1.68.39,11.46,11.46,0,0,0,2.17-.59,3.79,3.79,0,0,0,4-.07c2-1.31,3.76-2.88,5.63-4.34l2.09,1c-1.15,2.11-2.21,4.11-3.32,6.08-.62,1.1-.48,1.23.54,1.94,3.68,2.58,7.38,5.16,10.9,8a37.81,37.81,0,0,1,4.79,5,6,6,0,0,1,1.57,4.61,1.24,1.24,0,0,0,.37.83,7.34,7.34,0,0,1,2,7.69c-1.19,4.25-2.26,8.54-3.62,12.73a50.19,50.19,0,0,1-2.85,5.92c-1.84,3.78-5.31,5.57-8.95,6.92S113.62,323,110,324.05Zm7.31-6.22a43.9,43.9,0,0,0,12.63-4.42,2,2,0,0,0,.7-.61,16.48,16.48,0,0,0,1.87-9.56c-2.64,2.21-5.19,4.19-8.42,5.12-1.29.38-1.74,1.91-1.67,3.33a4,4,0,0,1-.64,2.55,27.09,27.09,0,0,1-3.52,3C115.84,318.09,115.51,318.28,115.19,318.49Z" transform="translate(-30.95 -15.27)"/><path class="s" d="M181.51,162.37c-.23-.25-.63-.47-.65-.73-.15-2-1.34-3.4-2.57-4.73A30.39,30.39,0,0,0,166,148.73a2.21,2.21,0,0,0-2.85.73c-2.13,3-4.35,6-6.28,9.09a62,62,0,0,0-3.33,6.86,7.27,7.27,0,0,0-.33,1.5l-2.68-.92-10.38-3.42c.8-2.48,1.66-4.9,2.35-7.37a6.3,6.3,0,0,0-.52-4.53c-1-2.11-.49-4.32,1.62-5.31a15.81,15.81,0,0,1,5.47-1.42c5.81-.38,11.3,1.15,16.58,3.42a37.19,37.19,0,0,1,12.52,8.23C180,157.47,181.6,159.52,181.51,162.37Z" transform="translate(-30.95 -15.27)"/><path class="s" d="M187.28,217.54l.19-1.12-1.14.92a5.51,5.51,0,0,0-1-.63q-8.85-3.74-17.73-7.43c-1.3-.54-2.67-.91-4-1.37a10.07,10.07,0,0,1,1.84-5.22,5.14,5.14,0,0,1,3.34-2.11,3,3,0,0,1,1.61.26c3.3,1.46,6.55,3,9.87,4.46,4.62,2,9.29,3.78,13.91,5.75,2.63,1.13,3.79,3.24,4,6.13.26,4.72.75,9.42,1.12,14.14.07.86,0,1.73,0,2.74l-2.61-.46c-.08-.34-.18-.69-.24-1-.71-4.6-1.4-9.21-2.13-13.82-.22-1.37-.73-1.5-2-.85a4.15,4.15,0,0,1-2.12.51A15.58,15.58,0,0,1,187.28,217.54Z" transform="translate(-30.95 -15.27)"/><path class="q" d="M85.17,231.91l.93.27c-.57,1,.45.7.75.87,4,2.24,7.84,4.61,11.91,6.6,6.92,3.36,14,6.48,21,9.67a22.81,22.81,0,0,0,2.58.83l.23.22a49.29,49.29,0,0,0,6.25,12.16,6.15,6.15,0,0,1,.48,1l0,0c-1.69-.8-3.4-1.54-5.05-2.42C115.11,256.3,106,251.51,97,246.44c-4.48-2.53-7.63-6.56-10.21-11A37.88,37.88,0,0,1,85.17,231.91Z" transform="translate(-30.95 -15.27)"/><path class="t" d="M83.38,256.82c-2,1.23-4.16,2.34-6.08,3.73a65.8,65.8,0,0,0-11.4,9.81A15.92,15.92,0,0,1,63,272.83a6.44,6.44,0,0,1-1.86.6A28,28,0,0,1,57.67,271a2.58,2.58,0,0,1-.61-2.11,13.49,13.49,0,0,1,5.44-7.8,57.81,57.81,0,0,1,23-10.54,16.29,16.29,0,0,1,5-.17c1.81.17,2.1,1,1.28,2.63L88,254.71l-1.91.73-.24.15Z" transform="translate(-30.95 -15.27)"/><path class="u" d="M111.77,337.24c16.23-7.71,26.84-19.89,30.17-37.87.23-1.25.32-2.52.55-3.78,0-.28.39-.52.6-.78,1.42,12.84-2.58,24-10.53,33.91A46.3,46.3,0,0,1,121.22,339c-1.89,1.2-3.92,2.18-5.89,3.26a8.68,8.68,0,0,0-1,.19c-2.05.63-4.09,1.31-6.15,1.91a6,6,0,0,1-1.59,0C108.32,341.94,110.05,339.59,111.77,337.24Z" transform="translate(-30.95 -15.27)"/><path class="p" d="M213.4,155.36c.68-.87,1.35-1.74,2.06-2.58s1.46-1.69,2.26-2.47a1.16,1.16,0,0,1,1-.29,1,1,0,0,1,.39,1,6.51,6.51,0,0,1-1.2,2.14c-2.32,2.34-4.73,4.59-7.08,6.9-.26.25-.54.79-.43,1,1.57,3.82,3.2,7.61,4.86,11.51l3.46-.69.12.34-2.66,2.43.07.2a19.33,19.33,0,0,1,2.39-.74,14.41,14.41,0,0,1,2.18,0c-3.16.86-6.24,2.16-9.57,2.14a23.68,23.68,0,0,1-10.59-2.74,2.06,2.06,0,0,0-.12-.57c-1-1.79-2-3.59-3.05-5.36a2.77,2.77,0,0,0-.7-.61c-.34-.86-.46-2-1.08-2.51s-1.72-.31-2.63-.44a1.81,1.81,0,0,1,2.37-1.33c.46.08.93.14,1.4.21l1.91.46-1.47.87c.26.25.42.33.55.29a52.93,52.93,0,0,0,15-8C213.15,156.28,213.22,155.75,213.4,155.36Z" transform="translate(-30.95 -15.27)"/><path class="l" d="M207.66,252.3a3.76,3.76,0,0,1,0,1.33c-1.57,4.09-3.18,8.17-4.8,12.24a4.62,4.62,0,0,1-2.81,2.74,6.1,6.1,0,0,0-2.28,1.72c.53-.2,1.08-.36,1.61-.59a18.59,18.59,0,0,0,7.29-5.7,6.22,6.22,0,0,1,.46-.56c.64-.65,1.35-1.24,2.28-.58a1.55,1.55,0,0,1,.23,2.34c-.75,1.12-1.62,2.16-2.47,3.21a28.65,28.65,0,0,1-2.51,2.87,4.11,4.11,0,0,1-2,1.1,4,4,0,0,0-3.56,2.62,56.11,56.11,0,0,1-2.86,5.58c2-.93,3.72-1.76,5.48-2.62,1-.46,1.9-1,2.85-1.44a2.19,2.19,0,0,1-.85,2.21c-4.94,3.75-10.32,5.83-16.63,4.5a7.36,7.36,0,0,1-.8-.24c-2.32-.8-2.46-1.17-1.2-3.17a12.69,12.69,0,0,0,1.25-2c.86-2.11,2.67-2.66,4.64-3.23q6-1.75,11.82-3.88a17.54,17.54,0,0,0,3.39-2.23l-.3-.53c-4,3.15-8.77,4.32-13.5,5.58l-.14-.15c1-1.68,3-2.1,4.51-3.19a18.38,18.38,0,0,0,6.68-8.28c1.12-2.94,2.54-5.76,3.83-8.64C207.43,253,207.53,252.63,207.66,252.3Z" transform="translate(-30.95 -15.27)"/><path class="v" d="M191.22,158.1c2.77,2.17,5.4,1.67,7.9-.39a52.17,52.17,0,0,0,10.75-11.78,45.14,45.14,0,0,0,6.57-16.8c.34-1.83.33-3.72.65-5.68a10.61,10.61,0,0,1,.55,1.88,47,47,0,0,1-.82,15.82c-.23,1-.48,2-.68,3-.06.3-.13.71,0,.91.69.94.28,1.62-.3,2.42-2.82,3.92-5.75,7.75-9.62,10.72a19.93,19.93,0,0,1-9.69,3.9,1.43,1.43,0,0,1-.89-.17c-1-.64-1.91-1.31-2.84-2-.62-.46-1.21-1-1.81-1.44Z" transform="translate(-30.95 -15.27)"/><path class="l" d="M136.19,286.61c-.06-.05-.17-.1-.17-.15.12-3.93-2.34-6.48-4.86-9a62.11,62.11,0,0,0-12.64-9.39,3.81,3.81,0,0,1-.35-.28c1-1.89,1.93-3.79,3-5.86,2.5,1.31,5.45,2.1,7.29,4a69.06,69.06,0,0,1,12.39,17.83,4.59,4.59,0,0,1,.18.56,7.58,7.58,0,0,1,0,.83c-.21,1.61-.34,1.74-1.94,1.67C138.09,286.8,137.14,286.69,136.19,286.61Z" transform="translate(-30.95 -15.27)"/><path class="q" d="M187.28,217.54a15.58,15.58,0,0,0,2.83.86,4.15,4.15,0,0,0,2.12-.51c1.3-.65,1.81-.52,2,.85.73,4.61,1.42,9.22,2.13,13.82.06.35.16.7.24,1l-9.08.14c-.16-1.74-.32-3.67-.52-5.59s-.45-4-.67-6A7.62,7.62,0,0,1,187.28,217.54Z" transform="translate(-30.95 -15.27)"/><path class="v" d="M190.24,296.9c.36,3.11-.33,4.2-3.38,4.54a61.73,61.73,0,0,1-6.7.05c1-.85,1.2-2.2,2.66-2.31.21,0,.61-.88.5-1.2a27.85,27.85,0,0,1-1.26-9c0-.87-.29-1.47-1.3-1.5a5.71,5.71,0,0,1-1-.23c1-1.29,2-2.53,3.06-3.83a9.76,9.76,0,0,0,7.6,2.44,79.63,79.63,0,0,0,8-1.22l-.27.51-.27.51h0l-1,.69h0l-.49.24h0a8.89,8.89,0,0,0-1.15.59,21,21,0,0,1-8.08,3.38,25.89,25.89,0,0,1-3.26.19c.45,2.35.84,4.57,1.34,6.76a1.51,1.51,0,0,0,1,.81A3.66,3.66,0,0,0,190.24,296.9Z" transform="translate(-30.95 -15.27)"/><path class="q" d="M163.59,207.91c1.35.46,2.72.83,4,1.37q8.88,3.67,17.73,7.43a5.51,5.51,0,0,1,1,.63l-.92,4.45c-.95-1.5.38-2.77.39-4.12l-.51-.13c-.38,1.14-.77,2.27-1.16,3.41l-.23.08c0-.72-.07-1.45-.11-2.17l-.29-.06-.52,1.64c-.33-.13-.66-.25-1-.39-4.91-2.17-9.77-4.5-14.77-6.46-2.37-.93-3.48-2.3-3.5-4.74A5.11,5.11,0,0,0,163.59,207.91Z" transform="translate(-30.95 -15.27)"/><path class="q" d="M178.68,289.1c1.15-.05,1.36.5,1.43,1.5.14,2.06.48,4.1.67,6.15a2.08,2.08,0,0,1-.32,1.34c-1,1.42-2.14,2.77-3.2,4.16a1.62,1.62,0,0,1-1.91.59c-2.56-.69-4.75-3.85-5.2-6a1.47,1.47,0,0,1,.51-1.09q3.28-3.13,6.64-6.17A4.2,4.2,0,0,1,178.68,289.1Z" transform="translate(-30.95 -15.27)"/><path class="q" d="M156.83,231.21a28.65,28.65,0,0,1,.28-3.08c1-4.84,2-9.68,3-14.52.31-1.55.51-3.12.84-4.66a6.69,6.69,0,0,1,.69-1.49c.1,2.38.37,4.74,2.29,6.44a11.31,11.31,0,0,0,2.23,1.27c.41.22.84.4,1.42.67-.83,1.2-1.58,2.26-2.31,3.34l-8,11.63A2.72,2.72,0,0,1,156.83,231.21Z" transform="translate(-30.95 -15.27)"/><path class="l" d="M201.75,176l-.58.31-1.8-1.09-.57.66a7.48,7.48,0,0,1,1.23.53c5.35,3.49,11.35,4.89,17.59,5.54.09,0,.22-.4.33-.62,2.15-.83,4.28-1.72,6.46-2.47a5,5,0,0,1,2.4-.17c.91.15,1,.65.27,1.3a1.74,1.74,0,0,1-.37.3q-3.89,1.86-7.77,3.69a6.84,6.84,0,0,1-5.31.08,73.29,73.29,0,0,1-13.48-5.78c-.34-.2-.69-.4-1-.63-1.21-.86-1.32-1.29-.72-2.48-.57-.8-1.1-1.56-1.64-2.31l1.05-1.8c.24.61.48.91.41,1.08-.46,1.17.31,1.39,1.13,1.76a34.87,34.87,0,0,0,9.37,2.94,19.4,19.4,0,0,0,8.33-.86c1.23-.37,2.45-.76,3.72-1-.88,1.12-1.81,2.06-3.39,2.06-2,0-4.06.17-6.08.22a25.13,25.13,0,0,1-8.63-1.47C202.43,175.68,202.07,175.91,201.75,176Z" transform="translate(-30.95 -15.27)"/><path class="l" d="M208.64,219.89c1.05,3.21-.38,6.13-2.22,8.82a64.38,64.38,0,0,1-4.7,5.5l-.44-.21c-.36-4.39-.71-8.79-1.06-13.05Z" transform="translate(-30.95 -15.27)"/><path class="w" d="M213.34,135.48a9.52,9.52,0,0,0-1.75-2c-1.65-1-3.42-1.91-5.23-2.89.35-.83.76-1.78,1.25-2.91l6.87,3.53.16-.31c-1.9-1.71-4.33-2.54-6.68-3.73.65-1,1.22-2,1.9-2.82a1.14,1.14,0,0,1,1.06-.11c1.59.78,3.14,1.65,4.93,2.33-.23-.27-.41-.64-.7-.8-1.46-.86-3-1.65-4.56-2.54.53-.81,1-1.66,1.63-2.42a1,1,0,0,1,1-.21,18.48,18.48,0,0,1,2.45,1.47,1.35,1.35,0,0,1,.4.91,30.72,30.72,0,0,1-2.12,12.75Z" transform="translate(-30.95 -15.27)"/><path class="x" d="M160.41,143.09c.08-1.34.17-2.69.26-4.06.1,0,.22,0,.31,0,2.57,1.34,2.87,1.29,4.53-1.07.25-.37.13-1,.19-1.49h0c2.49,0,3.78-1.74,5-3.35,0,1.9,0,3.86,0,5.82,0,.56,0,1.12,0,1.68.09,1.7.32,1.91,2.2,2.08l-4.42,3.39Z" transform="translate(-30.95 -15.27)"/><path class="n" d="M88,254.71,91.76,253l5.08-.42,2.23,5.28a14.94,14.94,0,0,1-8.86,4.87A20.2,20.2,0,0,0,88,254.71Z" transform="translate(-30.95 -15.27)"/><path class="w" d="M190.24,296.9a3.66,3.66,0,0,1-4,1.44,1.51,1.51,0,0,1-1-.81c-.5-2.19-.89-4.41-1.34-6.76a25.89,25.89,0,0,0,3.26-.19,21,21,0,0,0,8.08-3.38,8.89,8.89,0,0,1,1.15-.59,14.33,14.33,0,0,0-.86,1.23c-.44.82-1.36,1.58-.37,2.61l-.45,1.91a10.93,10.93,0,0,0-1.28.17c-2.18.52-2.78,1.18-2.78,3Z" transform="translate(-30.95 -15.27)"/><path class="o" d="M234.48,39.8c-.23.91-.52,1.81-.68,2.73-.66,4.06-1.47,8.07-3.8,11.59a2.29,2.29,0,0,1-2.25,1.27c.75-3.14,1.54-6.27,2.25-9.41a34.83,34.83,0,0,0,.21-16.49,3.78,3.78,0,0,1,0-.51C231.54,30.47,234,36.58,234.48,39.8Z" transform="translate(-30.95 -15.27)"/><path class="v" d="M144.33,288.34c-4.2-7.76-8.49-15.4-14.37-21.88,1.07-.16,2-.35,3-.42a1.24,1.24,0,0,1,.85.46,55.19,55.19,0,0,1,10,17.58A6.92,6.92,0,0,1,144.33,288.34Z" transform="translate(-30.95 -15.27)"/><path class="s" d="M92.05,178.92c1.09-2.29,4.64-4.07,7-3.53,1.45.33,2.85.88,4.41,1.38-1.49,2.53-2.85,4.86-4.21,7.18C96.57,182.69,93.69,181.69,92.05,178.92Z" transform="translate(-30.95 -15.27)"/><path class="q" d="M92.05,178.92c1.64,2.77,4.52,3.77,7.21,5l-2.39,4.45a6.89,6.89,0,0,1-4.24-3.5c-.47,1.27-.12,1.66,3.84,4.39l-2.12,4.29a6.44,6.44,0,0,1-.4-.82c-.92-2.87-2-5.71-2.67-8.63C90.87,182.41,90.69,180.49,92.05,178.92Z" transform="translate(-30.95 -15.27)"/><path class="l" d="M106,263.09c.68-2.64,1.36-5.27,2.07-8L115,258.9a31.83,31.83,0,0,1-8.89,4.33A.53.53,0,0,0,106,263.09Z" transform="translate(-30.95 -15.27)"/><path class="l" d="M194.37,270.67c1.65-2.43,3.31-4.85,4.95-7.29l6.36-9.5a1.69,1.69,0,0,1,.85-.73c-.2.57-.35,1.17-.6,1.72q-2.31,5-4.66,9.89c-1,2.12-3,3.24-4.72,4.66a23.26,23.26,0,0,1-2.07,1.38Z" transform="translate(-30.95 -15.27)"/><path class="v" d="M99.07,257.83l-2.23-5.28-.72-3.32,5.07,2.15.29.18v0l.93,2.68Z" transform="translate(-30.95 -15.27)"/><path class="v" d="M211.34,142l-2,3.52c-1.53-.34-2.83-.61-4.13-.92-.9-.22-1.79-.5-2.67-.75l2.5-4.41c1.5.81,3,1.66,4.6,2.46a2.87,2.87,0,0,0,1.07.08Z" transform="translate(-30.95 -15.27)"/><path class="y" d="M102.1,321.06c.41-3,1.17-6,4.16-7.31,1.34-.57,3-1.32,4.84-.79-.45.79-.79,1.41-1.14,2a2.74,2.74,0,0,1-2,1.44c-2.37.5-3.92,2.31-5.42,4.08C102.38,320.69,102.24,320.88,102.1,321.06Z" transform="translate(-30.95 -15.27)"/><path class="y" d="M96.16,328.94c0-.08,0-.12.1-.13.31-.13.72-.19.9-.42a24,24,0,0,0,2.35-3.26,5.33,5.33,0,0,0,.56-4.23l-1.64-2.25-.34.14.76-1.29.92,1.12,1.36-.39L100,315.66l.17-.14c.53.78,1.08,1.54,1.58,2.34a1.16,1.16,0,0,1,0,.74c-.23,1.08-.52,2.15-.73,3.23-.1.47-.29,1.13.65,1a.8.8,0,0,0,.15.17c0,.61-.31,1.31-.1,1.82a1.55,1.55,0,0,1-.64,2.1c-1.22.9-2.38,1.87-3.64,2.7-.37.25-1,.13-1.49.17,0-.08,0-.17,0-.26v0Z" transform="translate(-30.95 -15.27)"/><path class="v" d="M196.41,156.13l.88.17.06.3-2.58,1.15,0,.34a5,5,0,0,0,1.8-.43,49.48,49.48,0,0,0,5.64-4.53,77.24,77.24,0,0,0,5-5.92,6.35,6.35,0,0,1,1-1.24c0,.36.15.82,0,1.05a47.85,47.85,0,0,1-10.46,10.75c-2.44,1.76-4.17,1.31-6.48-.6l1.42-2.51A3,3,0,0,0,196.41,156.13Z" transform="translate(-30.95 -15.27)"/><path class="w" d="M205.68,148.23a15.53,15.53,0,0,1-1.63,2,1.73,1.73,0,0,1-1.38.34c-1.87-.47-3.71-1.07-5.56-1.63.94-1.84,1.51-2.1,3.46-1.69C202.22,147.58,203.87,147.88,205.68,148.23Z" transform="translate(-30.95 -15.27)"/><path class="y" d="M109.1,317.07c-1.11,1.71-2.25,3.4-3.33,5.14s-1,1.64-2.74,1a6.92,6.92,0,0,0-1.22-.22.8.8,0,0,1-.15-.17,59.77,59.77,0,0,1,4.45-4.68c.75-.65,2-.72,3-1.05Z" transform="translate(-30.95 -15.27)"/><path class="w" d="M195,151.6c.57-1.8,1.35-2.24,3-1.74s3.3,1,5,1.44c-1.18,2-1.85,2.32-4,1.62-1.34-.44-2.66-.9-4-1.35Z" transform="translate(-30.95 -15.27)"/><path class="r" d="M206.7,93.3c.83,2.29-.58,6-2.47,6.38,0-.07-.1-.16-.08-.2,1.32-2.13.42-4.28.12-6.45-.23-1.67-.28-3.38-.41-5.07.67,1.63,1.36,3.25,2,4.89C206,93.27,206.09,93.75,206.7,93.3Z" transform="translate(-30.95 -15.27)"/><path class="v" d="M213.34,135.48l.58.28-.69,1.93a24.53,24.53,0,0,0-7.51-4.1c.09-.63.18-1.25.28-2a14.28,14.28,0,0,1,6,3.1A9,9,0,0,0,213.34,135.48Z" transform="translate(-30.95 -15.27)"/><path class="v" d="M205.5,137.67c.17-.85.34-1.71.54-2.77,1.88,1.27,3.7,2.44,5.44,3.7.52.38.66.33.77-.23l.65.12c-.38.87-.76,1.74-1.13,2.61-.12-.2-.2-.48-.37-.57C209.44,139.56,207.47,138.62,205.5,137.67Z" transform="translate(-30.95 -15.27)"/><path class="w" d="M195,151.57c.28.27.51.64.84.77,1.5.61,3,1.16,4.52,1.72-1.76,2-1.75,2.06-4.12,1.19-1-.36-1.95-.84-3.2-1.38l2-2.27Z" transform="translate(-30.95 -15.27)"/><path class="v" d="M136.19,286.61c.95.08,1.9.19,2.85.23,1.6.07,1.73-.06,1.94-1.67a7.58,7.58,0,0,0,0-.83l1.62,5.64-3.4-.87-1.35-.35h0l-.32-.44Z" transform="translate(-30.95 -15.27)"/><path class="w" d="M207.3,145.9c-1,1.68-1,1.7-3,1.36-1.58-.27-3.16-.6-4.91-.94.66-.7,1.17-1.29,1.73-1.83a.86.86,0,0,1,.69-.22C203.67,144.79,205.5,145.35,207.3,145.9Z" transform="translate(-30.95 -15.27)"/><path class="r" d="M218,76.51a4.79,4.79,0,0,1-.34,3.47,9.9,9.9,0,0,1-1.19,1.48c-.24-.28-.34-.36-.33-.4.74-1.82.2-3.37-.68-5-.61-1.18-.58-2.69-.84-4.06.64,1.13,1.22,2.3,2,3.35C216.89,75.78,217,76.74,218,76.51Z" transform="translate(-30.95 -15.27)"/><path class="o" d="M117.3,260.18c-1.87,1.46-3.66,3-5.63,4.34a3.79,3.79,0,0,1-4,.07c2.79-1.41,5.57-2.82,8.37-4.2A4.13,4.13,0,0,1,117.3,260.18Z" transform="translate(-30.95 -15.27)"/><path class="j" d="M143.9,259.6l2.25-4.64c.11-.24.24-.48.37-.72l.25-.24.2-.28v0l.25-.29.71-.66,2.21-.23Q147,256.08,143.9,259.6Z" transform="translate(-30.95 -15.27)"/><path class="w" d="M205.5,137.67c2,1,3.94,1.89,5.9,2.86.17.09.25.37.37.57-.15.3-.29.61-.43.92l-.6,0-5.59-3.36Z" transform="translate(-30.95 -15.27)"/><path class="w" d="M212.9,138.49l-.65-.12c-1.93-1.27-3.86-2.53-5.77-3.83a4.23,4.23,0,0,1-.76-.95,24.53,24.53,0,0,1,7.51,4.1Z" transform="translate(-30.95 -15.27)"/><path class="i" d="M100.07,320.9a5.33,5.33,0,0,1-.56,4.23,24,24,0,0,1-2.35,3.26c-.18.23-.59.29-.9.42.81-1.08.42-2.06-.44-3,2.8,0,3.3-.45,4-3.38C99.92,321.92,100,321.41,100.07,320.9Z" transform="translate(-30.95 -15.27)"/><path class="k" d="M89.7,264.61a1.59,1.59,0,0,1-2.18.5c-.28-.12-.31-1-.33-1.57,0-1.27,0-2.53,0-3.8,0-.51,0-1,0-1.53.38,1.45.82,2.89,1.11,4.36C88.42,263.51,88.63,264.34,89.7,264.61Z" transform="translate(-30.95 -15.27)"/><path class="v" d="M190.65,295.52c0-1.81.6-2.47,2.78-3a10.93,10.93,0,0,1,1.28-.17,1.9,1.9,0,0,1-1.82,2.22A9.44,9.44,0,0,0,190.65,295.52Z" transform="translate(-30.95 -15.27)"/><path class="k" d="M97.57,315.87a21.84,21.84,0,0,1-.42-3.58c.07-1.42,3.1-2.6,4.53-1.87-.6.27-1.23.52-1.82.82a3.33,3.33,0,0,0-2,3.42A4.47,4.47,0,0,1,97.57,315.87Z" transform="translate(-30.95 -15.27)"/><path class="r" d="M86.54,328.37c.17-1.28.33-2.55.51-3.82s.49-1.3,1.4-.78l-.93,5Z" transform="translate(-30.95 -15.27)"/><path class="j" d="M196.81,166.94a2.77,2.77,0,0,1,.7.61c1,1.77,2,3.57,3.05,5.36a2.06,2.06,0,0,1,.12.57l-1.2-.47C198.52,170.83,197.67,168.88,196.81,166.94Z" transform="translate(-30.95 -15.27)"/><path class="p" d="M221.85,174.84c.59,1.07.38,2.18-.7,2.53a14.33,14.33,0,0,1-3,.33A5.44,5.44,0,0,0,221.85,174.84Z" transform="translate(-30.95 -15.27)"/><path class="v" d="M195.16,290.45c-1-1-.07-1.79.37-2.61a14.33,14.33,0,0,1,.86-1.23h0l.49-.24h0l.66,0c-.55.85-1.12,1.68-1.64,2.55A14.53,14.53,0,0,0,195.16,290.45Z" transform="translate(-30.95 -15.27)"/><path class="w" d="M196.41,156.13a3,3,0,0,1-3.65-1.47c.69.25,1.39.48,2.07.75S195.88,155.89,196.41,156.13Z" transform="translate(-30.95 -15.27)"/><path class="l" d="M102.4,254.22l-.93-2.68,2.26,1Z" transform="translate(-30.95 -15.27)"/><path class="v" d="M155.15,139.09c0,.95-.05,1.9-.07,2.86-.21-.2-.61-.44-.58-.59A22.57,22.57,0,0,1,155.15,139.09Z" transform="translate(-30.95 -15.27)"/><path class="r" d="M200.73,99.77l-.51-.51,1.78-2,.29.19Z" transform="translate(-30.95 -15.27)"/><path class="y" d="M100.6,313l.77,2.66-.24.08-.84-2.62Z" transform="translate(-30.95 -15.27)"/><path class="w" d="M197.52,286.35l-.66,0,1-.69Z" transform="translate(-30.95 -15.27)"/><path class="q" d="M161.63,206.74l.19-.49Z" transform="translate(-30.95 -15.27)"/><path class="p" d="M217.73,177.76l-1.11.1Z" transform="translate(-30.95 -15.27)"/><path class="q" d="M161.9,204.87l.41-.54Z" transform="translate(-30.95 -15.27)"/><path class="y" d="M100,315.66l-.21-.58.15-.07.23.51Z" transform="translate(-30.95 -15.27)"/><path class="l" d="M192.41,273.53l-.41.1,0-.11.3-.14Z" transform="translate(-30.95 -15.27)"/><path class="n" d="M137.56,288.33l.32.44Z" transform="translate(-30.95 -15.27)"/><path class="y" d="M101.67,316.35l.19.33-.1.06-.08-.4Z" transform="translate(-30.95 -15.27)"/><path class="w" d="M197.85,285.69l.27-.51Z" transform="translate(-30.95 -15.27)"/><path class="q" d="M129.26,263.57l.31.11-.06.08a2.46,2.46,0,0,1-.27-.17Z" transform="translate(-30.95 -15.27)"/><path class="i" d="M96.16,328.94l-.27.6Z" transform="translate(-30.95 -15.27)"/><path class="l" d="M147.21,253.45l-.25.29Z" transform="translate(-30.95 -15.27)"/><path class="o" d="M212.94,68.82l-.12-.08s.06,0,.07,0,0,.06,0,.09Z" transform="translate(-30.95 -15.27)"/><path class="l" d="M147,253.72l-.2.28Z" transform="translate(-30.95 -15.27)"/><path class="r" d="M214.36,71.48c-.05-.12-.11-.23-.16-.34C214.25,71.25,214.31,71.36,214.36,71.48Z" transform="translate(-30.95 -15.27)"/><path class="y" d="M101.68,316.34l-.18,0,.07-.13.1.19Z" transform="translate(-30.95 -15.27)"/><path class="l" d="M101.48,251.56l-.29-.18Z" transform="translate(-30.95 -15.27)"/><path class="i" d="M100.71,259.14l-.38.36Z" transform="translate(-30.95 -15.27)"/><path class="y" d="M109.12,317.08l.07-.14s0,.06,0,.07l-.09.06Z" transform="translate(-30.95 -15.27)"/><path class="l" d="M194.48,270.8l-.2.13.09-.26Z" transform="translate(-30.95 -15.27)"/><path class="o" d="M221.69,49.22s.06.05.06.08,0,.06-.07.08-.06-.06-.06-.08S221.66,49.24,221.69,49.22Z" transform="translate(-30.95 -15.27)"/><path class="i" d="M95.89,329.51c0,.09,0,.18,0,.26a.31.31,0,0,1-.2.09l-.18-.21Z" transform="translate(-30.95 -15.27)"/><path class="l" d="M106.09,263.23h-.25l.13-.13A.53.53,0,0,1,106.09,263.23Z" transform="translate(-30.95 -15.27)"/><path class="a" d="M186.83,111.3c0,2.54,0,5.08-.06,7.62a4.49,4.49,0,0,1-.78,2.13c-1.93,3-3.93,5.88-5.9,8.82-.26.39-.5.81-.75,1.21l-.58-.32q3.5-5.25,7-10.51a1.92,1.92,0,0,0,.4-1.08c-.08-1.16-.26-2.31-.43-3.63-.94,1.08-1.81,2-2.61,3-2.42,3-4.81,6-7.21,9.07l-1.24-2.44,1.89-2.55-2.44-.77v-.74l3,1c2.05-2.82,1.55-6,1-9.1.08-1,.15-2,.22-2.92a7.45,7.45,0,0,1,3.45,6.32c.78-.89,1.3-1.59,1.92-2.19a5.17,5.17,0,0,0,1.6-3.45,29.9,29.9,0,0,1,.91-4.28c.07-.29.36-.68.6-.72s.57.3.72.56c.42.67.75,1.39,1.17,2.21l4.27-4.91,2.87.7c-1.79,2-3.57,4-5.36,5.94-1.37,1.52-1.37,1.52-.48,3.31.05.09,0,.23,0,.35-.32-.2-.79-.33-1-.63-.66-1.15-1.22-2.35-1.87-3.63Zm-7.76,8.1c1.13-1.28.92-4.52,0-5.5Z" transform="translate(-30.95 -15.27)"/><path class="o" d="M175.88,127.6c2.4-3,4.79-6.06,7.21-9.07.8-1,1.67-1.91,2.61-3,.17,1.32.35,2.47.43,3.63a1.92,1.92,0,0,1-.4,1.08q-3.47,5.27-7,10.51A5.35,5.35,0,0,1,175.88,127.6Z" transform="translate(-30.95 -15.27)"/><path class="w" d="M172.7,114.89l-6.23-1.24c.37-2.79,1.88-4.49,4.83-4.05.86.13,1.69.42,2.54.63Z" transform="translate(-30.95 -15.27)"/><path class="w" d="M169.56,120l-4.4-.61c.25-1.28.52-2.79.88-4.27,0-.2.55-.45.8-.41,1.86.27,3.72.61,5.58.93Q171,117.77,169.56,120Z" transform="translate(-30.95 -15.27)"/><path class="w" d="M178,113c.6,3.14,1.1,6.28-1,9.1l-3-1,.78-4.81,2.64,1.09.19-.42-2.48-1.38c.55-1.6,1.84-2.42,2.64-1.64Z" transform="translate(-30.95 -15.27)"/><path class="v" d="M164.53,121.84c0-1.42,1-1.72,2.12-1.65.81,0,1.61.24,2.42.36l-1.92,1.78Z" transform="translate(-30.95 -15.27)"/><path class="w" d="M164.53,121.84l2.62.49c-1.06.62.2,1.27,0,1.9L164,124Z" transform="translate(-30.95 -15.27)"/><path class="v" d="M174.09,121.84l2.44.77-1.89,2.55C174.45,124.05,174.27,122.94,174.09,121.84Z" transform="translate(-30.95 -15.27)"/><path class="v" d="M164,124l3.13.23c0,.34,0,.67-.05,1l-3.35-.42Z" transform="translate(-30.95 -15.27)"/><path class="v" d="M163.31,125.81l3.31.11C165.52,127,164.43,127,163.31,125.81Z" transform="translate(-30.95 -15.27)"/><path class="e" d="M175.21,115.58l2.48,1.38-.19.42-2.64-1.09Z" transform="translate(-30.95 -15.27)"/><path class="x" d="M165.7,136.47l-.07-.06.05.07Z" transform="translate(-30.95 -15.27)"/><path class="o" d="M189.89,113.92c0-.12,0-.26,0-.35-.89-1.79-.89-1.79.48-3.31,1.79-2,3.57-4,5.36-5.94l1.21.06c-1,1.26-1.92,2.51-2.83,3.8-1.35,1.9-2.65,3.82-4,5.74Z" transform="translate(-30.95 -15.27)"/><path class="e" d="M190.13,113.92c1.32-1.92,2.62-3.84,4-5.74.91-1.29,1.88-2.54,2.83-3.8l.73.19-7,9.42c-.06.09-.19.13-.28.2Z" transform="translate(-30.95 -15.27)"/><path class="z" d="M191.15,90.86l.07.16L191,91Z" transform="translate(-30.95 -15.27)"/><path class="g" d="M34.43,232.46c0-.52,0-1,0-1.55s.28-1.22.41-1.82c1.66-.58,2.41-.34,3.09,1.3a16.56,16.56,0,0,1,.68,2.94,3.15,3.15,0,0,0-.44,1c-.28,3.59-.52,7.18-.78,10.77-1.38-1-1.3-2.66-1.61-4.07-.48-2.23-.69-4.51-1-6.77a1.47,1.47,0,0,0-.2-.42C34.51,233.38,34.47,232.92,34.43,232.46Z" transform="translate(-30.95 -15.27)"/><path class="aa" d="M37.38,245.1c.26-3.59.5-7.18.78-10.77a3.15,3.15,0,0,1,.44-1v17.49C37.6,250.2,37.56,250,37.38,245.1Z" transform="translate(-30.95 -15.27)"/><path class="aa" d="M34.83,229.09c-.13.6-.27,1.21-.41,1.82-.75.35-1.52.64-2.14-.2a3.19,3.19,0,0,1,.45-3C33.67,226.94,34.46,227.46,34.83,229.09Z" transform="translate(-30.95 -15.27)"/><path class="aa" d="M34.43,232.46c0,.46.08.92.11,1.38-.74.8-1.75,1-2.25.45a1.37,1.37,0,0,1,.12-2C33.14,231.51,33.79,232.09,34.43,232.46Z" transform="translate(-30.95 -15.27)"/><path class="g" d="M51.74,150.42l.09-.47c1.24-.93,1.34-2.27,1.34-3.65,1.3-.39,2.39.44,2.43,2a25,25,0,0,1-.38,3.19c0,.43,0,.87-.07,1.31-.24.29-.61.55-.69.89-.68,2.63-1.31,5.28-2,7.92-.87.09-1-.46-1-1.12.08-2.37.17-4.74.24-7.11,0-.63,0-1.26-.07-1.89Z" transform="translate(-30.95 -15.27)"/><path class="aa" d="M52.51,161.65c.64-2.64,1.27-5.29,2-7.92.08-.34.45-.6.69-.89A81.61,81.61,0,0,1,51.89,166l-.36-.07c.17-.7.34-1.4.5-2.11S52.35,162.38,52.51,161.65Z" transform="translate(-30.95 -15.27)"/><path class="aa" d="M53.17,146.3c0,1.38-.1,2.72-1.34,3.65-1.36-.18-1.66-.64-1.21-1.9a9.05,9.05,0,0,1,.59-1.31C51.77,145.69,52.15,145.61,53.17,146.3Z" transform="translate(-30.95 -15.27)"/><path class="aa" d="M51.74,150.42l0,1.11a7.61,7.61,0,0,1-1.35-.12,1.6,1.6,0,0,1-.06-.78A11.35,11.35,0,0,1,51.74,150.42Z" transform="translate(-30.95 -15.27)"/><path class="aa" d="M48.93,222.58c0,1.09,0,2.08-1.18,2.7-.36.18-.39,1-.57,1.57l-1.39-.12c.05-.49.12-1,.17-1.48,0-.28.06-.56.1-.83a5.31,5.31,0,0,1,.32-1.72,2,2,0,0,1,1.24-1C48,221.65,48.49,222.25,48.93,222.58Z" transform="translate(-30.95 -15.27)"/><path class="aa" d="M48.67,231.27c-.08-.16-.26-.37-.21-.49.45-1.2.94-2.4,1.42-3.59,0,0,0-.05.07-.08l.16.26Z" transform="translate(-30.95 -15.27)"/><path class="ab" d="M164.87,174.32c-1.26,1.67-2.62,3.27-3.77,5-4.55,7-9.36,13.79-13.45,21-5.29,9.32-10.09,18.93-14.9,28.52-3.1,6.16-5.84,12.49-8.73,18.75a6.39,6.39,0,0,0-.27,1c-.8-.24-.83-.25-.44-1.18,1-2.28,1.85-4.58,2.92-6.81,4.27-8.87,8.48-17.79,12.94-26.56a244.08,244.08,0,0,1,17.6-30c2.25-3.18,4.63-6.27,7-9.39a3.6,3.6,0,0,1,.95-.64Z" transform="translate(-30.95 -15.27)"/><path class="ab" d="M122.3,250.15a22.81,22.81,0,0,1-2.58-.83c-7-3.19-14-6.31-21-9.67-4.07-2-8-4.36-11.91-6.6-.3-.17-1.32.1-.75-.87L89,233.65c6.74,3.34,13.45,6.74,20.23,10,4,2,8.21,3.69,12.29,5.57C121.88,249.38,122.06,249.84,122.3,250.15Z" transform="translate(-30.95 -15.27)"/><path class="ac" d="M95.83,305.55l-1.77,0-.6-1.14a73,73,0,0,1-3.85-7.45,12.8,12.8,0,0,1-.43-9.43c.13-.34.32-.78.61-.91,3.14-1.44,6.3-2.84,9.9-2.13a12.68,12.68,0,0,1,7.47,3.89c2,2.25,1.59,6.45-.25,8.14a55.79,55.79,0,0,1-5.75,4.21,1.16,1.16,0,0,1-1,.05c-2.11-1.25-4.18-2.55-6.27-3.83l-1.6-1a23.31,23.31,0,0,0,4.56,8.2Zm-.74-10.95a4.44,4.44,0,0,0,1.52-.71,26.19,26.19,0,0,0,2.31-2.71,1.85,1.85,0,0,0,0-2.6,2.59,2.59,0,0,0-3.42-.66,31.9,31.9,0,0,0-2.52,2c-1.16,1-1.49,2.07-1,3.17S93.65,294.41,95.09,294.6Z" transform="translate(-30.95 -15.27)"/><path class="a" d="M95.83,305.55l1-1.4a23.31,23.31,0,0,1-4.56-8.2l1.6,1c2.09,1.28,4.16,2.58,6.27,3.83a1.16,1.16,0,0,0,1-.05,55.79,55.79,0,0,0,5.75-4.21c1.84-1.69,2.23-5.89.25-8.14a12.68,12.68,0,0,0-7.47-3.89c-3.6-.71-6.76.69-9.9,2.13-.29.13-.48.57-.61.91a12.8,12.8,0,0,0,.43,9.43,73,73,0,0,0,3.85,7.45l.6,1.14c-.75,1.12-1.16.05-1.45-.33a35.84,35.84,0,0,1-5.36-8.74c-.82-3.08-1.43-6.15-.07-9.24.06-.1.12-.2.17-.3L87,287l-3.5.29c.09-.15.15-.38.28-.42,3.5-1.14,7-2.34,10.53-3.34a14.91,14.91,0,0,1,12.57,1.95l.6.38a29.69,29.69,0,0,1,2.59,4.35c1.24,3.12.52,4.61-2.18,6.59-3.81,2.79-7.5,5.75-11.23,8.63Z" transform="translate(-30.95 -15.27)"/><path class="r" d="M96.63,305.44c3.73-2.88,7.42-5.84,11.23-8.63,2.7-2,3.42-3.47,2.18-6.59a29.69,29.69,0,0,0-2.59-4.35l5.24,2.77,1.57.78a15.85,15.85,0,0,0-1.05,2.07c-.62,1.72-1.07,3.5-1.73,5.2a12.77,12.77,0,0,1-4.09,5.47c-.69.54-1.25,1.24-1.9,1.82a6.41,6.41,0,0,1-1,.6c.22-.44.43-.87.64-1.31l.15-.31.11-.15-.15.1-.27.21c-1.11,1-2.2,2-3.31,3.05a2.66,2.66,0,0,1-3.06.53,5.49,5.49,0,0,0-1.53-.18Z" transform="translate(-30.95 -15.27)"/><path class="r" d="M87.18,287.22c-1.36,3.09-.75,6.16.07,9.24a3.31,3.31,0,0,1-1.11-.39,9.39,9.39,0,0,0-4.34-1.79c-1.63-.38-2.91-1.11-3.33-3a19,19,0,0,0-1.23-3c-.48-1.16-.35-1.37.93-1.45-.23-.93-.5-1.83-.66-2.76,0-.25.28-.57.44-.85l.71.66c-.57-.19-.82-.11-.57.59.45,1.29.8,2.63,1.26,3.92a4,4,0,0,0,3.6,1.92c.1,0,.17-.21.3-.41l-1.53-.69c1.65.28,1.45-1.07,1.75-2L87,287Zm-8.29,2,.09.32.09-.06c0-.09-.12-.18-.18-.27l-.21-1-.32.13Zm3.18,2.32.2-.59-2.3-.81-.2.54Zm-3.81-4.07,0,.09h.13a.13.13,0,0,0,0-.09S78.28,287.5,78.26,287.5Z" transform="translate(-30.95 -15.27)"/><path class="ab" d="M76.91,318.73l.09-.45.46-1.2h0c1.1-.15,1.56.38,1.42,1.43-.11.89-.3,1.77-.45,2.65l-.25.48-.24.47-.23.5-.8.24Z" transform="translate(-30.95 -15.27)"/><path class="e" d="M105.15,303.27c-.21.44-.42.87-.64,1.31a29.75,29.75,0,0,1-2.75,2.53,3.77,3.77,0,0,1-4.67-.59,5.49,5.49,0,0,1,1.53.18,2.66,2.66,0,0,0,3.06-.53c1.11-1,2.2-2,3.31-3.05A1.14,1.14,0,0,0,105.15,303.27Z" transform="translate(-30.95 -15.27)"/><path class="e" d="M81.72,289.28l1.53.69c-.13.2-.2.39-.3.41a4,4,0,0,1-3.6-1.92c-.46-1.29-.81-2.63-1.26-3.92-.25-.7,0-.78.57-.59.37,1.17.75,2.34,1.09,3.52A2.33,2.33,0,0,0,81.72,289.28Z" transform="translate(-30.95 -15.27)"/><path class="r" d="M126.4,284.53a2.66,2.66,0,0,1,.19,3.76l-.5-.59-1.08.7c-.11-.32-.38-.7-.29-.95a2.07,2.07,0,0,1,1-.92C126,285.93,125.1,284.91,126.4,284.53Z" transform="translate(-30.95 -15.27)"/><path class="r" d="M78.43,321.16c.15-.88.34-1.76.45-2.65.14-1.05-.32-1.58-1.42-1.43.27-1.22,1.31-.39,1.94-.67.15-.07.73.43.87.77C80.57,317.92,79.22,320.68,78.43,321.16Z" transform="translate(-30.95 -15.27)"/><path class="r" d="M76.91,318.73v4.12l.8-.24c-.12.37-.15.85-.4,1.08a3.76,3.76,0,0,1-1.2.54,3.91,3.91,0,0,1-.2-1.14c.15-1.21.37-2.41.6-3.61A2.73,2.73,0,0,1,76.91,318.73Z" transform="translate(-30.95 -15.27)"/><path class="r" d="M77.46,317.08l-.46,1.2C76.54,317.64,76.85,317.3,77.46,317.08Z" transform="translate(-30.95 -15.27)"/><path class="r" d="M77.94,322.11l.24-.47Z" transform="translate(-30.95 -15.27)"/><path class="e" d="M164.42,246.17l-1.41.37,1.3-1.3.59.56Z" transform="translate(-30.95 -15.27)"/><path class="e" d="M218,181.33c-.11.22-.24.63-.33.62-6.24-.65-12.24-2-17.59-5.54a7.48,7.48,0,0,0-1.23-.53l.57-.66,1.8,1.09a37.16,37.16,0,0,0,13,4.52C215.42,181,216.69,181.17,218,181.33Z" transform="translate(-30.95 -15.27)"/><path class="e" d="M213.4,155.36c-.18.39-.25.92-.54,1.15a52.93,52.93,0,0,1-15,8c-.13,0-.29,0-.55-.29l1.47-.87h0l.58-.18a.13.13,0,0,0,.14-.07l.54-.19a48.56,48.56,0,0,0,12.57-7C212.86,155.66,213.13,155.52,213.4,155.36Z" transform="translate(-30.95 -15.27)"/><path class="p" d="M200,162.88l-.54.19Z" transform="translate(-30.95 -15.27)"/><path class="p" d="M199.36,163.14l-.58.18Z" transform="translate(-30.95 -15.27)"/><path class="j" d="M164.31,245.24l-1.3,1.3c-.95.94-1.91,1.87-2.85,2.83a16,16,0,0,0-1.55,1.74c-.52.72-1.57,1-1.68,2.12,0,.45-.87.8-1.26,1.26a2.52,2.52,0,0,0-.41,1.12c-.47.79-1.72,1.05-1.47,2.42,0,.09-.11.24-.2.34-.35.4-.9.73-1,1.18a24.48,24.48,0,0,1-2.46,5.29,21.32,21.32,0,0,0-1.27,3.76c-.06.18-.23.33-.29.51-.23.75-.42,1.52-.67,2.28-.16.51-.38,1-.65,1.68-1.5-2-2.89-3.93-4.38-6,2.38-.65,2.71-2.93,3.9-4.49,2.15-2.81,4.21-5.69,6.44-8.43a67.58,67.58,0,0,1,6-6.64,30.81,30.81,0,0,1,5.92-4Z" transform="translate(-30.95 -15.27)"/><path class="e" d="M143.9,259.6q3.12-3.53,6.23-7c2.67-2.2,5.05-4.77,7.86-6.8l.24.28-9.43,9-.24.24-.19.29L148,256c-1.41,1.77-2.86,3.51-4.2,5.35a9.34,9.34,0,0,0-.88,2.23l.49.23,4.79-7.61.34-.38.18-.29.25-.23c0,.31.2.71.07.92-1.79,2.81-3.62,5.6-5.46,8.37-.15.23-.48.33-.72.49-.15-.3-.42-.59-.44-.89a4.19,4.19,0,0,1,.91-3.44A3.81,3.81,0,0,0,143.9,259.6Z" transform="translate(-30.95 -15.27)"/><path class="u" d="M108.36,338.17l1.46-.48c-1.06,1.66-2.1,3.33-3.21,5a10.47,10.47,0,0,1-1.76,1.94c-.3.27-.86.23-1.31.33.08-.43,0-1,.25-1.25C105.28,341.8,106.83,340,108.36,338.17Z" transform="translate(-30.95 -15.27)"/><path class="u" d="M105.5,338.65l1.14-.2c-.11.4-.11.9-.36,1.17-1.52,1.67-3.07,3.33-4.7,4.9a7.11,7.11,0,0,1-1.88,1c-.49-1,.47-1.32.92-1.8C102.21,342,103.87,340.32,105.5,338.65Z" transform="translate(-30.95 -15.27)"/><path class="u" d="M93.83,252.5c-.55-.67-1-1-1.13-1.45-.06-.19.53-.58.83-.87.32.33.76.62.91,1C94.53,251.43,94.16,251.84,93.83,252.5Z" transform="translate(-30.95 -15.27)"/><path class="r" d="M190.13,113.92l.27.27c1,2.89.55,4.9-1.66,6.55.75-3.56-1-6.39-1.91-9.44l.23-1.64c.65,1.28,1.21,2.48,1.87,3.63.17.3.64.43,1,.63Z" transform="translate(-30.95 -15.27)"/><path class="i" d="M115.19,318.49c.32-.21.65-.4,1-.64a27.09,27.09,0,0,0,3.52-3,4,4,0,0,0,.64-2.55c-.07-1.42.38-3,1.67-3.33,3.23-.93,5.78-2.91,8.42-5.12a16.48,16.48,0,0,1-1.87,9.56,2,2,0,0,1-.7.61A43.9,43.9,0,0,1,115.19,318.49Z" transform="translate(-30.95 -15.27)"/><path class="w" d="M196.87,286.37l-.49.24Z" transform="translate(-30.95 -15.27)"/><path class="w" d="M179.07,119.4v-5.5C180,114.88,180.2,118.12,179.07,119.4Z" transform="translate(-30.95 -15.27)"/><path class="z" d="M95.09,294.6c-1.44-.19-2.59-.29-3.12-1.52s-.14-2.16,1-3.17a31.9,31.9,0,0,1,2.52-2,2.59,2.59,0,0,1,3.42.66,1.85,1.85,0,0,1,0,2.6,26.19,26.19,0,0,1-2.31,2.71A4.44,4.44,0,0,1,95.09,294.6Z" transform="translate(-30.95 -15.27)"/><path class="r" d="M87,287l.38-.09c0,.1-.11.2-.17.3Z" transform="translate(-30.95 -15.27)"/><path class="e" d="M105.3,303l-.15.31a1.14,1.14,0,0,1-.16-.15l.27-.21Z" transform="translate(-30.95 -15.27)"/><path class="e" d="M105.26,302.91l.15-.1-.11.15Z" transform="translate(-30.95 -15.27)"/><path class="a" d="M82.07,291.57l-2.3-.86.2-.54,2.3.81Z" transform="translate(-30.95 -15.27)"/><path class="i" d="M78.89,289.25l-.53-.91.32-.13.21,1Z" transform="translate(-30.95 -15.27)"/><path class="i" d="M78.89,289.24c.06.09.13.18.18.27l-.09.06-.09-.32Z" transform="translate(-30.95 -15.27)"/><path class="i" d="M78.26,287.5s.06,0,.07,0a.13.13,0,0,1,0,.09h-.13Z" transform="translate(-30.95 -15.27)"/><path class="l" d="M148.23,256.18l-4.79,7.61-.49-.23a9.34,9.34,0,0,1,.88-2.23c1.34-1.84,2.79-3.58,4.2-5.35Z" transform="translate(-30.95 -15.27)"/><path class="l" d="M148,256l.34-.37.2.19-.34.38Z" transform="translate(-30.95 -15.27)"/><path class="l" d="M148.75,255.51l-.18.29-.2-.19.19-.29Z" transform="translate(-30.95 -15.27)"/><path class="l" d="M149,255.28l-.25.23-.19-.19.24-.24Z" transform="translate(-30.95 -15.27)"/></svg>