<?xml version="1.0" encoding="UTF-8" standalone="no"?>
<svg
   height="199.56335"
   width="304.75595"
   version="1.1"
   id="svg108"
   sodipodi:docname="zig.svg"
   xml:space="preserve"
   inkscape:version="1.2.2 (b0a8486, 2022-12-01)"
   xmlns:inkscape="http://www.inkscape.org/namespaces/inkscape"
   xmlns:sodipodi="http://sodipodi.sourceforge.net/DTD/sodipodi-0.dtd"
   xmlns:xlink="http://www.w3.org/1999/xlink"
   xmlns="http://www.w3.org/2000/svg"
   xmlns:svg="http://www.w3.org/2000/svg"><defs
     id="defs112" /><sodipodi:namedview
     id="namedview110"
     pagecolor="#ffffff"
     bordercolor="#000000"
     borderopacity="0.25"
     inkscape:showpageshadow="2"
     inkscape:pageopacity="0.0"
     inkscape:pagecheckerboard="0"
     inkscape:deskcolor="#d1d1d1"
     showgrid="false"
     inkscape:zoom="1.8573529"
     inkscape:cx="54.378464"
     inkscape:cy="84.7981"
     inkscape:window-width="1918"
     inkscape:window-height="1059"
     inkscape:window-x="0"
     inkscape:window-y="19"
     inkscape:window-maximized="1"
     inkscape:current-layer="svg108" /><path
     style="fill:#b1b1b1;fill-opacity:1;stroke:none;stroke-width:3.88535;stop-color:#000000"
     d="m 3.3507993,83.422998 295.7290907,36.565232 5.00758,2.83384 -6.97412,7.95156 -119.54509,67.95361 -6.63127,0.83611 -7.59189,-1.47043 L 16.500849,101.10761 3.6738793,92.475914 Z"
     id="path468-3"
     sodipodi:nodetypes="cccccccccc" /><path
     style="fill:#c2a06b;fill-opacity:1;stroke:none;stroke-width:3.88535;stop-color:#000000"
     d="m 284.84622,107.94428 19.05322,11.34369 -0.46393,3.22074 -129.10992,71.07777 -5.84,-7.48179 z"
     id="path1353" /><!-- zig-icon.svg --><!-- ZIG letters --><path
     style="fill:#ffe8bd;fill-opacity:1;stroke:none;stroke-width:3.88535;stop-color:#000000"
     d="m 292.48122,90.403022 -3.56291,13.954768 -1.91596,1.6315 0.49058,1.437 -0.48886,2.74189 0.51849,1.7233 -0.44228,1.49547 0.94888,0.58471 3.85456,4.35089 3.76358,0.71888 -126.19695,67.73864 -5.60641,-25.75283 3.08468,-9.74068 z"
     id="path1351"
     sodipodi:nodetypes="cccccccccccccc" /><path
     style="fill:#ffc559;fill-opacity:1;stroke:none;stroke-width:3.88535;stop-color:#000000"
     d="m 293.45672,90.215001 -4.20251,7.565646 -121.22602,62.414473 4.76385,-11.51546 z"
     id="path2010"
     sodipodi:nodetypes="ccccc" /><path
     style="fill:#d9c4a1;fill-opacity:1;stroke:none;stroke-width:3.88535;stop-color:#000000"
     d="M 130.09288,0.86827644 298.16693,83.795428 298.22234,89.106054 176.17659,150.72342 10.303109,49.238203 Z"
     id="path468"
     sodipodi:nodetypes="cccccc" /><path
     style="fill:#cdb283;fill-opacity:1;stroke:none;stroke-width:3.88535;stop-color:#000000"
     d="m 9.9243193,47.773913 -5.28719,3.486969 -3.84086002,13.713796 0.25114002,8.382672 0.80761,12.298851 172.5324207,107.915159 1.6873,-2.23128 -5.47254,-12.72049 0.87833,-21.87438 4.58443,-6.13151 -0.55061,-4.95085 L 13.742449,47.991905 Z"
     id="path1349"
     sodipodi:nodetypes="ccccccccccccc" /><path
     id="path1353-2"
     style="fill:none;fill-opacity:1;stroke:#5a4525;stroke-width:1.585;stroke-dasharray:none;stroke-opacity:1;stop-color:#000000"
     d="M 129.60132,1.3779121 127.71928,1.8261146 13.432499,47.975165 9.9246893,47.773993 4.6375793,51.260321 0.79577928,64.975165 1.0477393,73.357977 1.7332083,83.809313 2.479842,85.596118 3.8703501,86.917729 174.2411,193.47907 l 0.084,0.10742 0.0469,-0.0254 0.0156,0.01 0.0234,-0.0312 129.02539,-71.03124 0.46289,-3.2207 -14.20386,-9.18032 -1.76749,-1.11739 -0.0939,-1.21154 -0.56002,-1.50426 1.64475,-1.91618 2.82031,-11.050784 0.7168,-1.289063 5.76562,-2.912109 -0.0547,-5.310547 L 132.04036,1.8287432 Z"
     sodipodi:nodetypes="cccccccccccccccccccccccccccc" /><path
     style="fill:none;fill-opacity:1;stroke:#b88f51;stroke-width:1.585;stroke-dasharray:none;stroke-opacity:1;stop-color:#000000"
     d="m 176.21747,145.81571 17.18861,-8.53348 0.65521,-3.1164 4.9555,0.3647 81.08515,-40.348314"
     id="path3159"
     sodipodi:nodetypes="ccccc" /><path
     style="fill:none;fill-opacity:1;stroke:#b88f51;stroke-width:1.585;stroke-dasharray:none;stroke-opacity:1;stop-color:#000000"
     d="M 295.43925,85.868312 282.60694,92.3644"
     id="path4025" /><path
     style="fill:none;fill-opacity:1;stroke:#b88f51;stroke-width:1.585;stroke-dasharray:none;stroke-opacity:1;stop-color:#000000"
     d="m 287.92661,81.695973 7.8827,3.572338"
     id="path4027" /><path
     style="fill:none;fill-opacity:1;stroke:#9d7840;stroke-width:1.585;stroke-dasharray:none;stroke-opacity:1;stop-color:#000000"
     d="m 301.02981,121.05471 -124.2909,67.83944"
     id="path4029"
     sodipodi:nodetypes="cc" /><path
     style="fill:none;fill-opacity:1;stroke:#9d7840;stroke-width:1.585;stroke-dasharray:none;stroke-opacity:1;stop-color:#000000"
     d="m 155.5551,140.33389 -4.15823,2.26767 -4.26621,7.80032 -1.38549,12.42711 2.55406,11.07093 2.59571,2.16502"
     id="path4089"
     sodipodi:nodetypes="cccccc" /><path
     style="fill:none;fill-opacity:1;stroke:#9d7840;stroke-width:1.585;stroke-dasharray:none;stroke-opacity:1;stop-color:#000000"
     d="m 149.84719,136.99833 -4.15823,2.26767 -4.26621,7.80032 -1.38549,12.42711 2.55406,11.07093 2.59571,2.16502"
     id="path4089-9"
     sodipodi:nodetypes="cccccc" /><path
     style="fill:none;fill-opacity:1;stroke:#9b8462;stroke-width:1.585;stroke-dasharray:none;stroke-opacity:1;stop-color:#000000"
     d="m 173.94123,148.02599 -4.80714,4.36273 -1.98429,13.01467 0.52136,11.00116 0.47951,4.71143 0.36521,2.15074 1.85337,1.29947 0.52175,3.96904 3.17284,2.4094"
     id="path4089-0"
     sodipodi:nodetypes="ccccccccc" /><path
     style="fill:none;fill-opacity:1;stroke:#9d7840;stroke-width:1.585;stroke-dasharray:none;stroke-opacity:1;stop-color:#000000"
     d="m 14.713639,53.765363 -6.3195997,9.865496 -0.24378,11.282735 0.50268,9.332387 2.6515397,4.521444"
     id="path4091"
     sodipodi:nodetypes="ccccc" /><path
     style="fill:none;fill-opacity:1;stroke:#9d7840;stroke-width:1.585;stroke-dasharray:none;stroke-opacity:1;stop-color:#000000"
     d="M 175.36108,183.19008 293.41682,120.37064"
     id="path4093" /><path
     style="fill:none;fill-opacity:1;stroke:#c99f62;stroke-width:1.585;stroke-dasharray:none;stroke-opacity:1;stop-color:#000000"
     d="m 287.08183,113.89707 -61.26797,31.86254"
     id="path4095" /><path
     style="fill:none;fill-opacity:1;stroke:#c99f62;stroke-width:1.585;stroke-dasharray:none;stroke-opacity:1;stop-color:#000000"
     d="m 173.32321,163.02681 68.42826,-33.66077"
     id="path4097" /><path
     style="fill:none;fill-opacity:1;stroke:#c99f62;stroke-width:1.585;stroke-dasharray:none;stroke-opacity:1;stop-color:#000000"
     d="M 174.28016,175.7063 235.7104,145.33361"
     id="path4099" /><path
     style="fill:none;fill-opacity:1;stroke:#c99f62;stroke-width:1.585;stroke-dasharray:none;stroke-opacity:1;stop-color:#000000"
     d="m 283.46009,107.13991 -29.9909,15.16297"
     id="path4101" /><path
     style="fill:none;fill-opacity:1;stroke:#9b8462;stroke-width:1.585;stroke-dasharray:none;stroke-opacity:1;stop-color:#000000"
     d="m 289.69447,93.382362 -112.78589,56.810888 -3.97123,4.86929 -1.96629,4.30653 0.003,1.50553 -0.29525,2.10352 0.28873,10.09547 -0.37318,6.7757 0.0423,1.12888 1.49888,0.38224 1.94249,7.12389 2.78855,0.28328"
     id="path4157"
     sodipodi:nodetypes="cccccccccccc" /><path
     style="fill:#fff0d4;fill-opacity:1;stroke:#f7a41d;stroke-width:1.585;stroke-dasharray:none;stroke-opacity:1;stop-color:#000000"
     d="M 129.9221,4.4981332 201.75529,39.823877 92.874179,85.381455 26.637723,46.986398 Z"
     id="path6119"
     sodipodi:nodetypes="ccccc" /><g
     fill="#f7a41d"
     transform="matrix(6.1039794,-2.2986986,5.2324822,2.5180536,43.275309,48.625574)"
     id="g93"><defs
       id="defs75"><rect
         id="s"
         x="-1"
         y="-6"
         width="2"
         height="12"
         transform="matrix(1.8139776,-0.52014972,-0.66913061,0.74314483,0,0)" /></defs><g
       id="z"><rect
         x="4"
         y="1"
         width="6"
         height="2"
         id="rect77" /><use
         xlink:href="#s"
         transform="translate(7.5,5)"
         id="use79" /><rect
         x="5"
         y="7"
         width="6"
         height="2"
         id="rect81" /></g><mask
       id="m"><rect
         width="15"
         height="10"
         fill="#ffffff"
         id="rect84"
         x="0"
         y="0" /><rect
         x="2"
         y="3"
         width="11"
         height="4"
         fill="#000000"
         id="rect86" /><use
         xlink:href="#z"
         stroke="#000000"
         id="use88" /></mask><rect
       y="1"
       width="15"
       height="8"
       mask="url(#m)"
       id="rect91"
       x="0" /></g><g
     aria-label="The ZIG Standard Library"
     transform="matrix(0.75822224,0.49037258,0.15616418,2.2693717,177.91297,-209.46981)"
     id="text6391"
     style="font-size:8.79222px;font-family:monospace;-inkscape-font-specification:monospace;white-space:pre;fill:#845404;stroke-width:1.585;stop-color:#000000;fill-opacity:1"
     inkscape:transform-center-x="-8.5112518"
     inkscape:transform-center-y="1.5930869"><path
       d="m -241.14248,178.70246 v 4.81254 h -1.26646 v -4.81254 h -1.74299 v -0.97882 h 4.75244 v 0.97882 z"
       style="font-weight:bold;-inkscape-font-specification:'monospace Bold';fill:#845404;fill-opacity:1"
       id="path6588" /><path
       d="m -237.33452,179.7972 q 0.24471,-0.53235 0.61391,-0.77276 0.3692,-0.24041 0.88008,-0.24041 0.72124,0 1.08186,0.43789 0.36061,0.4379 0.36061,1.34803 v 2.94505 h -1.20206 v -2.666 q 0,-0.64826 -0.17601,-0.90155 -0.17173,-0.25758 -0.56669,-0.25758 -0.43789,0 -0.70836,0.37779 -0.26617,0.3735 -0.26617,0.96165 v 2.48569 h -1.20635 v -6.37093 h 1.20635 v 1.7387 q 0,0.46795 -0.0343,0.91443 z"
       style="font-weight:bold;-inkscape-font-specification:'monospace Bold';fill:#845404;fill-opacity:1"
       id="path6590" /><path
       d="m -231.17396,183.60086 q -1.08185,0 -1.67,-0.63537 -0.58815,-0.63967 -0.58815,-1.79451 0,-0.77275 0.27475,-1.3051 0.27905,-0.53234 0.78993,-0.80709 0.51088,-0.27476 1.21065,-0.27476 1.01746,0 1.57985,0.67831 0.56239,0.6783 0.56239,1.92759 v 0.0343 h -3.15112 q 0,0.63108 0.27905,1.00029 0.28335,0.3692 0.77276,0.3692 0.31768,0 0.56239,-0.13308 0.24471,-0.13738 0.33057,-0.42072 l 1.13766,0.0987 q -0.23612,0.60532 -0.78563,0.93589 -0.54951,0.32627 -1.3051,0.32627 z m 0,-4.05696 q -0.44218,0 -0.70406,0.30052 -0.26188,0.29622 -0.27905,0.82427 h 1.97481 q -0.03,-0.51517 -0.29622,-0.81998 -0.26188,-0.30481 -0.69548,-0.30481 z"
       style="font-weight:bold;-inkscape-font-specification:'monospace Bold';fill:#845404;fill-opacity:1"
       id="path6592" /><path
       d="m -218.42352,183.515 h -4.51202 v -0.89725 l 2.88065,-3.90241 h -2.55438 v -0.9917 h 4.00973 v 0.88008 l -2.88065,3.91958 h 3.05667 z"
       style="font-weight:bold;-inkscape-font-specification:'monospace Bold';fill:#845404;fill-opacity:1"
       id="path6594" /><path
       d="m -217.35884,177.72364 h 3.93246 v 0.97882 h -1.33514 v 3.83372 h 1.33514 v 0.97882 h -3.93246 v -0.97882 h 1.33515 v -3.83372 h -1.33515 z"
       style="font-weight:bold;-inkscape-font-specification:'monospace Bold';fill:#845404;fill-opacity:1"
       id="path6596" /><path
       d="m -207.91407,182.72078 q -1.04322,0.88008 -2.11649,0.88008 -1.12049,0 -1.75157,-0.78563 -0.63108,-0.78993 -0.63108,-2.22382 0,-2.95793 2.39553,-2.95793 0.77276,0 1.26217,0.39926 0.48941,0.39926 0.72124,1.21065 l -1.17631,0.23182 q -0.22753,-0.84573 -0.79422,-0.84573 -0.57956,0 -0.85432,0.46365 -0.27046,0.46365 -0.27046,1.49828 0,0.95736 0.28763,1.47682 0.28764,0.51946 0.87579,0.51946 0.22753,0 0.46795,-0.0859 0.2447,-0.0859 0.42501,-0.23182 v -1.00888 h -1.1763 v -0.93589 h 2.33543 z"
       style="font-weight:bold;-inkscape-font-specification:'monospace Bold';fill:#845404;fill-opacity:1"
       id="path6598" /><path
       d="m -197.20284,181.83641 q 0,0.82427 -0.63109,1.29651 -0.62678,0.46794 -1.74728,0.46794 -1.00887,0 -1.64425,-0.42501 -0.63537,-0.42502 -0.81568,-1.23641 l 1.22353,-0.15884 q 0.0987,0.40355 0.41213,0.63966 0.3134,0.23183 0.85862,0.23183 0.56668,0 0.83715,-0.18031 0.27475,-0.18031 0.27475,-0.56239 0,-0.28334 -0.24041,-0.47653 -0.24041,-0.19748 -0.69977,-0.3091 -0.92301,-0.22324 -1.30509,-0.38638 -0.3778,-0.16743 -0.60533,-0.3735 -0.22753,-0.20607 -0.35203,-0.48082 -0.12021,-0.27905 -0.12021,-0.6225 0,-0.75129 0.60103,-1.18918 0.60533,-0.4379 1.59273,-0.4379 0.96165,0 1.50258,0.38209 0.54093,0.37779 0.69977,1.1763 l -1.22782,0.1245 q -0.18889,-0.78563 -1.00028,-0.78563 -0.45507,0 -0.69548,0.17172 -0.24041,0.16743 -0.24041,0.48512 0,0.21036 0.11591,0.35203 0.11591,0.13738 0.31339,0.23612 0.20178,0.0944 0.81569,0.25329 0.8071,0.19748 1.2407,0.44219 0.4336,0.24041 0.63537,0.58386 0.20178,0.34344 0.20178,0.78134 z"
       style="font-weight:bold;-inkscape-font-specification:'monospace Bold';fill:#845404;fill-opacity:1"
       id="path6600" /><path
       d="m -195.51996,179.68558 h -0.71694 v -0.81569 h 0.77705 l 0.37779,-1.21065 h 0.75558 v 1.21065 h 1.65283 v 0.81569 h -1.65283 v 2.27533 q 0,0.37779 0.0687,0.51087 0.073,0.12879 0.23182,0.20607 0.15885,0.073 0.44648,0.073 0.53235,0 1.09474,-0.11591 v 0.79851 q -0.60962,0.0987 -0.86291,0.11591 -0.25329,0.0215 -0.52805,0.0215 -0.54522,0 -0.91442,-0.14597 -0.36491,-0.15025 -0.55381,-0.46365 -0.1846,-0.31769 -0.1846,-0.88866 z"
       style="font-weight:bold;-inkscape-font-specification:'monospace Bold';fill:#845404;fill-opacity:1"
       id="path6602" /><path
       d="m -189.76723,183.60086 q -0.67402,0 -1.05181,-0.36491 -0.37779,-0.36921 -0.37779,-1.03463 0,-0.72124 0.44648,-1.09474 0.45078,-0.37779 1.34374,-0.39067 l 0.95735,-0.0172 v -0.23612 q 0,-0.44218 -0.15026,-0.66972 -0.15025,-0.22753 -0.48511,-0.22753 -0.3134,0 -0.46366,0.15884 -0.14596,0.15455 -0.18031,0.498 l -1.25787,-0.0601 q 0.23183,-1.37808 1.95335,-1.37808 0.8672,0 1.32656,0.42501 0.46366,0.42502 0.46366,1.24929 v 1.68288 q 0,0.39067 0.0859,0.54093 0.0901,0.14597 0.29622,0.14597 0.13738,0 0.26617,-0.0258 v 0.65255 q -0.10733,0.0257 -0.19319,0.0472 -0.0859,0.0215 -0.17172,0.0343 -0.0859,0.0129 -0.1846,0.0215 -0.0944,0.009 -0.22324,0.009 -0.45507,0 -0.67402,-0.22324 -0.21465,-0.22324 -0.25758,-0.65684 h -0.0258 q -0.27046,0.48511 -0.6182,0.69977 -0.34345,0.21465 -0.82427,0.21465 z m 1.31797,-2.23669 -0.57527,0.009 q -0.38638,0.009 -0.56239,0.0816 -0.17173,0.0687 -0.26188,0.22754 -0.0902,0.15455 -0.0902,0.42501 0,0.65255 0.51517,0.65255 0.41643,0 0.69548,-0.32628 0.27905,-0.33056 0.27905,-0.83285 z"
       style="font-weight:bold;-inkscape-font-specification:'monospace Bold';fill:#845404;fill-opacity:1"
       id="path6604" /><path
       d="m -182.83821,183.515 v -2.65741 q 0,-0.60533 -0.16743,-0.88867 -0.16314,-0.28334 -0.56669,-0.28334 -0.44648,0 -0.71694,0.38208 -0.26617,0.37779 -0.26617,0.95736 v 2.48998 h -1.20636 v -3.60618 q 0,-0.3735 -0.0129,-0.60962 -0.009,-0.24041 -0.0215,-0.42931 h 1.15054 q 0.0129,0.0816 0.0343,0.43789 0.0215,0.35204 0.0215,0.48512 h 0.0172 q 0.2447,-0.53234 0.61391,-0.77275 0.3692,-0.24041 0.88008,-0.24041 1.44247,0 1.44247,1.78592 v 2.94934 z"
       style="font-weight:bold;-inkscape-font-specification:'monospace Bold';fill:#845404;fill-opacity:1"
       id="path6606" /><path
       d="m -177.59207,183.515 q -0.0172,-0.0644 -0.0429,-0.32198 -0.0215,-0.26188 -0.0215,-0.4336 h -0.0172 q -0.22753,0.45936 -0.56239,0.65255 -0.33486,0.18889 -0.79422,0.18889 -0.76846,0 -1.21065,-0.64396 -0.44219,-0.64396 -0.44219,-1.75587 0,-1.13766 0.44219,-1.77304 0.44648,-0.63537 1.25787,-0.63537 0.45936,0 0.79851,0.21036 0.33916,0.20606 0.51947,0.60961 h 0.009 l -0.009,-0.76416 v -1.70436 h 1.20635 v 5.35776 q 0,0.42931 0.0343,1.01317 z m -0.0558,-2.34402 q 0,-0.7427 -0.24041,-1.15054 -0.24042,-0.40785 -0.66543,-0.40785 -0.42931,0 -0.65255,0.40355 -0.21894,0.39926 -0.21894,1.18489 0,0.78993 0.22324,1.18489 0.22753,0.39067 0.63966,0.39067 0.26617,0 0.47654,-0.1889 0.21036,-0.19318 0.32198,-0.54951 0.11591,-0.35632 0.11591,-0.8672 z"
       style="font-weight:bold;-inkscape-font-specification:'monospace Bold';fill:#845404;fill-opacity:1"
       id="path6608" /><path
       d="m -173.93867,183.60086 q -0.67401,0 -1.0518,-0.36491 -0.37779,-0.36921 -0.37779,-1.03463 0,-0.72124 0.44648,-1.09474 0.45077,-0.37779 1.34373,-0.39067 l 0.95736,-0.0172 v -0.23612 q 0,-0.44218 -0.15026,-0.66972 -0.15026,-0.22753 -0.48512,-0.22753 -0.31339,0 -0.46365,0.15884 -0.14596,0.15455 -0.18031,0.498 l -1.25787,-0.0601 q 0.23183,-1.37808 1.95335,-1.37808 0.8672,0 1.32656,0.42501 0.46365,0.42502 0.46365,1.24929 v 1.68288 q 0,0.39067 0.0859,0.54093 0.0902,0.14597 0.29623,0.14597 0.13738,0 0.26617,-0.0258 v 0.65255 q -0.10733,0.0257 -0.19319,0.0472 -0.0859,0.0215 -0.17172,0.0343 -0.0859,0.0129 -0.18461,0.0215 -0.0944,0.009 -0.22324,0.009 -0.45506,0 -0.67401,-0.22324 -0.21465,-0.22324 -0.25758,-0.65684 h -0.0258 q -0.27047,0.48511 -0.61821,0.69977 -0.34344,0.21465 -0.82427,0.21465 z m 1.31798,-2.23669 -0.57527,0.009 q -0.38638,0.009 -0.5624,0.0816 -0.17172,0.0687 -0.26187,0.22754 -0.0902,0.15455 -0.0902,0.42501 0,0.65255 0.51517,0.65255 0.41643,0 0.69548,-0.32628 0.27905,-0.33056 0.27905,-0.83285 z"
       style="font-weight:bold;-inkscape-font-specification:'monospace Bold';fill:#845404;fill-opacity:1"
       id="path6610" /><path
       d="m -165.90632,179.87447 q -0.48082,-0.0816 -0.91013,-0.0816 -0.66972,0 -1.06468,0.50659 -0.39067,0.50658 -0.39067,1.33514 v 1.88037 h -1.20207 v -3.00945 q 0,-0.32627 -0.0601,-0.76846 -0.0558,-0.44218 -0.16314,-0.8672 h 1.16343 q 0.15455,0.5581 0.19748,0.97882 h 0.0172 q 0.21466,-0.58386 0.57957,-0.82427 0.36491,-0.24041 0.94877,-0.24041 0.44648,0 0.88437,0.073 z"
       style="font-weight:bold;-inkscape-font-specification:'monospace Bold';fill:#845404;fill-opacity:1"
       id="path6612" /><path
       d="m -161.7635,183.515 q -0.0172,-0.0644 -0.0429,-0.32198 -0.0215,-0.26188 -0.0215,-0.4336 h -0.0172 q -0.22753,0.45936 -0.56239,0.65255 -0.33486,0.18889 -0.79422,0.18889 -0.76846,0 -1.21065,-0.64396 -0.44218,-0.64396 -0.44218,-1.75587 0,-1.13766 0.44218,-1.77304 0.44648,-0.63537 1.25787,-0.63537 0.45936,0 0.79852,0.21036 0.33915,0.20606 0.51946,0.60961 h 0.009 l -0.009,-0.76416 v -1.70436 h 1.20635 v 5.35776 q 0,0.42931 0.0344,1.01317 z m -0.0558,-2.34402 q 0,-0.7427 -0.24041,-1.15054 -0.24041,-0.40785 -0.66543,-0.40785 -0.42931,0 -0.65255,0.40355 -0.21894,0.39926 -0.21894,1.18489 0,0.78993 0.22324,1.18489 0.22753,0.39067 0.63967,0.39067 0.26617,0 0.47653,-0.1889 0.21036,-0.19318 0.32198,-0.54951 0.11591,-0.35632 0.11591,-0.8672 z"
       style="font-weight:bold;-inkscape-font-specification:'monospace Bold';fill:#845404;fill-opacity:1"
       id="path6614" /><path
       d="m -153.81272,183.515 v -5.79136 h 1.26646 v 4.81254 h 2.64453 v 0.97882 z"
       style="font-weight:bold;-inkscape-font-specification:'monospace Bold';fill:#845404;fill-opacity:1"
       id="path6616" /><path
       d="m -146.03367,182.69931 h 1.51546 v 0.81569 h -4.41757 v -0.81569 h 1.69576 v -3.01373 h -1.24499 v -0.81569 h 2.45134 z m -1.20635,-4.66657 v -0.88867 h 1.20635 v 0.88867 z"
       style="font-weight:bold;-inkscape-font-specification:'monospace Bold';fill:#845404;fill-opacity:1"
       id="path6618" /><path
       d="m -143.56515,183.515 q 0.0343,-0.58386 0.0343,-1.01317 v -5.35776 h 1.20635 v 1.69148 l -0.009,0.76416 h 0.009 q 0.17602,-0.39067 0.52805,-0.60532 0.35633,-0.21465 0.83286,-0.21465 0.79851,0 1.22782,0.63108 0.42931,0.63108 0.42931,1.78592 0,1.09044 -0.45507,1.74728 -0.45507,0.65684 -1.2407,0.65684 -0.44648,0 -0.78563,-0.21036 -0.33486,-0.21465 -0.52805,-0.63108 h -0.0172 q 0,0.14167 -0.0215,0.39496 -0.0172,0.249 -0.0429,0.36062 z m 1.22353,-2.34831 q 0,0.51517 0.11162,0.87149 0.11591,0.35633 0.32198,0.54951 0.21036,0.1889 0.48083,0.1889 0.41213,0 0.63537,-0.39496 0.22754,-0.39497 0.22754,-1.18489 0,-0.78563 -0.22324,-1.18918 -0.21895,-0.40785 -0.64826,-0.40785 -0.42072,0 -0.66543,0.41214 -0.24041,0.41213 -0.24041,1.15484 z"
       style="font-weight:bold;-inkscape-font-specification:'monospace Bold';fill:#845404;fill-opacity:1"
       id="path6620" /><path
       d="m -134.24917,179.87447 q -0.48082,-0.0816 -0.91013,-0.0816 -0.66972,0 -1.06468,0.50659 -0.39067,0.50658 -0.39067,1.33514 v 1.88037 h -1.20207 v -3.00945 q 0,-0.32627 -0.0601,-0.76846 -0.0558,-0.44218 -0.16314,-0.8672 h 1.16343 q 0.15455,0.5581 0.19748,0.97882 h 0.0172 q 0.21466,-0.58386 0.57957,-0.82427 0.36491,-0.24041 0.94877,-0.24041 0.44648,0 0.88437,0.073 z"
       style="font-weight:bold;-inkscape-font-specification:'monospace Bold';fill:#845404;fill-opacity:1"
       id="path6622" /><path
       d="m -131.72914,183.60086 q -0.67401,0 -1.0518,-0.36491 -0.37779,-0.36921 -0.37779,-1.03463 0,-0.72124 0.44648,-1.09474 0.45077,-0.37779 1.34373,-0.39067 l 0.95735,-0.0172 v -0.23612 q 0,-0.44218 -0.15025,-0.66972 -0.15026,-0.22753 -0.48512,-0.22753 -0.3134,0 -0.46365,0.15884 -0.14597,0.15455 -0.18031,0.498 l -1.25787,-0.0601 q 0.23182,-1.37808 1.95335,-1.37808 0.8672,0 1.32656,0.42501 0.46365,0.42502 0.46365,1.24929 v 1.68288 q 0,0.39067 0.0859,0.54093 0.0902,0.14597 0.29622,0.14597 0.13738,0 0.26617,-0.0258 v 0.65255 q -0.10732,0.0257 -0.19318,0.0472 -0.0859,0.0215 -0.17173,0.0343 -0.0859,0.0129 -0.1846,0.0215 -0.0945,0.009 -0.22324,0.009 -0.45507,0 -0.67401,-0.22324 -0.21466,-0.22324 -0.25759,-0.65684 h -0.0258 q -0.27046,0.48511 -0.6182,0.69977 -0.34345,0.21465 -0.82427,0.21465 z m 1.31797,-2.23669 -0.57527,0.009 q -0.38637,0.009 -0.56239,0.0816 -0.17172,0.0687 -0.26188,0.22754 -0.0901,0.15455 -0.0901,0.42501 0,0.65255 0.51517,0.65255 0.41642,0 0.69547,-0.32628 0.27905,-0.33056 0.27905,-0.83285 z"
       style="font-weight:bold;-inkscape-font-specification:'monospace Bold';fill:#845404;fill-opacity:1"
       id="path6624" /><path
       d="m -123.69679,179.87447 q -0.48083,-0.0816 -0.91014,-0.0816 -0.66971,0 -1.06468,0.50659 -0.39067,0.50658 -0.39067,1.33514 v 1.88037 h -1.20206 v -3.00945 q 0,-0.32627 -0.0601,-0.76846 -0.0558,-0.44218 -0.16314,-0.8672 h 1.16342 q 0.15456,0.5581 0.19749,0.97882 h 0.0172 q 0.21465,-0.58386 0.57956,-0.82427 0.36491,-0.24041 0.94877,-0.24041 0.44648,0 0.88438,0.073 z"
       style="font-weight:bold;-inkscape-font-specification:'monospace Bold';fill:#845404;fill-opacity:1"
       id="path6626" /><path
       d="m -121.66617,185.33956 q -0.45506,0 -0.78134,-0.0558 v -0.85862 l 0.21895,0.0215 0.21895,0.0129 q 0.25758,0 0.42501,-0.0816 0.17172,-0.0816 0.30481,-0.27047 0.13738,-0.18889 0.30481,-0.63966 l -1.9233,-4.59789 h 1.27504 l 0.81569,2.26245 q 0.17172,0.46795 0.4336,1.43389 l 0.0386,-0.15884 0.34774,-1.25788 0.77275,-2.27962 h 1.26216 l -1.92329,4.88981 q -0.34345,0.88438 -0.75129,1.23212 -0.40784,0.34774 -1.03893,0.34774 z"
       style="font-weight:bold;-inkscape-font-specification:'monospace Bold';fill:#845404;fill-opacity:1"
       id="path6628" /></g></svg>
