<?xml version="1.0" encoding="UTF-8"?>
<svg xmlns="http://www.w3.org/2000/svg" viewBox="0 0 1362.17 2224.67">
  <defs>
    <style>
      .cls-1 {
        fill: #fd2904;
      }

      .cls-2 {
        fill: #174865;
      }

      .cls-3 {
        fill: #6c6c6c;
      }

      .cls-4 {
        fill: #fccd06;
      }

      .cls-5 {
        fill: #75db05;
      }

      .cls-6 {
        fill: #cecece;
      }

      .cls-7 {
        fill: #f5c915;
      }

      .cls-8 {
        fill: #cdcece;
      }

      .cls-9 {
        fill: #ff2701;
      }

      .cls-10 {
        fill: #f8b21c;
      }

      .cls-11 {
        fill: #facd08;
      }

      .cls-12 {
        fill: #fdcf05;
      }

      .cls-13 {
        fill: #5f6d76;
      }

      .cls-14 {
        fill: #fff;
      }

      .cls-15 {
        fill: #75db04;
      }

      .cls-16 {
        fill: #5f6c76;
      }

      .cls-17 {
        fill: #fecf02;
      }

      .cls-18 {
        fill: #5e6d77;
      }

      .cls-19 {
        fill: #f9eab3;
      }

      .cls-20 {
        fill: #0996fb;
      }

      .cls-21 {
        fill: #fdce04;
      }

      .cls-22 {
        fill: #f6ca09;
      }

      .cls-23 {
        fill: #0296ff;
      }

      .cls-24 {
        fill: #ff2904;
      }
    </style>
  </defs>
  <g id="BG_Outline">
    <path class="cls-14" d="M1360.49,1130.92c-2.54-10-5.02-20.01-7.89-29.92-1.31-4.52-1.17-8.08,2.04-11.95,5.52-6.66,7.39-14.65,7.02-23.34-1.29-29.85-8.85-57.05-31.64-78.19-1.34-1.25-2-3.37-2.66-5.2-3.96-10.94-11.94-18.27-21.61-23.98-17.7-10.45-36.65-17.34-57.24-19.04-14.75-1.22-29.02.99-39.9,11.68-6.34,6.23-13.23,9.41-21.74,10.64-6.8-13.22-13.01-26.84-20.58-39.65-13.52-22.89-27.29-45.69-42.12-67.73-6.78-10.08-15.76-18.93-24.84-27.14-8.28-7.49-16.9-14.94-28.42-17.92-12.84-3.32-25.65-3.12-38.62-1.82-4.46.45-8.95.62-14.41.98,1.03-32.05-2.62-62.83-1.77-94.03,8.52,11.62,15.73,22.86,24.38,32.87,8.02,9.29,17.25,18.22,30.6,18.88,9.25.46,18.59-.44,27.87-1.03,15.84-1.01,30.14-7.88,45.08-12.29,7.96-2.35,16.07-4.69,23.46-8.35,16.48-8.16,30.95-18.9,35.57-38.07,7.46-30.97,8.05-62.21-1.6-92.69-8.39-26.53-28.49-44.55-57.95-45.5-3.65-.12-7.27-.86-10.92-1.04-18.27-.87-36.57-2.56-54.82-2.21-20.08.38-38,7.25-49.98,24.61-4.5,6.52-7.86,13.84-11.54,20.9-1.78,3.41-3.1,7.07-5.22,12-.68-2.54-1.07-3.37-1.11-4.22-1.28-28.26-2.39-56.52-3.88-84.77-.3-5.66,1.82-9.26,5.85-12.86,7.17-6.42,15.01-12.57,20.5-20.3,20.89-29.45-.37-59.59-25.86-60.19-1.08-.03-2.15-.48-4.21-.97,14.58-20.48,28.44-39.94,43.26-60.76,3.02,4.94,5.27,8.57,7.48,12.22,8.85,14.57,18.78,28.12,31.98,39.29,15.4,13.03,32.78,15.81,51.44,10.89,19.35-5.11,33.68-18.56,47.12-32.4,25.25-26.01,40.71-57.43,47.55-92.9,3.4-17.61,6.22-35.36,2.78-53.51-4.42-23.33-14.57-42.77-35.63-55.11-6.28-3.68-12.96-6.77-19.69-9.56-4.04-1.67-6.6-3.71-7.55-8.24-2.7-12.9-10.99-21.63-21.79-28.53-2.62-1.67-5.04-4.25-6.55-6.97-10.08-18.18-26.13-26.66-46.35-23.65-4.06.6-6.84.03-9.69-3.05-9.93-10.75-23.18-16.82-36.83-13.69-14.76,3.38-27.87.15-41.66-2.46-3.67-.7-6.04-1.98-7.92-5.02-16.27-26.42-41.52-39.47-70.45-46.63-24.55-6.07-49.46-5.54-74.44-3.07-7.21.71-14.92,2.1-21.68.38-16.22-4.12-32.47-6.99-49.17-7.7-2.56-.11-5.24-.96-7.59-2.04-24.99-11.52-51.32-16.23-77.65-8.21-15.8,4.81-29.82,2.82-44.64-.92-19.88-5.01-40.01-6.75-60.38-3.65-29.91,4.55-53.77,20.51-75.06,40.79-12.07,11.5-20.82,25.68-30.46,39.24-20.09,28.27-38.54,57.4-54.97,87.89-13.78,25.57-25.28,52.06-32.78,80.17-2.48,9.31-5.33,18.72-6.11,28.23-1.94,23.66-.58,47.33,5.3,70.38,3.43,13.45,7.11,27.3,17.02,37.84,4.96,5.28,6.03,10.74,4.03,18.24-33.09,12.78-59.77,35.49-83.9,62.34-9.9-10.08-22.16-18.59-12.95-35.2.3-.54.2-1.31.32-1.96,1.97-11.18,4.6-22.01,11.79-31.35,2.99-3.89,4.93-8.69,6.85-13.28,6.28-15.06,7.57-30.59-3.81-43.24-6.37-7.09-9.66-14.51-11.96-23.08-.69-2.57-1.48-5.13-2.5-7.58-6.13-14.77-15.3-26.67-31.58-30.79-13.51-3.42-27.15-6.46-40.87-8.85-5.55-.97-9.26-2.84-13.07-7.23-17.82-20.53-39.44-23.42-59.72-6.93-7.09,5.77-13.02,12.97-20.21,20.25-8.09-2.4-17.58-1.97-25.68,3.27-23.4,15.16-38.47,32.41-33.87,64.39.66,4.61-.02,7.88-3.08,11.69-16.83,20.97-16.72,46.8-.42,68.69,1.21,1.62,1.8,4.19,1.63,6.23-.25,2.93-1.56,5.76-2.26,8.67-3.96,16.31.29,30.85,12.04,42.12,17.03,16.32,36.97,28.3,60.37,33.3,4.67,1,6.87,3.15,8.27,7.27,3.75,11.03,7.6,22.02,11.51,32.99,9.72,27.23,18.92,54.67,29.47,81.58,7,17.85,15.97,34.93,24.03,52.28-19.77,33.52-40.13,67.08-59.52,101.18-21.7,38.17-42.77,76.69-63.62,115.34-12.63,23.41-24.47,47.26-36.33,71.07-6.82,13.69-13.05,27.67-19.39,41.59-8.96,19.68-17.18,39.72-26.81,59.06-14.3,28.72-23.83,59.21-34.41,89.3-7.43,21.13,12.2,48.63,35.79,45.89,10.51-1.22,19.09-6.38,25.69-14.08,13.7-15.99,28.91-30.31,45.15-43.61,20.97-17.18,44.15-29.01,71.43-33.03,32.5-4.79,55.63,18.21,57.33,46.42.4,6.71,2.94,13.67,6.03,19.73,3.97,7.79,9.48,14.79,14.34,22.15-7.21,5.7-14.68,11.81-22.38,17.62-24.79,18.72-25.25,48.33-10.74,70.34,5.74,8.71,13.36,17,21.91,22.88,22.74,15.63,42.66,17.75,62.69-.76,25-23.1,52.38-44.19,67.73-75.2,25.83,16.82,51.59,33.58,76.73,49.95-.58,11.51-1.16,23.28-1.81,36.16-.95.77-3.16,2.29-5.05,4.13-10.36,10.09-20.27,20.64-21.64,35.96-.71,7.92-.98,16.1.2,23.92,1.95,12.88,5.88,25.5,14.27,35.72,3.56,4.34,4.91,8.14,4.28,13.39-2.14,18-1.26,36.06,2.09,53.72,2.06,10.88,1.74,20.75-1.77,31.12-2.71,8.01-2.47,16.57.88,24.5,9.19,21.74,23.99,38.04,46.27,47.07,27.68,11.22,56.15,9.92,84.5,4.47,35.31-6.78,69.23-18.8,103.03-30.77,33.28-11.78,52.72-35.86,58.25-70.93.39-2.5,1-4.97,1.51-7.46,4.87,25.94,9.05,51.61,11.02,77.44,3.3,43.46,5.39,86.96,3.22,130.66-1.54,31.04-5.16,61.79-11.61,91.97-9.49,44.37-24.35,87.01-47.55,126.5-20.97,35.7-46.89,67.08-78.54,93.61-28.18,23.62-59.64,42.13-92.31,58.96-29.5,15.2-60.24,22.28-93.24,20.92-10.77-.44-21.29,2.09-30.64,7.55-14.81,8.65-24.14,21.36-23.23,39.06.93,17.99,7.92,32.8,25.86,40.49,15.32,6.57,31.59,9.7,47.71,8.06,27.41-2.79,54.89-6.55,81.76-12.52,32.73-7.27,65.13-16.37,97.14-26.39,20.53-6.42,40.67-14.75,59.93-24.36,21.68-10.81,42.08-24.16,63.19-36.14,42.55-24.15,80.69-53.87,114.41-89.37,34.91-36.75,63.03-77.94,84.34-124.03,17.53-37.92,30.81-77.17,40.81-117.63,10.16-41.1,17.22-82.77,21.44-124.86,3.02-30.11,5.93-60.29,7.12-90.51,2.24-56.92.89-113.83-4.6-170.58-.37-3.86-.05-7.8-.05-12.56,4.46,0,8.5.63,12.26-.14,6.42-1.32,13.92-1.92,18.72-5.69,12.53-9.83,27.32-14.98,40.93-22.53,4.93-2.73,9.85-5.7,14.16-9.3,27.64-23.07,22.2-53.74-.65-71.71-15.85-12.46-34.44-18.28-54.42-20.14-16.17-1.5-30.39,2.09-41.63,14.53-.84.93-2.04,1.55-4.08,3.07-.97-6.38-1.77-11.87-2.63-17.34-3.58-22.66-7.26-45.17-2.19-68.29,3.2-14.58,4.15-29.64,6.42-44.44.42-2.7,1.74-5.91,3.73-7.59,8.87-7.46,18.13-14.45,27.02-21.43,21.35,12.04,42.49,23.89,63.5,35.96,2.15,1.24,3.73,3.69,5.21,5.84,6.18,8.97,14.86,15.01,25.16,16.72,8.17,1.36,12.09,5.74,15.4,12.13,1.68,3.25,3.49,6.44,5.43,9.54,22.49,35.93,62.74,49.98,102.23,36.07,39.34-13.86,70.75-39.21,100.29-67.27,11.9-11.3,15.26-26.21,11.15-42.38ZM348.04,1145.04c-5.4,7.9-10.32,16.35-13.95,25.17-4.01,9.77-3.19,20.23-.08,30.38,1.26,4.09,2.43,8.21,3.88,13.08h-17.51c.99-42.44,19.8-75.1,52.02-100.95-8.17,10.74-16.75,21.2-24.36,32.32ZM474.26,1061.38c1.51-6.82,2.76-12.45,4.01-18.07.55-.04,1.1-.07,1.65-.11,1.88,4.83,3.75,9.65,6.05,15.58-4,.89-7.26,1.61-11.71,2.6ZM715.15,1449.16c2.38-2.09,4.51-3.95,7.51-6.58,5.15,14.12,7.28,27.82,8.07,41.95-5.02-11.41-10.05-22.81-15.58-35.37ZM852.19,595.39c.18-1.27.26-2.56.6-3.78.07-.26,1.09-.24,2.94-.6-1.59,1.96-2.57,3.17-3.55,4.38ZM847.67,332.98c.28-3.49-.09-6.04.6-6.37,5.27-2.5,10.75-4.56,16.17-6.76.36.72.71,1.45,1.07,2.17-5.39,3.31-10.78,6.62-17.84,10.96ZM887,306.78c1.36-1.14,2.64-2.4,4.1-3.4,13.63-9.29,24.21-21.61,34.13-34.53,7.37-9.59,9.89-9.66,18.53,1.26-18.09,13.51-37.05,25.57-56.76,36.67Z"/>
    <path class="cls-14" d="M399.16,136.48c-5.51-.63-13.14-1.14-20.64-2.43-17.09-2.94-24.81-15.43-29.39-30.45-1.53-5.01-2.45-10.51-2.19-15.71.98-19.67,4.07-38.96,12.45-57.06,3.68-7.96,8.62-14.92,15.44-20.54,16.93-13.96,35.03-12.31,53.24-3.47,19.27,9.36,35.64,22.88,51.74,36.89,29.36,25.55,11.16,75.76-22.44,84.94-18.47,5.05-37.2,6.37-58.21,7.82Z"/>
  </g>
  <g id="Flats">
    <path class="cls-18" d="M961.66,1240.25c3.35,26.28,6.55,52.58,10.08,78.84,3.05,22.64,6.87,45.19,9.61,67.87,1.69,14.06,2.01,28.28,2.91,42.43,1.16,18.2,2.99,36.38,3.29,54.59.52,32.24.48,64.5-.07,96.74-.31,18.08-1.4,36.21-3.42,54.17-3.34,29.59-6.95,59.19-11.89,88.54-4.61,27.4-9.88,54.81-17.08,81.63-8.58,31.98-20.18,63-34.2,93.21-18.65,40.19-42.95,76.3-72.48,109.06-18.96,21.03-40.12,39.64-62.74,56.67-18.06,13.6-36.81,26.01-56.73,36.78-19.21,10.38-37.41,22.68-56.85,32.58-16.21,8.26-33.19,15.44-50.51,20.98-27.41,8.78-55.13,16.94-83.2,23.22-28.73,6.43-58.01,10.44-87.11,15.17-11.01,1.79-21.8-1.22-32.36-3.83-8.33-2.06-12.15-7.33-12.05-13.76.09-5.87,5.17-11.27,13.29-12.56,7.13-1.13,14.46-.89,21.68-1.54,14.81-1.32,30-1.21,44.28-4.71,15.3-3.75,30.07-10.28,44.5-16.85,30.01-13.66,58.26-30.55,84.76-50.17,11.72-8.69,22.9-18.19,33.74-27.97,21.52-19.42,40.18-41.38,56.54-65.33,22.84-33.42,40.28-69.49,52.01-108.12,7.02-23.11,13.4-46.58,17.74-70.31,5.12-27.97,8.54-56.32,8.96-84.86.28-19.1-.29-38.21.17-57.29.54-22.27-2.2-44.28-4.02-66.37-1.16-14.12-2.32-28.24-3.85-42.32-1.47-13.51-3.08-27.02-5.21-40.44-3.62-22.87-6.78-45.87-11.79-68.46-6.16-27.78-13.55-55.31-21.32-82.69-4.14-14.59-9.37-29-15.62-42.81-6.86-15.15-12.09-31.11-21.53-45.14-1.83-2.72.23-8.05.46-11.66-6.51-6.24-13.04-12.52-20.06-19.25-3.28.62-3.87,3.46-3.11,7.21,5.02,24.77,11.44,48.97,27.34,69.46.96,1.24,1.59,2.79,2.18,4.27,4.56,11.55,6.03,23.47,4.64,35.84-1.1,9.82-1.4,19.73-2.71,29.51-1.61,12.09-10.96,18.6-19.96,24.79-5.93,4.07-12.75,6.84-19.17,10.2-3.77,1.18-7.64,2.09-11.28,3.58-14.69,6.03-29.27,12.34-43.97,18.35-22.09,9.03-44.21,17.97-66.4,26.75-4.06,1.61-6.34,4.22-8.15,8.05-3.25,6.88-6.78,13.66-10.71,20.17-2.83,4.7-6,9.41-12.93,11.97-1.84-4.89-4.53-9.23-4.99-13.81-1.23-12.18-1.71-24.45-2.01-36.69-.07-2.7,1.28-5.85,2.91-8.12,6.58-9.14,13.56-17.99,20.29-27.02,1.26-1.69,2.03-3.74,3.14-5.84-1.66-.77-2.49-1.43-3.38-1.52-12.84-1.28-25.68-2.52-38.53-3.7-3.39-.31-6.08.21-8.57,3.47-2.49,3.26-6.57,5.31-9.95,7.89-.83.52-1.69.99-2.48,1.57-5.78,4.23-8.33,3.84-11.63-1.87-6.03-10.43-7.65-21.87-5.65-33.4,1.33-7.68,7.65-12.77,13.91-17.17,2.68-1.88,5.57-3.46,8.36-5.18,13.5-6.42,27.26-12.39,40.9-21.05-9.31-7.32-18.76-9.92-28.44-12-2.68-1.12-5.36-2.25-8.74-3.66,2.41-14.23,12.54-22.7,24.02-31.36-2.91-1.63-4.98-2.92-7.16-3.99-14.24-7-29.05-13.02-42.61-21.14-17.49-10.48-35.93-19.71-50.93-34.04-3.79-3.62-7.94-7.08-12.47-9.66-11.36-6.46-14.08-18.28-18.62-28.9-3.88-9.1-6.88-18.57-10.51-27.78-2-5.08-1.42-9.79,1.13-14.33,18.77-33.5,45.07-58.2,81.15-72.88,25.23-10.27,51.18-15.84,78.03-18.4,6.13,6.54,13.66,8.86,22.51,8.01,4.61-.44,9.31.04,13.96-.08,10.98-.29,20.87,1.32,31.43,6.37,24.41,11.67,43.03,28.83,58.49,50.48,10.32,14.44,17.38,30.41,24.06,46.6,5.81,14.08,8.25,28.55,1.49,43.28,9.32,10.18,18.39,20.3,27.72,30.18,2.7,2.86,5.93,5.33,9.27,7.43,1.57.99,3.95.7,8.29,1.32-9.77-12.61-1.14-18.77,5.36-25.57,1.61-1.68,3.21-3.43,5.06-4.81,28.52-21.2,60.18-36.29,94.11-46.23,20.9-6.12,42.23-11.38,64.45-9.15,3.91.39,7.79,1.13,11.69,1.7.7,1.46,1.69,2.84,2.05,4.38,4.65,19.99,9.85,39.88,13.58,60.05,3.06,16.58,4.31,33.5,6.43,50.26,2.05,16.21,3.18,32.35-1.87,48.3-.6,1.9-.08,4.15-.08,6.79,8.93-1.97,12.35-7.2,13.73-14.8,2.77-15.31,5.88-30.56,8.97-45.81,3.54-17.49,7.11-34.98,10.89-52.41.93-4.28.44-9.47,5.53-11.92Z"/>
    <path class="cls-16" d="M1031.83,157.24c5.19-7.28,11.34-12.86,21.09-12.7,7.27.12,10.63,1.62,12.71,8.49,1.75,5.77,2.05,11.99,2.79,18.03.3,2.45.05,4.97.05,9.79,4.99-4.08,8.56-6.32,11.25-9.34,5.69-6.38,13.24-8.54,21.05-10.21,4.91-1.05,9.43.65,12.31,4.55,2.89,3.9,3.22,8.44.64,13.1-2.86,5.18-5.24,10.62-6.53,17.65,2.1-.91,4.2-1.83,6.31-2.72,4.47-1.88,8.8-4.37,13.46-5.47,6.21-1.47,11.85,1.98,13.04,8.3,1.21,6.38.96,13.02,1.36,19.56-3.19,4.2-6.29,8.47-9.58,12.59-8.28,10.39-16.34,20.97-25.04,30.99-13.68,15.76-27.74,31.21-41.81,46.62-5.12,5.61-10.75,10.75-16.15,16.1-7.72,3.09-10.55,10.73-14.91,16.7-24.78,34-48.45,68.83-73.89,102.31-23.69,31.18-50.33,59.89-79.43,86.26-20.42,18.51-42.26,35.1-65.29,50.18-3.04,1.99-5.9,4.25-8.84,6.39-.99-1.97-1.97-3.94-3.29-6.58-9.3,6.77-17.69,2.55-25.57-1.34-3.8-1.88-7.13-5.8-9.34-9.58-2.95-5.05-4.71-10.82-6.8-16.35-6.82-18.06-12.66-36.32-11.2-56.04.71-9.56,1.37-19.13,1.97-28.7,1.22-19.58,7.14-36.94,22.99-49.79,2.51-2.04,4.56-4.66,7.14-7.35-3.45-4.54-5.89-9.42-11.82-10.34-22.82-3.53-45.6-7.34-68.49-10.35-18.33-2.41-36.76-4.43-55.2-5.45-15.44-.85-30.96-.74-46.48-.53-20.91.28-41.71,1-62.4,4.12-22.23,3.36-44.65,5.84-65.51,15.12-3.71,1.65-7.03,1.61-9.61-2.22-.82-1.22-2.25-2.03-4.46-3.95-2.33,3.51-4.23,6.36-6.13,9.2-10.84-1.4-14.58-10.12-17.32-18.52-5.2-15.93-8.58-32.27-8.98-49.26-.42-17.46,2.16-34.2,6.97-50.94,11.95-41.61,33.68-78.42,55.58-115.15,5.59-9.38,11.47-18.76,18.48-27.07,8.33-9.88,13.76-21.6,21.81-31.57,15.25-18.9,33.18-34.66,56.32-42.79,9.5-3.34,20.11-4.51,30.26-4.79,18.05-.49,35.34,5.24,52.79,9.05,3.62.79,6.53,4.79,10.29,7.71,9.75-6.3,21.19-11.22,33.85-13.31,13.04-2.16,25.7-1.1,38.03,3.53,7.05,2.65,13.88,5.87,20.96,8.4,2.71.97,5.84.74,8.78,1.04,11.2,1.17,22.43,2.06,33.58,3.62,4.75.66,9.38,2.52,13.95,4.13,10.23,3.61,20.37.36,30.36-.76,18.59-2.08,37.16-2.52,55.48.6,21.78,3.72,41.99,11.37,56.63,29.46,7.3,9.03,10.23,19.92,13.99,30.49-.07,10.77,1.27,21.8-6.67,30.66,14.79,9.85,14.14,27.42,2.96,36.98-1.74,1.49-3.36,3.13-5.04,4.69-20.68,10.92-42.76,11.94-65.39,7.78-3.67,13.07-10.92,22.27-18.64,31.58-11.99,14.46-26.77,24.68-43.55,32.15-12.95,5.77-26.41,10.38-39.6,15.48,1.99,7.37,4.21,14.29,5.67,21.36,1.46,7.07,2.31,14.28,3.16,21.45.86,7.26-.08,14.43-2.61,21.24-2.41,6.51-5.37,12.83-8.08,19.23,63-31.41,121.38-68.87,177.77-109.43-2.84-12.92-9.91-22.65-16.17-32.68-5.18-8.3-4.96-13.22,2.52-19.33,2.28-1.87,5.06-3.13,7.61-4.67,8.38,1.05,16.76,2.11,25.67,3.23,12.81-22.04,21.09-46.1,28.18-70.64ZM766.51,129.28c-3.9-4.45-11.09-5.09-10.5-12.68.08-.99-4.55-3.77-6.16-3.23-8.82,2.98-18.95,3.28-25.36,11.67-5.22,6.84-10.89,13.34-15.93,20.31-1.75,2.42-2.2,5.78-3.37,9.04,8.27.8,15.26,1.47,23.82,2.3-7.28,8.78-5.62,16.57-2.26,23.64-3.08,4.11-5.69,7.59-8.67,11.57,4.51,2.17,7.68,3.69,9.95,4.79,31.51-12.47,35.45-39.83,38.47-67.4Z"/>
    <path class="cls-2" d="M452.24,404.28c1.9-2.85,3.79-5.7,6.13-9.2,2.22,1.92,3.64,2.73,4.46,3.95,2.58,3.83,5.9,3.87,9.61,2.22,20.86-9.28,43.28-11.76,65.51-15.12,20.7-3.12,41.5-3.84,62.4-4.12,15.51-.21,31.03-.32,46.48.53,18.45,1.02,36.87,3.04,55.2,5.45,22.89,3.01,45.67,6.82,68.49,10.35,5.93.92,8.37,5.79,11.82,10.34-2.59,2.69-4.63,5.31-7.14,7.35-15.85,12.85-21.76,30.21-22.99,49.79-.6,9.57-1.26,19.14-1.97,28.7-1.45,19.72,4.38,37.98,11.2,56.04,2.09,5.53,3.84,11.3,6.8,16.35,2.21,3.78,5.53,7.7,9.34,9.58,7.88,3.89,16.27,8.11,25.57,1.34,1.32,2.64,2.3,4.61,3.29,6.58,3.99,6.09,8.27,12.02,11.92,18.32,5.02,8.66,9.7,17.52,14.25,26.44,4.15,8.12,7.94,16.44,11.88,24.66.32.76.65,1.52.98,2.28.17,1.29.34,2.58.51,3.87-.91,1.35-2.32,2.59-2.65,4.07-2.04,9.03-8.55,14.79-14.91,20.56-8.82,7.99-17.3,7.17-24.14-2.43-4.01-5.62-7.63-11.57-10.89-17.67-9.04-16.91-17.86-33.93-26.63-50.98-8.1-15.75-16-31.6-24-47.41-3.19-5.89-2.95-11.86-1.37-18.28,4.26-17.35-2.57-34.22-17.49-43.68-2.97-1.88-3.82-4.13-3.97-7.35-.51-10.8-2.12-12.44-13.04-12.28-9.26.13-18.51,1-27.77,1.23-10.24.25-14.85,4.47-15.79,14.62-.22,2.43-.59,5.47-2.11,7.06-6.07,6.31-7.55,14.32-7.33,22.15.59,20.85,2.11,41.67,3.49,62.49.14,2.1,1.81,4.09,2.77,6.13.61,5.98,7.28,2.62,8.69,6.26,2.96-2.47,5.32-4.61,7.86-6.5,2.42-1.8,4.19-.63,5.46,1.71-1.33.99-2.67,1.95-3.99,2.96-6.32,4.82-8.34,10.74-5.2,18.36,1.38,3.34,2.29,6.94,2.91,10.51,5.44,31,7.39,62.39,10.03,93.7,1.14,13.55,1.31,27.2,2.92,40.68,1.81,15.08,3.57,30.07,1.26,45.21-.76,4.98.98,8.87,5.58,10.43,10.95,3.7,20.3,9.88,29.4,16.83,13.46,10.27,22.87,24.16,29.74,38.7,11.31,23.91,18.97,49.43,18.09,76.49-.35,10.88-1.46,21.72-6.64,31.8-2.74,5.34-5.74,10.9-5.79,18.56,2.58-1.66,4-3.07,5.7-3.57,5.91-1.76,12.11-5.05,17.85-4.45,19.2,2.02,33.94,12.32,44.42,28.38,17.39,26.65,21.1,56.92,20.62,87.59-.23,14.45-.13,29.48-7.59,44.37,3.3-.95,4.86-1.31,6.35-1.84,16.5-5.9,30.19-1.93,39,10.1,7,9.55,12.03,19.8,15.6,30.93-3.89-.58-7.77-1.31-11.69-1.7-22.22-2.23-43.54,3.03-64.45,9.15-33.93,9.94-65.59,25.03-94.11,46.23-1.85,1.38-3.45,3.12-5.06,4.81-6.5,6.8-15.13,12.96-5.36,25.57-4.34-.62-6.72-.33-8.29-1.32-3.33-2.1-6.57-4.57-9.27-7.43-9.32-9.88-18.4-20-27.72-30.18,6.76-14.73,4.31-29.2-1.49-43.28-6.68-16.2-13.74-32.16-24.06-46.6-15.47-21.65-34.09-38.81-58.49-50.48-10.55-5.05-20.45-6.66-31.43-6.37-4.65.12-9.35-.36-13.96.08-8.86.85-16.38-1.47-22.51-8.01,1.94-1.06,3.88-2.11,6.34-3.45-4.19-9.5-8.57-18.95-12.55-28.57-6.5-15.75-12.96-31.53-19.02-47.45-6.62-17.38-12.78-34.94-19.13-52.42-3.51-3.25-4.05-6.69-1.33-10.89,4.49-6.94,9.01-13.9,12.91-21.18,6.69-12.51,11.84-25.96,19.53-37.78,17.95-27.62,38.09-53.46,66.43-71.66,6.9-4.43,7.32-8.88,5.55-17.31-2.57-12.26-4.74-24.63-6.55-37.03-1.57-10.75-2.58-21.6-3.52-32.43-1.64-18.79-3.31-37.59-4.45-56.41-.72-11.92-1.19-23.94-.49-35.84.6-10.07-3.23-17.31-10.38-23.51,3.92-5.67,8.14-11.17,11.72-17.05,15.35-25.2,13.81-50.94,2.27-77.03-3.28-7.42-8.76-14.15-7.36-23.22.52-3.36-1.9-5.23-5.23-6.19-11.24-3.22-22.2-.69-33.14,1.5-8.95,1.79-13.36,7.98-14.75,16.68-.35,2.2-.28,4.68-1.3,6.54-12.8,23.52-13.12,47.95-5.63,73,.56,5.84,2.69,12.05,1.39,17.45-4.08,16.97-8.41,34.03-14.57,50.33-8.63,22.86-18.9,45.1-28.7,67.51-1.89,4.33-4.86,8.19-7.33,12.27l-2.05-.48c-1.13-6.67-1.78-13.47-3.5-20-4.58-17.44-5.72-35.14-5.13-53.04,1.19-1.1,2.39-2.2,3.62-3.33,1.71.99,3.34,1.93,4.92,2.84,1.1-.83,2.01-1.32,2.64-2.04.87-.99,1.68-2.08,2.26-3.26,14.5-29.61,21.8-61.22,24.07-93.83,1.64-23.55-.25-47.12-7.9-69.77-2.43-7.19-5.12-14.03-14.73-15.53-6.22-.97-10.94-5.91-12.72-12.62,2.19-.64,4.37-1.29,7.37-2.17,0-10.21.52-20.46-.17-30.63-.5-7.41-.23-14.34,3.92-20.78-2.18-1.08-3.9-1.94-5.62-2.8Z"/>
    <path class="cls-6" d="M557.89,609.92c7.15,6.21,10.98,13.45,10.38,23.51-.7,11.9-.23,23.92.49,35.84,1.14,18.83,2.81,37.62,4.45,56.41.95,10.83,1.95,21.68,3.52,32.43,1.81,12.4,3.98,24.77,6.55,37.03,1.77,8.42,1.35,12.87-5.55,17.31-28.34,18.2-48.48,44.04-66.43,71.66-7.69,11.83-12.84,25.28-19.53,37.78-3.89,7.28-8.41,14.24-12.91,21.18-2.72,4.2-2.18,7.63,1.33,10.89-4.6.56-6.53,3.58-7.95,7.7-8.21,23.79-18.95,46.72-24.37,71.45-3.33,15.17-6.28,30.41-9.47,45.61-.59,2.8-1.5,5.52-2.28,8.33-7.66-2.75-13.64-6.08-19.06-11.18-8.59-8.07-19.82-6.8-30.37-5.62-14.01,1.57-25.65,8.61-35.71,18.16-8.63,8.19-17.38,16.34-25.25,25.24-18.46,20.88-29.33,45.61-34.77,72.78-1.23,6.14-1.32,12.51-2.33,18.7-1.14,6.95-4.32,9.38-12.11,10.06-4.55-6.91-8.08-13.93-8.74-22.64-1.37-18.16-9.95-33.91-21.8-46.85-7.08-7.74-17.58-12.97-27.44-17.32-7.33-3.24-16.04-3.95-24.23-4.57-27.01-2.04-52.09,5.36-75.4,18.21-11.23,6.19-21.39,14.48-31.57,22.41-8.62,6.71-16.81,14.01-24.74,21.54-7.18,6.82-13.72,14.31-20.6,21.45-2.03,2.1-4.23,4.03-6.56,6.24-3.8-3.09-2.8-6.35-1.68-9.4,8.7-23.63,16.49-47.65,26.48-70.73,15.42-35.63,31.89-70.83,48.79-105.78,14.73-30.48,30.21-60.62,46.2-90.46,15.98-29.83,32.97-59.13,49.58-88.62,9.58-17.02,18.94-34.18,29.04-50.89,13.04-21.57,26.84-42.67,40.05-64.14,4.65-7.56,8.51-15.6,12.73-23.43,6.25-9.16,12.75-18.17,18.71-27.52,12.56-19.72,24.84-39.61,37.23-59.43,2.48,3.07,4.57,8.22,7.52,8.77,6.77,1.26,6.61,6.26,8.15,10.6,4.88,13.73,8.23,27.81,11.38,42.07,5.13,23.22,12.5,45.93,18.42,68.99,7.09,27.58,13.73,55.27,20.39,82.96,1.7,7.07,6.32,12.51,12.38,14.21,6.49,1.82,11.49-3.26,15.04-9.1,4.78-7.86,9.48-15.72,17.13-21.5,3.56-2.68,6.14-6.94,8.5-10.89,8.01-13.36,16.27-26.62,23.42-40.44,12.05-23.27,24.23-46.56,34.66-70.58,8.69-20.02,15.05-41.07,22.26-61.73,3.46-9.9,5.46-20.56,15.4-26.69l.65-.03Z"/>
    <path class="cls-8" d="M902.43,1195.41c-3.57-11.13-8.6-21.38-15.6-30.93-8.81-12.03-22.5-16.01-39-10.1-1.5.54-3.05.89-6.35,1.84,7.45-14.89,7.36-29.92,7.59-44.37.48-30.67-3.23-60.94-20.62-87.59-10.48-16.05-25.22-26.36-44.42-28.38-5.74-.6-11.94,2.68-17.85,4.45-1.69.51-3.12,1.91-5.7,3.57.05-7.67,3.04-13.22,5.79-18.56,5.17-10.08,6.28-20.92,6.64-31.8.88-27.06-6.78-52.58-18.09-76.49-6.88-14.55-16.28-28.44-29.74-38.7-9.11-6.94-18.45-13.12-29.4-16.83-4.6-1.56-6.34-5.44-5.58-10.43,2.31-15.14.55-30.13-1.26-45.21-1.61-13.48-1.78-27.13-2.92-40.68-2.64-31.31-4.59-62.7-10.03-93.7-.63-3.57-1.54-7.17-2.91-10.51-3.14-7.62-1.12-13.55,5.2-18.36,1.32-1,2.66-1.97,3.98-2.96,1.79,1.45,4.02,2.58,5.31,4.39,10,14.01,20.29,27.86,29.59,42.32,11.85,18.41,23.26,37.14,34.12,56.15,11.33,19.83,21.94,40.08,32.53,60.32,4.24,8.11,11.27,10.89,18.59,5.13,5.07-4,8.8-9.74,12.99-14.81,2.07-2.51,3.48-5.64,5.79-7.88,8.34-8.09,16.98-15.87,25.42-23.87,31.29-29.68,57.15-63.56,78.19-101.16,4.81-8.6,10.45-16.9,14.06-25.98,6.25-15.72,11.18-31.96,16.79-47.94.73-2.08,1.73-4.59,3.4-5.73,4.61-3.15,9.64-5.69,14.5-8.47,3.75,5.49,1.2,11.82,2.27,17.71.88,4.83.09,9.94.26,14.92.66,20.19.63,40.45,2.33,60.56,1.81,21.44,3.65,42.82,3.88,64.36.17,16.54,1.28,33.08,1.86,49.62.73,21.19,1.29,42.38,2.03,63.57.58,16.54,1.33,33.07,2.01,49.61-.62,13.47-1.33,26.94-1.84,40.42-.88,23.56-1.55,47.12-2.46,70.68-.43,11.25-1.16,22.48-1.81,33.72-1.37,23.49-2.8,46.97-4.17,70.46-.29,4.97-.12,9.98-.66,14.92-1.48,13.49-3.23,26.95-4.84,40.43-.31,2.62.35,4.65,3.57,4.63-1.39,2.51-3.48,4.87-4.03,7.55-1.59,7.74-2.72,15.59-3.74,23.44-2.46,18.98-5.12,37.94-6.95,56.98-.78,8.1.31,16.37.55,24.57-5.09,2.45-4.6,7.64-5.53,11.92-3.79,17.44-7.35,34.92-10.89,52.41-3.09,15.25-6.21,30.5-8.97,45.81-1.37,7.6-4.79,12.83-13.73,14.8,0-2.65-.52-4.9.08-6.79,5.04-15.95,3.91-32.09,1.87-48.3-2.12-16.76-3.37-33.68-6.43-50.26-3.73-20.16-8.93-40.06-13.58-60.05-.36-1.54-1.35-2.92-2.05-4.38Z"/>
    <path class="cls-13" d="M975.83,1127.71c-3.22.02-3.88-2.01-3.57-4.63,1.6-13.48,3.36-26.94,4.84-40.43.54-4.94.37-9.95.66-14.92,1.37-23.49,2.8-46.97,4.17-70.46.66-11.24,1.38-22.47,1.81-33.72.9-23.56,1.58-47.12,2.46-70.68.5-13.48,1.22-26.95,1.84-40.42,10.66-3.57,21.29-7.24,32-10.67,11.43-3.66,23.39-3.03,35.14-3.55,8.2-.36,14.25,4.96,19.8,10.19,6.18,5.81,12,12.03,17.76,18.27,13.75,14.89,23.63,32.49,34.04,49.65,17.2,28.36,30.79,58.57,44.34,88.78,5.38,13.15,8.27,27.29,15.07,40.93,19.16-16.61,30.73-36.11,36.53-59.18,2.88-11.3,8.53-17.67,26.27-15.57,15.18,1.8,28.43,8.04,41.49,15.11,2.77,1.5,4.96,4.05,7.13,5.86-2.22,9.81-9.55,8.81-15.94,9.53-18,.15-31.16,10.34-29.97,22.55,11.04-2.92,22.18-5.79,33.27-8.86,2.8-.78,5.43-2.2,8.13-3.33,2.95-.26,5.91-.73,8.86-.72,6.29.02,10.45,2.41,14.17,8.36,5.86,9.38,10.24,18.99,11.97,29.8.82,5.13,1.28,10.36,1.31,15.56.05,7.93-2.48,9.35-10.23,6.35-.92-.36-1.89-.59-2.83-.87-16.63-8.58-33.03-4.34-50.55.42,2.28,2.89,3.95,4.86,5.45,6.95,8.49,11.77,17.22,23.37,25.3,35.41,4.84,7.21,2.45,11.05-6.47,10.55-10.85-.6-21.66-1.9-32.47-3.12-8.97-1.02-16.13,1.63-21.43,9.17-2.08,2.95-4.31,6.01-7.11,8.2-12.94,10.08-27.68,15.01-44.17,15.19-10.21.11-20.4,1.07-30.6,1.65-6.53-.73-13.13-1.11-19.57-2.32-4.31-.81-7.83-3.24-9.02-8.17-1.54-6.37-6.53-8.84-12.14-11.58-12.1-5.89-23.59-13.02-35.36-19.58-3.67-2.04-7.6-3.65-11.12-5.9-12.47-7.99-24.81-16.17-38.49-25.12-15.42,16.21-33.25,31.78-52.77,45.33Z"/>
    <path class="cls-13" d="M342.58,623.26c-12.39,19.82-24.67,39.72-37.23,59.43-5.96,9.35-12.46,18.36-18.71,27.52-9.51,1.02-16.43-4.07-20.33-11.49-9.75-18.57-19.29-37.26-25.31-57.59-3.91-13.19-10.07-25.7-14.72-38.7-8.97-25.09-17.58-50.31-26.37-75.46-.98-2.8-2.18-5.52-3.28-8.27-.22-1.58.11-3.63-.76-4.66-4.36-5.11-4.77-11.12-3.97-18.21-7.11,1.45-12.88-.44-16.28-5.89-8.7-13.93-16.9-28.17-25.26-42.31-2.3-3.88-4.44-7.85-6.57-11.63-4.25.85-7.78,1.55-11.32,2.26-3.15-.86-6.25-2.2-9.45-2.46-5.13-.42-6.51-3.36-6.93-7.82-1.05-11.07,3.31-23.61,21.47-26.54,7.09-1.84,14.19-3.69,21.29-5.54.09-.76.18-1.52.28-2.29-5.71-3.52-11.43-7.04-17.14-10.57-1.21-1.08-2.37-2.24-3.65-3.24-8.95-6.97-10.21-17.44-3.1-26.57,1.01-1.3,2.19-2.5,3.44-3.58,3.73-3.21,7.53-6.33,11.01-9.24,8.24,3.23,15.88,6.24,23.5,9.23,5.93,2.15,11.89,4.31,19.46,7.05-.97-7-1.71-12.32-2.45-17.63-3.33-13.17.48-21.13,16.67-28.58,10.01,4.61,13.42,15.47,20.5,22.96,4.06,8.54,7.73,17.29,12.25,25.58,8.81,16.17,18.09,32.09,27.44,48.57,2.16-.32,5.28-.24,7.95-1.29,9.72-3.8,21.06-3.69,29.03-11.78,3.69-.49,7.47-4.92,11-.83,3.46,4.01.75,8.25-1.43,11.96-4.86,8.29-9.95,16.45-14.94,24.66-8.61,5.95-17.15,12-25.86,17.8-4.77,3.18-5.76,4.9-3.13,9.5,4.7,8.23,9.76,16.25,14.67,24.36,3.31,5.61,5.88,11.85,10.06,16.71,9.68,11.25,19.67,22.33,30.49,32.46,5.38,5.03,12.85,7.83,20.47,12.27,24.73-39.46,57.88-67.64,101.42-82.77,1.78,6.71,6.5,11.65,12.72,12.62,9.61,1.5,12.3,8.34,14.73,15.53,7.64,22.65,9.54,46.23,7.9,69.77-2.27,32.6-9.57,64.22-24.07,93.83-.58,1.18-1.39,2.27-2.26,3.26-.63.72-1.54,1.21-2.64,2.04-1.58-.91-3.21-1.85-4.92-2.84-1.23,1.13-2.42,2.23-3.62,3.33-2.12-2.87-4.49-5.58-6.28-8.64-2.07-3.54-3.93-6.99-8.13-6.77-9.56,5.06-15.48,14.82-26.51,17.33-5.11-21.68-7.17-42.27-3.78-63.21.28-1.72-.24-4.24-1.39-5.4-2.73-2.77-5.75-5.58-9.2-7.26-12.81-6.24-25.65-12.57-40.38-12.95-9.81-.25-19.73-1.62-29.4-.58-6.31.68-12.47,4.36-18.28,7.48-4.05,2.17-3.38,6.23,1.02,8.01,3.04,1.24,6.85,1.1,9.43,2.88,12.97,8.9,23.78,19.89,30.88,34.17Z"/>
    <path class="cls-23" d="M476.28,1441.11c3.38-2.58,7.46-4.63,9.95-7.89,2.5-3.26,5.18-3.78,8.57-3.47,12.85,1.18,25.7,2.41,38.53,3.7.89.09,1.72.76,3.38,1.52-1.11,2.09-1.88,4.15-3.14,5.84-6.73,9.03-13.72,17.88-20.29,27.02-1.63,2.27-2.98,5.41-2.91,8.12.3,12.25.77,24.52,2.01,36.69.46,4.57,3.15,8.92,4.99,13.81,6.93-2.56,10.11-7.28,12.93-11.97,3.92-6.51,7.45-13.3,10.71-20.17,1.81-3.83,4.09-6.45,8.15-8.05,22.19-8.78,44.31-17.72,66.4-26.75,14.7-6.01,29.27-12.32,43.97-18.35,3.64-1.49,7.51-2.4,11.28-3.58,15.69,21.74,28.22,45.09,34.16,71.39,3.6,15.93,2.68,31.57-6.4,46.16-7.22,11.6-17.31,19.24-29.82,23.73-11.22,4.03-23.03,6.51-34.02,11.04-18.82,7.75-38.58,12.04-58.12,17.01-22.76,5.79-45.86,7.48-68.89.67-16.79-4.96-27.5-16.54-34.48-32.01-.73-1.62-.27-3.94.09-5.84.36-1.94,1.22-3.79,1.97-5.64,4.1-10.11,4.28-20.07,1.86-30.91-5.03-22.55-5.05-45.43-1.47-68.37,1.21-7.74.45-15.78.6-23.69Z"/>
    <path class="cls-3" d="M973.41,532.12c-4.86,2.78-9.89,5.32-14.5,8.47-1.67,1.14-2.67,3.65-3.4,5.73-5.61,15.98-10.53,32.22-16.79,47.94-3.62,9.09-9.25,17.38-14.06,25.98-21.04,37.61-46.9,71.49-78.19,101.16-8.43,8-17.08,15.78-25.42,23.87-2.31,2.24-3.71,5.37-5.79,7.88-4.19,5.08-7.92,10.82-12.99,14.81-7.32,5.76-14.35,2.98-18.59-5.13-10.59-20.24-21.2-40.49-32.53-60.32-10.86-19.01-22.28-37.73-34.12-56.15-9.31-14.47-19.59-28.31-29.59-42.32-1.29-1.81-3.52-2.94-5.31-4.39-1.27-2.34-3.03-3.51-5.46-1.71-2.54,1.89-4.9,4.03-7.86,6.5-1.41-3.64-8.08-.28-8.69-6.26,5.93.88,9.79-1.63,13.19-6.56,4.47-6.47,7.11-13.04,7.24-21.07.09-5.45,1.36-11.23,3.51-16.25,6.43-14.98,18.19-16.29,28.47-3.6,6.61,8.16,14.29,14.74,24.97,16.68,1.61.29,3.48-.82,5.23-1.28,7.99,15.81,15.9,31.65,24,47.41,8.76,17.05,17.59,34.07,26.63,50.98,3.26,6.09,6.88,12.04,10.89,17.67,6.84,9.6,15.32,10.42,24.14,2.43,6.36-5.76,12.87-11.53,14.91-20.56.33-1.48,1.74-2.72,2.65-4.07,7.46-.33,9.02-7.4,11.98-11.83,11.21-16.78,22.13-33.83,31.84-51.5,12.91-23.52,24.54-47.74,29.54-74.48.49-2.6,1.14-5.3.9-7.89-1.31-14.5,7.79-22.83,18.99-27.38,18.65-7.57,38.05-13.51,58.58-13.91,1.3-.03,2.64-.68,3.88-.49,2.35.34,6.04.46,6.64,1.8.85,1.9.22,5.56-1.22,7.17-4.39,4.93-9.46,9.26-14.3,13.77-2.66,2.48-5.43,4.86-8.13,7.3-8.78,7.94-11.21,18.31-11.24,29.58Z"/>
    <path class="cls-9" d="M1048.78,322.56c5.4-5.35,11.03-10.5,16.15-16.1,14.08-15.42,28.13-30.86,41.81-46.62,8.7-10.02,16.76-20.61,25.04-30.99,3.29-4.12,6.39-8.39,9.58-12.59,7.38,2.65,14.84,5.12,22.13,8.01,6.13,2.43,12.26,5,18.05,8.14,11.1,6.01,17.1,15.93,20.63,27.82,4.82,16.24,2.16,32.27-.86,48.23-5.76,30.4-18.89,57.3-40.65,79.42-7.61,7.74-16.5,14.42-25.56,20.48-10.46,6.99-20.77,5.05-30.89-3-14.16-11.27-22.07-27.08-31.34-41.87-8.4-13.4-16.09-27.26-24.09-40.92Z"/>
    <path class="cls-23" d="M1096.6,595.48c15.18,1.24,30.36,2.64,45.56,3.66,19.12,1.29,25.47,10.26,30.46,25.36,7.42,22.44,6.33,45.74,2.44,68.95-2.08,12.38-10.65,18.7-20.66,23.64-5.62,2.77-11.77,4.57-17.82,6.32-13.65,3.96-27.51,7.23-41.06,11.48-18.46,5.79-30.45-2.63-40.06-17.05-6.07-9.11-10.96-18.41-12.76-29.72-2.83-17.76-6.51-35.28-2.27-53.24,2.71-11.45,7.22-22.05,15.34-30.85,5.65-6.12,13.34-7.28,20.89-8.04,6.57-.66,13.27-.14,19.91-.14.02-.12.03-.25.05-.37Z"/>
    <path class="cls-17" d="M1154.3,1155.05c10.2-.58,20.4-1.53,30.6-1.65,16.49-.18,31.23-5.1,44.17-15.19,2.8-2.19,5.04-5.25,7.11-8.2,5.3-7.54,12.46-10.19,21.43-9.17,10.8,1.22,21.62,2.52,32.47,3.12,8.92.5,11.31-3.34,6.47-10.55-8.08-12.04-16.81-23.65-25.3-35.41-1.51-2.09-3.17-4.06-5.45-6.95,17.52-4.77,33.92-9,50.55-.42.67,5.85.81,11.82,2.12,17.52,3.62,15.83,7.37,31.65,11.76,47.28,2.28,8.11.81,14.55-5.6,19.56-21.62,16.92-40.42,37.74-66.66,48.28-8.3,3.34-16.32,7.59-24.87,10.06-25.78,7.45-48.83-5.84-60.91-26.36-6.19-10.51-11.94-21.28-17.89-31.93Z"/>
    <path class="cls-24" d="M327.04,1244.43c5.54,1.05,12.24.24,14.71,6.5,2.95,7.49,7.67,15.41,1.87,23.56-3.84,5.39-8.01,10.65-12.7,15.29-13.44,13.31-27.36,26.15-40.81,39.44-6.59,6.51-13.24,7.83-21.24,2.83-12.14-7.6-23.05-16.15-22.88-32.17.04-3.9,1.53-9.01,4.24-11.47,20.08-18.17,42.29-33.13,68.18-41.95,2.82-.96,5.81-1.39,8.63-2.04Z"/>
    <path class="cls-15" d="M399.59,105.87c-1.5-.2-4.81-.46-8.03-1.14-3.41-.72-8.12-.81-9.78-3.04-2.59-3.49-4.45-8.6-4.23-12.9.78-15.24,2.89-30.36,9.32-44.49.14-.3.26-.61.4-.91,5.7-12.4,14.32-15.67,26.5-9.58,16.99,8.5,31.8,20.17,45.6,33.05,9.22,8.61,4.04,26.94-9.07,31.51-8.07,2.81-16.65,4.45-25.14,5.72-7.83,1.17-15.83,1.15-25.57,1.77Z"/>
    <path class="cls-5" d="M1009.74,1343.73c2.49-15.35,4.58-30.47,16-42.19,4.28-4.4,9.22-6.15,15.25-5.45,11.54,1.35,22.79,3.69,33,9.56,2.85,1.64,5.85,3.21,8.28,5.37,8.22,7.31,8.59,15.02-.02,21.81-6.41,5.06-13.96,8.78-21.28,12.55-9.96,5.14-20.5,8.83-29.18,16.67-7.81,7.06-17.82,2.77-20.37-7.71-.86-3.52-1.16-7.17-1.69-10.61Z"/>
    <path class="cls-21" d="M304.01,394.53c-7.97,8.09-19.31,7.98-29.03,11.78-2.67,1.04-5.79.96-7.95,1.29-9.35-16.48-18.63-32.4-27.44-48.57-4.52-8.29-8.19-17.04-12.25-25.58,2.29.26,4.62.93,6.87.72,17.11-1.62,33.23,2.8,49.43,7.36,6.89,1.94,11.12,6.39,12.66,12.49,2.81,11.14,4.41,22.58,6.51,33.9.41,2.21.8,4.42,1.2,6.63Z"/>
    <path class="cls-1" d="M975.29,220.49c1.68-1.57,3.3-3.2,5.04-4.69,11.18-9.56,11.83-27.13-2.96-36.98,7.94-8.86,6.6-19.89,6.67-30.66,9.03-6.11,18.59-10.41,29.34-5.07,4.85,2.41,9.01,6.25,13.39,9.56,1.81,1.37,3.38,3.05,5.07,4.59-7.09,24.54-15.37,48.6-28.18,70.64-8.91-1.12-17.29-2.17-25.67-3.23-.9-1.39-1.8-2.78-2.69-4.17Z"/>
    <path class="cls-12" d="M132.46,438.25c3.54-.7,7.07-1.41,11.32-2.26,2.13,3.77,4.28,7.74,6.57,11.63,8.36,14.14,16.56,28.38,25.26,42.31,3.4,5.45,9.17,7.34,16.28,5.89-.8,7.09-.38,13.1,3.97,18.21.87,1.02.54,3.08.76,4.66-14.66,2.44-28.41-.66-41.05-7.94-8.56-4.93-16.56-10.86-24.57-16.66-4.95-3.58-7.41-8.71-5.24-14.77,4.76-13.31,5.04-27.29,6.7-41.07Z"/>
    <path class="cls-4" d="M1222.72,986.88c-5.79,23.08-17.36,42.57-36.53,59.18-6.8-13.64-9.69-27.79-15.07-40.93,12.25-8.08,24.8-15.51,39.74-17.39,3.93-.49,7.91-.58,11.86-.86Z"/>
    <path class="cls-11" d="M284.31,481.99c-4.91-8.11-9.97-16.13-14.67-24.36-2.63-4.6-1.64-6.32,3.13-9.5,8.71-5.8,17.25-11.86,25.86-17.8-1.22,18.21-4.7,35.79-14.32,51.67Z"/>
    <path class="cls-20" d="M491.25,1352.01c9.68,2.08,19.13,4.68,28.44,12-13.64,8.67-27.4,14.64-40.9,21.05,4.15-11.02,8.31-22.04,12.46-33.05Z"/>
    <path class="cls-22" d="M1293.12,1012.17c-2.71,1.13-5.33,2.55-8.13,3.33-11.09,3.07-22.24,5.94-33.27,8.86-1.19-12.21,11.97-22.4,29.97-22.55,3.81,3.45,7.63,6.91,11.44,10.36Z"/>
    <path class="cls-22" d="M141.96,383.03c5.71,3.52,11.43,7.04,17.14,10.57-.09.76-.18,1.52-.28,2.29-7.1,1.85-14.2,3.69-21.29,5.54,1.49-6.13,2.95-12.26,4.42-18.39Z"/>
    <path class="cls-7" d="M190.16,339.06c.74,5.31,1.48,10.63,2.45,17.63-7.56-2.74-13.52-4.9-19.46-7.05,5.69-3.52,11.35-7.05,17.01-10.58Z"/>
    <path class="cls-3" d="M845.45,656.1c-.33-.76-.65-1.52-.98-2.28.33.76.65,1.52.98,2.28Z"/>
    <path class="cls-19" d="M766.51,129.28c-3.02,27.56-6.96,54.92-38.47,67.4-2.27-1.09-5.44-2.61-9.95-4.79,2.98-3.98,5.59-7.46,8.67-11.57-3.36-7.07-5.02-14.86,2.26-23.64-8.57-.83-15.55-1.5-23.82-2.3,1.16-3.26,1.62-6.62,3.37-9.04,5.04-6.97,10.7-13.47,15.93-20.31,6.41-8.39,16.54-8.69,25.36-11.67,1.61-.54,6.24,2.24,6.16,3.23-.59,7.59,6.59,8.23,10.5,12.68Z"/>
    <path class="cls-3" d="M342.58,623.26c-7.09-14.28-17.91-25.27-30.88-34.17-2.58-1.77-6.39-1.64-9.43-2.88-4.4-1.79-5.06-5.84-1.02-8.01,5.81-3.12,11.97-6.81,18.28-7.48,9.67-1.04,19.58.33,29.4.58,14.72.38,27.57,6.71,40.38,12.95,3.45,1.68,6.47,4.49,9.2,7.26,1.15,1.16,1.67,3.67,1.39,5.4-3.39,20.94-1.33,41.53,3.78,63.21,11.02-2.51,16.94-12.28,26.51-17.33,4.2-.22,6.06,3.23,8.13,6.77,1.79,3.06,4.17,5.77,6.28,8.64-.59,17.9.55,35.61,5.13,53.04,1.71,6.52,2.36,13.32,3.5,20l2.05.48c2.47-4.08,5.44-7.94,7.33-12.27,9.8-22.4,20.07-44.65,28.7-67.51,6.16-16.3,10.49-33.36,14.57-50.33,1.3-5.39-.83-11.61-1.39-17.45,3.86-.09,3.74-3.21,4.12-5.7,1.12-7.4,5.4-12.47,11.14-16.92,11.01-8.53,24.21-6.03,29.58,6.72,2.9,6.9,4.21,14.55,5.61,21.98,1.23,6.49,1.58,13.14,2.31,19.72-9.94,6.13-11.94,16.78-15.4,26.69-7.22,20.65-13.57,41.7-22.26,61.73-10.43,24.02-22.6,47.3-34.66,70.58-7.16,13.82-15.41,27.08-23.42,40.44-2.36,3.94-4.94,8.2-8.5,10.89-7.66,5.78-12.36,13.64-17.13,21.5-3.55,5.84-8.55,10.93-15.04,9.1-6.07-1.7-10.68-7.14-12.38-14.21-6.66-27.69-13.3-55.38-20.39-82.96-5.93-23.06-13.3-45.77-18.42-68.99-3.15-14.26-6.49-28.34-11.38-42.07-1.54-4.34-1.38-9.34-8.15-10.6-2.95-.55-5.04-5.71-7.52-8.77ZM404.94,671.05c7.62,33.03,11.65,65.43,22.49,96.89,7.48-3.28,10.71-8.92,14.09-13.95,2.02-2.99,2.85-7.37,2.73-11.08-.21-6.58-.99-13.27-2.54-19.66-3.71-15.27-4.73-30.61-2.95-46.18.51-4.47-.22-8.48-3.73-11.81-2.33-2.21-4.21-4.9-6.91-8.12-7.73,4.64-15.3,9.18-23.18,13.91Z"/>
    <path class="cls-10" d="M742.74,566.12c-1.75.46-3.62,1.57-5.23,1.28-10.68-1.93-18.37-8.52-24.97-16.68-10.28-12.7-22.04-11.39-28.47,3.6-2.16,5.02-3.43,10.8-3.51,16.25-.13,8.03-2.77,14.6-7.24,21.07-3.4,4.93-7.26,7.44-13.19,6.56-.96-2.04-2.63-4.04-2.77-6.13-1.38-20.82-2.9-41.64-3.49-62.49-.22-7.84,1.26-15.84,7.33-22.15,1.52-1.58,1.88-4.62,2.11-7.06.94-10.15,5.55-14.37,15.79-14.62,9.26-.23,18.51-1.09,27.77-1.23,10.93-.16,12.53,1.49,13.04,12.28.15,3.22,1,5.47,3.97,7.35,14.92,9.47,21.75,26.34,17.49,43.68-1.58,6.42-1.82,12.39,1.37,18.28Z"/>
    <path class="cls-10" d="M557.24,609.95c-.74-6.58-1.09-13.23-2.31-19.72-1.4-7.43-2.71-15.08-5.61-21.98-5.36-12.75-18.57-15.25-29.58-6.72-5.74,4.45-10.02,9.53-11.14,16.92-.38,2.5-.25,5.61-4.12,5.7-7.49-25.05-7.17-49.48,5.63-73,1.01-1.86.95-4.34,1.3-6.54,1.39-8.7,5.8-14.88,14.75-16.68,10.93-2.19,21.89-4.73,33.14-1.5,3.33.95,5.75,2.82,5.23,6.19-1.41,9.07,4.07,15.8,7.36,23.22,11.54,26.09,13.08,51.83-2.27,77.03-3.58,5.88-7.8,11.38-11.72,17.05,0,0-.65.03-.65.03Z"/>
  </g>
  <g id="Lineart">
    <path d="M988.72,850.44c6.9-2.3,13.16-4.2,19.28-6.46,15.52-5.74,31.65-6.69,47.95-6.3,5.44.13,10.35,1.7,14.45,5.7,7.5,7.32,16.34,13.55,22.62,21.77,12.02,15.74,23.3,32.15,33.68,49.02,18.13,29.45,32.78,60.74,45.91,92.71,3.91,9.52,7.01,19.38,10.52,29.07.87,2.41,1.87,4.78,3.19,8.12,9.09-7.45,15.5-15.81,21.26-24.72,6.92-10.7,11.36-22.5,15.12-34.62,3.72-12.01,9.57-16.05,22.26-14.85,12.6,1.19,24.96,3.66,36.09,10.29,4.27,2.54,9.02,4.4,12.94,7.36,2.03,1.54,3.9,4.88,3.79,7.32-.17,3.93-3.47,6.35-7.46,6.86-2.95.38-5.99.09-8.97.27-14.83.87-23.11,6.61-29.44,20.76,12.4-3.29,24.42-6.32,36.35-9.67,24.09-6.76,24.75-1.82,34.7,16.44,6.07,11.14,7.72,23.87,7.93,36.59.11,6.56-4.21,9.54-10.26,7.15-2.47-.98-4.95-1.94-7.34-3.09-14.69-7.11-29.08-2.41-45.21,1.02,4.72,6.4,8.98,11.99,13.04,17.72,5.74,8.1,11.67,16.09,16.88,24.51,4.42,7.15,1.06,12.49-7.47,11.86-10.86-.8-21.66-2.44-32.5-3.63-9-.99-16.01,2.06-21.46,9.62-10.95,15.19-27.17,20.71-44.83,22.47-11.22,1.12-22.56,1.35-33.85,1.39-7.87.03-15.79-.61-23.6-1.6-4.4-.56-8.21-3.03-9.19-7.97-1.27-6.36-6.08-8.91-11.27-11.49-10.93-5.44-21.83-10.98-32.49-16.94-9.72-5.44-19.22-11.3-28.6-17.31-7.78-4.99-15.25-10.47-23.41-16.12-5.19,4.93-10.42,10.41-16.18,15.26-11.19,9.4-22.56,18.61-34.11,27.56-4.16,3.22-6.76,6.45-7.41,12.06-3.06,26.03-6.91,51.97-9.89,78.02-.9,7.85-.57,16,.37,23.87,3.06,25.69,6.58,51.33,10.06,76.97,3.7,27.29,8.18,54.5,11.13,81.87,2.49,23.13,3.81,46.43,4.69,69.69,1.01,26.51,1.42,53.07,1.22,79.6-.14,18.9-1.52,37.8-2.72,56.67-1.14,17.89-2.38,35.79-4.24,53.62-3.47,33.34-8.7,66.4-15.2,99.32-7.68,38.95-18.55,76.89-33.47,113.55-12.65,31.09-27.22,61.25-46.84,88.89-16.05,22.6-33,44.33-52.87,63.58-28.99,28.1-60.54,52.94-95.89,72.74-16.8,9.41-33.59,18.87-49.91,29.07-21.9,13.68-45.69,23.06-70.11,30.51-30.48,9.3-61.21,18.05-92.3,24.93-26.23,5.8-53.03,9.42-79.77,12.24-9.79,1.03-20.26-2.43-30.13-4.95-6.7-1.71-10.11-8-9.81-14.39.25-5.27,4.94-11.33,11.27-12.51,7.38-1.38,15-2.11,22.5-2.05,26.54.24,52.21-4,76.48-14.79,38.1-16.94,74.21-37.48,107.12-63.2,39.49-30.85,71.74-68.01,96.93-111.5,22.21-38.34,37.26-79.33,47.64-122.16,8.15-33.65,13.35-67.81,14.6-102.45.96-26.57,2.11-53.19,1.42-79.74-.64-24.87-3.11-49.73-5.66-74.51-2.58-25.07-5.58-50.13-9.62-75-4.61-28.42-9.97-56.76-16.11-84.89-4.74-21.68-10.43-43.22-17.16-64.36-4.91-15.43-12.11-30.14-18.47-45.1-3.74-8.8-7.87-17.44-11.78-26.17-.54-1.21-.5-2.96-1.38-3.69-6.21-5.12-4.66-11.06-2.52-15.99-6.59-6.09-12.79-11.8-19.85-18.31-.48,1.04-2.14,2.87-1.86,4.33,4.7,24.54,11,48.46,26.3,69.03,2.67,3.59,4.71,8.15,5.53,12.54,3.3,17.7,2.84,35.27.49,53.31-2.86,21.92-17.98,31.05-34.81,38.19-31.75,13.47-64.17,25.34-96.2,38.16-11.09,4.44-21.9,9.59-32.69,14.73-2.17,1.03-4.15,3.19-5.37,5.32-3.96,6.91-7.32,14.17-11.31,21.06-3.14,5.42-7.12,10.25-13.05,13.47-6.39-6.56-7.65-14.31-8.21-22.17-.59-8.27-.84-16.58-.96-24.88-.09-6,.59-11.58,4.86-16.75,7.58-9.18,14.3-19.07,22.09-29.62-9.07-1.05-17.42-2.24-25.8-2.92-6.61-.53-13.74-1.97-19.78-.15-5.55,1.67-9.92,7.21-14.88,10.96-8.34,6.3-10.71,5.55-15.52-3.7-4.61-8.88-6.09-18.3-5.41-28.04.75-10.77,8.06-17.43,16.55-22.25,13.28-7.54,27.08-14.15,40.66-21.16,1.7-.88,3.34-1.86,5.88-3.29-11.13-7.93-23.79-9.64-35.84-14.5.07-15.64,12.18-23.36,21.89-32.93-15.71-7.78-31.47-14.71-46.35-23.17-18.08-10.27-36.32-20.48-52.1-34.35-2.73-2.4-5.98-4.2-8.94-6.33-10.95-7.9-17.83-18.61-22.15-31.29-2.77-8.14-6.16-16.06-9.32-24.06-3.64-9.22-4.08-17.67,2.82-26.17,5.8-7.15,9.35-16.14,15.27-23.17,16.31-19.38,36.5-33.63,59.82-43.8,23.4-10.21,47.91-15.51,72.99-18.94,4.22-.58,8.38-1.64,12.94-2.55-16.86-43.17-33.49-85.74-50.84-130.19-21,44.2-32.75,89.34-40.55,136.99-7.71-5.02-15.06-6.39-20.72-12.23-7.53-7.77-18.07-7.11-28.08-6.54-12.57.72-22.64,7.3-32.29,14.45-30.75,22.77-51.02,52.99-61.75,89.49-2.69,9.15-3.1,18.99-4.38,28.53-.76,5.64-2.84,10.32-8.38,12.58-3.35,1.37-5.77,1.06-8.14-2.84-4.22-6.92-6.67-13.81-7.22-22.09-.87-13.03-6.41-24.65-14.19-35.21-22.4-30.44-52.98-36.15-87.79-29.34-29.47,5.77-54.48,20.07-77.35,39.14-16.65,13.88-32.37,28.58-46.49,45.01-1.44,1.67-3.63,2.7-5.38,3.97-4.18-2.34-4.8-4.97-3.22-9.19,9.1-24.25,16.82-49.07,27.05-72.82,14.98-34.76,30.93-69.16,47.84-103.01,21.82-43.68,44.58-86.91,67.75-129.89,18.61-34.52,38.07-68.59,57.83-102.46,12.54-21.52,26.36-42.3,39.5-63.47,4.19-6.75,8.05-13.71,11.5-19.62-6.05-4.51-12.74-7.93-17.15-13.23-4.74-5.69-7.64-13.02-10.78-19.89-4-8.73-7.73-17.6-11.07-26.6-8.16-21.98-16.08-44.05-23.99-66.12-5.81-16.21-11.38-32.51-17.21-48.71-3.68-10.23-7.82-20.29-11.4-30.56-1.18-3.39-1.28-7.15-1.99-11.5-9.27.69-14.55-4.94-18.94-12.67-8.97-15.8-18.48-31.3-27.41-46.32-7.68-.74-15.1-1.52-22.53-2.14-3.71-.31-5.27-2.78-5.79-5.86-1.89-11.09,1.85-24.98,16.68-28.95,7.99-2.14,16.08-3.92,25.8-6.26-5.19-4.09-9.34-7.47-13.61-10.68-1.84-1.39-4-2.34-5.88-3.68-8.14-5.75-11.42-15.62-6.2-23.99,3.92-6.28,10.02-11.32,15.69-16.3,1.27-1.11,4.99-.1,7.28.74,11.5,4.21,22.9,8.69,35.56,13.54-.2-3.65-.19-6.12-.5-8.55-.55-4.28-1.64-8.5-1.89-12.79-.61-10.39,4.95-18.89,14.51-22.84,4.32-1.79,9.37-.42,12.96,4.79,6.01,8.71,11.74,17.65,16.97,26.85,9.49,16.71,18.56,33.65,27.71,50.55,2.19,4.04,3.99,8.3,6.45,13.48,11.31-1.7,22.57-5,33.29-10.24,2.98-1.46,5.7-3.54,8.78-4.64,4.85-1.73,7.96.41,8.02,5.46.03,2.57-.54,5.34-1.54,7.71-8.24,19.4-21.47,34.23-40.51,43.65-2.03,1-3.85,2.4-6.44,4.04,19.13,34.9,37.5,69.7,75.27,88.71,10.16-12.21,18.99-24.73,29.78-35.26,11.11-10.84,23.38-20.9,36.5-29.15,12.82-8.06,27.34-13.41,42.91-20.8,0-8.41-.17-18.9.06-29.39.15-6.41.92-12.81,1.47-19.91-12.97-1.9-17.69-12.44-21.62-24.41-6.52-19.83-8.3-40.19-7.84-60.77.18-8.2,1.89-16.5,3.88-24.51,5.56-22.3,12.98-44.04,23.68-64.4,10.98-20.88,22.34-41.62,34.66-61.73,8.27-13.5,18.51-25.8,27.86-38.64.78-1.07,1.69-2.07,2.26-3.25,14.24-29.67,37.95-49.12,67.79-61.21,16.42-6.65,33.95-5.53,51.13-2.72,9.81,1.6,19.43,4.29,29.16,6.38,5.09,1.09,9.59,2.91,11.24,7,11.98-3.99,23.33-8.79,35.16-11.44,13.42-3.01,26.99-1.59,39.9,3.89,6.87,2.91,13.8,5.71,20.8,8.27,2.07.76,4.5.73,6.77.72,15-.05,29.62,1.34,44.01,6.51,7.59,2.73,16.11,3.24,24.55,1.82,20.07-3.37,40.27-4.54,60.54-1.69,20.68,2.92,40.22,8.93,56.05,23.24,11.51,10.41,17.76,24.08,19.74,39.28,1.28,9.8,2.15,20.02-4.33,28.34,2.97,4.26,6.26,7.69,8.02,11.78,4.44,10.31,2.03,20.29-7.19,27.74-5.06,4.09-11.02,7.63-17.15,9.71-14.3,4.85-29.09,6.79-44.22,3.84-2.53-.49-5.23-.07-8.18-.07-8.46,21.5-23.07,37.68-41.6,50.93-18.17,12.99-39.57,18.38-60.32,26.93,9.27,27.06,14.78,54.02.22,81.58,7.98-4.38,15.97-8.73,23.93-13.14,36.37-20.15,71.36-42.57,106.07-65.41,13.05-8.59,25.65-17.84,38.59-26.59,4.08-2.76,5.13-5.96,2.84-10.15-4.76-8.7-9.29-17.58-14.69-25.88-2.48-3.81-5.11-6.65-2.85-11.55,2.67-5.77,6.54-10.11,12.69-11.76,1.13-.3,3.69,1.57,4.18,2.94.59,1.65.16,4.09-.69,5.75-2.58,5.04-.53,9.02,2.37,12.87,3.99,5.31,8.16,10.48,12.13,15.8,1.78,2.39,3.95,4.8,4.73,7.55,3.04,10.76,4.41,17.74-7.96,23.18-37.02,16.27-69.92,39.45-104.23,60.33-25.22,15.34-51.56,28.82-77.3,43.32-11.26,6.34-22.67,12.56-33.25,19.92-15.37,10.7-20.53,27.53-22.8,44.9-1.67,12.76-1.03,25.82-1.53,38.74-.6,15.62,3.91,30.22,8.91,44.7,2.27,6.56,4.81,13.04,7.53,19.42,5.32,12.45,20.9,17.85,33.06,12.14,35.14-16.5,64.31-41.03,91.71-67.91,34.29-33.65,65.16-70.17,92.46-109.77,17.39-25.23,33.54-51.13,47.55-78.4,2.69-5.23,6.35-10.23,10.53-14.36,5-4.94,7.18-4.46,14.55.62,9.64-10.26,20.34-19.91,28.93-31.18,13.68-17.95,25.93-36.99,38.85-55.53,2.77-3.97,2.9-8.03.95-12.25-2.53-5.48-6.59-6.66-12.11-3.69-3.8,2.05-7.56,4.18-11.45,6.05-3.79,1.82-7.61,2.16-12.21-1.56,1.42-4.6,2.93-9.56,4.48-14.49.99-3.15,2.17-6.25,3.06-9.42.9-3.2,2.24-7-2.17-8.46-3.66-1.21-7.9-2.46-11.02,1.51-4.31,5.49-8.56,11.03-12.76,16.6-3.31,4.39-6.97,8.04-14.38,7.57-.74-4.28-1.81-8.65-2.17-13.09-.46-5.63-.22-11.31-.51-16.95-.35-6.71-3.93-10.88-10.27-12.9-10.54,22.94-21.07,45.81-31.56,68.69-2.44,5.32-5.9,9.75-11.43,11.96-2.35.94-5.17,1.52-7.63,1.19-5.41-.72-9.31-5.4-8.51-9.34.77-3.76,4.83-6.1,10.33-5.79,1.93.11,3.84.56,6.18.92,9.11-14.7,15.23-30.45,20.84-46.41,2.41-6.88,4.04-14.03,6.52-20.88,3.36-9.25,10.56-14.54,19.94-16.19,10.14-1.78,17.45,4.25,18.65,14.67.71,6.21,1.06,12.46,1.68,20.15,3.1-2.76,5.66-4.67,7.78-6.98,5.42-5.89,12.3-8.92,19.91-10.47,5.7-1.16,11.54-1.42,15.56,3.8,4.18,5.44,2.98,11.15-.04,16.83-2.1,3.95-3.82,8.11-4.29,13.33,3.26-1.94,6.37-4.19,9.79-5.78,13.44-6.23,21.55.09,23.65,12.58,1.75,10.36-2,18.22-7.9,25.64-22.94,28.92-45.84,57.88-72.2,83.85-.24.23-.42.53-.68.73-22.65,16.52-35.65,40.93-51.28,63.13-26.45,37.57-53.35,74.76-84.26,108.85-23.04,25.41-47.65,49.2-74.79,70.21-11.54,8.93-23.85,16.87-35.81,25.26-2.41,1.69-4.84,3.37-7.61,5.29,15.78,23.31,28.85,47.54,39.95,74.31,3.28-3.95,6.71-7.33,9.27-11.27,18.28-28.18,36.08-56.64,49.21-87.74,7.02-16.64,12.46-33.67,13.56-51.8.72-11.91,9.36-17.88,18.24-21.71,17.99-7.77,37.06-12.53,56.69-14.52,2.58-.26,5.18-.44,7.76-.7,5.31-.53,8.63,2.84,6.74,7.75-1.25,3.24-3.81,6.19-6.35,8.68-5.7,5.57-11.85,10.69-17.66,16.15-8.31,7.82-10.71,17.36-10.04,28.78,3.11,53.06,6.06,106.13,8.21,159.23,2.04,50.44,3.01,100.93,4.48,151.4.06,2.22.37,4.44.64,7.5ZM362.74,665.79c.45,44.56,4.23,88.92,10.17,133.01,5.89,43.76,12.67,87.45,20.54,130.9,12.38,68.37,25.96,120.91,32.7,129.95,3.98-7.98,8.2-15.08,11.17-22.67,8.21-20.99,15.4-42.39,23.93-63.24,8.66-21.21,17.79-42.28,27.88-62.83,11.88-24.2,26.99-46.55,42.98-68.23,12.02-16.29,23.17-33.37,40.19-46.43-5.19-58.9-7.61-118.34-22.77-178.36-1.52,3.88-2.35,5.66-2.92,7.52-12.63,41.38-27.72,81.79-47.91,120.14-9.29,17.63-19.34,34.87-28.41,52.61-9.18,17.95-26.54,29.57-35.75,47.4-.29.57-.86,1.01-1.33,1.48-6.53,6.44-12.55,5.97-19.78-.07-4.02-3.36-5.24-7.41-6.33-11.91-4.83-19.95-9.5-39.95-14.56-59.84-5.89-23.15-11.99-46.26-18.25-69.31-3.64-13.39-7.77-26.64-11.68-39.96-1.16-11.03-5.49-21.03-9.03-32.88-3.86,4.62-6.48,7.6-8.93,10.72-7.82,9.91-15.95,19.6-23.28,29.87-14.46,20.27-29.03,40.5-42.49,61.43-13.47,20.95-25.82,42.64-38.34,64.19-17.38,29.89-34.64,59.85-51.62,89.97-11.76,20.86-23.2,41.9-34.32,63.11-11.72,22.35-23.1,44.89-34.23,67.54-6.44,13.11-11.77,26.75-18.14,39.89-16.96,35.02-32.57,70.6-46.37,106.98-2.68,7.07-4.77,14.36-7.86,23.78,10.26-8.91,18.87-16.02,27.08-23.57,14.28-13.13,29.87-24.52,47.1-33.25,25.18-12.76,52.16-19.87,80.46-19.06,17.14.49,33.22,5.96,46.84,17.37,7.63,6.39,15.44,12.47,21.1,20.84.55.81,2.11.93,3.76,1.59,1.01-10.67,1.83-20.58,2.89-30.48,3.65-34.04,7.43-68.06,11.06-102.1,2.93-27.44,5.4-54.94,8.67-82.34,4.3-35.95,8.81-71.88,13.95-107.71,3.91-27.28,8.29-54.52,13.63-81.55,6.05-30.62,13.42-60.97,20.2-91.44.84-3.75,2.15-6.92,6.92-6.88,3.82,4.53.65,8.46-.59,12.28-4.01,12.32-9.22,24.32-12.24,36.87-6.05,25.18-11.67,50.52-16.13,76.02-4.97,28.44-8.68,57.11-12.53,85.73-4.07,30.28-7.9,60.6-11.36,90.96-3.2,28.06-5.76,56.19-8.64,84.28-3.93,38.37-7.56,76.77-12.08,115.07-1.01,8.57,1.38,15.27,5.14,23.15,4.86-10.09,9.19-19.35,13.76-28.49,13.9-27.79,32.65-51.68,57.42-70.62,13.35-10.21,27.57-18.65,44.94-19.59,6.11-.33,12.25-.05,18.69-.05-3.32-13.64-6.33-26.6-9.63-39.48-14.3-55.76-24.53-112.31-32.33-169.31-3.88-28.31-7.43-56.67-10.67-85.06-3.38-29.65-6.17-59.36-9.3-89.04-.55-5.19,1.04-8.44,6.6-8.9ZM702.65,1229.32c-1.97,2.55-3.94,5.09-5.82,7.53,3.78,8.34,7.31,16.5,15,22.48,52.17-42.96,113.45-63.95,178.67-75.48-2.4-6.71-13.79-18.35-18.5-19.45-1.26-.29-2.64-.25-3.94-.12-5.29.54-10.65.77-15.84,1.82-46.25,9.43-90.21,24.65-129.61,51.43-6.51,4.43-13.53,8.1-20.32,12.12,3.27-3.1,6.28-6.57,9.87-9.25,27.24-20.31,57.9-33.79,89.89-44.5,12.25-4.1,24.63-7.84,35.9-11.41,1.42-4.8,2.56-8.68,3.7-12.55,1.5-5.08,3.62-10.06,4.39-15.25,1.16-7.87,1.8-15.87,1.93-23.82.4-25.44-1.79-50.41-12.87-73.96-7.11-15.12-16.25-28.53-31.38-36.14-12.46-6.26-25.71-10.88-38.72-.18-1.18.97-3.45.62-6.37,1.06.94-3.59,1.38-6.1,2.25-8.47,2.86-7.77,6.62-15.29,8.67-23.25,4.4-17.08,3.13-34.45-1.02-51.31-5.39-21.89-12.65-42.96-26.24-61.74-11.95-16.52-26.58-28.57-45.46-35.71-5.73-2.17-8.51-6.03-8.29-10.97.52-11.55,1.78-23.18.96-34.64-2.53-35.44-5.42-70.88-9.13-106.22-2.11-20.06-4.02-40.31-10.65-59.61-.93-2.71-2.26-6.97-4.12-7.39-7.77-1.78-8.67-7.75-9.14-13.6-1.57-19.86-3.11-39.74-3.75-59.64-.21-6.44,1.1-13.68,4.11-19.25,2.99-5.55,5.5-10.81,6.66-17.01,1.04-5.51,4.25-10.36,10.37-10.65,12.6-.61,25.25-.66,37.87-.53,6.04.06,9.38,2.81,8.94,8.37-.53,6.79,1.46,10.86,7.91,12.85.89.28,1.75,1.04,2.36,1.79,9.59,11.85,15.74,24.92,11.56,40.46-2.05,7.61-1.05,14.34,2.07,21.1,2.78,6.02,5.62,12.03,8.69,17.91,14.41,27.62,28.78,55.26,43.48,82.73,2.95,5.5,7.08,10.42,11.03,15.31,2.59,3.21,5.68,4.27,10.48,3.23,6.8-1.48,11.04-5.57,15.28-10.23q8.01-8.8,1.45-19.04c-.54-.84-1.12-1.66-1.59-2.54-9.25-17.56-20.7-33.57-33.99-48.26-2.61-2.89-5.8-5.36-9.05-7.53-9.9-6.62-21.94-10.04-28.83-21.19-2.12-3.43-4.08-6.26-4.72-10.41-2.47-16.01-4.9-32.06-8.31-47.89-3.9-18.09-7.72-35.92-6.32-54.75,1.03-13.91,3.79-26.86,10.62-39,2.25-4,3.94-8.32,6.04-12.85-2.55-1.4-4.49-2.61-6.54-3.58-15.66-7.4-32.01-12.53-49.11-15.52-59.79-10.43-119.68-11.75-179.71-2.35-17.41,2.73-34.38,6.92-49.71,14.94-2.96,16.54-5.8,32.39-8.7,48.61,2.92.32,5.54-.06,7.33.98,1.99,1.16,4.29,3.43,4.64,5.52,2.3,13.68,4.14,27.45,6.07,41.19,3.61,25.79,3.43,51.63-.18,77.35-3.86,27.5-12.34,53.67-24.55,78.64-1.58,3.24-3.26,6.76-3.51,10.26-1.16,15.91-1.96,31.85-2.56,47.79-.13,3.56,1.08,7.18,1.67,10.77,3.32-2.63,5.07-5.06,6.3-7.73,7.93-17.19,16.78-34.05,23.34-51.75,7.95-21.44,14.15-43.55,20.59-65.52,1.43-4.88,1.59-10.53.81-15.59-1.3-8.46-4.49-16.63-5.7-25.09-1.95-13.63-.61-26.96,4.71-40.01,2.94-7.22,6.67-14.24,7.42-22.45.53-5.8,4.65-11.24,10.42-12.31,10.98-2.05,22.27-3.69,33.37-3.4,9.34.25,10.26,2.74,10.9,12.09.18,2.55.16,5.54,1.46,7.53,6.87,10.52,9.94,22.43,12.47,34.39,4.39,20.72,2.3,40.46-11.64,57.53-2.96,3.62-2.47,7.29-2,11.28.75,6.22,1.68,12.44,1.97,18.69.79,16.94.87,33.91,2,50.82,1.46,21.87,3.99,43.66,5.42,65.53,1.13,17.29,4.24,34.22,7.97,51.05,2.45,11.05.93,15.41-8.26,21.86-6.25,4.38-12.38,9.02-18.01,14.16-24.38,22.24-42.33,49.25-58.45,77.83-6.54,11.6-7.94,23.1-5.03,35.3,4.9,20.55,10.23,41.01,15.93,61.35,8.39,29.97,21.77,57.44,42.69,81.13,21.61-3.49,40.49,4.53,57.58,16.55,19.5,13.71,34.86,31.83,47.43,51.96,15.33,24.56,27.37,50.65,32.48,80.88,4.43-1.81,8.47-3.47,12.5-5.11ZM920.25,1364.48c1.77-8.17,4.74-15.6,4.7-23.01-.08-15.87-1.45-31.75-2.81-47.58-.77-8.91-2.66-17.71-3.91-26.58-3.25-23.07-8.27-45.66-17.72-67.11-1.95-4.43-4.65-6.32-9.77-6.54-14.43-.62-28.5,1.21-42.51,4.34-41.38,9.27-79.62,25.53-113.78,50.91-7.27,5.4-13.12,12.1-17.7,19.77,1.21,1.64,2.65,2.83,3.11,4.32,3.99,12.92,8.12,25.82,11.6,38.88,6.58,24.7,12.21,49.66,19.24,74.23,12.33,43.12,21.51,86.9,27.97,131.22,3.92,26.91,6.97,53.97,9.54,81.05,2.5,26.43,4.31,52.95,5.59,79.47.69,14.24-.52,28.57-.59,42.86-.17,34.98-4.3,69.57-11.13,103.78-9.74,48.8-25.16,95.63-49.41,139.4-22.47,40.54-50.59,76.49-85.13,107.34-29.42,26.28-62.1,48.05-97.14,65.93-18.88,9.63-38.77,17.51-58.72,24.75-16.61,6.03-33.98,9.97-51.86,15.08,1.63.9,2.64,1.82,3.77,2.02,19.56,3.33,39.39,2.79,58.61-.59,39.5-6.94,78.65-15.83,116.31-30.13,16.12-6.12,32.56-11.63,48.12-18.96,16.51-7.77,32.16-17.37,48.18-26.17,40.11-22.03,77.04-48.37,110.01-80.27,42.68-41.31,74.63-89.58,97.28-144.47,16.82-40.74,28.89-82.74,36.89-125.95,4.76-25.71,9.74-51.48,12.44-77.45,3.97-38.28,6.79-76.65,7.72-115.23,1.08-44.93-.13-89.72-4.26-134.36-3.73-40.29-9.46-80.41-14.75-120.54-1.31-9.96-4.34-19.7-6.58-29.54-3.86,12.72-6.69,25.31-9.22,37.96-2.6,13.03-4.71,26.17-7.41,39.18-1.97,9.5-6.86,13.01-16.7,11.99ZM595.49,107.79c-1.29,6.17-5.2,6.3-9.28,6.86-5.56.76-11.5,1.18-16.44,3.52-12.89,6.1-25.35,13.1-37.89,19.91-1.98,1.08-3.69,2.84-5.2,4.57-9.39,10.75-19.18,21.19-27.91,32.45-27.18,35.05-48.3,73.13-57.09,117.24-4.41,22.12-5.1,44.19-.48,66.29,1,4.77,2.36,9.87,5.03,13.82,6.6,9.8,14.05,19.03,21.41,28.82,1.18-.32,2.85-.55,4.35-1.2,22.23-9.62,45.88-12.97,69.63-16.07,30.1-3.93,60.32-4.47,90.57-3.6,28.59.83,57.03,3.61,85.28,8.23,17.27,2.82,34.51,5.83,50.65,8.57,4.64-2.62,8.35-6.47,12.07-6.47,9.89,0,14.01-6.45,17.88-13.45,12.57-22.75,9.17-45.81-.71-68.05-6.56-14.77-14.94-28.89-28.87-38.53-1.34-.93-1.84-3.08-3.19-5.49,20.95.86,26.33,19.1,36.42,29.62,5.97-2.33,10.96-5.55,16.24-6.12,17.37-1.87,32.72-9.05,47.19-17.8,17.57-10.63,29.45-25.99,33.31-46.88.41-2.25,3.49-4.79,5.89-5.66,2.6-.95,5.85-.2,8.81,0,7.57.5,15.13,1.56,22.7,1.55,9.99-.02,19.94-1.28,29.03-5.81,8.26-4.11,9.3-9.6,3.71-16.7-1.6-2.03-3.01-4.2-5.17-7.22-5.65.73-11.83,1.68-18.04,2.3-5.52.55-10.35,1.85-13.4,7.19-1.28,2.24-3.43,4.12-5.53,5.71-5.65,4.31-10.81,2.78-13.11-3.9-.96-2.79-1.42-5.79-1.84-8.74-.88-6.16-5.08-11.38-11.04-11.91-12.85-1.16-25.04.02-35.43,9.42-8.99,8.13-16.7,16.88-21.61,28.13-2.1,4.8-5.16,9.38-8.59,13.36-4.3,4.97-8.63,3.66-10.83-2.65-1.4-4.01-2.8-8.02-4.61-13.17-4.08,3.85-7.71,6.73-10.67,10.17-6.64,7.72-15.1,11.26-24.91,13.18-8.58,1.68-17.12,1.24-25.66,1.83-11.5.8-20.82-3.19-29.7-9.08-8.5-5.63-7.71-11.38,1.65-15.95,1.48-.72,3.07-1.27,4.67-1.68,12.65-3.2,24.7-7.75,35.68-14.96,1.33-.87,3.39-.62,6.4-1.09-4.4,7.6-11.01,10.38-16.54,14.23-5.5,3.83-11.58,6.83-18.06,10.57,4.28,3.2,7.69,5.35,10.61,8.02,4.32,3.95,9.49,4.67,14.83,4.3,5.63-.38,11.29-1.05,16.78-2.3,5.85-1.33,11.21-3.67,15.24-8.76,4.12-5.2,8.83-9.97,13.62-14.58,6.41-6.17,14.93-4.02,17.82,4.25.61,1.73,1.09,3.51,2.19,7.09,2.93-4.36,4.98-7.25,6.86-10.23,5.22-8.28,9.74-16.72,18.09-22.94,15.05-11.21,31-17.88,49.99-15.43,8.1,1.05,8.72,2.37,9.6,10.65.58,5.49.04,11.94,6.86,15.82,3.77-5.04,7.26-9.73,10.64-14.24,7.92,3.13,21.45,1.73,24.65-2.83,7.2-10.24,13.04-20.99,8.86-34.28-1.45-4.6.37-11.31-7.94-11.3-.91,0-1.72-2.63-2.76-3.88-10.61-12.67-24.27-16.76-40.16-13.75-2.57.49-4.83,2.65-7.92,4.44,9.24,4.53,16.99-5.36,25.9.56-8.58,7.27-18.45,9.78-28.53,11.26-2.34.35-6.43-1.58-7.31-3.53-.89-1.99.36-6.19,2.14-7.88,3.76-3.56,8.1-7.1,12.87-8.88,10.71-3.99,21.56-2.63,32.11,1.59,1.83.73,3.84,1.03,7.37,1.94-21.99-21.9-66.57-31.43-99.54-22.18-.28,1.05-.54,2.32-.95,3.53-3.39,10.1-9.04,12.72-19.01,8.81-3.71-1.46-7.49-2.8-11.05-4.58-16.47-8.23-34.04-12.46-52.31-14.92-1.05.89-2.03,1.75-3.04,2.59-7.8,6.5-9.3,6.34-18.24.84-4.91-3.03-10.21-5.59-15.61-7.64-25.6-9.75-46.95-2.12-64.7,17.17-6.24,6.78-10.86,15.02-16.36,22.49-2.64,3.59-4.65,8.34-11.99,7.06,1.24-5.58,2.43-10.93,3.63-16.28-5.14,3.29-8.52,7.88-12.83,11.32-4.18,3.34-2.48,11.2-9.42,12.37-.45-1.12-1.03-1.84-.86-2.26,5.04-12.3,12.33-23.09,24.44-29.04,6.71-3.3,11.29-7.73,14.52-14.02-2.47-1.03-5.29-1.54-7.22-3.12-9.32-7.66-20.67-10.1-31.78-13.54-16.5-5.1-31.48-1.09-46.05,6.23-20.26,10.18-34.7,26.46-46.36,45.45-.84,1.36-.11,3.69-.11,5.14,15.57-8.02,30.19-15.81,45.06-23.1,6.14-3.01,12.71-5.71,20.6-2.8ZM435.94,1211.23c3.36-6.62,6.95-6.91,10.93-4.5,2.83,1.71,5.41,3.86,8.02,5.92,19.28,15.24,41.48,25.27,64.57,32.16,35.19,10.52,71.42,15.11,108.17,8.81,15.69-2.69,31.45-5.3,45.12-14.74,5.38-3.72,7.64-8.5,7.02-14.25-.89-8.21-1.8-16.73-4.67-24.37-9.29-24.65-21.18-47.69-39.73-67.24-15.21-16.04-31.8-28.83-53.18-35.11-5.78-1.7-11.32-1.95-19.24-1.3,9.91,9.37,18.41,17.13,26.58,25.23,8.5,8.44,16.93,16.98,24.91,25.9,7.45,8.32,16.1,15.73,21.11,26.1-7.05-5.67-13.17-12.14-19.17-18.72-15.72-17.22-31.63-34.23-50.53-48.09-2.68-1.97-5.73-3.43-8.61-5.13-.57.77-1.15,1.53-1.72,2.3,13.47,14.14,26.95,28.28,40.42,42.42-2.44-.1-4-1.13-5.35-2.38-12.95-11.94-26.06-23.73-38.72-35.98-5.89-5.7-11.26-10.61-20.53-8.29-4.34,1.09-9.29-.54-13.91-.23-14.87.99-29.84,1.48-44.54,3.7-21.06,3.18-39.5,13.32-57.27,24.57-15.12,9.58-25.12,23.36-31.91,39.67-.76,1.82-1.62,3.77-1.67,5.69-.56,19.59,2.09,38.33,15.12,54.14,3.99,4.84,7.47,10.21,11.97,14.5,10.54,10.03,20.72,20.74,32.58,28.97,15.72,10.91,32.49,20.5,49.55,29.23,26.51,13.56,53.64,25.83,81.78,35.83,11.43,4.06,22.17,8.94,27.69,21.98,5.02,11.86,14.98,20.02,27.94,23.68,3.24.92,6.27,2.56,10.28,4.24-5.74,3.54-5.92,3.88-26.65-6.94-8.12-4.24-15.21-10.43-23.82-16.47,2.5,7.24,6.1,12.19,11.32,15.95,5.04,3.63,10.19,7.1,15.29,10.64-15.84-.17-37.91-22.98-41.89-41.69-17.99-8.31-36.28-16.76-53.85-24.88-8.99,6.26-19.85,8.08-23.09,20.17,8.99,1.03,17.15,2.04,25.32,2.87,7.44.75,15.28.77,14.82,11.63-.03.75.96,1.69,1.67,2.31,4.54,4.02,2.19,7.76-.52,11.35-3.27,4.33-8.12,5.41-13.18,6.12-15.71,2.19-29.88,8.64-43.67,16.08-4.53,2.45-6.96,5.95-8.67,11.26-2.68,8.33-.23,15.49,1.32,23.87,2.73-1.05,5.43-1.27,6.78-2.74,5.1-5.57,11.32-5.67,18.24-5.63,10.6.06,21.2-1.4,31.82-1.56,7.88-.12,15.9.09,23.63,1.46,5.46.97,6.6,4.93,3.72,9.76-1.67,2.8-4.15,5.18-6.49,7.51-3.06,3.05-6.15,6.11-9.56,8.74-10.54,8.15-16.26,18.62-16.82,32.05-.28,6.69-1.32,13.35-2.07,20.55,2.09-.58,2.97-.55,3.24-.94,8.55-12.2,20.58-19.14,34.25-24.48,18.86-7.38,37.25-15.96,55.83-24.05,8.52-3.7,16.71-9.16,25.6-10.77,14.91-2.71,27.59-9.34,39.44-17.88,6.1-4.39,12.23-9.6,14.29-17.43,2.19-8.33,4.67-16.75,5.36-25.27,1.25-15.36,2.86-31.17-9.52-43.74-.9-.91-1.46-2.24-1.96-3.46-3.8-9.2-7.36-18.5-11.34-27.62-5.54-12.7-11.38-25.26-17.34-38.45-40.3,9.32-79.16,3.3-118.09-3.9-39.71-7.34-73.1-27.53-106.42-49.13ZM974.25,1118.37c1.25-.08,2.02.08,2.53-.21,2.02-1.14,4.02-2.33,5.91-3.66,25.38-17.73,46.58-39.65,63.75-65.31,20.98-31.36,32.69-65.14,25.05-103.62-.72-3.6.37-7.97,1.8-11.5,2.21-5.47,8.89-9.43,12.5-7.94,5.12,2.12,5.71,6.8,5.76,11.66.18,17.1-2.82,33.71-7.63,50.04-1.68,5.7-3.55,11.35-5.33,17.02,7.33-5.89,10.8-13.7,13.12-22.09,4.52-16.39,8.11-32.83,4.71-50.05-.48-2.45,1.46-5.5,2.7-8.07.28-.59,2.29-.35,3.5-.5.57,1.35,1.19,2.22,1.27,3.15.19,1.97.11,3.98.13,5.96.2,17.51-4.65,34.11-9.02,50.82-3.12,11.93-9.66,21.76-17.88,30.66-2.25,2.43-4.97,4.6-6.62,7.39-8.9,15.08-17.54,30.31-26.36,45.66,2.39,2.54,5.1,5.92,8.3,8.72,10.72,9.39,20.69,20.1,32.69,27.45,15.94,9.76,32.14,19.78,50.77,24.33,1.67.41,3.54,2.03,4.36,3.59,2.76,5.26,7.49,6.48,12.68,8.32,13.07,4.63,26.38,3.6,39.46,2.28,12-1.2,23.4-5.55,30.88-16.2,12.08-17.21,28.9-20.8,48.36-17.21,1.99.37,4.07.27,7.26.45-1.4-2.29-1.94-3.47-2.73-4.44-8.35-10.2-19.74-16.47-30.49-23.56-5.08-3.35-5.99-6.48-2.22-11.15,1.8-2.23,4.35-4.3,6.99-5.33,12.05-4.68,24.45-8.51,36.35-13.53,9.83-4.15,18.8-5,27.47,2.14.08.07.5-.27,1.43-.79-2.4-8.86-7.09-16.49-13.26-23.42-4.47-5.02-10.07-6.71-16.19-5.15-8.96,2.28-17.95,4.78-26.48,8.29-6.79,2.79-13.19,5.81-21.01,4.49-3.7-10.49,1.38-18.38,6.8-25.94,7.19-10.03,17.47-16.13,29.38-20.64-9.23-4.82-24.21-7.13-37-5.91-8.61,24.83-25.95,44.27-42.43,64.63,6.56,14.35,7.28,29.48,6.24,44.81-.56,8.21-1.91,9.66-9.88,11.2-.45-2.53-1.45-5.09-1.26-7.56.63-8.13-1.92-15.64-3.66-23.37-1.18-5.25-3.03-9.39-8.27-11.45-3.44-1.35-5.3-3.71-5.03-7.65.79-11.24-3.14-21.56-6.41-32.01-9.95-31.86-24.73-61.49-41.81-89.99-9.85-16.44-20.43-32.53-34.49-45.75-9.03-8.49-17.3-18.25-29.69-22.38-4.38-1.46-9-2.46-13.07-4.54-7-3.57-14.27-4.88-22.03-4.9-13.47-.04-26.15,2.63-37.87,9.06-1.76,85.1-5.88,169.45-14.03,253.67ZM296.72,585.36c-.68-6.62,3.41-8.32,7.16-10.59,12.47-7.54,26.31-5.46,39.66-5.38,16.59.09,31.88,6.15,46.62,13.28,9.2,4.44,11.74,8.94,9.89,19.05-3.07,16.74-.21,33.03,2.48,49.39.42,2.54,1.27,5,2.26,8.78,4.8-3.48,8.87-6.15,12.63-9.21,6.96-5.67,13.66-11.65,20.61-17.34,2.29-1.87,4.83-3.69,7.56-4.71,5.14-1.93,8.58,1.33,7.37,6.72-.35,1.57-1.23,3.06-2.02,4.5-3.66,6.7-3.17,9.86,2.66,15.87.63-.77,1.37-1.46,1.86-2.29,1.01-1.71,1.96-3.47,2.82-5.27,9.4-19.6,15.89-40.16,19.17-61.61,4.84-31.75,6.31-63.48-3.47-94.73-2.6-8.31-5.72-16.69-15.84-18.22-5.08-.77-10.59-1.03-15.55.07-38.16,8.49-65.4,31.06-82.96,65.68-2.39,4.72-3.88,9.95-6.64,14.42-4.17,6.75-10.19,10.4-17.38,8.3-3.54-4.35-6.27-7.91-9.22-11.28-5.46-6.24-11.06-12.35-16.57-18.55-9.45-10.64-19.28-20.99-28.21-32.06-9.31-11.55-20.91-21.23-27.95-34.7-3.38-6.46-4.4-9.04.05-14.36,3.32-3.95,7.59-7.47,12.11-9.98,12.77-7.11,23.05-16.34,29.4-30.08-13.72,2.43-26.89,4.75-41.04,7.25-5.27-35.38-25.66-61.09-49.75-84.8-.16,6.22.67,12.07,1.5,17.92.51,3.6,1.14,7.2,1.49,10.82.73,7.5-4.21,11.6-9.73,14.92-5.57,3.35-8.36-1.75-11.74-4.65-9.29-7.97-18.39-16.22-30.18-19.95-.97.48-1.61.7-2.14,1.07-8.73,6.16-9.02,6.75-1.89,14.09,5.75,5.92,12.2,11.14,18.3,16.72,6.18,5.66,5.12,16.16-2.3,20.05-3.17,1.66-6.84,2.66-10.4,3.25-8.1,1.35-16.27,2.26-25.46,3.48.36,4.11.69,7.79,1.01,11.44,2.05.18,3.04.46,3.97.33,12.35-1.7,26.1,4.26,29.53,17.67.81,3.17,3.03,5.98,3.89,9.15,4.22,15.55,15.66,25.88,26.24,36.84.81.84,2.14,1.36,3.32,1.64,8.09,1.89,9.6,3.86,10.89,11.28,2.94,16.94,5.84,33.91,9.55,50.7,5.72,25.95,14.35,51.05,23.36,76.03,6.55,18.16,14.94,35.23,25.98,51.15,5.93,8.54,13.58,12.05,23.31,12.98,3.71.35,6.27-.4,8.29-3.83,4.22-7.13,8.88-14,13.24-21.05,6.47-10.45,12.64-21.1,19.32-31.42,5.71-8.82,4.29-16.73-1.66-24.66-9.01-12-19.74-21.41-35.42-24.12ZM787.16,973.94c3.63.79,6.15,1.24,8.61,1.9,4.4,1.18,9.24,1.67,13.06,3.88,10.96,6.35,20.51,14.28,27.64,25.19,15.78,24.18,20.83,51.38,23.21,79.35.71,8.32.11,16.74.11,25.12,2.73-1.03,3.72-2.26,4.31-3.66,4.14-9.78,8.37-19.53,12.26-29.42,20.58-52.31,38.51-105.46,52.1-160.09,13.9-55.91,22.95-112.55,27.13-169.93,3.85-52.82,2.62-105.71-.4-158.54-.4-7.05-.69-13.29,6.13-16.83q-1.39-10.94-5.16-16.15c-4.49,10.66-8.88,21.03-13.21,31.42-.36.87-.82,2.4-.42,2.77,5.04,4.8.85,9.22-.6,13.56-6.53,19.54-13.28,39-19.92,58.49-10.39,30.5-20.08,61.25-31.33,91.43-10.55,28.29-21.8,56.41-34.44,83.82-16.54,35.87-34.67,71.01-52.29,106.38-5.13,10.3-10.86,20.3-16.78,31.3ZM698.52,797.13c6.17,1.79,11.23,2.06,14.79,4.51,15.37,10.57,27.01,24.88,36.57,40.64,5.61,9.26,9.62,19.54,13.93,29.54,13.52,31.36,19.16,64.03,15.63,98.14-.13,1.29.28,2.64.43,3.96.69.12,1.37.24,2.06.36,67.5-114.92,117.1-237.32,151.64-366.07-4.43,6.2-7.87,12.89-11.69,19.36-24.54,41.5-54.4,78.58-91.21,109.92-6.51,5.54-12.75,11.38-16.52,19.56-2.81,6.07-7.55,10.99-14.14,13.46-8.1,3.03-13.17.82-17.04-6.87-5.67-11.27-11.28-22.58-17.38-33.61-23.46-42.47-49.06-83.6-77.47-122.95-1.16-1.61-2.86-2.84-5.14-5.07-1.13,19.16,1.34,36.51,3,53.96,3.56,37.36,6.32,74.79,9.51,112.18.84,9.88,2.06,19.74,3.04,28.99ZM934.21,1314.71l1.72.39c1.04-6.46,2.04-12.92,3.12-19.37,5.85-35.03,12.96-69.91,17.29-105.13,6.16-50.09,10.81-100.38,15.08-150.67,2.61-30.75,3.63-61.65,4.76-92.51,1.11-30.18,1.77-60.38,2.07-90.57.54-53.54-.11-107.06-4.03-160.49-2.57-35.11-5.51-70.18-8.38-105.27-.19-2.32-1.18-4.58-1.8-6.87-.7.1-1.41.2-2.11.31,0,6.92.08,13.84-.01,20.76-.51,38.22-.7,76.45-1.71,114.66-1.06,40.25-5.63,80.16-12.22,119.91-10.85,65.43-27.85,129.2-50.59,191.4-10.94,29.94-23.62,59.24-35.54,88.81-2.22,5.51-4.4,11-3.7,17.55,15.16-3.89,26.81,1.67,35.14,13,5.73,7.8,10.04,16.91,13.68,25.96,12.2,30.38,16.93,62.61,22.02,94.68,2.28,14.4,3.51,28.97,5.21,43.46ZM797.05,761.86c5.95-.27,8.89-4.76,10.54-9.74,2.38-7.19,7.4-11.46,13.46-15.32,6.69-4.26,13.38-8.67,19.41-13.79,17.29-14.7,31.78-32.03,45.66-49.9,25.26-32.51,45.97-67.54,58.89-106.81,3.1-9.42,6.01-19.17,6.89-28.96.72-8.08,3.73-13.63,9.38-18.85,9.49-8.77,17.83-18.56,24.31-30.56-1.96-1-3.33-2.25-4.78-2.34-11.7-.71-23.22-.21-33.6,6.29-4.94,3.1-8.32,7.25-10.55,12.78-5.83,14.49-12.39,28.69-18.18,43.19-16.98,42.53-39.48,81.94-66.86,118.53-8.15,10.89-17.26,21.1-26.35,31.24-7.99,8.92-20.99,6.11-25.42-4.98-2.58-6.47-5.05-13.05-8.33-19.17-10.45-19.51-21.33-38.79-31.91-58.23-9.53-17.5-20.34-34.04-34.65-48.08-1.88-1.84-4.02-3.63-5.27-5.87-4.3-7.74-8.22-15.69-12.35-23.53-2.11-4.01-4.35-7.96-6.87-12.56-7.36-1.51-15.43-2.78-22.34-.78.95,17.48,1.87,34.3,2.79,51.26,11.03,7.11,11.33,21.22,18.29,31.4,7.27,10.63,12.49,22.63,18.97,33.83,6.31,10.92,13.16,21.53,19.62,32.36,6.64,11.13,13.08,22.38,19.64,33.56,6.26,10.67,12.56,21.31,19.7,33.43,1.21-9.65,1.7-17.21,3.2-24.56,1.47-7.19,5.57-10.89,10.37-10.1,5.68.94,7,5.96,7.52,10.49,1.14,9.88,2.06,19.84,2.13,29.78.03,4.99-1.99,9.99-3.3,15.96ZM313.7,580.81c1.23.99,2.11,2.19,3.24,2.53,13.33,3.96,23.66,13.18,35.32,20.05,6.45,3.8,9.77,9.87,10.21,17.02,1.58,25.69,7.09,50.6,13.74,75.35,7.68,28.56,14.97,57.23,22.65,85.79,4.06,15.08,8.48,30.06,13,45,1.97,6.52,5.82,11.67,13.53,14.23-2.49-15.08-3.42-29.43-.77-43.81,1.35-7.31,4.04-13.3,13.57-15.08,1.57,2.9,4,5.76,4.7,9,1.53,7.09,2.16,14.37,3.19,21.56.29,2.04.69,4.06,1.41,8.27,6.17-7.98,11.54-13.91,15.76-20.57,24.09-37.98,45.06-77.62,59.63-120.25,6.53-19.12,11.48-38.85,15.91-58.58,1.41-6.27,2.44-11.35,8.33-14.58,5.41-2.97,7.96-7.66,7.48-13.96-.2-2.65-.12-5.33.02-7.99.62-11.25-6.42-18.49-14.13-24.56-6.8-5.36-12.19-3.32-15.37,4.9-2.46,6.35-6.69,13.77-5.26,19.48,2.42,9.63-6.4,12.29-8.33,19.13-6.94,24.6-14.92,48.97-23.94,72.89-13.92,36.9-33.72,70.73-57.04,102.49-2.98,4.06-6.66,6.42-12.5,4-.85-7.04-1.31-14.29-2.66-21.37-3.4-17.93-7.18-35.78-10.85-53.65-2.73-13.32-5.36-26.66-8.34-39.92-4.65-20.7-9.72-41.31-14.29-62.03-1.6-7.24-5.39-12.77-10.97-17.18-12.04-9.5-26.31-12.7-41.15-12.86-5.23-.06-11.4-.12-16.1,4.69ZM428.15,658.56c-5.9,3.42-11.51,6.82-17.26,9.97-3.92,2.15-4.4,5.13-3.5,9.19,5.82,26.14,11.43,52.33,17.26,78.48.75,3.35,2.32,6.52,4.09,11.35,4.77-5.69,8.36-9.95,11.94-14.23,2.97-3.56,3.57-7.4,2.62-12.05-1.97-9.73-3.82-19.54-4.77-29.41-1.02-10.51-2.08-21.26-.92-31.66.7-6.33.1-10.81-4.15-15.14-1.61-1.64-2.93-3.56-5.31-6.49ZM526.98,496.05c-1.33,19.86-4.64,38.21-4.65,57.76,6.45-1.87,11.36-6.81,17.06-3.6,5.02,2.82,9.49,6.63,14.33,10.1,2.47-16.09.26-49.44-4.09-61.8-7.07-.76-14.24-1.54-22.64-2.45ZM673.4,521.55c11.3-5.49,22.75-4.23,34.73-3.08-.66-7.18,1.15-14.64-4.39-19.14-7.22-5.87-16.15-6.79-25.26-4.7-1.71,9.04-3.3,17.44-5.09,26.92ZM557.86,592.23c.96.33,1.93.67,2.89,1,8.11-7.9,11.83-18.36,12.59-29.61.77-11.43-.67-22.74-12.53-32.09-1.04,21.43-2,41.06-2.95,60.69ZM671.45,585.54c8.45-13.54,4.74-46.71-6.93-58.06-4.29,15.72-4,30.97-.6,46.23,1.05,4.69,2,9.81,7.53,11.83ZM433.42,791.36c-4.8,13.97-7.1,25.92-1.85,39.66,4.47-4.78,8.89-7.64,8.37-13.46-.75-8.38-.64-17.01-6.53-26.21ZM788.74,715.83c-6.94,14.96-5.45,30.34,4.35,40.36,4.61-14.51.82-27.19-4.35-40.36ZM517.97,526.56c-.92-.19-1.85-.39-2.77-.58-6.88,10.89-9.33,22.57-6.06,35.77,7.23-3.88,9.25-9.53,8.9-16.63-.31-6.17-.06-12.37-.06-18.56ZM730.49,544.39c-2.33-15.3-7.98-21.92-18.32-21.18,3.54,8.51,5.65,17.59,12.42,24.76,1.47-.69,2.68-1.15,3.78-1.81.81-.48,1.48-1.22,2.12-1.77Z"/>
    <path d="M715.1,138.15c2.16-.66,4.31-1.39,6.49-1.98,9.79-2.62,16.51,1.28,17.84,11.46,1.48,11.34-.67,22.47-4.24,33.29-.79,2.39-1.82,4.69-3.07,7.88,10.74-1.93,13.81-12.13,22.26-16.97,0,2.27.44,3.7-.06,4.58-12.14,21.14-36.85,28.14-55.62,24.07-.32-.07-.7.01-.99-.11-14.51-6.35-20.52-6.78-12.14-24.95,7.25-15.72,14.74-31.24,25.86-44.66,8.64-10.43,19.07-18.57,32.06-22.81,10.68-3.48,16.03-1.09,20.66,9.17,2.16,4.78,3.97,9.9,4.78,15.05.45,2.85-.97,6.43-2.6,9.01-.95,1.5-4.24,2.66-5.99,2.19-1.5-.41-2.38-3.32-3.38-5.2-.26-.49.15-1.31.11-1.96-.98-13.85-12.3-20.77-24.59-14.17-6.83,3.67-12.6,9.31-18.84,14.06.49.68.98,1.36,1.47,2.05Z"/>
    <path d="M608.14,104.99c-.86,9.24-.92,9.3-9.23,8.6.47-5.3,3.33-7.93,9.23-8.6Z"/>
  </g>
</svg>