<?xml version="1.0" encoding="UTF-8"?>
<svg xmlns="http://www.w3.org/2000/svg" viewBox="0 0 1980.77 1520.75">
  <defs>
    <style>
      .cls-1 {
        fill: #d41e00;
      }

      .cls-2 {
        fill: #98a0a7;
      }

      .cls-3 {
        fill: #f9b21c;
      }

      .cls-4 {
        fill: #e7e7e7;
      }

      .cls-5 {
        fill: #fff;
      }

      .cls-6 {
        fill: #ddaea7;
      }

      .cls-7 {
        fill: #c6f9fe;
      }

      .cls-8 {
        fill: #cdcdcd;
      }

      .cls-9 {
        fill: #5e6c76;
      }

      .cls-10 {
        fill: #6b6b6b;
      }

      .cls-11 {
        fill: #164865;
      }

      .cls-12 {
        fill: #fab21b;
      }

      .cls-13 {
        fill: #f9b21b;
      }
    </style>
  </defs>
  <g id="Layer_1">
    <path class="cls-5" d="M1975.32,1435.86c-8.24-13.28-20.42-21.87-35.08-26.62-22.14-7.17-44.38-14.04-66.7-20.63-18.5-5.46-37.03-10.94-55.8-15.28-27.67-6.4-55.48-12.33-83.41-17.47-28.45-5.23-57.07-9.57-85.69-13.74-31.73-4.63-63.57-8.48-95.32-12.97-29.29-4.14-58.61-8.23-87.77-13.16-27.03-4.57-54.04-9.5-80.75-15.62-27.36-6.26-54.46-13.74-81.45-21.47-17.05-4.88-34.14-10.16-50.42-17.12-24.74-10.58-48.93-22.48-73.06-34.4-10.83-5.35-21.12-11.69-30.16-20.12-7.58-7.06-16.75-12.24-27.48-13.07-3.69-.28-6.12-1.6-8.32-4.4-12.64-16.07-26.05-31.57-36.17-49.49-10.35-18.34-21.78-36.16-30.99-55.05-13.26-27.21-24.09-55.41-26.95-86.05-.74-7.89-3.77-15.58-4.45-23.47-2.14-25.03-3.71-50.11-5.32-75.18-.09-1.36,1.15-3.48,2.38-4.15,7.28-4.02,14.48-8.39,22.19-11.4,25.33-9.88,51.36-16.42,78.9-13.32,15.31,1.72,30.31,5.05,43.31,13.74,21.53,14.39,39.45,32.48,53.85,54.1,3.28,4.93,7.23,9.76,11.85,13.36,11.12,8.68,23.83,9.1,36.4,3.77,14.13-5.99,22.93-16.89,25.35-32.23,1.24-7.86.81-16.03,2.52-23.75,4.68-21.12,15.44-38.95,31.96-52.92,12.31-10.41,26.31-18.5,42.14-21.8,22.68-4.73,45.71-3.78,68.59-.86,19.3,2.47,36.9,10.12,53.42,19.84,9.38,5.52,17.48,12.78,22.51,23.31,12.72,26.66,45.67,23.31,59.78,10.71,6.2-5.54,12.42-11.15,17.91-17.35,11.65-13.17,15.25-28.58,8.7-45.02-4.69-11.76-6.21-23.94-6.48-36.11-.52-23.58.04-47.15,4.51-70.54,3.45-18.06,7.81-35.77,15.48-52.48,11.81-25.74,30.59-44.88,56.11-57.26,18.74-9.09,37.91-16.98,58.7-20.2,11.38-1.76,22.68-2.92,34.21-.76,17.97,3.36,33.74-.47,45.69-15.41,13.97-17.44,11.58-42.39-5.12-55.41-4.8-3.75-9.02-8.25-13.4-12.52-10.24-9.98-20.1-20.39-30.7-29.98-17.5-15.83-34.73-32.11-53.44-46.42-21.75-16.64-44.56-32.01-67.66-46.75-22.25-14.2-45.16-27.45-68.33-40.11-24.74-13.53-50.11-25.89-75.35-38.82,18.95-6.96,38.15-13.39,58.39-15.97,15.34-1.96,27.29-14.3,27.93-29.23.63-14.77-8.7-28.5-23.55-35.04-39.55-17.41-80.94-28.83-123.25-36.77-63.39-11.9-127.46-15.92-191.89-14.5-1.95.04-3.91,0-6.28,0-.16-3.03-.34-5.65-.42-8.27-.51-17.63-11.01-31.08-27.83-35.15-13.01-3.14-24.45,1.11-34.62,8.83-15.11,11.47-27.19,25.94-38.6,40.93-2.12,2.78-4.28,4.12-7.55,4.79-22.01,4.54-43.98,9.26-65.96,13.9-1.52.32-3.05.55-6.41,1.16,2.95-7.15,4.86-13.15,7.8-18.6,4.82-8.96,6.57-18.18,3.78-27.94-6.18-21.68-33.27-31.92-53.31-19.92-14.99,8.98-27.77,20.62-38.41,34.56-16.61,21.76-20.39,47.42-21.57,73.56-.54,11.9.74,23.97,2.2,35.84,4.26,34.68,5.02,69.35,1.82,104.15-3.39,36.85-11.01,72.71-23.79,107.45-.49,1.35-1.1,2.65-1.93,4.65-.77-1.45-1.24-2.26-1.63-3.1-5.59-11.89-11.04-23.84-16.83-35.63-1.4-2.85-1.55-4.97-.04-7.81,14.77-27.77,17.5-57.36,9.74-87.25-5.37-20.67-13.31-40.78-21.36-60.62-10.8-26.61-22.61-52.81-34.38-79.01-8.43-18.77-17.14-37.44-26.45-55.79-4.25-8.39-10.31-15.86-15.41-23.84-10.64-16.61-24.68-30.42-37.15-45.52-14.36-17.39-33.09-28.72-51.91-39.87-11.37-6.73-23.64-12.28-36.09-16.73-11.15-3.99-22.32-8.68-34.66-8.8-6.1-.06-12.33-1.05-18.26-2.59-14.42-3.73-28.62-8.32-43.05-12.01-17.99-4.6-36.26-4.78-54.4-1.08-23.16,4.72-44.96,13.35-65.13,25.62-11.74,7.14-22.72,15.54-34.14,23.22-1.37.92-3.34,1.17-5.07,1.33-16.39,1.52-32.86,2.4-49.16,4.54-22.41,2.95-44.71,6.78-67.04,10.37-9.67,1.56-19.7,2.29-28.83,5.5-16.75,5.9-33.24,12.74-49.32,20.29-37.68,17.68-67.78,46.07-99.74,71.82-2.31,1.86-5.27,3.24-8.15,4.02-10.56,2.88-21.54,4.51-31.76,8.24-24.88,9.08-47.74,21.69-66.57,40.93-18.31,18.72-28.72,41.17-34.02,66.51-2.7,12.88-2.15,25.46,1,38.03,2.65,10.56,6.11,20.86,14.75,28.32,5.25,4.53,10.73,8.79,15.48,12.65-5,6.72-11.16,13.41-15.48,21.13-8.88,15.88-11.57,33.07-8.14,51.16,3.96,20.87,15.4,35.23,35.6,42.33,3.38,1.19,6.79,2.33,10.07,3.45-.4,3.39-.82,6.19-1.03,9.01-1.47,19.3,9.85,35.42,27.48,39.2,25.49,5.47,52.94-13.11,57.29-38.96.52-3.06,1.68-3.7,4.52-3.66,5.31.07,10.65-.12,15.94-.57,7.03-.59,14.04-1.54,19.67-2.17-.59,9.78-.98,19.48-1.88,29.14-.28,3.02-1.46,6.2-3.02,8.82-5.62,9.42-11.34,18.81-17.5,27.89-5.21,7.69-9.48,15.62-10.62,24.98-2.25,18.42,7.98,30.84,20.31,42.22,10.41,9.6,23.67,13.57,36.77,17.07,10.88,2.9,22.48,2.03,31.34-5.62,7.04-6.08,12.81-13.84,18.27-21.48,4.76-6.65,8.29-14.17,12.33-21.24,3.51,1.86,6.17,3.72,9.12,4.7,3.48,1.16,6.2,2.79,7.93,6.13,3.51,6.77,7.36,13.36,10.71,20.2,5.23,10.65,10.16,21.44,15.36,32.47-4.45,1.07-8.28,2.32-12.2,2.88-27.56,3.91-53.8,12.58-79.18,23.48-14.82,6.37-27.62,17.18-30.9,33.74-2.07,10.46-7.78,13.74-16.11,16.19-1.59.47-3.12,1.15-4.67,1.75-8.96,3.5-16.01,9.31-21.41,17.29-13.45,19.85-5.46,47.76,19.32,53.75,7.42,1.79,14.87,3.45,22.36,4.9,2.6.5,3.76,1.35,4.52,4.14,1.39,5.06,2.7,10.67,5.84,14.61,7.06,8.85,9.71,18.12,8.9,29.48-1.01,14.17,6.52,25.02,17.1,33.88,13.62,11.41,30.63,15.83,46.89,20.76,10.75,3.26,23.05,1.82,34.64,1.77,6.59-.03,13.19-1.36,19.74-2.35,16.4-2.48,32.03-7.6,47.07-14.45,12.23-5.57,21.54-14.85,30.05-25.02,17.3,6.3,34.46,12.52,51.57,18.86.81.3,1.77,1.61,1.77,2.46-.01,6.97.04,13.96-.46,20.91-.61,8.41-2.12,16.76-2.57,25.17-1.2,22.27-2.28,44.55-2.95,66.84-.44,14.62-.08,29.26-.08,43.5-5.09,1.69-10.33,2.85-15.04,5.1-17.91,8.53-23.25,25.67-27.67,42.82-2.55,9.91-3.05,20.34-4.54,30.52-3.42,23.4-2.18,46.87-.27,70.23,1.61,19.74,5.83,39.09,12.84,57.76,7.71,20.53,17.53,39.93,30.78,57.41,7.42,9.78,15.59,18.99,22.94,27.87-5.68,3.95-12.62,7.16-17.36,12.37-13.69,15-20.72,33.55-24.6,53.19-2.45,12.37-4.06,24.92-5.59,37.45-1.84,15.07-2.38,30.02,8.32,42.75.9,1.07,1.08,2.76,1.52,4.18,8.63,28.11,43.69,38.35,66.2,19.42,1.17-.98,3.53-1.28,5.1-.91,4.18.99,8.15,3.02,12.36,3.76,13.9,2.44,27.08.61,36.19-11.2,4.57-5.92,10.2-9.18,16.47-12.21,2.1-1.01,4.17-2.07,6.19-3.23,7.87-4.53,15.48-9.98,25.39-5.81,1.29.54,2.97.2,4.47.24,6.48.14,12.41,4.54,14.28,10.6,5.04,16.38,21.29,28.77,38.31,29.42,9.77.37,18.73-2.05,27.05-7.52,12.09,12.43,26.54,14.37,42.02,9.08,13.68-4.67,26.88-10.73,40.57-15.36,7.27-2.46,13.65-7.6,22.12-6.85,11.4,1.01,22.88,1.07,34.3,1.92,30.84,2.3,61.21.48,90.3-10.97,9.68-3.81,19.06-8.52,28.19-13.53,3.61-1.98,6.35-2.86,10.06-.9,10.24,5.41,21.27,7.39,32.79,7.15,1.74-.04,3.72.23,5.21,1.04,9.35,5.1,19.35,5.55,29.63,4.66,11.4-.99,22.82-2.48,34.23-2.52,21.12-.09,42.28.08,63.35,1.3,34.85,2.01,69.64,5.03,104.47,7.43,23.07,1.59,46.16,2.86,69.25,4.25,20.93,1.27,41.85,2.7,62.79,3.72,14.12.68,28.28.65,42.41,1.14,21.61.76,43.21,2.06,64.83,2.49,29.6.59,59.22.63,88.83.82,17.79.11,35.58.34,53.36.04,34.44-.59,68.88-1.45,103.32-2.33,27.44-.7,54.89-1.38,82.32-2.45,23.91-.93,47.81-2.36,71.71-3.63,16.93-.9,33.86-1.92,50.79-2.84,6.64-.36,13.29-.51,19.93-.9,8.9-.52,18.1.05,26.64-2.03,23.41-5.69,34.06-33.23,21.3-53.78ZM410.43,475.77c-3.14-2.37-5.42-4.08-8.77-6.6h9.31c-.16,1.91-.31,3.81-.54,6.6Z"/>
  </g>
  <g id="Layer_2">
    <path class="cls-9" d="M461.49,855.23c-9.84-3.58-19.7-7.07-29.5-10.76-9.5-3.57-18.74-8-28.46-10.76-5.27-1.5-11.57-3.11-16.78,1.85-1.44,1.37-3.71,2.06-5.72,2.6-4.52,1.21-7.29,3.47-6.5,8.63.07.45-.57,1-.88,1.51-2.06-4.44-4.71-8.71-6.07-13.36-4.54-15.44-8.84-30.97-12.78-46.57-1.64-6.46-2.07-13.22-3.28-19.81-.21-1.15-1.35-2.6-2.42-3.05-3.29-1.36-6.81-2.15-10.13-3.43-9.01-3.47-17.9-7.26-26.97-10.57-4.99-1.82-10.24-2.93-15.37-4.36-.06-.64-.13-1.28-.19-1.92,13.96-10.11,30.49-10,47.64-9.84-1.3-4.15-2.11-7.83-3.58-11.21-3.06-7.04-3.22-14.07-2.17-21.64,1-7.22.31-14.67.36-22.01,6.06.83,7.16,2.36,7,8.52-.18,6.84-.09,13.69-.03,20.54.02,2.56.28,5.12,3.93,4.85,8.98-.68,15.18,4.18,20.82,10.31.86.93,2.28,1.34,3.84,2.22.13-6.95-1.68-12.15-4.88-17.19-2.95-4.64-5.21-9.76-7.47-14.8-4.76-10.62-9.4-21.3-13.95-32.01-2.92-6.88-5.33-13.99-8.46-20.78-6.07-13.18-12.48-26.21-18.74-39.3-2.36-4.93-4.46-9.99-7.1-14.76-2.97-5.38-7.47-10.14-9.4-15.82-2.85-8.37-8.8-9.47-16.04-9.93-2.03-.13-4.01-1.78-5.94-2.87-7.16-4.06-14.21-8.3-21.46-12.18-2.06-1.1-4.64-1.23-6.98-1.8.56-4.45-1.79-7.68-4.11-11.19-5.39-8.14-10.35-16.58-15.66-25.18-9.81,6.27-17.94,13.43-24.49,22.48-2.86,3.95-6.54,7.32-9.85,10.95,3.3-6.83,6.63-13.65,9.87-20.51.53-1.12,1.27-2.61.93-3.6-5.46-16.41.48-29.82,10.86-42.09,3.54-4.19-1.13-6.73-2.38-9.39-5.49-11.71-6.26-15.04,1.29-23.58.69-.78,1.09-1.83,2.46-4.21-8.71,2.77-15.91,5.22-23.21,7.36-8.4,2.47-16.76,5.42-25.35,6.79-11.14,1.78-22.49,2.89-33.77,3-8.83.09-17.94-.21-26.07-5.23-1.39-.86-4.37.88-6.62,1.41-.54-1.35-.72-3.08-1.68-3.98-5.42-5.06-9.6-10.9-13.5-17.25-3.16-5.14-.95-9.11.22-13.4,1.12-4.14,4.71-5.08,8.8-5.4,9.31-.72,18.61-1.65,27.85-2.96,12.44-1.76,24.79-4.06,37.22-5.91,5.83-.87,11.76-1.07,17.6-1.86,11.99-1.62,23.96-3.37,35.91-5.2,7.39-1.14,14.99-1.65,21.2-6.76,1.43-1.18,3.55-2.04,5.39-2.11,13.21-.5,26.46-.96,37.73,7.89.09,3.7,1.47,6.34,4.85,8.47,7.04,4.44,13.71,9.48,20.62,14.15,1.16.78,2.73,1.06,4.15,1.35,6.39,1.3,9.36-3.71,12.21-7.61,5.2-7.11,9.27-15.03,14.39-22.2,3.67-5.13,7.92-10.1,14.93-10.98.22,1.52.44,3.04.52,3.55,3.6-.5,6.52-.82,9.4-1.34,2.65-.48,6-.35,7.77-1.92,6.7-5.93,15.43-5.75,23.17-8.19,8.97-2.83,18.71-3.14,27.77-5.75,13.45-3.88,26.58-8.85,39.87-13.28,4.79-1.6,9.44-3.39,14.72-.76,2.07,1.03,5.14.12,7.75.02,1.55-.06,3.08-.28,5.04-.47.66,7.84,1.17,15.07,1.89,22.28.93,9.35-1.61,18.82,1.8,28.18,1.59,4.36.77,9.54,1.66,14.23.82,4.35,6.41,9.28,10.66,8.51,2.89-.52,6.44-3.46,7.55-6.18,1.54-3.8,1.65-8.45,1.32-12.66-.43-5.5-3.35-11.13-2.6-16.32,1.91-13.31,1.51-26.68,2.52-39.99.58-7.63,1.43-8.94,9-11.14,5.25-1.52,10.33-3.75,15.3-6.04,2.26-1.05,3.95-3.29,6.15-4.54,14.48-8.22,29.03-16.32,43.55-24.46,2.01-1.09,4.09-2.08,6.03-3.29,14.02-8.82,28.15-17.48,41.98-26.6,11.75-7.75,23.3-15.83,34.63-24.18,9.37-6.91,18.29-14.44,27.4-21.69,2.41-1.97,4.81-3.94,7.25-5.94-8.2-8.99-9.1-9.29-16.22-5.94-9.29,4.23-18.65,8.21-29.02,8.96-1.59.11-3.31.81-4.73.4-4.63-1.34-8.58-4.49-12.81-6.26-7.06-2.96-15.05-4.79-22.71-5-17.47-.48-34.11,3.89-49.79,11.71-.82.08-1.76-.07-2.45.28-13.21,6.72-26.36,13.54-39.58,20.24-2.31,1.17-4.85,1.91-7.44,2.9-.43-2.46-.39-4.05-.99-5.34-7.13-15.33-16.13-28.23-33.8-33.63-8.77-2.68-16.88-1.3-24.85.12-9.1,1.62-17.45,6.69-23.8,13.66-3.9,4.29-9.7,8.15-8.14,15.6.12.57-.98,1.61-1.73,2.12-4.62,3.16-7.94,2.09-11.48-2.61-4.95-6.56-10.35-12.78-15.55-19.16-1.72-2.11-3.07-4.7-5.18-6.26-5.43-4.01-11.19-7.58-16.86-11.26-.36-.23-1.16.09-1.7.29-8.8,3.35-17.81,6.25-26.33,10.2-15.7,7.27-31.6,14.34-46.47,23.1-9.28,5.46-17.91,12.95-24.9,21.17-9.07,10.67-19.1,19.93-30.87,27.11-13.96,8.52-28.66,15.72-45.03,18.56-8.23,1.43-16.49,2.69-24.76,3.78-1.02.13-2.79-.99-3.28-1.99-2.65-5.44-7.54-5.98-12.56-5.92-12.91.15-24.89,4.42-35.74,10.72-7.81,4.54-14.21,11.48-21.25,17.33-.83.69-1.68,1.78-2.59,1.86-8.88.8-17.77,1.75-26.68,1.94-3.77.08-7.57-1.53-12.2-2.57,6.32,8.02,6.12,8.71-2.43,11.67-.72.25-1.37.67-2.05,1.01-3.3.67-6.04.2-8.9-2.17-4.08-3.38-9.42-5.36-13.1-9.06-2.87-2.89-4.44-7.33-5.84-11.35-1.48-4.27-2.37-8.8-2.95-13.29-.32-2.51.53-5.17.82-7.76,1.78-16.06,8.36-30.36,16.94-43.68,6.21-9.64,14.87-17.06,24.28-23.78,12.61-9.02,26.32-15.79,40.55-21.61,2.79-1.14,6.12-.91,9.1-1.67,5.46-1.39,10.79-3.28,16.28-4.52,3.34-.76,6.9-1.14,10.29-.88,3.53.28,5.38-1.66,7.64-3.68,8.02-7.18,16.16-14.22,24.32-21.24,5.85-5.02,11.66-10.11,17.74-14.83,8.09-6.28,16.19-12.6,24.72-18.24,10.45-6.91,21.13-13.53,32.13-19.52,7.8-4.25,16.25-7.3,24.45-10.8,4.02-1.71,8.22-3.04,12.2-4.85,14.19-6.46,29.77-6.63,44.69-9.67,19.18-3.9,38.65-6.48,58.06-9.1,8.18-1.1,16.56-.64,24.82-1.27,4.86-.37,9.64-1.88,14.49-2.17,4.3-.26,8.67.68,13,.64,2-.02,4.38-.61,5.91-1.8,7.62-5.96,14.42-13.16,22.61-18.13,13.71-8.32,27.9-16.05,42.53-22.59,14.43-6.45,29.76-11.4,45.84-10.58,11.86.6,23.81,2.35,35.38,5.04,9.75,2.26,19.02,6.61,28.49,10.03.61.22,1.19.62,1.81.67,9.01.71,18.05,1.22,27.04,2.13,2.84.29,5.62,1.47,8.36,2.44,6.84,2.43,13.67,4.87,20.43,7.49,5.37,2.09,10.87,4.01,15.88,6.79,9.97,5.53,19.78,11.39,29.39,17.53,5.54,3.54,10.72,7.69,15.77,11.92,2.74,2.3,4.87,5.32,7.23,8.05,3.67,4.25,7.08,8.73,10.98,12.76,10.32,10.69,20.05,21.74,27.38,34.83,4.31,7.69,9.84,14.69,14.47,22.21,2.15,3.49,3.43,7.5,5.18,11.24,2.73,5.84,5.55,11.63,8.27,17.47,4.35,9.35,9.46,18.45,12.7,28.17,2.78,8.31,6.73,15.97,10.2,23.89,5.09,11.62,10.4,23.14,15.29,34.83,5.47,13.07,10.79,26.22,15.79,39.48,3.17,8.39,6.38,16.89,8.25,25.62,3.06,14.23,5.11,28.63,1.74,43.27-2.8,12.17-8.28,23.13-14.15,33.97-.61,1.13-1.72,2.01-2.63,2.97-5.77,6.02-5.05,9.84,1.86,14.57,2.24,1.53,3.32,4.74,4.94,7.18-1.56-.93-3.03-2.13-4.7-2.73-3.37-1.21-7.1-3.42-10.24-2.84-6.52,1.21-12.84,3.76-19.1,6.12-20.04,7.57-39.76,16.08-60.09,22.76-22.39,7.35-45.31,13.08-68.01,19.51-.96-2.15-1.36-4.95-2.97-6.35-11.49-9.96-17.77-23.11-22.78-36.92-5.1-14.04-6.12-28.77-6.12-43.6,0-2.46,0-5.07-.78-7.35-1.41-4.14-4.09-4.4-6.9-1.11-.94,1.1-2.03,2.13-3.21,2.95-8.69,6.06-18.86,8.55-28.76,11.65-3.91,1.22-8.72,1.16-11.69,3.49-6.5,5.09-12.89.73-19.36,1.47,1.34-1.59,2.91-2.4,4.37-3.37,1.34-.89,2.55-1.95,3.82-2.94-.16-.24-.33-.47-.49-.71-3.16.75-6.32,1.49-9.38,2.22v4.15c-3.06.22-6.05-.23-8.48.73-11.96,4.74-23.48,10.75-35.69,14.62-14.55,4.61-29.81,6.49-45.15,6.18-8.07-.17-16.26-.57-24.15-2.12-8.98-1.76-17.69-4.92-26.51-7.47-4.73-1.37-8.56-4.12-12.58-6.94-4.19-2.95-9.61-4.14-15.33-6.44-.43,2.08-1.04,5-1.64,7.92-2.69-.05-5.57-.75-8.02,0-3.61,1.09-6.76,3.61-10.35,4.81-12.79,4.28-26.1,3.53-39.27,3.17-6.93-.19-13.82-1.69-20.93-2.62-.41,2.13-1.07,4.18-1.14,6.25-.17,5.51-.22,11.03-.02,16.54.05,1.37.88,3.15,1.94,3.96,3.25,2.48,4.27,5.68,4.1,9.53-.36,8.47-1.47,8.74,6.24,12.38.87.41,1.76.91,2.46,1.56,5.39,5,10.85,9.92,16.06,15.1,5.31,5.28,10.22,10.97,15.58,16.19,4.23,4.11,9.09,7.57,13.3,11.7,12.72,12.49,25.29,25.14,37.83,37.81,2.32,2.35,4.22,5.12,6.31,7.7-5.51,4.58-5.41,6.16-1.63,12.18,3.35,5.35,5.82,11.24,8.78,16.84.41.77,1.41,1.77,2.11,1.75,4.49-.15,9.03-.18,13.43-.97,8.48-1.52,16.85-3.61,25.29-5.31,8.07-1.62,16.22-2.86,24.26-4.61,6.18-1.35,13.01-.75,18.08-5.77,5.1-5.06,10.31-10.01,15.47-15,1.36-1.2,2.89-2.27,4.06-3.63,13-15.21,28.12-27.71,45.58-37.62,21.68-12.3,44.5-19.02,69.6-16.84,12.36,1.08,24.13,3.33,35.5,9.25,5.77,3.01,10.36,6.82,14.79,10.98,6.09,5.71,7.59,6.19,14.6,1.18,3.56-2.55,6.3-1.97,8.51,1.81,5.04,8.63,10.3,17.14,15.04,25.94,5.97,11.07,11.92,22.18,17.09,33.63,4.59,10.18,8.61,20.69,11.96,31.34,3.54,11.22,6.02,22.78,8.92,34.2,1.65,6.5,3.19,13.03,4.8,19.54,1.82,7.39,3.94,14.72,5.44,22.17,2.21,10.97,3.96,22.04,5.97,33.05,1.97,10.8,4.18,21.56,6,32.38,1.27,7.57,2.05,15.23,3.03,22.85,1.05,8.15,2.14,16.29,3.09,24.45.5,4.26.06,8.76,1.27,12.79,1.49,4.93-.34,7.42-4.34,9.34-7.62,1.65-15.25,3.23-22.84,4.98-5.16,1.19-10.21,2.91-15.41,3.91-11.12,2.14-22.29,4-33.46,5.93-6.73,1.16-13.48,2.23-20.23,3.34-3.32-7.57-7.28-14.94-9.85-22.75-12.06-36.62-17.76-74.33-18.11-112.86-.05-5.76.22-11.39-2.68-16.94-1.48-2.84-2.02-3.83-5.23-2.8-8.58,2.75-17.13,6.03-25.96,7.44-10.95,1.74-22.05,3.45-33.32,1.04-5.76-1.23-11.62-.38-16.07,4.47-.75.82-1.9,1.31-2.91,1.86-6.12,3.26-12.65,5.93-18.31,9.85-13.64,9.44-28.95,14.8-44.57,19.55-21.22,6.44-43.03,9.86-65.09,10.71-13.6.53-27.29-1.16-40.94-1.47-2.65-.06-5.71,1.06-7.94,2.59-8.22,5.62-5.69,14.66-6.02,22.41-.53,12.43,2.42,24.44,6,36.37,3.12,10.42,6.73,20.43,13.12,29.31,1.34,1.87,2.25,4.05,3.35,6.08-.37.46-.73.91-1.1,1.37-3.31-.82-6.61-1.64-10.04-2.49-.07,1.29-.15,2.61-.22,3.92Z"/>
    <path class="cls-8" d="M1183.36,195.63c22.35-1.28,44.68-3.1,67.05-3.64,15.74-.38,31.52.94,47.28,1.57,6.96.28,13.92.72,20.88,1.1,44.24,2.41,87.96,8.13,131.1,18.58,29.43,7.13,58.21,16.01,86.02,27.95,2.18.94,3.79,3.21,6.45,5.56-48.17,8.43-91.18,25.53-131.62,49.38-.04.55-.08,1.09-.12,1.64,3.51,1.17,7.11,2.14,10.52,3.55,6.84,2.83,13.56,5.96,20.37,8.85,5.53,2.35,11.23,4.3,16.67,6.83,17.6,8.19,35.15,16.49,52.64,24.91,10.54,5.08,21.02,10.32,31.38,15.76,8.64,4.53,17.2,9.24,25.57,14.25,12.56,7.51,24.95,15.3,37.38,23.04,10.53,6.56,21.16,12.96,31.44,19.88,10.08,6.79,19.85,14.04,29.6,21.3,9.35,6.96,18.76,13.89,27.66,21.4,11.52,9.72,22.58,19.99,33.83,30.04,6.27,5.61,12.77,10.99,18.68,16.96,6.17,6.23,11.68,13.11,17.64,19.56,2.46,2.66,5.1,5.28,8.08,7.28,2.96,1.98,6.44,3.4,5.66,7.71-.87,4.8-6.35,9.6-10.93,9.35-6.25-.34-12.46-1.53-18.71-1.87-6.05-.32-12.26-.78-18.19.16-13.82,2.19-27.85,4.1-41.18,8.15-13.63,4.14-26.67,10.36-39.67,16.31-7.46,3.41-14.83,7.43-21.39,12.32-8.99,6.7-17.65,14-25.58,21.92-13.18,13.16-22.2,29.28-28.82,46.49-4.53,11.78-8.19,24.04-10.84,36.38-3.41,15.88-5.65,32.02-7.89,48.12-.84,6.03-.16,12.26-.33,18.39-.21,8.02-.77,16.04-.81,24.07-.02,5.64-.09,11.42,1.04,16.89,2.19,10.6,4.62,21.22,8.09,31.45,2.48,7.29-.97,12.04-7.84,17.96-1.95,1.68-3.61,3.7-5.56,5.39-2.33,2.01-4.62,4.25-7.31,5.64-4,2.07-7.49.34-8.68-3.68-3.03-10.24-10.89-16.97-17.83-24-5.35-5.41-12.65-9.07-19.48-12.79-9.7-5.29-19.52-10.52-29.76-14.62-7.25-2.9-15.2-4.42-22.98-5.58-10.44-1.55-21-2.41-31.53-3.08-10.35-.66-20.8-1.5-31.11-.82-13.7.9-27.73,1.61-40.52,7.16-21.87,9.49-41.93,21.49-57.42,40.54-12.3,15.12-19.61,32.15-25.68,50.34-3.12,9.36-1.5,18.71-3.22,27.95-.83,4.43-2.7,7.42-6.16,9.6-2.59,1.63-4.75,1.74-7.03-1.52-6.62-9.42-13.4-18.79-20.85-27.55-7.1-8.35-14.42-16.81-22.95-23.57-10.71-8.5-22.13-16.61-34.39-22.49-10.96-5.26-23.31-8.22-35.37-10.39-10.09-1.82-20.64-1.08-31-1.37-4.4-.13-8.9-.6-13.19.1-12.52,2.04-25.24,3.6-37.34,7.18-18.06,5.33-35.59,12.36-51.48,22.83-3.27,2.15-6.75,3.98-10.14,5.95-.15-.94-.3-1.89-.45-2.85-5.74,1.47-6.5.84-6.72-4.77-.25-6.59-.65-13.17-.98-19.76-.14-2.81-.11-5.65-.42-8.44-.78-7.16-1.83-14.28-2.55-21.44-1.12-11.14-1.93-22.31-3.11-33.44-.75-7.13-1.92-14.22-2.92-21.33-1.57-11.14-3.09-22.29-4.78-33.41-.9-5.89-2.18-11.73-3.2-17.61-1.03-5.93-1.85-11.9-2.96-17.82-1.23-6.55-2.83-13.04-3.91-19.61-.26-1.6-1.81-5.42,2.88-4.12,3.3,2.5,6.66,4.93,9.89,7.53,7.02,5.65,14.28,11.05,20.82,17.22,4.05,3.81,7.18,8.69,10.32,13.36,3.47,5.16,6.11,10.9,9.76,15.91,8.62,11.83,22.35,15.59,34.25,10.69,12.02-4.95,19.65-14.28,25.61-24.95,3.54-6.33,5.18-13.73,7.54-20.69,4.63-13.65,9.23-27.32,13.71-41.02,5.71-17.48,11.37-34.97,16.9-52.5,2.65-8.41,4.94-16.93,7.38-25.4,1.76-6.12,3.41-12.26,5.25-18.36,2.4-7.96,5.22-15.81,7.36-23.84,2.74-10.24,4.91-20.62,7.46-30.91,3.14-12.65,6.5-25.25,9.59-37.92,1.75-7.16,3.08-14.43,4.68-21.63,3.07-13.74,6.35-27.44,9.25-41.21,2.81-13.31,5.23-26.7,7.87-40.05,1.69-8.52,3.6-17,5.16-25.54,2.44-13.39,4.68-26.81,6.99-40.23,1.37-7.91,2.69-15.84,4.08-23.75.99-5.65,1.82-11.34,3.2-16.9.53-2.14,2.06-5.26,3.67-5.63,2.94-.67,3.71-2.03,4.16-4.53.52-2.9.97-5.91,2.11-8.59,2.02-4.73.39-6.76-4.34-7.23-.59-.06-1.16-.42-1.05-.38-2.73-10.1-4.08-19.77-2.63-29.63Z"/>
    <path class="cls-9" d="M949.35,1438.15c-8.19,2.78-14.13,2.58-27.41-1.04-.38,1.33-1.03,2.65-1.1,4-.28,5.21-1.48,9.24-8.14,8.1-.71-.12-1.63,1.22-2.52,1.8-11.48,7.47-24.52,11.41-37.65,13.62-16.71,2.81-33.76,3.82-50.81,1.54-6.53-.87-13.2-.78-19.8-1.1-7.11-.35-14.28-1.35-21.33-.8-6.38.5-12.77,2.28-18.91,4.26-7.65,2.47-15.05,5.71-22.55,8.65-5.08,1.99-10.16,3.99-15.2,6.08-3.69,1.52-7.27,3.29-10.98,4.77-6.23,2.49-16.58-4.55-16.38-11.31.05-1.67,1.65-3.34,2.67-4.92,2.66-4.16,5.39-8.27,8.09-12.4-.48-.6-.95-1.19-1.43-1.79-4.27,1.55-8.67,2.8-12.76,4.72-4.29,2.01-8.24,4.73-12.4,7.02-7.04,3.88-13.92,7.84-19.61,13.82-1.6,1.69-6.02,2.04-8.55,1.2-4.16-1.38-7.65-4.52-8.05-9.46-.34-4.1-.01-7.91,2.73-11.67,3.29-4.52,5.52-9.83,7.99-14.91.51-1.04.07-2.54.07-4.21-7.05.75-12.42,4.42-17.51,8.28-5.58,4.23-11.83,2.72-14.34-4.01-.5-1.34-.97-2.7-1.65-4.58-5.54.41-11.16,1.24-16.77,1.13-5.19-.11-11,.04-15.39-2.19-6.99-3.55-12.14-.09-17.44,2.53-12.73,6.3-25.28,12.98-37.66,19.94-3.34,1.88-6.44,4.93-8.52,8.16-2.98,4.63-6.05,6.07-11.01,3.48-4.03-2.1-5.21-7.15-3.46-11.44,2.22-5.44,3.78-11.14,5.62-16.73-.66-.53-1.32-1.06-1.98-1.59-5.03,3.37-10.19,6.56-15.05,10.15-4.45,3.29-8.73,6.84-12.8,10.59-4.64,4.28-8.98,8.88-13.4,13.38-1.7,1.73-9.36,2.98-11.27,1.3-2.58-2.27-4.99-4.92-3.93-8.92.42-1.57.93-3.11,1.38-4.67,1.09-3.78.51-6.18-4.27-5.89-4.31.26-6.66-2.11-6.26-6.37.96-10.45,2.1-20.9,3.36-31.32.66-5.5,1.54-10.99,2.62-16.43,2.79-14.02,7.2-27.47,16.62-38.53,1.58-1.86,5.69-2.09,8.65-2.13,5.43-.09,10.88.47,16.31.85,3.97.28,7.93.72,11.89,1.04,8.19.67,16.39,1.3,24.58,1.98,3.43.28,6.86.84,10.29.9,3.34.06,6.98,1.17,9.64-2.31.68-.9,2.36-.99,3.5-1.6,1.17-.63,2.25-1.43,3.37-2.15-.87-1.03-1.54-2.38-2.64-3.04-6.25-3.77-12.77-7.11-18.87-11.11-7.37-4.83-14.46-10.08-21.57-15.29-16.69-12.25-31.19-26.63-44.21-42.82-16.04-19.94-27.47-42.13-34.74-66.37-3.53-11.77-5.25-24.19-6.69-36.44-1.44-12.28-2.02-24.72-2.02-37.09,0-12.21.42-24.53,2.08-36.6,1.62-11.79,4.29-23.52,9.05-34.6,2.42-5.63,7.5-7.35,13.11-4.48,1.02.52,2.73,1.07,3.45.59,7.21-4.74,15.15-3.41,22.99-3.09,1.64,5.79,3.69,11.49,4.83,17.38,2.06,10.68,3.33,21.51,5.37,32.19,2.44,12.77,4.66,25.64,8.26,38.1,3.69,12.79,8.5,25.32,13.61,37.63,5.16,12.45,10.64,24.85,17.19,36.61,6.41,11.5,13.9,22.48,21.73,33.08,8.81,11.94,17.89,23.81,28.03,34.61,9.8,10.44,20.84,19.78,31.83,29.01,9.85,8.27,20.05,16.2,30.7,23.38,9.13,6.15,19.16,10.96,28.67,16.57.88.52,1.62,3.12,1.15,3.71-1.4,1.72-3.45,2.91-5.24,4.31-1.24.97-2.47,1.95-3.77,2.99,7.06,2.16,13.32,4.26,19.7,5.93,2.07.54,4.69.62,6.59-.19,3.91-1.66,7.48-4.09,11.23-6.15,1.09-.6,2.38-1.52,3.45-1.37,5.38.74,10.77,1.56,16.05,2.78,8.02,1.85,15.98,3.96,23.91,6.16,6.82,1.89,13.56,4.08,20.33,6.13,2.15.65,4.73,2.33,6.36,1.67,2.07-.84,3.37-3.58,5.44-6.01-2.36-1.1-3.9-1.64-5.24-2.49-1.87-1.19-4.05-2.28-5.29-3.99-8.43-11.62-16.95-23.2-24.86-35.18-7.26-10.99-14.36-22.17-20.49-33.81-6.85-13.02-12.9-26.5-18.62-40.06-6.06-14.37-10.56-29.22-9.95-45.15.08-2.04-.46-4.37-1.45-6.15-3-5.34-2.38-11.14-1.04-16.31,3.1-11.94,8.57-23.21,15.68-33.1,6.01-8.37,11.42-17.61,20.82-23.38,4.64-2.84,7.78-8.05,12.28-11.22,8.48-5.98,17.43-11.29,26.24-16.8,4.39-2.75,9.74-4.51,13.14-8.15,5.57-5.95,11.39-11.18,19-14.09,6.89-2.63,13.93-4.89,21.13-7.4-32.57-53.17-41.63-112.76-50.75-172.35,18.03-3.91,36.11-7.63,54.08-11.81,8.7-2.03,17.19-4.93,25.77-7.44.56,2.07.86,4.25,1.72,6.19,10.07,22.77,15.33,47.02,21.86,70.88,3.97,14.48,7.49,29.09,11.88,43.44,5.69,18.62,11.77,37.13,18.21,55.5,4.26,12.14,9.05,24.13,14.36,35.85,8.86,19.56,18.13,38.94,27.63,58.19,3.69,7.48,8.64,14.34,12.68,21.66,3.19,5.78,5.36,12.15,8.84,17.72,15.04,24.12,30.42,48.03,45.63,72.05,6.08,9.61,11.85,19.42,18.09,28.92,3.69,5.61,4.94,11.91,6.41,18.2.24,1.02-.19,2.34-.65,3.36-.79,1.76-2.03,3.34-2.78,5.11-5.48,12.87-12.27,24.98-20.79,36.1-5.25,6.85-10.37,13.8-15.68,20.6-2.32,2.97-4.65,6.07-7.54,8.43-5.01,4.09-10.4,7.71-15.72,11.4-3.9,2.71-7.78,5.86-14.23,2.52-2.37,5.46-4.6,10.61-6.84,15.76Z"/>
    <path class="cls-11" d="M949.35,1438.15c2.24-5.15,4.47-10.3,6.84-15.76,6.45,3.34,10.33.19,14.23-2.52,5.32-3.69,10.71-7.31,15.72-11.4,2.89-2.36,5.22-5.46,7.54-8.43,5.31-6.8,10.43-13.75,15.68-20.6,8.52-11.12,15.3-23.23,20.79-36.1.76-1.78,1.99-3.35,2.78-5.11.46-1.02.89-2.34.65-3.36-1.47-6.29-2.73-12.59-6.41-18.2-6.24-9.5-12.01-19.31-18.09-28.92-15.2-24.02-30.58-47.93-45.63-72.05-3.48-5.57-5.65-11.94-8.84-17.72-4.04-7.33-8.99-14.18-12.68-21.66-9.5-19.26-18.77-38.64-27.63-58.19-5.31-11.72-10.09-23.71-14.36-35.85-6.45-18.37-12.52-36.88-18.21-55.5-4.39-14.35-7.91-28.96-11.88-43.44-6.53-23.86-11.8-48.11-21.86-70.88-.86-1.94-1.16-4.12-1.72-6.19.39-2.63-.08-6.81,1.33-7.59,3.68-2.04,3.09-4.94,2.65-7.56-1.31-7.8-3.05-15.53-4.71-23.27-2.03-9.48-4.15-18.94-6.23-28.41,4-1.93,5.82-4.41,4.34-9.34-1.21-4.02-.78-8.52-1.27-12.79-.95-8.16-2.04-16.3-3.09-24.45-.98-7.62-1.76-15.28-3.03-22.85-1.81-10.83-4.02-21.58-6-32.38-2.01-11.01-3.76-22.08-5.97-33.05-1.5-7.45-3.62-14.78-5.44-22.17-1.61-6.51-3.15-13.04-4.8-19.54-2.9-11.42-5.38-22.98-8.92-34.2-3.36-10.65-7.37-21.16-11.96-31.34-5.17-11.45-11.13-22.56-17.09-33.63-4.74-8.79-10.01-17.3-15.04-25.94-2.2-3.78-4.94-4.36-8.51-1.81-7.01,5.01-8.51,4.53-14.6-1.18-4.44-4.16-9.02-7.97-14.79-10.98-11.37-5.93-23.14-8.18-35.5-9.25-25.1-2.18-47.92,4.54-69.6,16.84-17.46,9.91-32.58,22.42-45.58,37.62-1.17,1.37-2.7,2.43-4.06,3.63-5.29,1.15-10.58,2.29-17.09,3.7,3.33-4.16,1.91-4.91-1.01-4.81-9.64.34-19.28.67-28.92,1-10.03.34-20.05.67-30.08,1.01-.66.02-1.57-.15-1.94.21-3.83,3.73-6.13,0-8.81-1.74-1.08-.71-2.07-1.56-3.09-2.35-3.94-5.24-6.54-10.99-6.92-17.64-.13-2.21-.57-4.4-.87-6.59-3.73-11.51-3.69-11.74,1.12-15.32,3.48.45,5.58.75,7.69.99,1.85.21,3.74.21,5.57.54,1.94.35,3.84,1.37,5.76,1.39,5.22.05,10.46-.13,15.67-.49,18.63-1.27,37.31-2.13,55.86-4.13,14.9-1.61,29.75-4.18,44.45-7.16,16.04-3.25,31.84-7.64,47.82-11.16,7.34-1.62,14.91-2.19,22.32-3.55,12.15-2.24,24.24-4.74,36.36-7.13,22.69-6.43,45.62-12.16,68.01-19.51,20.33-6.68,40.05-15.19,60.09-22.76,6.26-2.36,12.58-4.92,19.1-6.12,3.14-.58,6.87,1.63,10.24,2.84,1.68.6,3.14,1.8,4.7,2.73,2.97,5.41,6.29,10.67,8.83,16.28,4.84,10.7,9.25,21.59,13.79,32.43,4.05,9.65,8.15,19.28,12.01,29.01,1.44,3.64,2.18,7.55,3.39,11.29.17.53,1.24.76,1.89,1.13,1.09,2.18,2.24,4.33,3.26,6.55,1.49,3.25,4.96,7.59,3.93,9.61-2.58,5.09.4,8.8,1.55,12.61,3.24,10.76,7.78,21.13,11.15,31.86,3.42,10.89,6.24,21.97,8.95,33.06,1.18,4.82,2.77,5.33,5.66,1.52.5,2.71.97,5.22,1.44,7.73.19,1.29.33,2.6.58,3.88,1.15,6.1,2.33,12.2,3.5,18.31-4.69-1.29-3.14,2.52-2.88,4.12,1.07,6.58,2.68,13.06,3.91,19.61,1.11,5.92,1.93,11.89,2.96,17.82,1.02,5.88,2.3,11.71,3.2,17.61,1.7,11.12,3.21,22.27,4.78,33.41,1,7.11,2.16,14.2,2.92,21.33,1.18,11.13,1.99,22.3,3.11,33.44.72,7.16,1.77,14.29,2.55,21.44.31,2.8.28,5.63.42,8.44.33,6.59.73,13.17.98,19.76.22,5.6.98,6.24,6.72,4.77.15.97.3,1.91.45,2.85-8.1,3.56-6.13,10.86-5.98,17.15.19,7.67,1.23,15.33,1.81,22.99.91,11.97,1.81,23.95,2.61,35.93.29,4.28-.01,8.62.47,12.87.89,7.92,2.48,15.77,3.18,23.7.57,6.5,5.16,12.47,2.02,19.61-.87,1.98,1.1,5.2,1.73,7.87,2.42,10.12,4.26,20.42,7.4,30.31,3.15,9.91,7.46,19.46,11.49,29.08,5.13,12.23,9.93,24.66,15.91,36.47,6.07,11.99,13.23,23.45,20.24,34.94,6.56,10.74,12.93,21.7,20.52,31.7,10.03,13.2,21.17,25.54,31.81,38.28,1.31,1.57,2.58,3.2,3.64,4.94,3.48,5.71,8.4,5.54,14.04,4.02,5.9-1.59,11.9,1.21,15.89,6.87,1.8,5.3,3.73,10.56,5.36,15.91,2.89,9.49-1.27,15.64-10.18,14.37-.76,2.9-1.31,5.97-2.37,8.84-3.76,10.21-7.72,20.34-11.56,30.51-5.91,15.64-13.75,30.25-23.28,43.97-3.08,4.43-5.98,8.98-8.97,13.48-5.74,6.56-11.38,13.23-17.25,19.67-8.86,9.7-17.77,19.36-26.9,28.8-3.48,3.6-7.61,6.59-11.53,9.75-4.72,3.81-9.65,7.38-14.22,11.36-.99.86-.82,3.04-1.19,4.62-6.81,6.22-16.08,8.61-25.78,9.8l-14.17,1.98c-3.67-2.24-7.18-4.8-11.05-6.6-2.32-1.08-5.19-.98-7.81-1.41ZM899.64,851.08c1.79,1.43,3.61,2.83,5.37,4.3,16.14,13.52,32.27,27.05,48.42,40.56,4.98,4.17,10.01,8.29,15.02,12.43-3.66-10.76-7.98-20.98-12.14-31.27-1.53-3.77-3.4-7.61-3.84-11.56-1.1-10.02-1.38-20.12-2.22-30.18-.27-3.19-.32-7.05-2.11-9.32-4.59-5.81-10.09-10.89-15.69-16.75,1.34,14.94,2.63,29.22,3.99,44.38-1.93-1.4-3.2-2.14-4.27-3.1-10.63-9.55-21.21-19.16-31.85-28.7-16.09-14.42-32.22-28.8-48.34-43.2-.47-.32-.94-.63-1.41-.95.19.63.37,1.26.56,1.89.2.63.32,1.29.62,1.87,7.89,15.54,15.81,31.06,23.68,46.61.81,1.59,1.64,3.31,1.87,5.04,1.77,13.87,3.35,27.76,5.08,41.64.26,2.1.28,4.96,1.59,6.07,5.98,5.1,12.38,9.7,19.56,15.19-1.64-15.52-3.16-29.87-4.68-44.22.26-.25.52-.5.78-.74ZM944.93,772.31c-24.97.73-49.73-1.17-74.65,1.42.9,4.89.35,10.32,2.78,13.35,5.72,7.11,12.87,13.07,20.48,20.51v-9.99c12.77-.78,25.17-1.55,37.04-2.28,2,10.97,11.76,14.5,17.91,21.41-1.17-14.54-2.34-29.08-3.57-44.43ZM889.93,937.59c22.54-7.37,44.39-14.52,66.14-21.63.75-10.54-5.16-18.75-16.79-23.34.15,2.54.28,4.95.43,7.5-11.26,3.16-22.54,6.33-33.73,9.47-3.71-10.93-14.38-13.28-21.84-21.3,2.04,17.34,3.88,32.98,5.8,49.3Z"/>
    <path class="cls-2" d="M766.43,925.5c9.12,59.58,18.18,119.18,50.75,172.35-7.21,2.51-14.24,4.77-21.13,7.4-7.61,2.91-13.43,8.13-19,14.09-3.4,3.63-8.75,5.4-13.14,8.15-8.81,5.51-17.76,10.83-26.24,16.8-4.5,3.17-7.64,8.37-12.28,11.22-9.41,5.76-14.81,15.01-20.82,23.38-7.11,9.89-12.58,21.17-15.68,33.1-1.34,5.17-1.96,10.97,1.04,16.31,1,1.78,1.53,4.11,1.45,6.15-.61,15.93,3.9,30.78,9.95,45.15,5.72,13.57,11.77,27.05,18.62,40.06,6.13,11.64,13.23,22.82,20.49,33.81,7.91,11.98,16.43,23.56,24.86,35.18,1.24,1.71,3.42,2.8,5.29,3.99,1.34.85,2.87,1.39,5.24,2.49-2.07,2.44-3.37,5.18-5.44,6.01-1.63.66-4.21-1.02-6.36-1.67-6.77-2.05-13.51-4.23-20.33-6.13-7.93-2.2-15.89-4.3-23.91-6.16-5.28-1.22-10.67-2.04-16.05-2.78-1.07-.15-2.35.78-3.45,1.37-3.75,2.05-7.32,4.48-11.23,6.15-1.9.81-4.52.73-6.59.19-6.38-1.68-12.65-3.77-19.7-5.93,1.3-1.03,2.53-2.02,3.77-2.99,1.79-1.4,3.84-2.59,5.24-4.31.48-.59-.27-3.19-1.15-3.71-9.51-5.61-19.54-10.42-28.67-16.57-10.65-7.18-20.86-15.12-30.7-23.38-10.99-9.23-22.03-18.58-31.83-29.01-10.14-10.79-19.22-22.67-28.03-34.61-7.83-10.61-15.32-21.58-21.73-33.08-6.55-11.75-12.03-24.16-17.19-36.61-5.11-12.31-9.91-24.84-13.61-37.63-3.6-12.46-5.81-25.34-8.26-38.1-2.04-10.68-3.31-21.51-5.37-32.19-1.13-5.88-3.19-11.59-4.83-17.38.66-2.54,2.01-5.12,1.87-7.61-.68-11.81-1.81-23.59-2.71-35.39-.41-5.32-1-10.65-.95-15.97.17-17.29.35-34.6,1.04-51.87.43-10.72,1.93-21.4,2.7-32.12.88-12.32,1.39-24.67,2.25-36.99.34-4.85,1.18-9.66,1.79-14.48.72,11.53,1.32,23.07,2.2,34.58.92,12,5.33,14.69,16.74,13.19,1.59-.21,3.24-.42,4.82-.27,4.57.45,9.11,1.25,13.69,1.6,6.92.53,13.88.55,20.78,1.23,11.1,1.08,22.16,2.57,33.24,3.79,6.53.72,13.08,1.48,19.64,1.86,9.41.55,18.85.97,28.27,1.06,6.31.06,12.63-.62,18.94-.85,8.37-.31,16.77-.25,25.13-.81,12.98-.87,25.95-1.94,38.89-3.29,10.77-1.13,21.5-2.64,32.21-4.26,8.53-1.29,17-2.99,25.49-4.51Z"/>
    <path class="cls-9" d="M1079.26,1360.19c2.98-4.5,5.89-9.05,8.97-13.48,9.53-13.73,17.37-28.33,23.28-43.97,3.84-10.17,7.8-20.31,11.56-30.51,1.06-2.87,1.61-5.93,2.37-8.84,8.91,1.28,13.07-4.88,10.18-14.37-1.63-5.35-3.56-10.61-5.36-15.91,1.68,1.97,3.35,3.94,5.05,5.89.38.44.83.87,1.33,1.14,15.16,8.17,30.26,16.44,45.51,24.43,10.38,5.44,20.79,10.87,31.52,15.57,11.08,4.86,23.03,7.91,33.71,13.46,8.24,4.28,16.89,6.59,25.48,9.44,6,1.99,12.09,3.71,18.15,5.5,8.7,2.57,17.36,5.3,26.13,7.61,14.45,3.8,28.95,7.41,43.46,10.94,16.73,4.06,33.43,8.32,50.28,11.78,14.34,2.94,28.9,4.76,43.33,7.3,9.91,1.74,19.74,3.95,29.63,5.77,4.98.92,10.02,1.52,15.04,2.15,11.02,1.38,22.06,2.53,33.06,4.09,7.06,1,14.01,2.75,21.07,3.81,6.31.95,12.71,1.35,19.05,2.14,10.09,1.26,20.17,2.58,30.24,4,8.07,1.14,16.1,2.54,24.16,3.69,4.06.58,8.18.72,12.24,1.31,10.16,1.46,20.29,3.15,30.46,4.58,8.96,1.26,18.01,1.97,26.93,3.47,11.04,1.87,21.97,4.43,32.99,6.44,4.51.82,9.21.65,13.71,1.53,16.44,3.2,32.87,6.46,49.22,10.08,12.02,2.66,23.97,5.7,35.85,8.98,11.86,3.27,23.57,7.09,35.38,10.58,16.33,4.82,32.79,9.23,48.99,14.43,9.37,3,18.46,6.98,27.47,10.98,2.58,1.14,4.83,3.6,6.52,5.97,1.39,1.93,2.55,4.75,2.21,6.92-.2,1.25-3.51,2.62-5.54,2.85-3.97.45-8.04-.05-12.05.17-15.79.9-31.57,2.05-47.37,2.87-6.67.35-13.37,0-20.05.17-4.43.12-8.85.7-13.28.92-8.61.41-17.22.71-25.84,1.05-25.6.99-51.21,1.98-76.81,2.97-8.26.32-16.52.68-24.78.99-23.31.86-46.61,1.85-69.93,2.51-14.5.41-29.02.26-43.53.52-8.45.15-16.9.93-25.35.88-14.11-.08-28.21-.79-42.32-.85-11.18-.04-22.36.73-33.54.74-10.25,0-20.5-.6-30.75-.78-7.37-.13-14.75.16-22.12-.07-17.57-.55-35.14-1.25-52.71-2.01-2.76-.12-5.49-.85-8.23-1.3-.58-.52-1.09-1.38-1.75-1.5-19.99-3.72-39.95-7.63-60.01-10.98-36.4-6.08-72.7-12.5-108.38-22.12-43.45-11.71-84.58-28.53-121.38-54.85-8.19-5.86-15.67-12.69-23.48-19.07Z"/>
    <path class="cls-4" d="M61.76,339.59c.68-.34,1.34-.77,2.05-1.01,8.55-2.96,8.76-3.65,2.43-11.67,4.63,1.03,8.43,2.65,12.2,2.57,8.9-.19,17.8-1.14,26.68-1.94.91-.08,1.77-1.17,2.59-1.86,7.04-5.86,13.45-12.8,21.25-17.33,10.85-6.3,22.83-10.58,35.74-10.72,5.02-.06,9.91.48,12.56,5.92.49,1,2.26,2.12,3.28,1.99,8.28-1.09,16.54-2.35,24.76-3.78,16.37-2.84,31.07-10.05,45.03-18.56,11.77-7.18,21.8-16.44,30.87-27.11,6.99-8.22,15.62-15.7,24.9-21.17,14.87-8.76,30.77-15.83,46.47-23.1,8.52-3.95,17.53-6.85,26.33-10.2.54-.21,1.34-.53,1.7-.29,5.67,3.67,11.43,7.25,16.86,11.26,2.11,1.56,3.46,4.15,5.18,6.26,5.2,6.37,10.6,12.59,15.55,19.16,3.54,4.7,6.86,5.77,11.48,2.61.75-.51,1.85-1.55,1.73-2.12-1.56-7.45,4.24-11.32,8.14-15.6,6.35-6.97,14.71-12.05,23.8-13.66,7.96-1.41,16.07-2.8,24.85-.12,17.68,5.4,26.68,18.31,33.8,33.63.6,1.29.55,2.87.99,5.34,2.6-1,5.13-1.73,7.44-2.9,13.22-6.7,26.37-13.52,39.58-20.24.69-.35,1.62-.2,2.45-.28.05,1.09-.24,2.35.21,3.25,4.83,9.74,10.35,19.19,14.49,29.2,2.76,6.67,4.62,14.07,5.06,21.25.49,7.98-1.1,16.1-1.79,24.15-14.53,8.14-29.07,16.24-43.55,24.46-2.2,1.25-3.89,3.49-6.15,4.54-4.98,2.3-10.05,4.52-15.3,6.04-7.57,2.2-8.43,3.5-9,11.14-1.01,13.31-.6,26.68-2.52,39.99-.75,5.2,2.18,10.83,2.6,16.32.33,4.21.22,8.86-1.32,12.66-1.11,2.73-4.67,5.66-7.55,6.18-4.25.77-9.83-4.16-10.66-8.51-.89-4.69-.07-9.87-1.66-14.23-3.41-9.36-.87-18.83-1.8-28.18-.71-7.21-1.23-14.44-1.89-22.28-1.96.19-3.5.41-5.04.47-2.61.1-5.67,1.01-7.75-.02-5.27-2.62-9.93-.83-14.72.76-13.29,4.43-26.42,9.4-39.87,13.28-9.06,2.61-18.8,2.92-27.77,5.75-7.74,2.44-16.47,2.27-23.17,8.19-1.77,1.57-5.12,1.44-7.77,1.92-2.89.52-5.81.83-9.4,1.34-.07-.51-.3-2.03-.52-3.55,6.14,1.02,7.64-4,9.88-7.81,8.12-13.83,15.76-27.97,24.25-41.57,7.56-12.12,16.05-23.66,24.06-35.5,4.51-6.67,4.32-9.47-1.56-15.01-8.31-7.83-16.76-15.51-25.31-23.07-2.66-2.35-5.67-5.45-8.82-5.85-5.9-.75-11.7,1.09-15.58,6.32-5.63,7.58-11.55,14.98-16.64,22.9-9.91,15.41-19.83,30.84-28.67,46.87-3.13,5.68-4.32,13.13-4.11,19.7.15,4.59.53,9-1.93,12.57-8.65,12.59-17.76,24.87-26.7,37.27-11.27-8.85-24.53-8.39-37.73-7.89-1.84.07-3.96.94-5.39,2.11-6.21,5.1-13.81,5.62-21.2,6.76-11.95,1.84-23.92,3.58-35.91,5.2-5.84.79-11.77.99-17.6,1.86-12.42,1.85-24.78,4.15-37.22,5.91-9.24,1.31-18.54,2.24-27.85,2.96-4.1.32-7.68,1.26-8.8,5.4-1.16,4.3-3.38,8.26-.22,13.4,3.91,6.35,8.08,12.19,13.5,17.25.96.9,1.14,2.63,1.68,3.98-.77,1.2-1.31,3.16-2.35,3.48-5.27,1.62-9.75,5.38-15.92,4.7-6.27-.7-11.97-4.6-13.4-11-2.31.62-4.58,1.57-6.91,1.79-10.74,1.02-24.13-6.02-27.5-16.1-2.12-6.35-2.57-13.91-1.49-20.55,2.02-12.41,7.96-23.11,19.43-29.64,3.39-1.93,7.17-3.26,10.86-4.6,2.69-.98,3.27-1.96,2.44-5.07-2.73-10.24-4.68-20.69-7.26-30.97-.47-1.86-2.54-3.32-3.88-4.97Z"/>
    <path class="cls-8" d="M1022.88,226.07c18.63-4.56,37.16-9.6,55.93-13.55,21.31-4.48,42.83-7.98,64.25-11.91-5,10.07-7.51,20.75-7.83,31.98-.06,2.15.69,5.15-.43,6.32-8.47,8.84-3.03,19.56-4.04,29.29-.84,8.08,1.55,16.45,1.17,24.62-.71,15.13-2.23,30.22-3.74,45.3-1.18,11.76-2.51,23.53-4.41,35.2-1.72,10.64-4.3,21.14-6.48,31.71-4.14,20.07-7.89,40.22-12.51,60.18-3.84,16.61-8.66,32.99-13.11,49.45-4.19,15.49-7.87,31.16-12.86,46.39-6.72,20.5-14.09,40.81-21.93,60.9-4.78,12.25-10.99,23.94-16.55,35.86-3.11-.97-5.47-2.6-7.05-2.03-4.39,1.58-7.67.15-11.03-2.29-3.37-2.45-7.09-4.48-10.24-7.18-6.68-5.72-13.32-11.51-19.55-17.71-7.77-7.73-15.12-15.88-22.59-23.91-.8-.86-1.15-2.12-1.71-3.19-1.19-7.09-2.18-14.22-3.65-21.25-.63-3.03-2.24-5.86-3.4-8.78,5.6-9.42,12.1-18.42,16.66-28.32,20.27-44.07,35.51-89.69,42.78-137.93,5.56-36.92,6.94-73.96,6.69-111.15-.03-4.29-.66-8.57-.93-12.85-1.16-18.38-2.28-36.76-3.42-55.14Z"/>
    <path class="cls-2" d="M461.49,855.23c.07-1.31.15-2.62.22-3.92,3.43.85,6.74,1.67,10.04,2.49.37-.46.73-.91,1.1-1.37-1.11-2.04-2.01-4.22-3.35-6.08-6.4-8.88-10-18.9-13.12-29.31-3.58-11.93-6.53-23.95-6-36.37.33-7.74-2.19-16.79,6.02-22.41,2.23-1.52,5.29-2.65,7.94-2.59,13.66.31,27.34,2,40.94,1.47,22.06-.85,43.87-4.27,65.09-10.71,15.63-4.74,30.93-10.11,44.57-19.55,5.66-3.92,12.19-6.59,18.31-9.85,1.02-.54,2.16-1.04,2.91-1.86,4.45-4.85,10.31-5.7,16.07-4.47,11.27,2.41,22.37.7,33.32-1.04,8.83-1.4,17.38-4.69,25.96-7.44,3.2-1.03,3.74-.04,5.23,2.8,2.9,5.54,2.63,11.17,2.68,16.94.36,38.53,6.05,76.24,18.11,112.86,2.57,7.82,6.53,15.18,9.85,22.75-12.13,2.26-24.2,4.98-36.41,6.67-15.56,2.15-31.22,3.68-46.88,5.1-17.06,1.56-34.15,3.11-51.26,3.88-14.17.64-28.39.21-42.59.09-4.5-.04-9-.49-13.48-.95-5.05-.52-10.08-1.27-15.12-1.9-6.56-.81-13.34-.84-19.64-2.58-8.85-2.45-17.35-6.17-26-9.34-5.13,4.16-7.38,9.73-8.64,15.83-3.17-3.79-5.77-8.39-9.67-11.16-4.85-3.45-10.77-5.39-16.23-7.99Z"/>
    <path class="cls-10" d="M968.16,601.5c.56,1.07.92,2.33,1.72,3.19,7.47,8.03,14.82,16.18,22.59,23.91,6.23,6.2,12.87,11.99,19.55,17.71,3.15,2.7,6.87,4.72,10.24,7.18,3.36,2.44,6.63,3.87,11.03,2.29,1.58-.57,3.94,1.06,7.05,2.03,5.56-11.92,11.77-23.62,16.55-35.86,7.85-20.09,15.22-40.4,21.93-60.9,4.99-15.23,8.67-30.9,12.86-46.39,4.45-16.46,9.27-32.84,13.11-49.45,4.62-19.96,8.37-40.11,12.51-60.18,2.18-10.57,4.75-21.07,6.48-31.71,1.89-11.67,3.23-23.43,4.41-35.2,1.51-15.08,3.03-30.17,3.74-45.3.38-8.18-2-16.54-1.17-24.62,1.01-9.72-4.43-20.44,4.04-29.29,1.12-1.17.37-4.17.43-6.32.32-11.22,2.82-21.9,7.83-31.98,9.14-15.73,20.78-29.48,33.88-42,3.27-3.12,7.07-5.84,11.03-8.03,4.25-2.35,6.55-.34,7.35,4.27,1.25,7.21-1.66,12.39-5.53,18.22-4.31,6.5-7.65,14.09-6.43,22.56-1.45,9.86-.1,19.52,2.63,29.63-.11-.04.45.32,1.05.38,4.73.46,6.35,2.5,4.34,7.23-1.14,2.68-1.59,5.69-2.11,8.59-.45,2.5-1.22,3.86-4.16,4.53-1.6.37-3.14,3.49-3.67,5.63-1.37,5.56-2.21,11.25-3.2,16.9-1.39,7.91-2.71,15.83-4.08,23.75-2.31,13.41-4.55,26.84-6.99,40.23-1.56,8.54-3.47,17.02-5.16,25.54-2.64,13.35-5.07,26.74-7.87,40.05-2.91,13.78-6.19,27.47-9.25,41.21-1.61,7.2-2.94,14.46-4.68,21.63-3.09,12.67-6.45,25.26-9.59,37.92-2.55,10.29-4.72,20.67-7.46,30.91-2.15,8.03-4.96,15.88-7.36,23.84-1.84,6.09-3.49,12.24-5.25,18.36-2.44,8.48-4.73,17-7.38,25.4-5.52,17.54-11.18,35.03-16.9,52.5-4.48,13.7-9.09,27.37-13.71,41.02-2.36,6.96-4,14.37-7.54,20.69-5.97,10.66-13.6,20-25.61,24.95-11.91,4.9-25.64,1.15-34.25-10.69-3.65-5.01-6.29-10.75-9.76-15.91-3.14-4.67-6.27-9.55-10.32-13.36-6.54-6.16-13.81-11.56-20.82-17.22-3.23-2.6-6.59-5.03-9.89-7.53-1.17-6.1-2.35-12.2-3.5-18.3-.24-1.28-.39-2.59-.58-3.88,3.02-4.94,7.06-9.55,8.86-14.9,3.65-10.86,6.09-22.12,9.02-33.22Z"/>
    <path class="cls-12" d="M487.4,874.37c1.26-6.1,3.51-11.66,8.64-15.83,8.64,3.17,17.15,6.89,26,9.34,6.3,1.74,13.08,1.77,19.64,2.58,5.04.62,10.07,1.38,15.12,1.9,4.48.46,8.98.92,13.48.95,14.2.12,28.42.55,42.59-.09,17.11-.77,34.2-2.33,51.26-3.88,15.65-1.43,31.31-2.95,46.88-5.1,12.21-1.69,24.28-4.41,36.41-6.67,6.74-1.11,13.49-2.18,20.22-3.34,11.16-1.93,22.34-3.78,33.46-5.93,5.19-1,10.24-2.72,15.41-3.91,7.59-1.76,15.22-3.33,22.84-4.98,2.08,9.47,4.2,18.93,6.23,28.41,1.66,7.74,3.4,15.47,4.71,23.27.44,2.62,1.03,5.52-2.65,7.56-1.41.78-.94,4.96-1.33,7.59-8.58,2.51-17.08,5.41-25.77,7.44-17.97,4.19-36.04,7.9-54.08,11.81-8.5,1.52-16.96,3.22-25.49,4.51-10.71,1.62-21.44,3.13-32.21,4.26-12.94,1.35-25.91,2.42-38.89,3.29-8.36.56-16.75.5-25.13.81-6.32.23-12.63.91-18.94.85-9.43-.09-18.86-.51-28.27-1.06-6.56-.38-13.1-1.13-19.64-1.86-11.08-1.23-22.14-2.71-33.24-3.79-6.9-.67-13.86-.7-20.78-1.23-4.58-.35-9.11-1.16-13.69-1.6-1.58-.16-3.23.06-4.82.27-11.41,1.5-15.83-1.19-16.74-13.19-.88-11.52-1.48-23.06-2.2-34.58.34-2.6.67-5.2,1.01-7.8Z"/>
    <path class="cls-10" d="M1022.88,226.07c1.14,18.38,2.26,36.76,3.42,55.14.27,4.29.9,8.57.93,12.85.25,37.2-1.13,74.23-6.69,111.15-7.27,48.24-22.5,93.86-42.78,137.93-4.55,9.9-11.05,18.91-16.65,28.32-1.32-1.22-2.75-2.36-3.95-3.69-2.47-2.73-4.34-6.29-7.3-8.23-7.6-4.99-15.65-9.28-23.52-13.86,1.01-1.24,2.28-2.35,3.01-3.74,15.51-29.98,28.42-60.99,35.97-93.99,4.04-17.65,7.98-35.38,10.76-53.26,2.07-13.29,2.56-26.86,3.14-40.34.71-16.4,1.39-32.85.93-49.24-.39-13.78-2.62-27.49-3.7-41.26-.93-11.84-2.52-23.79-1.8-35.57,1.14-18.62,3.62-37.21,15.31-52.98,7.94-10.71,17.75-19.4,29.01-26.31,2.02-1.24,5.73.28,8.65.52-.41,2.1-.25,4.55-1.31,6.24-5.31,8.48-7.5,17.84-9.11,27.56-2.47,14.91,1.32,28.82,5.67,42.74Z"/>
    <path class="cls-7" d="M338.69,680.53c-.05,7.35.64,14.8-.36,22.01-1.05,7.57-.89,14.6,2.17,21.64,1.47,3.38,2.28,7.06,3.58,11.21-17.15-.17-33.68-.27-47.64,9.84.06.64.13,1.28.19,1.92,5.13,1.43,10.38,2.54,15.37,4.36,9.07,3.31,17.96,7.1,26.97,10.57,3.33,1.28,6.85,2.07,10.13,3.43,1.07.44,2.2,1.89,2.42,3.05,1.21,6.58,1.64,13.34,3.28,19.81,3.95,15.6,8.24,31.13,12.78,46.57,1.37,4.65,4.01,8.92,6.07,13.36-7.43,10.19-17.58,16.57-29.49,19.91-12.04,3.38-24.17,6.85-36.49,8.7-9.01,1.36-18.41-.19-27.61.22-6.96.31-7.31-3.94-7.45-8.85.09-3.49-1.05-7.71.5-10.35,5.59-9.54,12.24-18.46,18.19-27.81,3-4.72,5.34-9.86,7.98-14.8-.42-.48-.83-.95-1.25-1.43-13.52,3.34-27.48,5.36-39.62,14.23-1.48-3.71-2.9-7.33-4.38-10.92-3.18-7.69-1.84-12.37,5.05-16.89,11.21-7.35,22.49-14.58,33.65-22.01.92-.61,1.55-2.34,1.51-3.53-.05-1.72-.82-3.42-1.59-6.27-8.1,0-16.54-.38-24.93.11-8.5.49-16.95,1.79-25.41,2.83-3.81.47-5.52-1.4-6.73-4.78-2.08-5.83-4.4-11.59-6.94-17.23-5.15-11.45-8.8-23.24-9.05-35.9,9.41-11.06,23.39-13.19,35.94-17.67,12.7-4.53,25.9-7.86,39.1-10.71,12.52-2.7,25.32-4.2,38.03-5.98,1.91-.27,4.01.87,6.03,1.36Z"/>
    <path class="cls-2" d="M1079.26,1360.19c7.81,6.38,15.3,13.22,23.48,19.07,36.8,26.32,77.93,43.14,121.38,54.85,35.67,9.62,71.98,16.04,108.38,22.12,20.06,3.35,40.02,7.25,60.01,10.98.65.12,1.17.98,1.75,1.5-6.09-.22-12.18-.54-18.28-.62-7.71-.11-15.45.36-23.13-.1-17.78-1.07-35.53-2.64-53.3-3.84-8.19-.55-16.41-.59-24.6-1.11-13.16-.83-26.31-1.89-39.46-2.78-6.93-.47-13.87-.77-20.8-1.19-15.43-.94-30.85-1.93-46.28-2.85-12.58-.75-25.18-1.32-37.75-2.18-12.5-.85-24.97-2.05-37.47-2.89-4.74-.32-9.52-.07-14.28-.07-13.04,0-26.1-.36-39.12.12-9.51.35-19.01,1.64-28.47,2.82-6.77.84-12.16-1.3-16.08-6.69-1.88-2.58-3.67-2.47-6.32-1.62-2.44.78-5.11.84-7.68,1.22.39-.91.77-1.83,1.16-2.74,9.7-1.19,18.98-3.58,25.78-9.8.37-1.57.2-3.76,1.19-4.62,4.57-3.98,9.5-7.55,14.22-11.36,3.92-3.16,8.04-6.16,11.53-9.75,9.14-9.44,18.05-19.1,26.9-28.8,5.88-6.44,11.51-13.1,17.25-19.67Z"/>
    <path class="cls-9" d="M219.59,713.52c.25,12.67,3.91,24.45,9.05,35.9,2.54,5.65,4.86,11.41,6.94,17.23,1.21,3.38,2.92,5.25,6.73,4.78,8.46-1.04,16.91-2.34,25.41-2.83,8.39-.49,16.82-.11,24.93-.11.77,2.85,1.55,4.55,1.59,6.27.03,1.19-.6,2.92-1.51,3.53-11.16,7.43-22.44,14.66-33.65,22.01-6.89,4.52-8.23,9.2-5.05,16.89,1.49,3.59,2.9,7.22,4.38,10.92,12.15-8.87,26.1-10.89,39.62-14.23.42.48.83.95,1.25,1.43-2.64,4.95-4.98,10.09-7.98,14.8-5.94,9.35-12.59,18.27-18.19,27.81-1.55,2.64-.41,6.86-.5,10.35-1.56-.19-3.64-1.13-4.59-.46-7.56,5.35-13.8.34-20.27-2.36-1.98-.83-3.66-2.45-5.34-3.88-8.42-7.17-9.7-16.04-3.09-25.28,3.34-4.67,7.62-8.67,11.44-13.01.47-.53.69-1.27,1.72-3.23-13.19,2.95-21.99-2.07-28.89-12.05-7.46-10.78-1.97-20.8,1.52-30.92-18.29-4.35-37.08-1.29-53.64-8.95-.83-10.1,7.44-10.96,13.79-13.69,11.46-4.93,23-9.66,34.44-14.63,2.5-1.08,2.1-6.06.07-8.82-6.2-8.46-6.78-10.18-.2-17.48Z"/>
    <path class="cls-1" d="M199.73,542.59c3.31-3.63,6.99-6.99,9.85-10.95,6.55-9.05,14.68-16.21,24.49-22.48,5.31,8.6,10.27,17.04,15.66,25.18,2.32,3.5,4.67,6.74,4.11,11.19-7.4,11.75-14.78,23.52-22.2,35.26-4.23,6.7-8.33,13.5-12.85,20-3.18,4.57-6.42,4.7-11.42,2.13-2.51-1.29-5.5-1.71-8.3-2.42-10.03-2.55-16.26-9.9-21.41-18-1.21-1.89.11-6.4,1.64-8.85,5.82-9.29,12.21-18.22,18.39-27.29.69-1.27,1.38-2.55,2.06-3.82l-.03.04Z"/>
    <path class="cls-12" d="M926.34,545.69c7.87,4.57,15.92,8.87,23.52,13.86,2.96,1.94,4.83,5.5,7.3,8.23,1.2,1.33,2.63,2.47,3.95,3.69,1.16,2.92,2.77,5.75,3.4,8.78,1.47,7.03,2.46,14.16,3.65,21.25-2.94,11.1-5.38,22.36-9.02,33.22-1.8,5.35-5.84,9.96-8.86,14.9-.47-2.51-.93-5.02-1.44-7.73-2.88,3.8-4.48,3.3-5.66-1.52-2.72-11.09-5.53-22.18-8.95-33.06-3.37-10.73-7.91-21.09-11.15-31.86-1.14-3.81-4.13-7.52-1.55-12.61,1.03-2.02-2.44-6.36-3.93-9.61-1.02-2.21-2.17-4.37-3.26-6.55,3.82-2.51,7.95-1.22,12-1Z"/>
    <path class="cls-4" d="M91.46,499.54c-4.51.06-7.09-2.99-6.02-7.35,1.92-7.83,6.5-13.56,13.91-16.9,3.91-1.76,8.63,1.58,8.77,6.46.3,10.16-8.78,16.6-16.67,17.79Z"/>
    <path class="cls-9" d="M982.39,1444.19c-.39.91-.77,1.83-1.16,2.74-4.34-.25-8.67-.51-13.01-.76,4.72-.66,9.45-1.32,14.17-1.98Z"/>
    <path class="cls-9" d="M199.76,542.54c-.69,1.27-1.38,2.55-2.06,3.82.69-1.27,1.38-2.55,2.06-3.82Z"/>
    <path class="cls-2" d="M712.3,499.37c-12.12,2.39-24.22,4.89-36.36,7.13-7.41,1.36-14.98,1.93-22.32,3.55-15.98,3.53-31.78,7.92-47.82,11.16-14.7,2.98-29.55,5.55-44.45,7.16-18.55,2-37.23,2.87-55.86,4.13-5.21.35-10.45.53-15.67.49-1.92-.02-3.81-1.04-5.76-1.39-1.83-.33-3.72-.33-5.57-.54-2.11-.23-4.21-.54-7.69-.99-4.81,3.58-4.85,3.81-1.12,15.32-2.4-1.34-4.79-2.67-7.19-4.01-3.73-4.25-9.06-7.23-10.26-13.5-.49-2.57-1.57-5.05-2.58-7.49-1.93-4.64-3.99-9.22-6-13.82-.36-.57-.73-1.14-1.09-1.71v-1.65c-.1-.25-.08-.49.09-.7.03-.29.06-.58.1-.88-1.97-22.59.99-44.91,3.4-67.48-2.35-1.46-4.97-3.09-7.6-4.72.61-2.92,1.21-5.84,1.64-7.92,5.72,2.3,11.14,3.49,15.33,6.44,4.02,2.83,7.84,5.58,12.58,6.94,8.83,2.55,17.53,5.71,26.51,7.47,7.89,1.55,16.08,1.95,24.15,2.12,15.34.31,30.6-1.57,45.15-6.18,12.21-3.87,23.74-9.87,35.69-14.62,2.43-.96,5.41-.51,8.48-.73v-4.15c3.06-.72,6.22-1.47,9.38-2.22.16.24.33.47.49.71-1.27.99-2.49,2.05-3.82,2.94-1.46.97-3.03,1.78-4.37,3.37,6.47-.73,12.86,3.62,19.36-1.47,2.98-2.33,7.78-2.27,11.69-3.49,9.9-3.1,20.06-5.58,28.76-11.65,1.18-.83,2.27-1.85,3.21-2.95,2.81-3.29,5.49-3.03,6.9,1.11.78,2.28.78,4.89.78,7.35,0,14.83,1.02,29.57,6.12,43.6,5.01,13.81,11.29,26.96,22.78,36.92,1.61,1.4,2.01,4.2,2.97,6.35Z"/>
    <path class="cls-1" d="M284.5,395.59c8.94-12.4,18.05-24.67,26.7-37.27,2.46-3.57,2.08-7.98,1.93-12.57-.21-6.57.98-14.03,4.11-19.7,8.84-16.02,18.76-31.46,28.67-46.87,5.1-7.93,11.02-15.32,16.64-22.9,3.88-5.23,9.68-7.07,15.58-6.32,3.15.4,6.16,3.5,8.82,5.85,8.55,7.56,17,15.24,25.31,23.07,5.88,5.54,6.07,8.34,1.56,15.01-8.01,11.84-16.49,23.38-24.06,35.5-8.49,13.6-16.12,27.74-24.25,41.57-2.23,3.8-3.74,8.82-9.88,7.81-7.01.88-11.26,5.85-14.93,10.98-5.12,7.17-9.19,15.09-14.39,22.2-2.85,3.9-5.81,8.9-12.21,7.61-1.42-.29-2.99-.56-4.15-1.35-6.91-4.67-13.57-9.71-20.62-14.15-3.37-2.13-4.76-4.78-4.85-8.47Z"/>
    <path class="cls-6" d="M590.45,302.49c.69-8.06,2.27-16.17,1.79-24.15-.44-7.18-2.3-14.58-5.06-21.25-4.15-10.02-9.66-19.46-14.49-29.2-.44-.9-.15-2.16-.21-3.25,15.67-7.83,32.32-12.2,49.79-11.71,7.66.21,15.65,2.04,22.71,5,4.23,1.78,8.18,4.92,12.81,6.26,1.42.41,3.14-.28,4.73-.4,10.37-.74,19.73-4.73,29.02-8.96,2.99,3.96,5.98,7.92,8.96,11.88-9.12,7.25-18.03,14.78-27.4,21.69-11.33,8.35-22.88,16.43-34.63,24.18-13.83,9.12-27.96,17.78-41.98,26.6-1.94,1.22-4.02,2.2-6.03,3.29Z"/>
    <path class="cls-2" d="M462.61,573.51c2.37,2.47,4.75,4.93,7.1,7.42,1.98,2.1,4.14,2.74,5.25-.46,1.21-3.48,1.69-7.21,2.49-10.83,1.03.79,2.01,1.64,3.1,2.35,2.68,1.75,4.98,5.47,8.81,1.74.37-.36,1.28-.19,1.94-.21,10.03-.34,20.05-.67,30.08-1.01,9.64-.33,19.28-.66,28.92-1,2.93-.1,4.35.64,1.01,4.81,6.51-1.41,11.8-2.56,17.09-3.7-5.16,5-10.37,9.94-15.47,15-5.06,5.02-11.9,4.42-18.08,5.77-8.04,1.75-16.19,2.99-24.26,4.61-8.45,1.7-16.82,3.79-25.29,5.31-4.4.79-8.94.81-13.43.97-.7.02-1.7-.98-2.11-1.75-2.96-5.6-5.43-11.49-8.78-16.84-3.78-6.02-3.88-7.6,1.63-12.18Z"/>
    <path class="cls-4" d="M700.49,226.72c-2.99-3.96-5.98-7.92-8.96-11.88,7.12-3.35,8.02-3.05,16.22,5.94-2.44,2-4.85,3.97-7.25,5.94Z"/>
    <path class="cls-13" d="M852,778.68c16.11,14.4,32.25,28.78,48.34,43.2,10.64,9.54,21.22,19.15,31.85,28.7,1.07.96,2.33,1.71,4.27,3.1-1.36-15.16-2.65-29.44-3.99-44.38,5.6,5.86,11.11,10.94,15.69,16.75,1.79,2.26,1.84,6.13,2.11,9.32.84,10.05,1.11,20.16,2.22,30.18.44,3.95,2.31,7.8,3.84,11.56,4.16,10.28,8.49,20.5,12.14,31.27-5.01-4.14-10.04-8.26-15.02-12.43-16.15-13.51-32.27-27.05-48.42-40.56-1.76-1.47-3.58-2.87-5.37-4.3-.33-.14-.66-.28-.99-.42.07.39.14.78.21,1.17,1.52,14.35,3.03,28.7,4.68,44.22-7.18-5.49-13.58-10.09-19.56-15.19-1.31-1.12-1.33-3.97-1.59-6.07-1.73-13.87-3.32-27.77-5.08-41.64-.22-1.73-1.06-3.45-1.87-5.04-7.87-15.55-15.79-31.07-23.68-46.61-.29-.58-.42-1.25-.62-1.87.28-.31.57-.63.85-.94Z"/>
    <path class="cls-12" d="M944.93,772.31c1.23,15.35,2.4,29.89,3.57,44.43-6.15-6.91-15.91-10.44-17.91-21.41-11.87.73-24.28,1.49-37.04,2.28v9.99c-7.61-7.44-14.76-13.4-20.48-20.51-2.44-3.03-1.88-8.46-2.78-13.35,24.91-2.59,49.68-.69,74.65-1.42Z"/>
    <path class="cls-3" d="M889.93,937.59c-1.92-16.32-3.76-31.96-5.8-49.3,7.46,8.01,18.13,10.36,21.84,21.3,11.19-3.14,22.48-6.31,33.73-9.47-.15-2.55-.28-4.95-.43-7.5,11.64,4.59,17.54,12.81,16.79,23.34-21.75,7.11-43.6,14.26-66.14,21.63Z"/>
    <path class="cls-13" d="M851.15,779.62c-.19-.63-.37-1.26-.56-1.89.47.32.94.63,1.41.95-.28.31-.57.63-.85.94Z"/>
    <path class="cls-9" d="M462.48,541.39c-2.97-1.67-6.89-2.63-8.74-5.13-4.88-6.6-8.29-14.09-9.17-22.48-.25-2.41-.63-4.8-.95-7.2,2.01,4.6,4.08,9.18,6,13.82,1.01,2.44,2.09,4.92,2.58,7.49,1.2,6.27,6.53,9.25,10.26,13.5Z"/>
    <path class="cls-9" d="M442.54,504.87c0-.55,0-1.1,0-1.65,0,.55,0,1.1,0,1.65Z"/>
    <path class="cls-9" d="M442.63,502.51c-.05-.3-.02-.59.1-.88-.03.29-.06.58-.1.88Z"/>
    <path class="cls-11" d="M898.87,851.82c-.07-.39-.14-.78-.21-1.17.33.14.66.28.99.42-.26.25-.52.5-.78.74Z"/>
  </g>
  <g id="Layer_3">
    <path d="M71.48,378.76c-2.35-11.43-4.51-22.36-6.96-33.23-.33-1.46-1.97-3.4-3.35-3.73-7.27-1.77-12.94-6.04-19.01-10.13-7.64-5.14-8.46-12.62-10.27-20.31-4.26-18.13,2.46-34.01,10.02-49.53,9.67-19.83,25.47-33.64,45.16-43.2,8.01-3.89,15.72-8.73,24.11-11.42,10.86-3.48,22.22-5.54,33.47-7.6,5.29-.97,9.65-1.9,13.56-6.5,4.75-5.59,11.15-9.79,16.88-14.54,13.53-11.2,26.67-22.92,40.73-33.42,18.23-13.6,38.12-24.59,59.19-33.27,8.24-3.4,16.58-6.61,25.02-9.44,3.69-1.24,7.77-1.28,11.67-1.94,17.69-3,35.36-6.09,53.06-9.03,10.04-1.67,20.09-3.44,30.2-4.56,13.48-1.5,27.01-2.56,40.54-3.48,4.17-.28,8.41.65,12.62.72,1.4.02,3.1-.56,4.19-1.45,6.55-5.34,12.39-11.81,19.54-16.12,14.99-9.04,30.2-17.95,46.14-25.07,14.25-6.35,29.5-11.06,45.48-10.62,8.63.24,17.31,1.42,25.81,3.03,7.22,1.37,14.12,4.35,21.32,5.91,6.63,1.45,13.03,2.65,19.08,6.37,3.24,2,8.33.83,12.53,1.46,8.78,1.31,17.85.49,26.29,4.3,5.78,2.61,11.95,4.35,17.8,6.83,8.12,3.44,16.37,6.72,24.06,10.98,9.2,5.1,18.03,10.91,26.69,16.89,7.55,5.21,14.07,11.4,19.67,18.99,6.44,8.73,14.82,16.02,22.09,24.17,3.5,3.92,6.51,8.3,9.49,12.65,5.41,7.89,10.84,15.79,15.85,23.94,2.39,3.89,3.68,8.45,5.75,12.57,2.72,5.42,5.8,10.66,8.58,16.05,2.42,4.7,4.76,9.45,6.91,14.28,3.23,7.23,6.41,14.48,9.35,21.83,4.38,10.93,8.27,22.06,12.85,32.9,4.09,9.69,9.19,18.96,13.21,28.67,6.16,14.91,11.83,30.03,17.58,45.11,2.03,5.34,4.28,10.7,5.4,16.25,2.98,14.75,5.24,29.62,1.47,44.63-4,15.94-10.75,30.54-21.7,43.59,3.1,2.59,6.26,4.74,8.77,7.48,1.95,2.13,3.31,4.89,4.57,7.55,5.74,12.09,11.62,24.13,16.92,36.41,5.57,12.89,10.59,26.03,15.73,39.1,1.6,4.07,2.84,8.29,4.2,12.32,10.22-2.09,19.19-.25,26.96,7.02,2.19,2.05,5.51,2.83,8,4.63,6.52,4.72,10.51,11.19,14.07,18.47,4.02,8.22,6.49,16.37,6.3,25.44-.02,1.16.59,2.6,1.4,3.45,7.47,7.83,14.59,16.06,22.69,23.19,10.2,8.98,18.83,19.98,31.45,25.95,2.45,1.16,5.51,1.01,8.27,1.51,1.89.34,3.76.77,6.85,1.4,5.07-10.84,10.84-22.11,15.68-33.77,6.01-14.5,11.64-29.19,16.71-44.04,4.88-14.27,9.19-28.77,13.11-43.33,6.93-25.71,13.44-51.53,19.97-77.35,3-11.85,5.89-23.75,8.34-35.72,3.47-16.99,7.09-33.98,9.53-51.13,2.81-19.78,4.69-39.71,6.44-59.62,1.01-11.51,1.29-23.1,1.29-34.66,0-8.72-.98-17.44-1.45-26.16-.08-1.48-.33-3.31.38-4.41,6.99-10.94,3.26-24.33,8.14-35.55,3.88-8.89,8.31-17.83,14.12-25.52,7.57-10.02,16.53-19.05,25.35-28.06,3.26-3.33,7.66-5.71,11.88-7.89,2.87-1.48,6.5-.01,6.59,3.07.18,6.1,2.22,12.41-2.83,18.23-7.63,8.81-9.39,19.98-9.28,31.21.07,7.22,1.44,14.42,2.34,21.62.07.55.93,1.2,1.57,1.46,4.73,1.89,9.43,4.98,14.28,5.25,8.24.46,15.3,4.33,23.03,6.13,8.92,2.08,17.51,5.55,26.29,8.26,10.52,3.24,21.15,6.16,31.65,9.48,12.96,4.11,25.83,8.51,38.76,12.74,6.63,2.17,13.3,4.22,19.94,6.35,7.98,2.56,16.02,4.97,23.92,7.76,16.2,5.72,32.36,11.55,48.47,17.52,10.99,4.07,21.93,8.32,32.78,12.74,7.28,2.97,14.4,6.35,21.56,9.62,9.52,4.35,19.11,8.55,28.47,13.21,15.5,7.71,30.88,15.68,46.25,23.66,7.77,4.04,15.51,8.15,23.04,12.61,13.61,8.06,27.13,16.29,40.56,24.65,12.79,7.96,25.55,15.99,38.09,24.36,8.72,5.82,17.22,12.01,25.48,18.47,9.81,7.67,19.24,15.83,28.86,23.74,6.61,5.44,13.39,10.69,19.85,16.3,4.24,3.68,8.05,7.87,12.06,11.82,9.32,9.15,18.61,18.33,28,27.42,5.53,5.35,11.43,10.33,16.71,15.91,1.65,1.74,2.77,5.03,2.45,7.37-.86,6.21-6.59,10.17-13.54,9.72-5.26-.34-10.47-1.55-15.74-1.88-6.07-.38-12.31-1.08-18.23-.09-14.93,2.48-30.1,4.62-44.48,9.12-20.92,6.55-41.06,15.35-59.17,28.15-13.39,9.46-24.74,20.82-34.55,34.01-11.67,15.69-19.03,33.38-24.97,51.64-3.55,10.93-5.56,22.43-7.42,33.81-2.08,12.7-3.61,25.53-4.62,38.36-.79,10.08.25,20.32-.73,30.37-1.3,13.37,1.6,26.18,3.59,39.14.57,3.72,1.37,7.73,3.28,10.87,5.99,9.84.94,17.55-6.7,22.9-1.68,1.18-3.04,2.84-4.49,4.33-1.73,1.78-3.19,3.91-5.15,5.38-5.45,4.08-11.8,2.25-13.82-4.18-2.19-6.99-7.12-12.11-11.93-16.9-6.41-6.38-13.52-12.38-21.24-17.04-8.63-5.21-18.04-9.42-27.55-12.8-10.93-3.89-22.17-7.72-33.59-9.18-16.85-2.16-33.97-2.89-50.98-2.93-11.1-.02-22.44,1.3-33.25,3.82-9.64,2.25-19,6.38-27.95,10.76-7.82,3.83-15.32,8.62-22.18,13.99-6.72,5.25-12.77,11.47-18.53,17.8-8.64,9.5-15.46,20.36-19.99,32.38-4.28,11.36-9.56,22.53-9.05,35.22.17,4.27.24,8.92-1.24,12.78-1.36,3.55-4.36,7-7.54,9.17-3.57,2.43-7.28-.98-10.59-6.65-3.41-5.84-7.91-11.05-11.97-16.5-1.35-1.81-2.97-3.42-4.24-5.27-6.38-9.3-15.74-15.72-23.19-24.01-3.32-3.7-7.98-6.18-12.01-9.25-15.13-11.54-31.81-19.84-50.62-23.1-10.23-1.77-20.64-2.82-31.01-3.39-18.86-1.02-37.34,2.28-55.34,7.45-17.96,5.16-35.15,12.48-51.2,22.2-5.1,3.09-10.19,6.21-15,9.72-1.43,1.04-2.73,3.47-2.65,5.2,1,19.64,2.31,39.27,3.49,58.91.53,8.71.47,17.49,1.57,26.12,1.14,8.95,3.38,17.76,5.06,26.65.51,2.71,1.69,5.74.98,8.16-1.7,5.77.62,10.59,2.08,15.79,2.13,7.59,3.42,15.43,5.65,22.98,2.08,7.02,4.82,13.85,7.45,20.69,3.55,9.22,6.91,18.54,11,27.52,5.12,11.24,10.64,22.32,16.48,33.21,4.44,8.27,9.4,16.3,14.56,24.15,7.94,12.07,16.09,24.01,24.48,35.77,5.96,8.35,12.35,16.42,18.81,24.4,4.03,4.98,8.41,9.71,12.91,14.28,2.34,2.37,5,3.68,8.88,1.97,7.75-3.42,13.63,1.08,19,5.91,2.13,1.92,3.61,4.56,5.44,6.83.4.49.97.89,1.54,1.19,20.76,11.04,41.27,22.61,62.4,32.91,15.53,7.57,32.23,12.75,47.75,20.33,11.75,5.74,24.2,8.8,36.44,12.69,13.97,4.44,28.2,8.06,42.36,11.85,16.91,4.53,33.81,9.12,50.84,13.18,12.64,3.01,25.47,5.28,38.23,7.76,18,3.5,35.99,7.09,54.05,10.24,11.54,2.01,23.21,3.24,34.8,4.93,6.53.95,13,2.29,19.54,3.17,7.6,1.03,15.27,1.57,22.87,2.64,8.48,1.19,16.9,2.78,25.36,4.1,5.55.87,11.12,1.64,16.7,2.33,11.15,1.38,22.34,2.53,33.47,4.03,11.58,1.57,23.11,3.54,34.69,5.16,13.07,1.83,26.21,3.2,39.25,5.27,10.91,1.73,21.69,4.33,32.58,6.26,9.68,1.72,19.49,2.68,29.11,4.63,12.46,2.52,24.79,5.66,37.16,8.6,9.81,2.33,19.63,4.62,29.37,7.21,13.23,3.52,26.4,7.23,39.55,11.03,16,4.62,32.04,9.14,47.89,14.25,9.41,3.03,18.59,6.87,27.65,10.85,2.91,1.28,5.68,3.79,7.45,6.45,1.46,2.19,2.17,5.61,1.61,8.14-.33,1.47-3.74,3.08-5.84,3.21-8.38.5-16.8.16-25.18.65-16.65.98-33.27,2.38-49.9,3.47-8.03.53-16.07.77-24.11,1.12-21.48.93-42.95,1.9-64.44,2.73-7.31.28-14.64.08-21.95.29-20.84.61-41.68,1.4-62.53,1.98-15.39.44-30.79.67-46.19,1-15.4.33-30.81.84-46.21.98-20.41.18-40.83.08-61.24.08-13.29,0-26.58.09-39.87-.06-21.67-.25-43.34-.42-65-1.07-20.64-.62-41.27-1.81-61.9-2.73-23.99-1.08-47.98-2.05-71.97-3.24-17.03-.84-34.05-1.86-51.06-2.99-23.12-1.54-46.22-3.3-69.34-4.88-7.28-.5-14.6-.54-21.88-1.12-14.41-1.16-28.77-2.86-43.19-3.77-12.59-.8-25.23-.97-37.85-1.14-13.57-.18-27.16-.4-40.71.08-9.23.33-18.42,1.72-27.61,2.82-6.49.78-11.91-.91-15.83-6.27-1.72-2.35-3.23-2.7-6.2-1.82-12.07,3.55-23.5,2.87-33.06-6.73-.78-.78-2.4-1.11-3.6-1.03-4.45.27-8.89,1.09-13.33,1.16-5.47.09-10.95-.37-16.97-.61-.1.64-.44,2.74-.75,4.84-.52,3.55-2,5.56-6.14,5.72-2.32.09-4.53,2.13-6.86,3.13-6.14,2.64-12.16,5.7-18.52,7.63-6.99,2.11-14.31,3.16-21.5,4.64-14.41,2.96-28.94,2.74-43.52,1.82-5.59-.35-11.22-.03-16.82-.34-10.01-.56-20.02-1.98-30.02-1.83-5.23.08-10.5,2.51-15.62,4.27-8.08,2.76-16.08,5.77-24.05,8.83-4.42,1.7-8.7,3.74-13.07,5.57-4.52,1.89-9.01,3.9-13.63,5.53-5.25,1.86-11.16-1.53-14.81-8.13-2.55-4.6-1.57-6.99,2.83-11.67,2.59-2.76,4.06-6.58,6.03-9.92-.34-.41-.68-.82-1.02-1.23-6.96,3.4-14.21,6.32-20.79,10.34-7.74,4.74-14.73,10.69-22.38,15.59-3.34,2.14-7.49,2.69-11.3.07-4.26-2.93-6.76-6.8-6.53-12.1.39-8.97,6.53-15.62,9.58-23.52.68-1.76,1.84-3.34,1.97-5.88-6.24,4.09-12.44,8.26-18.74,12.26-4.3,2.73-11.03-.1-13.54-5.63-.61-1.34-.93-2.82-1.57-4.81-5.27.33-10.69,1.07-16.08.9-5.57-.18-11.73.05-16.51-2.24-6.96-3.33-11.52.48-16.63,3.04-12.87,6.45-25.69,13.01-38.26,20.01-2.98,1.66-5.39,4.91-7.21,7.94-3.13,5.2-10.71,6.39-14.4,1.35-1.59-2.17-2.8-5.75-2.19-8.19,1.68-6.67,4.42-13.08,6.73-19.57-9.33,3.89-16.84,10.67-24.18,17.78-6.08,5.89-11.96,12.11-18.77,17.02-2.58,1.86-7.85,1.42-11.3.26-3.68-1.24-5.45-5.2-4.91-9.48.14-1.13.53-2.25.9-3.33,1.36-3.98,1.95-6.9-4.26-6.41-3.96.32-5.92-3.24-5.63-6.85.86-10.53,2.09-21.03,3.33-31.53.67-5.73,1.27-11.52,2.56-17.13,3.13-13.64,6.93-27.1,16.21-38.11,1.35-1.6,3.89-3.21,5.83-3.14,10.84.37,21.67,1.22,32.49,1.98,8.04.57,16.07,1.27,24.1,1.92,3.47.28,6.94.55,10.41.88,3.3.31,6.35.56,9.22-2.07,1.64-1.51,4.41-1.78,7.37-2.87-4.69-2.84-8.87-5.3-12.98-7.87-19.29-12.04-37.77-25.06-54.35-40.84-15.29-14.55-28.16-30.82-38.45-49.08-9.47-16.81-16.28-34.81-20.41-53.68-1.96-8.96-3.41-18.11-4.14-27.25-.95-11.95-1.62-23.99-1.21-35.95.59-17.07,1.13-34.24,5.78-50.87,1.76-6.31,3.66-12.61,5.86-18.78,1.79-5,7.16-7.32,12.12-5.27,2.65,1.1,4.53.55,7.21-.16,5.51-1.47,11.43-1.9,17.17-1.89,4.73,0,4.98-2,4.65-5.81-1.22-14.13-2.38-28.28-3.12-42.44-.48-9.17-.51-18.39-.2-27.57.57-17.03,1.61-34.05,2.3-51.09.27-6.76.1-13.53.22-20.3.03-1.64.03-3.41.64-4.87,3.54-8.45,1.74-17.33,2.43-26,.5-6.37,1.76-12.67,2.57-19.02.14-1.15.01-2.53-.51-3.53-5.52-10.49-14.12-16.22-25.87-18.67-8.39-1.75-16.32-5.71-24.42-8.76-9.65-3.62-19.27-7.33-28.91-10.97-2.29-.86-4.57-1.8-6.93-2.4-3.8-.97-7.42-.86-10.8,1.77-1.64,1.28-3.89,1.75-5.8,2.7-3.7,1.83-6.58,3.26-7.91,8.57-1.23,4.9-6.53,9.48-11.11,12.65-5.75,3.98-12.33,7.25-19.03,9.29-12.1,3.69-24.41,7.34-36.9,8.95-10.85,1.4-22.07.07-33.12-.42-1.11-.05-2.45-2.49-3.07-4.06-.59-1.5-.38-3.31-.57-5.65-13.53,7.23-23.2-.1-32.52-7.2-5.26-4.01-6.12-16.97-1.93-23.21,3.73-5.56,8.22-10.6,12.39-15.9-11.21,1.86-20.11-2.8-26.58-12.87-6.8-10.59-3.18-20.44,1.7-31.07-6.93-.71-13.73-1.36-20.52-2.13-8.02-.92-16.05-1.77-24.01-3.01-3.49-.54-7.03-1.61-10.14-3.21-1.11-.57-2.04-4.3-1.35-5.1,2.5-2.89,5.35-5.99,8.75-7.48,14.44-6.33,29.12-12.12,44.29-18.33-2.31-4.64-4.5-8.38-6.07-12.36-2.23-5.65-.18-9.1,3.71-13.66,6.59-7.72,15.61-10.42,24.42-13.41,13.73-4.65,27.57-9.24,41.68-12.47,15.54-3.56,31.4-5.86,47.22-7.98,3.93-.53,8.52,1.19,12.24,3.04,1.54.77,2.1,4.56,2.18,7,.26,8.21.1,16.43.1,25.18,12.41-1.68,20.32,5.02,27.85,13.1-24.9-54.5-44.62-111.2-76.58-162.52-8.25,1.75-15.05-2.8-22.09-6.62-6.89-3.74-13.8-7.43-21.11-11.36-4.38,6.51-9.05,12.94-13.19,19.7-5.37,8.75-10.21,17.83-15.49,26.63-2.2,3.67-4.43,7.67-7.64,10.28-2.31,1.88-6.44,2.71-9.47,2.23-4.6-.73-8.94-3.03-13.4-4.63-8.31-2.99-13.69-9.47-18.58-16.25-2.66-3.69-.82-7.89,1.47-11.17,11.21-16.08,21.71-32.56,29.55-50.6.6-1.39,1.29-3.22.87-4.49-3.78-11.37-.86-21.89,4.12-32,2.1-4.26,5.23-8.01,8.02-12.2-1.76-3.69-4.09-7.66-5.6-11.93-3.58-10.08-.62-17.4,8.54-23.17,3.74-2.35,7.14-5.24,11.2-8.26-12.06-5.23-14.83-14.97-15.11-26.9-15.52,2.35-30.8,4.81-46.13,6.93-9.67,1.34-19.44,2.02-29.12,3.27-13.28,1.71-26.53,3.69-39.8,5.55-2.29.32-4.58.99-6.86.96-6.23-.09-6.88,3.68-6.38,7.84,6.15,3.27,11.87,6.58,17.81,9.4,4.45,2.11,9.07,4.21,13.84,5.23,6.68,1.43,13.58,2.46,20.39,2.54,7.04.09,14.09-1.23,21.14-1.82,11.72-.99,22.33-5.54,32.92-10.13,2.89-1.25,6.52-2.63,7.95.51,1.11,2.42.35,6.44-.96,9.07-2.48,5.01-7.89,6.69-12.86,7.63-14.28,2.7-28.6,5.97-43.04,6.78-11.83.67-24.28,1.07-35.5-4.97-.82-.44-2.37-.39-3.15.11-4.07,2.58-7.74,5.91-12.03,7.96-5.27,2.52-11.04,2.47-16.2-.72-3.18-1.96-7.85-3.09-6.3-8.96-6.06,2.54-11.57,3.49-16.85-.42-.37-.27-.95-.36-1.43-.37-10.32-.2-15.35-7.83-17.43-15.69-4.3-16.23-.84-34.81,14.52-46.91,4.16-3.28,9.49-5.08,14.31-7.51,1.15-.58,2.4-.95,2.44-.97ZM613.59,283.48c1.17-.5,2.49-.79,3.49-1.52,15.55-11.27,31.23-22.37,46.5-34.01,6.49-4.94,12.11-11.02,18.18-16.64-12.32,1.4-24.04,2.84-35.78,3.99-2.43.24-6.27.31-7.23-1.08-7.79-11.28-19.37-10.81-30.61-11.31-.97,22.42-1.92,44.32-2.87,66.33,2.16-1.4,4.48-2.91,6.8-4.42l1.52-1.35ZM1183.81,245.52c-1.1,7.05-1.81,12.76-2.91,18.38-2.09,10.68-4.61,21.27-6.59,31.97-3.81,20.57-7.18,41.21-11.09,61.76-2.97,15.62-6.51,31.13-9.76,46.69-1.99,9.51-3.74,19.06-5.9,28.53-4.71,20.65-9.53,41.28-14.47,61.88-2.98,12.45-6.06,24.88-9.48,37.21-3.54,12.79-7.51,25.46-11.35,38.17-5.95,19.69-11.69,39.44-17.99,59.01-7.69,23.88-16.24,47.48-23.69,71.43-4,12.87-10.55,23.85-21.31,31.51-18.25,12.98-35.17,8.95-46.59-7.3-5.56-7.91-10.23-16.44-15.88-24.27-2.41-3.34-6.23-5.69-9.51-8.36-8.12-6.61-16.29-13.16-24.44-19.73,13.08,66.89,20.49,133.91,24.88,200.49,16.45-8.29,32.45-16.87,48.91-24.43,9.07-4.17,18.73-7.46,28.47-9.66,11.83-2.68,24.02-3.69,36.03-5.6,15.41-2.45,30.67-.43,45.62,2.6,11.22,2.27,22.02,6.78,32.85,10.72,6.34,2.3,12.83,4.73,18.45,8.35,11.86,7.64,23.23,16.03,34.68,24.28,2.07,1.49,3.31,4.1,5.33,5.7,3.9,3.11,8.07,5.88,12.04,8.72.17-.89.82-2.73.84-4.57.18-15.03.25-30.06.35-45.09.09-13.98.49-27.97.18-41.95-.45-20.35-1.41-40.68-2.15-61.02-.54-14.94-.73-29.9-1.69-44.81-1.55-24.13-3.56-48.24-5.47-72.35-1.24-15.63-2.64-31.25-3.99-46.88-.99-11.46-1.79-22.95-3.11-34.37-2.16-18.67-4.6-37.3-7.07-55.93-2.23-16.78-4.48-33.56-7.06-50.28-2.72-17.6-5.78-35.15-8.82-52.7-2.59-14.95-4.97-29.96-8.16-44.79-3.52-16.41-7.88-32.64-11.83-48.96-1.15-4.77.86-9.02,4.87-9.08,4.43-.06,4.49,4.4,5.02,7.28,1.24,6.76,1.66,13.67,2.62,20.49,2.13,15.22,4.26,30.44,6.61,45.62,3.02,19.56,6.25,39.08,9.4,58.62,1.84,11.41,3.81,22.79,5.54,34.22,1.7,11.22,3.21,22.47,4.71,33.72,1.84,13.72,3.73,27.43,5.32,41.17,1.25,10.81,1.96,21.69,3.11,32.52,1.83,17.18,4.11,34.31,5.68,51.5,1.59,17.42,2.59,34.9,3.81,52.36,1.12,16.1,2.38,32.19,3.22,48.31.69,13.29.79,26.62,1.29,39.92.43,11.35,1.35,22.68,1.52,34.03.36,23,.5,46,.46,69-.02,11.44-.71,22.87-1,34.31-.13,5.04-.02,10.08-.02,14.9,4.06-9.97,7.68-20.07,12.22-29.75,10.38-22.15,25.74-40.56,44.75-55.74,19.74-15.77,41.76-26.83,67.6-27.82,15.65-.6,31.33-.67,46.98-.42,7.51.12,15.09,1.09,22.5,2.44,12.62,2.3,25.43,4.24,37.6,8.1,13.77,4.37,26.93,10.68,40.34,16.17,1.97.81,3.94,1.64,5.78,2.69,5.15,2.95,10.23,6.03,16.55,9.77-4.39-12.94-8.15-24.46-12.19-35.87-7.98-22.53-15.87-45.1-24.26-67.47-8.89-23.71-19.28-46.77-31.54-68.98-8.93-16.18-17.26-32.69-26.25-48.83-7.89-14.15-16.2-28.08-24.55-41.96-10.31-17.15-20.51-34.39-31.41-51.16-11.53-17.73-23.64-35.1-35.85-52.37-13.66-19.31-27.35-38.61-41.72-57.38-14.19-18.54-28.86-36.76-44.03-54.51-15.38-18.01-31.95-34.99-47.27-53.04-4.66-5.5-9.65-10.39-14.91-15.19-3.63-3.31-6.93-7-10.3-10.6-1.12-1.2-3.05-3.42-2.75-3.84,1.45-2.05,3.34-4.04,5.52-5.21.9-.48,3.44.75,4.37,1.9,5.36,6.58,10.25,13.54,15.69,20.04,7.05,8.41,14.73,16.29,21.68,24.77,16.49,20.09,32.94,40.21,48.98,60.66,15.93,20.31,31.56,40.86,46.9,61.62,13.55,18.34,26.75,36.94,39.65,55.74,10,14.56,19.6,29.42,28.87,44.45,12.9,20.9,25.58,41.95,37.88,63.21,10.64,18.38,21.11,36.89,30.77,55.79,10.29,20.14,20.23,40.51,29.02,61.33,8.77,20.77,16.06,42.17,23.76,63.38,4.38,12.07,8.31,24.3,12.38,36.48,1.79,5.35,3.44,10.75,5.16,16.13.6-.07,1.21-.15,1.81-.22,0-13.04-.18-26.08.05-39.12.23-13.01.45-26.04,1.47-39,.97-12.36,2.46-24.73,4.61-36.93,3.68-20.87,8.85-41.42,17.77-60.74,9.74-21.1,22.2-40.22,40.11-55.69,15.1-13.04,31.66-23.42,49.87-31.18,12.57-5.36,25.4-10.2,38.35-14.57,10.75-3.63,21.78-6.48,32.8-9.21,9.25-2.29,18.66-3.9,29.52-6.12-3.86-3.78-6.83-6.63-9.74-9.54-4.77-4.77-9.39-9.68-14.27-14.33-7.49-7.14-15.17-14.09-22.74-21.15-6.27-5.85-12.16-12.15-18.8-17.53-9.64-7.81-19.76-15.05-29.77-22.41-8.5-6.24-17.09-12.37-25.73-18.42-8.37-5.86-16.72-11.77-25.32-17.27-11.71-7.49-23.51-14.86-35.53-21.83-13.54-7.85-27.35-15.26-41.09-22.76-9.4-5.13-18.77-10.33-28.36-15.08-14.87-7.36-29.87-14.47-44.91-21.47-6.83-3.18-13.93-5.74-20.84-8.76-9.88-4.32-19.5-9.34-29.58-13.1-14.74-5.49-29.81-10.1-44.72-15.13-16.77-5.65-33.41-11.72-50.32-16.9-14.92-4.57-30.07-8.44-45.24-12.09-13.62-3.28-27.4-5.97-41.15-8.67-7.12-1.4-14.34-2.31-21.52-3.4-4.7-.71-9.45-1.18-14.11-2.07-3.29-.63-6.49-1.78-11.03-3.08ZM808.26,1253.22l.07-1.49c1.82-.45,3.83-1.65,5.42-1.23,10.52,2.76,20.19,7.42,27.59,15.54,4.68,5.13,10.18,10.14,8.83,18.49-.32,1.96.63,4.76,2,6.25,7.88,8.53,16.46,16.44,24.07,25.19,16.57,19.05,29.81,40.3,37.61,64.38,3.9,12.04,5.86,24.72,8.33,37.19.65,3.3,1.66,5.19,5.14,5.26,6.68.12,13.35.33,20.02.42,4.52.06,9.05.05,13.57-.07,1.08-.03,2.33-.33,3.18-.94,5.22-3.71,10.45-7.43,15.48-11.39,4.59-3.62,9.45-7.1,13.27-11.45,5.76-6.56,10.69-13.85,16.03-20.78,1.28-1.66,3.24-2.91,4.17-4.72,5.79-11.24,10.64-23.05,17.32-33.71,3.73-5.95,1.34-10.87-.44-15.05-3.76-8.81-9.13-16.98-14.26-25.15-14.6-23.28-29.64-46.3-44.06-69.69-9.72-15.77-19-31.83-27.9-48.07-7.72-14.09-15.42-28.28-21.72-43.03-10.05-23.54-19.75-47.29-28.09-71.48-8.79-25.49-16.05-51.53-23.53-77.46-4.63-16.04-8.04-32.42-12.74-48.44-3.29-11.19-7.83-22.02-11.95-33.39-7.52,2-14.78,4.14-22.14,5.86-14.94,3.48-29.87,7.08-44.93,9.99-14.54,2.81-29.2,5.04-43.86,7.11-15.83,2.24-31.69,4.44-47.61,5.84-15.28,1.35-30.64,1.96-45.97,2.32-13.88.33-27.81.36-41.67-.33-16.36-.82-32.69-2.41-49.01-3.98-13.84-1.33-27.62-3.22-41.46-4.58-1.68-.16-4.33.99-5.15,2.36-1.88,3.18-3.41,6.75-4.21,10.35-3.28,14.85-6.72,29.7-9.13,44.7-1.63,10.12-1.89,20.48-2.31,30.75-.45,11.01-1.27,22.11-.33,33.03,1.62,18.62,3.88,37.24,7.01,55.67,3.62,21.31,7.43,42.69,13.07,63.53,5.96,22.01,14.74,43.26,26.04,63.14,12.19,21.44,25.4,42.23,42.54,60.3,13.49,14.23,26.99,28.3,42.6,40.33,17.65,13.59,36.17,25.66,56.2,35.38,1.32.64,3.61,1.12,4.55.44,5.38-3.91,10.39-2.84,16.24-.71,13.64,4.99,27.57,9.18,41.4,13.61,5.71,1.83,11.49,3.46,18.38,5.53-2.05-4.2-3.21-7.14-4.82-9.8-11.91-19.68-23.78-39.39-35.91-58.93-14.54-23.43-26.82-47.95-36.33-73.84-2.77-7.55-4.43-15.55-2.49-23.34,2.35-9.41,5.82-18.58,9.26-27.68,2.49-6.59,5.17-13.21,8.76-19.23,3.59-6.03,8.21-11.49,12.75-16.89,4.91-5.84,10.09-11.47,15.45-16.89,2.75-2.78,6.63-4.5,9.21-7.4,9.6-10.75,22.94-15.98,34.57-23.68,7.03-4.66,15.24-7.58,23-11.1,6.59-2.99,13.36-5.57,19.94-8.58,8.5-3.89,17.52-3.5,26.24-2.37,4.38.57,8.19,4.72,12.51,6.68,15.21,6.89,27.91,17.09,39.53,28.88,16.65,16.91,30.34,36.02,42.29,56.43.65,1.11,1.34,2.86,2.26,3.04,8.8,1.72,13.14,8.69,17.8,15.08,1.9,2.6,2.62,6.06,3.88,9.13-3.42-.27-6.83-.55-10.14-.81,1.02,1.85,2.83,4.57,4.05,7.54.71,1.73.48,3.84.67,5.78-2.27-.46-5-.31-6.68-1.57-1.66-1.24-2.43-3.84-3.27-5.97-1.51-3.84-2.28-8.03-4.21-11.62-8.41-15.58-16.62-31.22-27.89-45.13-13.12-16.18-27.68-30.43-46.63-39.52-4.52-2.17-10.04-2.39-14.34-4.85-5.26-3-10.59-3.94-16.18-3.09-12.54,1.91-25.63,2.59-37.35,6.88-13.43,4.91-27.04,10.36-38.85,19.05-5.17,3.8-10.81,6.98-15.84,10.94-4.61,3.63-8.72,7.9-13,11.94-3.42,3.22-7.18,6.18-10.07,9.82-8.34,10.48-15.56,21.74-20.63,34.18-3.45,8.47-7.37,17.1-2.13,26.47.9,1.62.68,3.88.92,5.85.97,8.02,1.04,16.26,3.05,24.01,5.6,21.62,15.56,41.56,26.19,61.03,9.12,16.7,19.03,33.05,29.76,48.75,6.6,9.67,11.88,21.13,24.27,25.69,9.59,3.53,18.9,7.87,28.59,11.09,11.38,3.78,23.03,6.7,34.54,10.11,1.07.32,1.89,1.43,2.83,2.18-1.2.37-2.51,1.26-3.58,1.03-16.5-3.62-32.97-7.4-49.45-11.13-4.49-1.02-9.13-3.18-13.45-2.65-3.94.48-6.59-.11-9.55-2.3-1.8-1.32-4.01-2.2-6.16-2.9-5.02-1.61-10.07-3.17-15.19-4.42-12.48-3.05-25-5.93-37.53-8.8-1.52-.35-3.48-.83-4.66-.2-8.31,4.47-16.49,9.19-24.68,13.89-5.62,3.22-12.49,5.42-16.49,10.06-6.58,7.63-15.78,13.62-18.48,25.15,5.83-1.86,11.28-3.42,16.6-5.36,3.45-1.26,7.59-2.25,9.86-4.78,6.69-7.43,12.51-15.62,18.88-23.35,1.18-1.44,3.4-3,4.99-2.86,1.71.15,4.14,1.96,4.62,3.55.47,1.54-.69,4.05-1.88,5.54-4.43,5.55-9.87,10.41-13.64,16.35-7.73,12.2-14.68,24.91-17.94,39.48,9.3-3.72,18.53-7.56,27.87-11.1,5.78-2.19,11.86-3.6,17.56-5.97,3.98-1.65,8.11-3.72,11.16-6.65,7.65-7.37,14.56-15.48,22.09-22.98,2.85-2.84,5.93-1.01,8.21,1.56,2.16,2.44,1.57,4.54-.7,6.9-8.66,8.99-18.94,16.59-23.53,29.05-2.56,6.95-6.31,13.46-9.52,20.17,7.23-3.07,13.62-6.66,19.85-10.51,8.16-5.04,16.12-10.41,24.33-15.36,2.23-1.35,5.09-2.47,7.6-2.37,3.91.15,7.79,1.38,11.66,2.24,11.51,2.57,23.01,5.19,34.52,7.77.62.14,1.28.13,1.93.13,10.38-.06,20.77.18,31.13-.29,8.09-.37,16.13-1.61,24.19-2.54,2.86-.33,5.85-.47,8.5-1.45,5.93-2.18,11.56-5.21,17.56-7.15,3.87-1.26,6.87-2.01,5.13-7.1-.36-1.05.95-2.62,1.35-3.99.87-2.93,1.89-5.84,2.4-8.83.45-2.6.47-5.32.36-7.97-.41-9.7.31-19.67-1.74-29.02-3.18-14.52-9.21-28.36-17.55-40.71-10.96-16.23-22.77-31.85-38.94-43.62-4.45-3.23-7.61-8.17-11.67-12.01-3.75-3.55-7.58-7.25-12.01-9.76-3.26-1.86-7.54-1.94-11.38-2.77-2.85-.62-5.72-1.17-8.58-1.75.09-.57.18-1.14.27-1.71,10.5-1.77,20.9-.46,31.58,2.05-5.42-13.63-18.49-17.72-29.16-24.59ZM459.89,441.27c-.51,2.29-.99,4.02-1.28,5.78-1.51,8.98-3.89,17.94-4.2,26.96-.33,9.6.08,19.58,2.45,28.82,2.35,9.15,8.62,16.85,15.13,23.96,2.5,2.73,4.6,5.27,8.61,2.61.54-.36,1.84-.31,2.3.1,5.04,4.38,11.16,2.9,16.76,2.69,14.65-.54,29.3-1.52,43.92-2.75,9.94-.83,19.84-2.22,29.72-3.66,8.39-1.23,16.74-2.74,25.05-4.42,8.22-1.67,16.48-3.3,24.51-5.68,12.26-3.63,24.55-6.84,37.32-8.2,11.68-1.24,23.39-2.58,34.91-4.8,10.77-2.08,21.36-5.2,31.94-8.2,20.26-5.75,40.6-11.29,60.63-17.78,14.88-4.82,29.5-10.58,43.87-16.78,5.76-2.49,13.88-3.35,14.69-12.28.04-.39.59-.8.99-1.09,7.56-5.34,12.15-13.02,16.63-20.82,6.48-11.28,11.31-23.04,12.96-36.15,1.28-10.19.14-19.87-2.11-29.79-2.82-12.49-6.49-24.64-11.22-36.5-4.32-10.84-8.67-21.67-13.1-32.47-3.11-7.55-5.84-15.33-9.72-22.48-5.33-9.81-11.61-19.1-17.45-28.63-2.73-4.46-5.4-8.96-8.08-13.45-5.44-9.12-14.99-15.86-14.26-28.5.39-6.76-3.06-13.26-6.15-19.46-3-6-4.83-12.84-8.82-18.04-8.86-11.55-18.7-22.35-28.28-33.33-2.31-2.65-6.3-4.33-7.55-7.29-3.13-7.39-10.77-9.73-15.62-15.25-5.83-6.64-14.25-11.14-21.93-15.97-6.52-4.1-13.5-7.51-20.41-10.94-4.76-2.37-9.67-4.55-14.69-6.28-3.08-1.06-6.57-.89-9.78-1.64-12.95-3.02-25.88-4.99-39.22-2.29-3.38.68-7.23,0-10.66-.87-1.51-.38-2.22-3.28-3.78-4.22-4.44-2.68-8.94-5.44-13.76-7.24-8.27-3.08-16.67-6.1-25.28-7.95-8.35-1.8-17.15-3.51-25.53-2.76-16.32,1.46-31.7,6.71-46.27,14.72-14.62,8.03-27.1,18.51-37.9,30.88-5.56,6.37-12.51,10.01-19.94,10.75-11.89,1.18-24,.03-36.01.12-14.78.11-29.61-.11-44.33.95-11.48.83-22.97,2.81-34.22,5.34-13.15,2.96-26.09,6.88-39.01,10.76-6.29,1.89-12.31,4.65-18.46,6.98-19.41,7.33-38.03,15.92-54.41,29.16-15.39,12.45-30.28,25.21-42.43,40.99-3.06,3.97-7.7,6.71-11.52,10.12-1.56,1.39-3.23,2.86-4.21,4.65-3.7,6.74-10.24,9.85-17.84,8.43-2.25-.42-4.7-.56-6.94-.16-8.25,1.47-16.71.65-24.92,3.6-9.26,3.32-18.93,5.43-27.06,11.38-1.46,1.07-2.98,2.06-4.46,3.1-14.24,10.05-24.57,23.05-30.41,39.61-2.61,7.4-2.87,14.82-1.89,22.43,1.07,8.32,2.92,16.22,11.04,20.87,1.07.61,1.72,1.92,2.68,2.77,1.25,1.11,2.48,2.41,3.96,3.08,12.73,5.7,25.86,3.9,38.98,1.83,1-.16,2.14-.83,2.8-1.61,14.08-16.77,32.59-25.12,53.81-28.02,7.64-1.04,15.55-1.27,18.68,7.68,3.32-.2,6.25-.16,9.11-.57,17.71-2.57,34.84-7.05,50.63-15.79,15.43-8.54,29.58-18.26,40.7-32.63,12.85-16.61,31.39-26.33,50.15-34.87,15.46-7.03,31.42-12.96,47.24-19.19,1.76-.69,4.19-.71,6-.1,12.16,4.06,18.22,15.36,27.19,23.25.11.09.06.34.16.46,4.36,5.7,8.74,11.39,12.9,16.8,4.69-1.44,7.89-2.83,7.42-7.88-.15-1.58,1.07-3.5,2.12-4.95,6.68-9.24,15.06-16.18,26.23-19.46,7.5-2.2,14.97-4.49,22.88-2.58,5.32,1.29,11.3,1.66,15.73,4.45,13.15,8.27,23.03,19.52,26.54,35.78,4.47-2.64,8.44-5.39,12.74-7.44,13.08-6.25,26.17-12.5,39.48-18.24,17.52-7.55,35.75-11.96,54.97-8.92,6.07.96,12.35,1.54,17.61,5.98,2.98,2.52,7.55,4.97,11.14,4.62,11.9-1.14,23.15-5.19,33.71-10.88,3.25-1.75,3.01-5.08,1.34-7.32-3.15-4.22-6.9-8.02-10.64-11.75-6.3-6.27-12.7-12.43-19.24-18.44-2.3-2.11-4.95-4-3-7.37,2.05-3.54,5.62-3.66,8.71-1.77,10,6.09,19.96,12.27,29.64,18.83,3.68,2.49,6.33,6.46,9.89,9.18,7.47,5.71,8.15,13.51,2.88,21.31-7.09,10.5-17.84,16.71-27.09,24.61-8.62,7.35-18.05,13.8-27.44,20.19-17.11,11.67-34.13,23.52-51.78,34.34-17.74,10.87-36.26,20.46-54.31,30.83-9.21,5.29-17.28,12.36-28.48,14.23-6.89,1.15-7.04,2.95-6.79,10.5.08,2.47-.46,4.96-.48,7.45-.07,8.36-.03,16.72-.03,25.39,2.75-.15,4.41-.05,6-.36,25.71-5,47.05-17.79,65.19-36.39,1.69-1.73,3.9-3.12,6.12-4.07,1.05-.45,3.16.09,3.94.95.73.81.9,2.98.32,3.94-1.53,2.49-3.26,5.09-5.53,6.84-21.83,16.85-45.42,30.12-72.98,35.09-.46.08-.88.35-1.62.65.18,1.4.35,2.78.54,4.27,2.05,0,3.73.21,5.34-.03,15.81-2.42,30.72-7.53,44.64-15.43,4.72-2.68,9.24-5.74,14-8.35.93-.51,3.13-.18,3.75.57.72.87.93,3.07.32,3.95-1.59,2.27-3.46,4.65-5.78,6.04-4.07,2.44-8.52,4.29-12.9,6.2-15.45,6.74-31.09,12.84-48.76,13.46.4,5.4.97,10.45,1.09,15.52.16,6.67-2.1,9.51-8.73,11.22-2.36.61-4.85.86-7.29.92-5.35.14-8.31-2.25-8.99-7.59-.84-6.63-1.29-13.31-1.91-20-3.65-.78-7.87-1.43-11.91-2.67-1.45-.44-2.48-2.28-3.7-3.48,1.87-.65,3.71-1.76,5.6-1.86,3.03-.15,6.09.37,9.14.61.05-.54.1-1.08.14-1.61-1.36-.24-2.71-.65-4.07-.69-17.87-.49-35.38-3.66-52.85-7.04-1.34-.26-2.42-1.92-3.62-2.93,1.65-.75,3.41-2.32,4.94-2.12,12.02,1.59,23.97,3.83,36.01,5.22,6.27.72,12.68.13,19.69.13-.67-10.49-1.34-21.13-1.94-30.46-6.61-.99-12.2-1.92-17.82-2.61-1.22-.15-2.57.41-3.8.82-12.98,4.31-25.81,9.14-38.95,12.86-14.27,4.04-28.7,7.78-43.31,10.22-9.06,1.51-15.87,9.99-25.9,7.56-.43-.1-1.02.85-1.63,1.05-2.76.92-5.56,1.71-8.32,2.62-1.72.57-3.4,1.29-5.08,1.94,10.03,11.06,12.65,23.72,13.94,37.03,4.45.23,8.73.75,12.98.6,8.66-.3,17.46-.14,25.92-1.7,8.83-1.63,18.47-.67,26.24-7.03,1.68-1.38,5.54-2.05,7.28-1.06,9.39,5.31,19.97,8.63,28.07,16.18.34.31.89.42,1.37.55,12.54,3.33,24.93,7.53,37.66,9.71,10.48,1.79,21.49,2.44,32.03,1.34,13.98-1.45,27.78-4.36,41.24-9.33,19.66-7.25,37.59-17.01,53.58-30.47,13.97-11.75,25.77-25.52,35.93-40.55,7.04-10.41,13-21.58,18.92-32.69,3.17-5.94,4.84-12.68,7.94-18.66,1.67-3.23,4.68-5.91,7.53-8.32,2.06-1.74,5.33-3.82,7.48-1.03,1.63,2.13,2.6,5.92,1.91,8.44-1.46,5.39-3.61,10.77-6.49,15.55-10.95,18.22-23.09,35.56-37.18,51.61-19.33,22.03-40.71,41.22-67.09,54.51-14.67,7.39-29.72,13.57-45.96,16.36-7.48,1.28-15.07,1.96-22.59,3.01-16.18,2.25-31.99.27-47.55-4.2-6.31-1.81-12.53-3.94-19.61-6.19ZM464.59,767.46c-.21,4.3-.55,7.9-.53,11.5.09,13.38,1.27,26.56,6.51,39.12,4.86,11.64,8.8,23.75,18.73,32.46,1.93,1.69,3.34,4.2,5.51,5.36,14.97,7.97,31,11.85,47.87,13.96,15.53,1.94,31.01,3.14,46.58,2.75,17.7-.44,35.41-1.11,53.06-2.35,17.79-1.25,35.55-3,53.26-5.14,15.59-1.89,31.12-4.41,46.61-7.02,14.09-2.38,28.11-5.16,42.12-7.93,10.61-2.1,21.17-4.46,31.76-6.69,6.86-1.44,13.77-2.72,20.59-4.33,3.56-.84,7.18-2.17,6.57-7-.98-7.8-2.21-15.58-3.19-23.38-1.32-10.53-2.14-21.13-3.84-31.59-2.6-15.94-5.7-31.79-8.73-47.65-2.71-14.25-5.36-28.53-8.49-42.69-2.92-13.2-6.21-26.34-9.76-39.39-2.62-9.64-5.5-19.26-9.02-28.6-4.94-13.13-9.81-26.39-16.1-38.89-6.91-13.73-15.43-26.65-23.22-39.95-3.3-5.63-3.53-5.71-9.25-2.1-6.07,3.83-8.47,3.04-13.84-1.69-6.05-5.33-12.32-10.92-19.48-14.33-7.12-3.39-15.37-4.88-23.3-6.05-15.9-2.36-31.66-.59-47.12,3.7-13.53,3.75-25.43,10.82-37.43,17.88-18.66,10.98-32.3,27.31-47.16,42.41-6.73,6.84-13.65,13.57-24.33,13.83-3.92.09-7.84,1.09-11.72,1.86-9.81,1.94-19.59,4.02-29.39,5.96-5.49,1.09-11.01,2.09-16.54,3-2.61.43-5.28.46-7.9.82-2.61.36-4.69.2-4.97-3.14-.09-1.11-.35-2.3-.88-3.26-7.94-14.41-17.95-27.25-29.63-38.81-8.51-8.42-16.92-16.96-25.71-25.09-5.21-4.82-11.01-9.04-16.67-13.36-3.89-2.97-7.97-5.71-12.03-8.46-6.53-4.42-13.11-8.76-20.05-13.39-2.81,14.36-8.41,25.91-16.45,36.28-2.52,3.25-5.63,5.66-11.14,3.47,1.19-2.98,1.87-6.09,3.5-8.58,9.73-14.83,10.74-30.79,6.99-47.59-.76-3.4-.68-7.03-.66-10.56.07-10.56,1.03-21.18.2-31.66-.57-7.14-2.89-14.37-5.74-21-1.62-3.76-1.35-10.09-9.26-10.4-.47,3.31-.47,6.83-1.57,9.97-1.02,2.91-2.76,5.93-5.04,7.9-1.21,1.05-4.61.68-6.38-.26-3.13-1.66-5.65-4.4-8.62-6.41-6.83-4.61-13.52-9.53-20.78-13.34-3.61-1.9-7.38-3.46-11.03-5.42-9.05-4.84-19.06-7.97-28.84-11.33-4.69-1.61-11.58,2.24-12.07,5.99-1.2,9.28,2.85,16.24,10.85,21.25,7.03,4.4,8.3,5.59,4.03,13.05-1.54,2.68-3.67,5.19-6.04,7.16-3.69,3.08-7.77,5.69-11.75,8.39-2.94,1.99-4.7,4.07-2.35,7.75,1.32,2.06,2.39,4.39,3.04,6.74,1.73,6.21,4.89,12.55-1.74,18.17-2.74,2.32-5.11,5.22-7.15,8.21-5.78,8.48-2.02,17.05-.32,25.89,2.43-1.59,4.23-3.58,6.29-3.9,2.44-.38,5.81-.14,7.53,1.3,4.01,3.36,7.23,7.65,10.88,11.47,2.26,2.36,4.4,5.04,7.13,6.69,8.23,4.97,16.48,10.03,25.19,14.04,5.74,2.65,12.23,4.68,18.49,4.99,9.65.47,15.82,5.6,19.29,13.28,3.96,8.78,5.87,18.46,9.04,27.62,4.56,13.19,9.27,26.33,14.28,39.35,4.37,11.34,8.89,22.65,14,33.67,5.78,12.44,12.32,24.53,18.48,36.8,1.92,3.82,3.24,8.01,5.59,11.52,4.33,6.46,9.17,12.57,13.88,18.76,4.41,5.79,8.34,12.17,16.88,12.65,2.56.15,5.37.83,7.54,2.14,5.1,3.09,10.09,5.76,16.28,6.44,6.49.71,12.77,3.3,19.26,3.98,10.98,1.15,22.05,1.62,33.1,2.04,7.61.29,15.33.8,22.83-.16,15.35-1.97,30.74-4.16,45.82-7.59,12.65-2.88,25.26-6.73,37.17-11.83,11.34-4.86,21.72-11.93,32.56-17.98,2.71-1.51,6.05-2.27,8.22-4.3,5.28-4.96,11.46-5.98,18.04-4.81,17.22,3.07,33.67.09,49.88-5.52,3.27-1.13,6.49-2.47,9.84-3.31,1.22-.31,3.24.14,3.96,1.01.72.87.85,3.11.21,4.03-1.25,1.8-3,3.61-4.95,4.49-3.43,1.55-7.19,2.37-10.8,3.55-9.24,3.03-18.43,6.25-27.72,9.11-8.52,2.62-17.16,4.84-25.72,7.29-6.89,1.98-13.22,1.5-18.56-4.11-50.36,30.92-106.2,40.05-164.51,41.27ZM968.82,1431.55c1.8.47,3.34.86,4.87,1.28,9.76,2.66,20.09,3.16,28.37-2.36,13.12-8.75,25.65-18.65,37.32-29.27,16.9-15.38,31.39-33.01,44.36-51.91,10.13-14.75,18.05-30.63,24.84-47.06,5.45-13.2,8.09-27.22,9.52-41.44.85-8.44-1.37-11.51-9.37-13.87-2.26-.67-4.61-2.17-6.13-3.96-5.24-6.17-10.27-12.52-15.12-19.01-6.95-9.3-13.71-18.73-20.46-28.18-5.27-7.39-10.48-14.83-15.55-22.36-3.67-5.44-7.21-10.98-10.57-16.62-5.3-8.89-10.66-17.75-15.53-26.88-5.74-10.77-11.1-21.74-16.39-32.74-4.35-9.04-8.6-18.14-12.46-27.4-2.97-7.14-5.24-14.56-7.86-21.85-2.55-7.08-5.83-13.99-7.54-21.27-1.84-7.85-2.35-16.03-3.2-24.08-1.02-9.64-1.77-19.31-2.65-28.97-.59-6.4-1.4-12.79-1.77-19.2-.59-10.02-.7-20.07-1.38-30.08-1.1-16.29-2.57-32.55-3.72-48.83-.84-11.9-1.23-23.84-2.15-35.73-.67-8.69-1.97-17.32-2.78-26-.51-5.49-.33-11.06-1-16.53-.98-8.03-2.51-15.98-3.67-23.99-1.3-8.92-2.19-17.9-3.72-26.78-2.71-15.76-5.68-31.48-8.69-47.19-2.71-14.16-5.25-28.36-8.56-42.38-3.02-12.81-6.73-25.48-10.57-38.08-4.57-14.97-9.55-29.82-14.49-44.68-2.42-7.28-5.15-14.47-7.75-21.69-.11-.31-.26-.61-.4-.91-2.78-5.91-5.73-11.75-8.29-17.76-4.42-10.37-8.38-20.95-15.11-30.16-4.36-5.96-8.28-12.26-12.91-17.99-5.41-6.71-11.02-13.36-17.3-19.22-2.35-2.19-5.63-5.06-10.32-3.35-15.62,5.68-31.24,11.41-47.13,16.25-24.71,7.52-49.63,14.33-74.46,21.45-3.45.99-6.88,2.06-10.53,3.16,6.64,2.03,12.71,3.89,18.79,5.75,7.15,2.19,14.57,3.77,21.37,6.76,5.03,2.21,9.12,4.88,14.98,2.04,4.04-1.96,7.48,1.15,8.05,5.8.17,1.39.77,2.77,1.42,4.03,2.24,4.35,5.03,8.47,6.82,12.99,6.66,16.82,13.52,33.58,19.35,50.69,6.58,19.34,12.66,38.89,17.98,58.62,4.79,17.76,8.41,35.86,12.28,53.86,2.85,13.26,5.51,26.57,7.84,39.93,2.26,12.95,4.04,25.99,5.94,39,1.74,11.92,3.28,23.87,5.05,35.79,1.11,7.47,2.39,14.91,3.74,22.33,1,5.48,2.66,10.88,3.28,16.39,1.46,12.97,2.15,26.02,3.79,38.96,1.02,8,3.45,15.82,4.82,23.79,1.37,7.98,1.67,16.17,3.38,24.06,4.71,21.79,9.45,43.6,15.06,65.18,4.82,18.53,10.5,36.86,16.5,55.05,4.44,13.48,9.42,26.84,15.16,39.82,11.58,26.15,23.2,52.32,36.05,77.86,9.34,18.58,20.38,36.34,31.21,54.12,10.5,17.25,21.64,34.12,32.67,51.04,2.87,4.4,6.38,8.37,9.59,12.55,6.02,7.83,12.14,15.59,17.97,23.56,1.57,2.14,3.52,5.22,3.05,7.4-1.22,5.74-2.72,11.81-5.81,16.67-6.14,9.67-13.12,18.86-20.3,27.8-11.19,13.91-22.67,27.59-34.37,41.07-4.51,5.2-9.96,9.58-15.4,14.73ZM1924.21,1452.37c-3.29-1.74-5.4-3.02-7.63-3.99-9.38-4.1-18.82-8.09-28.21-12.16-18.39-7.98-37.56-13.6-56.96-18.45-20.51-5.12-41.04-10.21-61.6-15.13-12.5-2.99-25.01-6.02-37.64-8.33-12.01-2.2-24.18-3.48-36.29-5.16-23.08-3.2-46.16-6.42-69.25-9.6-16.53-2.28-33.05-4.58-49.59-6.75-10.98-1.44-22.02-2.41-32.97-4.02-13.42-1.97-26.75-4.49-40.15-6.6-12.42-1.96-24.94-3.37-37.31-5.59-17.75-3.18-35.43-6.77-53.1-10.39-17.26-3.54-34.53-7.11-51.68-11.14-13.52-3.17-26.87-7.03-40.28-10.64-6.23-1.67-12.42-3.51-18.64-5.2-7.75-2.1-15.61-3.84-23.26-6.25-6.76-2.13-13.23-5.17-19.94-7.48-17.61-6.07-35.3-11.91-52.93-17.93-4.99-1.7-9.89-3.66-14.81-5.57-7.37-2.86-14.7-5.85-22.09-8.65-10.78-4.08-21.61-8.04-32.9-12.23-2.14,3.82-6.15,5.14-10.8,3.51-18.56,70.72-61.2,124.13-118.29,168.36,13.39,1.21,25.59,2.27,37.79,3.45,2.28.22,4.5,1.22,6.78,1.34,9.21.5,18.45.54,27.63,1.25,10.19.79,20.33,2.32,30.51,3.2,16.39,1.42,32.81,2.54,49.21,3.86,19.06,1.53,38.11,3.14,57.16,4.7,13.37,1.09,26.73,2.19,40.1,3.21,14.59,1.12,29.19,2.24,43.79,3.2,11.01.73,22.03,1.36,33.05,1.8,21.07.84,42.14,1.49,63.21,2.28,14.83.56,29.65,1.35,44.48,1.8,14.8.45,29.6.73,44.41.87,17.63.16,35.27.07,52.91.12,15.5.04,31.01.27,46.51.13,10.33-.09,20.66-.85,30.99-.98,15.26-.2,30.52.09,45.78-.23,17.25-.36,34.49-1.26,51.73-1.73,10.69-.29,21.39.09,32.07-.37,12.63-.54,25.23-1.94,37.86-2.45,12.07-.49,24.18-.1,36.26-.48,11.32-.36,22.62-1.34,33.94-1.83,11.13-.49,22.27-.5,33.39-1.09,11.79-.62,23.56-1.67,36.75-2.64ZM671.34,1377.81c-15.46-9.8-30.79-18.87-45.4-28.98-10.17-7.04-19.86-14.98-28.84-23.5-10.92-10.36-21.13-21.51-31.14-32.77-7.13-8.02-13.98-16.41-19.95-25.3-7.26-10.8-13.96-22.05-19.99-33.59-6.56-12.55-12.44-25.48-17.88-38.56-3.47-8.34-6.03-17.13-8.23-25.91-4.1-16.33-7.82-32.77-11.33-49.24-2.06-9.62-3.41-19.39-5.31-30.4-6.62,3.68-12.42,6.91-18.23,10.12-1.01.56-2.1,1.48-3.11,1.43-3.74-.21-4.71,2.43-5.76,5.08-.73,1.84-1.32,3.75-2.11,5.56-3.39,7.81-7.79,15.33-10.06,23.45-4.25,15.22-4.73,31.06-4.2,46.76.41,12.24.83,24.58,4.19,36.55,2.09,7.46,3.31,15.21,5.9,22.48,7.58,21.28,19.14,40.27,33.79,57.5,13,15.28,27.8,28.52,44.43,39.56,13.94,9.26,28.98,16.5,44.83,22.17,5.09,1.82,9.66,5.57,13.84,9.17,1.53,1.32,2.34,5.27,1.51,7.15-1.41,3.19-4.6,5.55-6.65,8.53-2.55,3.71-5.72,3.97-9.82,3.3-8.3-1.36-16.68-2.4-25.05-3.2-8.58-.82-17.19-1.62-25.79-1.66-6.53-.03-13.66.16-17.93,6.29-4.68,6.72-8.39,14.12-13,20.89-7.85,11.52-10.66,25.1-15.93,37.67-1.74,4.16-2.33,8.79-3.45,13.21.5.32.99.63,1.49.95,2.89-1.77,5.77-3.56,8.66-5.32,3.33-2.02,6.7-3.97,10-6.04,5-3.14,9.85-6.55,14.96-9.49,5.11-2.94,10.5-5.41,15.72-8.17.87-.46,1.82-1.22,2.22-2.08,3.64-7.93,7.07-15.97,10.81-23.86,1.04-2.18,3.77-5.84,4.3-5.61,3.33,1.48,6.83,3.39,9.1,6.13,1.35,1.63,1.22,5.22.54,7.59-.74,2.59-2.97,4.72-4.4,7.14-5.95,10.11-11.83,20.26-18.27,31.3,1.88-.34,2.39-.31,2.77-.52,7.79-4.23,15.79-8.13,23.27-12.86,6.6-4.17,12.58-9.33,18.9-13.96,7.36-5.39,10.99-7.97,21.12-.6,3.68,2.67,8.73,3.92,13.34,4.73,5.64.99,11.47.98,17.22,1.08,1.66.03,4.32-.61,4.85-1.74,4.38-9.25,8.47-18.63,15.58-26.24,3.81-4.08,7.44-8.38,11.59-12.1,4.86-4.35,10.21-8.14,15.3-12.22.74-.59,1.28-1.45,1.63-1.86ZM840.11,847.16c-4.33.88-7.98,1.58-11.61,2.37-18.34,3.97-36.63,8.2-55.03,11.88-12.09,2.41-24.34,4.05-36.51,6.02-10.73,1.73-21.45,3.56-32.21,5.12-5.88.85-11.84,1.12-17.74,1.84-6.44.79-12.83,2.25-19.29,2.62-18.54,1.08-37.1,2.12-55.67,2.47-17.82.34-35.71.47-53.49-.57-17.78-1.03-35.47-3.69-53.23-5.4-1.42-.14-3.96,1.27-4.4,2.51-3.63,10.38-4.44,21.08-1.21,31.65,1.49,4.88,4.5,9.14,10.32,10.32,6.45,1.31,12.87,2.86,19.26,4.46,4.32,1.08,8.51,2.87,12.88,3.56,7.44,1.18,14.97,1.82,22.48,2.54,13.46,1.29,26.91,2.85,40.41,3.58,11.42.62,22.89.41,34.34.22,11.29-.18,22.59-.52,33.85-1.28,10.33-.69,20.62-2.01,30.92-3.09,9.04-.96,18.14-1.62,27.11-3.06,10.47-1.68,20.84-3.98,31.23-6.16,10.58-2.21,21.13-4.55,31.67-6.92,10.64-2.39,21.3-4.69,31.86-7.37,8.16-2.07,16.19-4.66,24.67-7.13-3.62-17.16-7.01-33.18-10.6-50.18ZM1175.3,174.08c-5.58,6.8-11.21,13-16.07,19.75-8.01,11.15-10.16,24.64-13.84,37.47-.25.89.55,2.08.87,3.13.93,3.02,2.67,6.05,2.62,9.04-.11,6.25-1.08,12.49-1.86,18.72-1.21,9.71-2.49,19.41-3.84,29.1-1.98,14.13-3.9,28.27-6.13,42.36-2.14,13.53-4.47,27.03-7.01,40.49-4.01,21.27-7.87,42.58-12.54,63.71-4.76,21.49-10.27,42.83-15.77,64.15-3.88,15.04-7.66,30.16-12.58,44.87-9.18,27.44-18.85,54.72-28.96,81.84-4.67,12.53-10.55,24.63-16.43,36.66-3.35,6.85-15.02,9.75-21.86,6.18-.88-.46-2.13-.9-2.42-1.66-2.83-7.23-8.55-11.74-14.46-16.26-10.12-7.74-19.95-15.85-30-23.68-2.76-2.15-5.85-3.86-9.61-6.31-3.22,10.15-5.87,19.64-9.3,28.85-1.45,3.89-.99,6.12,2.01,8.82,8.48,7.62,16.69,15.53,25,23.33,3.94,3.7,7.86,7.43,12.38,11.7,2.82-8.26,6.12-14.34,12.52-18.03,1.01-.58,2.57-.22,3.88-.3-.23,1.34-.29,2.74-.76,3.99-.25.66-1.46.91-1.82,1.57-2.38,4.39-5.49,8.63-6.68,13.35-.99,3.94.3,8.46.61,12.72.09,1.22-.15,2.77.5,3.58,6.09,7.55,11.95,15.02,22.71,16.78,16.78,2.75,35.63-13.85,33.77-30.77-.39-3.55.99-5.43,3.11-7.77,2.67-2.95,5.05-6.3,6.9-9.82,1.98-3.77,3.37-7.88,4.74-11.94,9.45-28.11,19.21-56.13,28.09-84.42,6.47-20.63,11.9-41.59,17.52-62.47,5.07-18.82,10.09-37.67,14.57-56.64,5.43-22.98,10.34-46.08,15.35-69.16,3.29-15.13,6.7-30.24,9.44-45.47,3.62-20.15,7.04-40.36,9.78-60.65,1.76-13.03,1.99-26.26,3.17-39.37.47-5.17.86-10.62,2.81-15.3,1.26-3.02,1.76-5.66.21-7.8-5.01-6.92-4.3-14.98-4.17-22.48.18-10.3,2.21-20.57,3.58-31.88ZM244.04,768.21c8.25-1.63,15.46-3.81,22.8-4.34,9.89-.72,19.74-2.26,29.88.2,6.63,1.61,6.21,6.51,6.69,10.39.29,2.35-2.67,5.76-5.02,7.62-2.92,2.31-6.86,3.27-10.1,5.25-8.43,5.16-16.82,10.4-25,15.94-2.67,1.81-3.89,11.38-1.99,13.31,3.25,3.29,6.41-.22,9.61-.61.45-.05.84-.54,1.3-.73,9.01-3.7,18.05-7.33,27.03-11.1,3.37-1.41,5.47-.8,7.25,2.64,2.61,5.02,2.17,8.54-1.74,13.99-8.79,12.24-17.38,24.62-25.97,37-2.09,3.01,1.44,10.77,5.09,10.95,6.47.31,12.97.41,19.44.23,13.38-.37,26.16-3.58,38.03-9.7,5.83-3,11.29-6.82,16.56-10.75,1.74-1.3,3.56-4.31,3.26-6.21-1.21-7.48-2.94-14.91-5.05-22.2-3.76-13-8.1-25.84-8.89-39.5-.04-.61-.56-1.19-.77-1.81-1.03-2.99-2.04-5.98-3.54-10.41-4.17-1.07-9.67-2.59-15.23-3.9-9.9-2.33-19.78-4.86-29.78-6.65-4.03-.72-7.69-.6-7.72-5.98,0-.44-.57-1.16-1.01-1.28-5.12-1.42-3.06-5-1.21-6.76,3.14-2.98,6.88-6.08,10.91-7.24,12.33-3.55,24.93-6.2,37.16-9.14-1.83-9.22-3.68-19.06-5.82-28.83-.34-1.53-1.72-3.54-3.07-4.01-3.86-1.35-7.92-2.56-11.98-2.88-14.5-1.16-28.86.99-42.75,4.58-11.21,2.89-21.91,7.86-32.65,12.38-5.46,2.3-9.52,6.09-7.53,13.12.83,2.94,1.01,6.06,1.78,9.02,3.26,12.46,6.63,24.88,9.99,37.41ZM497.16,339.43c.59,4.66,1.45,8.87,1.58,13.09.39,12.17.36,24.36.72,36.54.29,9.93,2.13,19.62,6.36,28.65.63,1.34,3.63,2.12,5.49,2.06.88-.03,2.06-2.59,2.4-4.15.37-1.72-.06-3.62-.19-5.44-.97-13.81-1.99-27.62-2.93-41.44-.65-9.58-1.36-19.15-1.76-28.74-.22-5.35,3.95-10.37,7.86-10.71,5.11-.44,10.4-.6,15.19-2.17,3.23-1.06,7.16-3.84,8.21-6.77,1.69-4.71-1.52-9.25-4.83-12.68-5.98-6.18-13.52-8.59-22.13-8.02-4.58.31-6.24-2.16-4.61-6.5.51-1.37,1.35-2.62,1.91-3.7-4.48-5.6-5.56-12.7-3.18-18.13,3.36-7.7,5.35-14.82,2.74-22.82-3.7-11.39-8.02-22.23-20.2-27.64-6.43-2.85-12.81-4.63-19.87-4.22-8.21.48-15.5,3.03-21.54,8.7-3.35,3.14-5.06,6.74-3.57,11.6.47,1.52-.53,3.64-1.25,5.32-.63,1.48-1.96,2.65-2.69,4.1-2.14,4.27-5.3,6.66-10.27,6.36-1.44-.09-2.92.29-4.93.51,5.91,5.72,14.08,7.33,16.94,15.03.1.27.95.19,1.26.47,1.35,1.27,3.9,2.89,3.68,3.86-.43,1.9-2.14,4.53-3.8,4.94-3.77.94-7.15,3.35-11.73,2.02-3.42-.99-7.52.33-12.57.71,8.77,6.39.87,10.24-.9,15.31,10.33-1.73,21.99,2.33,26.58-7.04-1.11-2.41-2.3-4.26-2.74-6.29-.19-.87.96-2.5,1.92-3.04,2.44-1.36,5.03-2.64,7.72-3.25,1.5-.34,3.61.34,4.88,1.31.62.47.46,3.1-.27,3.98-2.58,3.07-4.18,6.54-6.05,10.01-2.9,5.4-8.4,9.4-12.72,13.92-6.95-5.61-23.34-5.76-24.58-1.74,5.2,0,10.61-.14,16,.11,1.17.05,2.58,1.25,3.32,2.31.43.62.13,2.37-.48,3-2.95,3.04-6.11,5.87-8.81,8.41.48,2.07,1.26,3.88,1.22,5.67-.05,2.55.77,3.94,3.36,3.65,6-.68,12.18-.72,16.16-6.75,1.24-1.88,3.79-3.33,6.03-4.03,6.41-1.98,12.99-3.39,19.46-5.19,10.57-2.94,14.09.41,11.82,11.42-.17.81-.52,1.58-.74,2.38-2.47,9.08,6.16,17.72,16.52,15.02ZM297.47,745.92c9.61,3.33,18.57,6.34,27.45,9.56,5.71,2.07,11.26,4.58,16.97,6.63,2.89,1.04,5.97,1.92,9.01,2.1,3.73.22,5.15,2.14,5.87,5.39.33,1.51,1.18,2.91,1.78,4.36,1.08,2.61,2.87,5.16,3.06,7.84.44,6.19,5.61,12.09,11.69,13.41,5.74,1.25,10.63-.59,15.68-2.64,1.15-.47,2.66-.06,4-.05-.08,1.69.19,3.53-.38,5.03-.4,1.05-1.86,2.1-3.04,2.38-5.06,1.22-10.15,2.52-15.3,3.04-3.17.32-6.48-.72-11.24-1.35,3.16,10.85,6.14,21.12,9.27,31.89,5.8-2.91,10.35-5.76,15.28-7.5,4.83-1.7,10.3-3.7,15.06-2.93,5.26.85,10.04,4.7,15.04,7.21,9.52,4.78,19.03,9.58,28.59,14.28,1.74.85,3.67,1.31,5.52,1.93,6.41,2.13,12.83,4.25,20.12,6.66-16.65-26.86-24.85-54.58-21.85-85.63-1.47-.31-3.02-.89-4.59-.92-8.54-.16-17.26.99-25.1-3.86-.63-.39-1.64-.29-2.45-.23-11.39.93-20.84-2.72-28.08-11.74-.2-.24-.89-.09-1.74-.15.84,3.96,1.79,7.69,2.39,11.48.54,3.42,2.71,7.23-1.5,10.56-4.28-9.22-6.14-18.87-12.04-26.84-5.68-7.68-10.56-16.01-21-17.98-1.74,6.45-4.39,8.37-11.27,8.56-8.12.23-16.31.1-24.34,1.16-7.92,1.05-15.95,2.64-22.87,8.33ZM472.86,582.29c3.05-5.39,5.3-10.02,1.46-15.66-3.48-5.1-5.51-10.89-4.88-17.38.1-1.07-1.38-2.73-2.54-3.42-6.78-4-13.71-6.83-17.88-14.98-4.69-9.18-5.32-18.93-7.43-28.42-1.36-6.11-.36-12.81.04-19.22.96-15.16,2.25-30.29,3.22-45.45.09-1.39-.94-3.18-2-4.22-1.26-1.23-3.12-1.83-4.71-2.75-3.12-1.8-5.95-2.52-8.63.97-.93,1.21-2.69,2.23-4.21,2.48-9.59,1.58-19.19,3.85-28.83,4.09-11.95.3-23.94-1.16-36.28-1.88v23.72c5.12,2.24,6.06,6.85,5.61,12.46-.19,2.37.22,5.61,1.71,7.13,4.44,4.52,9.65,8.27,14.36,12.54,10.19,9.24,20.35,18.52,30.34,27.98,5.49,5.2,10.56,10.85,15.94,16.18,9.14,9.05,18.49,17.89,27.51,27.05,5.87,5.95,11.32,12.32,17.2,18.77ZM254.52,373.29c3.35-29.52,6.57-57.92,9.97-87.95-20.55,13.02-42.54,18.33-63.88,25.81,6.45,21.2,14.15,41.74,19.44,62.96-.62.21-1.23.42-1.85.62-9.85-20.56-19.7-41.12-29.82-62.25-18.41,27.28-24.45,56.94-21.22,89.41,9.13-1.75,17.56-3.13,25.88-5.02,8.97-2.04,17.73-5.25,26.78-6.67,7.89-1.24,12.73-6.08,17.15-11.55,4.41-5.45,8.77-9.59,17.56-5.36ZM297,394.76c3.85,2.33,7.38,4.4,10.82,6.59,2.29,1.45,3.53.43,4.77-1.48,5.58-8.63,11.93-16.85,16.64-25.94,3.6-6.95,9.43-6.65,14.78-6.1,3.4.35,4.84-.46,6.39-2.64,4.8-6.72,9.83-13.31,14.26-20.27,11.45-17.99,22.61-36.18,33.97-54.23,1.03-1.63,2.4-3.26,4.01-4.24,1.27-.77,3.14-.52,4.75-.73.1,1.83.91,4.06.16,5.42-1.84,3.31-4.49,6.15-6.67,9.28-11.62,16.7-23.25,33.4-34.77,50.17-4.81,7-9.35,14.19-14.02,21.29l1.46,1.35c3.42-3.15,7.49-5.84,10.14-9.54,7.01-9.81,13.59-19.95,20.02-30.17,9.96-15.81,19.65-31.8,29.5-47.78-3.36-2.79-6.57-5.24-9.52-7.98-4.99-4.62-9.74-9.51-14.77-14.08-1.49-1.35-3.55-2.19-5.48-2.93-2.62-1.01-5.33-1.91-8.08-2.43-1.14-.21-2.94.31-3.66,1.16-5.55,6.6-11.49,12.99-16.2,20.16-8.71,13.25-16.51,27.09-25.02,40.48-4.94,7.78-6.4,15.84-5.81,25.03.34,5.27-1.23,11.5-4.03,15.99-7.09,11.37-15.36,22-23.64,33.61ZM349.68,224.59c-.51.09-1.67.1-2.66.52-11.06,4.66-22.36,8.85-33.05,14.24-9.77,4.92-18.54,11.49-23.84,21.66-1.98,3.8-4.5,7.31-6.55,11.07-.64,1.17-.98,2.84-.71,4.12.94,4.37,2.1,8.69,3.37,12.97,6.17,20.66,12.37,41.32,18.65,61.95.75,2.46,2.03,4.76,3.2,7.46.81-.93,1.22-1.19,1.21-1.42-.05-.97,0-2.02-.38-2.89-3.81-8.98-.68-16.93,3.91-24.46,5.68-9.32,12.05-18.23,17.53-27.66,6.24-10.74,14.43-20.06,13.89-34.52-.54-14.19,3.42-28.55,5.44-43.04ZM159.82,403.46c1.39-15.55,1.65-30.88,4.4-45.75,2.75-14.87,7.99-29.29,12.12-43.83,0,0-.92-.03-1.44.41-3.92,3.27-7.25,3.01-11.57-.04-3.14-2.22-7.6-3.08-11.58-3.47-9.67-.96-18.1,3.3-26.05,8-3.65,2.16-7.8,5.46-9.15,9.17-3.63,10.02-1.14,20.5,1.99,30.08,3.11,9.54,8.53,18.34,13.1,27.37,3.86,7.64,10.79,12.7,16.44,18.83.6.65,2.02.93,2.99.81,3.07-.4,6.1-1.08,8.75-1.57ZM614.56,523.55c-8.7,1.43-16.6,2.85-24.54,4-14.27,2.08-28.51,4.5-42.85,5.85-18.81,1.78-37.7,2.78-56.58,3.85-3.76.21-5.48,2.04-5,5.13.75,4.84,2.1,9.64,3.68,14.29.98,2.88,2.87,5.46,4.86,9.08,7.76.49,16.62,1.66,25.43,1.42,9.86-.26,19.72-1.51,29.5-2.9,7.08-1.01,14.04-1.99,19.89-7.59,7.27-6.96,15.55-12.93,23.73-18.87,6.81-4.95,14.11-9.24,21.88-14.27ZM288.05,389.25c5.39-8.02,10.43-15.39,15.29-22.87.58-.9.6-2.46.32-3.58-1.6-6.49-3.22-12.98-5.12-19.38-2.14-7.22-4.35-14.43-6.97-21.48-2.23-5.99-5.03-11.77-7.67-17.6-2.86-6.31-5.84-12.56-9.19-19.76-6.41,15.38-15,75-15.87,87.35-.09,1.32,1.36,3.4,2.65,4.08,8.62,4.5,17.38,8.71,26.57,13.24ZM551.64,319.89c12.51-6.95,24.18-13.43,35.82-19.96.65-.37,1.37-1.15,1.5-1.85.98-5.46,1.88-10.93,2.71-16.42,1.08-7.17-1.48-13.68-4.02-20.12-4.42-11.22-10.47-21.34-20.25-28.83-3.9,2.63-9.3,2.56-10.38,8.48-3.3,18.02-6.9,35.98-10.24,53.99-.24,1.3.16,3.2,1.01,4.16,5.11,5.73,5.63,12.31,3.86,20.55ZM78.51,340.01c.7,12.02,1.79,22.73,6.19,32.64,2.86,6.43,6.76,12.41,10.46,18.43,2.09,3.39,1.98,6.22-.92,8.89-2.89,2.67-7.18,2.39-10.23-.57-1.96-1.9-3.68-4.82-5.99-5.42-3.67-.95-7.81-.82-11.61-.23-2.68.42-6.26,1.7-7.45,3.75-2.83,4.89-5.35,10.29-6.42,15.8-2.25,11.53,8.21,21.87,19.67,24.26,3.52.73,7.42.6,10.52,2.13,4.12,2.04,9.37,2.6,11.89,7.41.23.45,1.79.19,2.74.27-7.75-4.88-13.36-10.77-11.87-20.75,1.42-9.51,4.17-18.15,14.45-21.55-1.88-21.44-9.17-42.24-5.51-64.33-5.14-.24-10.18-.48-15.93-.74ZM945.88,644.64c3.03-6.51,6.42-12.38,8.55-18.68,3.34-9.86,3.37-20.14.77-30.19-1.21-4.68-3.48-9.14-5.62-13.52-3.25-6.67-10.89-8.36-15.56-13.22-3.82-3.97-7.93-4.56-12.56-5.14,8.12,26.87,16.15,53.41,24.41,80.75ZM294.65,775.34c-2.97-1.24-4.99-2.22-7.1-2.94-16.52-5.63-32.31-2.43-47.75,4.16-5.47,2.34-8.45,7.64-8.08,13.52.72,11.41,7.35,18.65,18.49,18.5,3.02-3.53,4.95-6.94,7.85-8.95,11.68-8.1,23.67-15.76,36.59-24.28ZM106.67,336.23c-6.22,3.42-4.72,8.68-5.22,13.24-1.57,14.27-.81,28.34,3.38,42.17,1.27,4.18,2.12,8.47,3.23,12.97,8.16,4.94,17.66,3.01,26.94,2.84,3.27-.06,2.79-1.72,1.26-3.91-3-4.32-5.85-8.75-8.51-13.29-3.65-6.25-7.38-12.5-10.5-19.02-3.1-6.48-5.86-13.18-8.04-20.01-1.48-4.63-1.69-9.66-2.55-14.99ZM299.01,815.92c-2.19-.42-2.53-.58-2.82-.53-15.32,2.96-29.85,8.05-43.12,16.35-1.62,1.01-3.3,2.56-4.03,4.26-3.9,9.07.69,18.59,10.3,21.09,3.62.94,7.61,1.46,11.24.9,1.51-.23,2.49-3.78,3.77-5.79.44-.69,1.12-1.23,1.59-1.92,7.54-11.21,15.07-22.43,23.08-34.37ZM222.98,521.21c-10.55,17.06-21.14,34.2-31.84,51.51,4.26,3.75,7.89,6.95,12.43,10.94,10.87-17.83,21.32-34.98,31.81-52.17-4.74-3.93-8.49-7.05-12.4-10.29ZM553.81,572.58c-9.22,0-17.1-.22-24.97.05-12.27.42-24.54,1.12-36.79,1.86-1.27.08-3.11.9-3.61,1.91-2.96,6.01-5.61,12.18-8.3,18.14,24.78-6.26,49.55-11.19,73.67-21.97ZM185.76,760.05c10.15,6.63,44.19,12.2,49.5,8.4-2.95-7.38-5.92-14.83-9.11-22.83-13.4,4.79-26.51,9.47-40.39,14.43ZM581.21,227.59c10.68,21.35,20.47,42.34,14.9,66.9,4.51-.88,5.09-4.24,5.34-7.47.68-8.73,1.76-17.51,1.5-26.23-.36-12.33-1.78-24.63-2.85-38.19-7.29,1.93-13.09,3.46-18.89,4.99ZM465.13,324.79c-4.32.63-8.89.45-12.69,2.07-4.28,1.83-9.29,4.46-11.45,8.2-3.77,6.53-5.6,14.18-8.24,21.37.61.23.97.51,1.18.42,10.33-4.27,20.69-8.5,30.93-12.98,1.17-.51,2.54-2.47,2.45-3.64-.43-5.1-1.38-10.15-2.17-15.44ZM410.2,245.85c-9.04-7.86-17.52-14.67-25.29-22.22-4.77-4.64-9.17-6.77-15.48-2.65,2.12,7.48,4.29,15.1,6.52,22.97,5.75-3.41,11.31-3.32,15.18.93,3.98,4.37,7.98,3.59,12.51,2.6,1.59-.35,3.16-.78,6.56-1.62ZM432.88,336.46c-4.47.42-9.18,1-13.91,1.26-7.28.4-5.5-5.93-6.62-10.09-3.59,2.44-5.02,4.96-3.9,9.07,2.32,8.53,4.17,17.2,6.19,25.71,2.02-.35,3.5-.56,4.95-.88,5.17-1.14,8.77-3.16,9.22-9.55.37-5.31,2.68-10.49,4.07-15.52ZM213.89,593.04c10.78-18.9,21.01-36.83,31.29-54.85-1.63-1.14-2.94-2.06-4.64-3.25-11.07,17.12-22,34.02-33.15,51.26,1.79,1.89,3.6,3.78,6.5,6.84ZM464.62,1448.52c6.73-19.47,13.39-38.74,20.05-58.02-1.77.88-2.66,2.25-3.83,3.32-7.93,7.19-12.72,16.24-15.33,26.43-1.77,6.9-2.59,14.05-4.44,20.92-1.07,3.96.42,5.76,3.56,7.35ZM393.57,347.37c-.32-11.7,9.6-17.85,14.75-26.5-6-3.12-7.34-2.75-10.69,2.34-3.54,5.39-7.4,10.57-10.87,16-5.02,7.83-9.81,15.81-14.72,23.76,5.48,2.35,7.84.07,10.43-3.46,3.3-4.5,7.53-8.31,11.1-12.15ZM359.84,222.79c-4.84,15.31-10.88,30.14-9.12,47.27,5.24-7.66,10.04-14.52,14.61-21.52.99-1.52,1.98-3.84,1.53-5.36-2.06-6.88-4.63-13.61-7.02-20.4ZM431.65,272.49c-3.64-4.76-7.02-9.26-10.53-13.65-.49-.62-1.68-1.09-2.47-.99-6.25.82-12.49,1.8-18.11,2.64,4.4,4.58,9.18,9.55,13.79,14.33,5.57-.75,11.44-1.54,17.32-2.33ZM530.1,255.11c-3.76,1.89-8.14,11.05-7.89,14.46.35,4.78.09,9.6.09,14.29,4.14,1.01,8.59,2.1,13.93,3.4-2.13-11.2-4.1-21.51-6.13-32.14ZM548.3,243.05c-2.74,1.52-4.49,2.17-5.81,3.31-1.45,1.25-3.54,2.93-3.55,4.45-.06,6.58.3,13.2.96,19.75.49,4.83,1.69,9.59,2.57,14.38.26-.04.52-.08.78-.12,1.64-13.54,3.28-27.07,5.06-41.77ZM389.94,367.41c4.51-.58,9.27-.97,13.91-1.94,1.08-.22,2.67-2.61,2.44-3.64-.99-4.37-2.58-8.61-3.55-11.64-4.05,5.45-8.34,11.22-12.8,17.22ZM337.31,376.81c-.78-.44-1.57-.88-2.35-1.31-6.14,9.29-12.33,18.55-18.29,27.96-.49.78.66,2.59,1.05,3.93.47-.12.94-.25,1.42-.37,6.06-10.07,12.11-20.13,18.17-30.2ZM404.83,312.95c4.89-.91,10.31,1.35,14.75-2.52-3.85-.98-6.96-1.78-10.67-2.73-1.16,1.49-2.62,3.36-4.08,5.24Z"/>
    <path d="M91.17,500.55c-5.11.06-6.64-1.35-6.8-6.28-.26-7.95,8.32-19.13,16.01-20.85,3.85-.86,8.86,4.06,8.93,8.75.13,9.23-8.78,18.26-18.13,18.37ZM97.99,481.34c-2.31,3.4-3.98,5.84-6.14,9.03,7.09.38,8.41-1.64,6.14-9.03Z"/>
    <path d="M612.07,284.84c-.76-1.63-2.13-3.24-2.19-4.9-.26-7.35-.19-14.72-.13-22.08.03-3.01-1.05-6.37,2.49-8.46,2.1-1.24,3.7-1.21,3.69,1.52-.02,6.45-.38,12.9-.56,19.34-.05,1.89.29,3.82.02,5.67-.38,2.55-1.18,5.04-1.8,7.55l-1.52,1.35Z"/>
    <path d="M617.28,134.28c-4.09-.55-6.58-1.06-9.09-1.19-4.37-.23-8.77-.09-13.13-.37-7.55-.48-15.08-1.48-22.63-1.68-14.04-.37-28.09-.36-42.13-.43-8.64-.04-17.28.1-25.93.09-3.41,0-5.44-1.68-3.38-4.95,7.35-11.67,13.31-24.34,26.09-31.84,9.76-5.73,19.34-6.82,30.28-4.31,16.25,3.73,28.58,13.65,40.85,23.8,5.29,4.38,9.96,9.51,14.77,14.45,1.39,1.43,2.27,3.36,4.29,6.43Z"/>
    <path d="M128.84,242.27c-7.69,5.07-15.38,10.14-23.07,15.2-.41-.37-.82-.74-1.24-1.12.15-1.55-.24-3.48.53-4.6,9.44-13.7,21.58-23.68,38.31-27.14,3.91-.81,7.1.69,9.06,3.79,2,3.16.57,6.18-1.46,9.18-6.32,9.34-15.19,15.61-24.88,20.74-11.18,5.92-22.5,11.61-33.99,16.87-4.53,2.07-9.7,2.74-14.58,4.04-1.37-5.28.88-8.38,6.13-9.58,16.71-3.83,30.45-13.26,43.83-23.35.99-.74,1.57-2.02,2.34-3.05-.33-.33-.66-.66-.98-.99Z"/>
    <path d="M261.37,255.39c0-1.55-.52-3.35.08-4.61,13-27.41,28.75-52.6,55.65-68.81,12.9-7.78,27.05-11.24,41.85-12.15,7.2-.44,14.49-.13,21.7.44,2.48.19,5.84,1.63,6.87,3.54.78,1.45-.84,5.51-2.56,6.67-2.05,1.37-5.41,1.41-8.09,1.1-8.1-.93-16.18-3.53-24.21-3.3-30.2.86-51.11,18.01-67.69,41.29-6.25,8.77-10.88,18.69-16.29,28.06-1.62,2.8-3.37,5.52-5.06,8.27-.75-.16-1.49-.32-2.24-.49Z"/>
    <path d="M735.57,319.91c-1.43,9.79-5.04,18.87-10.03,27.29-13.05,22.05-29.35,41.51-50.09,56.59-12.99,9.44-26.59,18.5-43.06,21.28-.81.14-1.69.61-2.41.43-1.18-.28-2.26-.97-3.39-1.49.63-1.05,1.03-2.67,1.95-3.05,2.26-.94,4.75-1.32,7.16-1.9,14.44-3.53,27.32-10.02,38.96-19.38,19.65-15.8,35.76-34.35,46.09-57.52,2.89-6.47,5.25-13.12,3.55-20.59-.85-3.75,2.97-8.43,6.81-8.5,4.45-.08,4.33,3.57,4.47,6.83Z"/>
    <path d="M262.55,236.13c2.74,3.47.32,6.61-.86,9.64-1.31,3.37-3.02,6.61-4.89,9.71-.88,1.46-2.55,2.46-3.86,3.66-.51-1.53-1.46-3.06-1.45-4.58.08-8.27,4.81-16.03,11.06-18.43Z"/>
    <path d="M1009.56,701.46c-.89-10.62,8.36-21.13,18.58-24.91,3.72-1.38,7.04-1.37,10.26.91,4.9,3.47,10.45,6.39,14.38,10.76,2.41,2.67,3.52,7.74,3.06,11.47-.68,5.61-2.92,11.12-5.07,16.45-4.89,12.15-20.5,13.29-28.79,9.22-9.64-4.73-12.81-12.62-12.43-23.89ZM1018.49,715.27c13.92,7.81,21.77,7.78,27.25.47,3.9-5.2,4.59-16.64,1.08-20.29-9.23,6.45-18.47,12.92-28.33,19.82ZM1017.63,710.11c8.24-6.24,16.41-12.43,25.1-19.02-3.98-2.94-6.88-5.41-10.1-7.33-1.4-.83-3.72-1.21-5.2-.66-8.6,3.19-14.8,16.95-9.81,27.01Z"/>
    <path d="M241.99,725.66c-.83,0-1.66-.05-2.49,0-2.69.18-5.7.82-5.75-3.35-.04-3.03,3.32-5.38,6.85-4.92,2.26.3,4.5.92,6.76.98,17.54.47,33.92-4.72,49.99-10.86,7.92-3.02,15.4-7.19,23.19-10.59,1.69-.74,3.84-.41,5.77-.57-.48,2.1-.28,5.28-1.58,6.11-4.36,2.79-9.03,5.52-13.97,6.87-20.36,5.6-40.85,10.73-61.32,15.91-2.38.6-4.97.4-7.46.57,0-.06,0-.12,0-.17Z"/>
  </g>
</svg>