<?xml version="1.0" encoding="UTF-8"?>
<svg xmlns="http://www.w3.org/2000/svg" viewBox="0 0 3000 2000">
  <defs>
    <style>
      .cls-1 {
        fill: #46515c;
      }

      .cls-2 {
        fill: #4c4847;
      }

      .cls-3 {
        fill: #f3af1e;
      }

      .cls-4 {
        fill: #69757e;
      }

      .cls-5 {
        fill: #74818a;
      }

      .cls-6 {
        fill: #d3c8c8;
      }

      .cls-7 {
        fill: #cecece;
      }

      .cls-8 {
        fill: #f1ae1e;
      }

      .cls-9 {
        fill: #174965;
      }

      .cls-10 {
        fill: #49515b;
      }

      .cls-11 {
        fill: #616e78;
      }

      .cls-12 {
        fill: #f1af1e;
      }

      .cls-13 {
        fill: #6e717a;
      }

      .cls-14 {
        fill: #fff;
      }

      .cls-15 {
        fill: #aea8a4;
      }

      .cls-16 {
        fill: #5f6c76;
      }

      .cls-17 {
        fill: #5e6c76;
      }

      .cls-18 {
        fill: #f7b11d;
      }

      .cls-19 {
        fill: #fbf9f9;
      }

      .cls-20 {
        fill: #4b4746;
      }

      .cls-21 {
        fill: #ba9e33;
      }

      .cls-22 {
        fill: #99a1a7;
      }

      .cls-23 {
        fill: #aea9a4;
      }

      .cls-24 {
        fill: #99a2a9;
      }

      .cls-25 {
        fill: #fab31c;
      }

      .cls-26 {
        fill: #98a1a8;
      }

      .cls-27 {
        fill: #d43052;
      }
    </style>
  </defs>
  <g id="BG_Outline">
    <path class="cls-14" d="M1724.42,679.57c11.87-.98,21.45-1.67,31-2.57,34.78-3.28,69.53-6.78,104.32-9.91,18.21-1.63,36.47-3.51,54.73-3.72,21.03-.25,41.68,3.84,62,9.24,2.88.77,5.81,1.64,8.46,2.97,13.05,6.52,22.2,15.83,21.83,31.65-.32,13.73-10.37,28.08-23.88,32.78-7.18,2.5-14.74,4.02-22.23,5.46-18.64,3.59-36.99,8.05-54.46,15.65-.82.36-1.5,1.05-3.87,2.76,10.24,3.26,19.03,7.04,28.21,8.78,21.23,4.01,42.66,6.93,63.98,10.48,6.87,1.14,13.92,2.12,20.39,4.5,18.33,6.74,28.04,28.4,21.55,46.79-4.88,13.82-15.32,20.68-29.29,22.14-13.54,1.42-27.17,2-40.76,2.91-12.87.85-25.56,2.71-38.34,5.59,6.53,6.26,12.9,11.59,18.34,17.74,10.61,11.99,11.71,25.54,5.12,39.96-6.45,14.12-17.85,20.36-32.85,19.65-10.26-.48-20.47-2.24-30.69-3.55-14.48-1.86-28.9-4.74-43.44-5.59-41.9-2.46-83.84-2.93-125.76.11-32.41,2.35-63.72,9.67-94.31,20.35-2.77.97-5.33,2.54-9.32,4.47,2.91,1.03,4.5,1.88,6.19,2.15,26.27,4.24,52.52,8.61,78.84,12.55,32.21,4.82,64.44,9.5,96.72,13.78,20.11,2.67,40.34,4.4,60.5,6.69,24.45,2.77,48.84,6.16,73.33,8.42,30.45,2.82,60.98,4.97,91.49,7.03,32.54,2.2,65.1,4.05,97.67,5.85,17.94.99,35.92,1.44,53.86,2.39,19.27,1.02,38.51,2.48,57.78,3.51,32.24,1.73,64.49,3.31,96.74,4.87,42.88,2.08,85.76,4.1,128.63,6.1,43.55,2.04,87.09,4.17,130.64,5.99,36.57,1.52,73.15,2.92,109.75,3.87,32.56.84,65.14.82,97.71,1.51,14.28.3,28.7.34,42.78,2.38,17.99,2.62,31.53,12.18,36.92,30.66,4.92,16.89-1.68,34.19-16.73,43.07-26.77,15.78-55.11,27.82-85.24,35.71-40.59,10.64-81.66,18.71-123.24,24.26-26.03,3.47-52.02,7.19-78.09,10.37-32.34,3.95-64.73,7.54-97.11,11.12-37.66,4.16-75.33,8.24-113.02,12.15-33.7,3.49-67.44,6.64-101.15,10.06-37.05,3.76-74.07,7.81-111.13,11.42-19.18,1.87-38.43,3.08-58.18,5.82,2.06.96,4.07,2.07,6.19,2.86,12.43,4.65,25.11,8.44,36.55,15.71,26.24,16.67,32.47,45.53,13.88,70.27-6.12,8.14-13.74,15.21-21.07,22.38-13.06,12.78-26.36,25.32-39.67,37.85-8,7.52-15.77,15.38-24.43,22.08-11.49,8.89-24.44,14.32-39.57,14.18-19.28-.17-38.57.53-57.85.89-11.91.22-23.82.5-35.47.74,1.24,12.04,3.19,23.2,3.4,34.39.61,33.3-22.08,63.22-53.75,74.07-16.59,5.69-33.51,7.19-50.19,4.77-11.47-1.66-22.24-8.18-33.29-12.6-1.2-.48-2.27-1.41-3.26-2.28-8.06-7.02-17.65-9.27-28.06-10.95-18.41-2.98-31.72-14.62-42.36-29.33-8.96-12.38-13.31-26.62-15.63-42.89-111.01,6.38-221.94,10.52-333,10.58-110.83.05-221.56-3.33-333.32-8.93.63,2.95.78,4.75,1.4,6.38,5.87,15.63,4.87,31.51.95,47.19-5.77,23.06-22.5,36.85-42.14,48.11-14.41,8.26-29.65,9.99-46.05,9.79-21.15-.26-41.48-3.14-59.21-14.67-11.99-7.79-24.73-13.91-37.04-20.95-29.94-17.14-41.49-49.34-32.17-82.42.7-2.5,1.53-4.96,2.58-8.33-17.87-1.72-35.06-3.28-52.22-5.05-26.78-2.76-53.55-5.69-80.33-8.45-5.95-.61-11.99-.53-17.92-1.28-9.2-1.16-18.42-2.36-27.48-4.28-7.02-1.49-12.84-5.79-17.07-11.53-6.1-8.29-11.96-16.78-17.3-25.57-2-3.3-4.05-5.53-7.53-7.25-13.78-6.84-19.85-19.35-16.89-33.74,2.63-12.79,13.51-21.69,27.75-23.25,3.03-.33,6.29-1.66,8.76-3.46,15.67-11.45,32.4-18.61,52.49-18.7,24.26-.11,48.51-2.26,72.76-3.47,4.98-.25,9.99-.05,14.97-.34,5.19-.31,10.36-.97,15.41-3.32-2.18,0-4.39-.21-6.55.03-33.59,3.85-67.1,2.18-100.52-1.82-16.45-1.97-32.84-4.66-49.15-7.59-6.82-1.23-13.7-3.21-19.95-6.16-7.37-3.47-14.74-3.92-22.37-2.75-34.77,5.32-69.53,5.74-104.37.57-20.71-3.08-41.5-5.65-62.23-8.55-3.27-.46-6.58-1.16-9.68-2.3-12.89-4.74-25.53-1.3-38.2.95-30.52,5.44-61.05,4.78-91.33-1.07-15.32-2.96-30.07-8.36-42.98-17.76-21.65-15.78-29.47-37.7-21.65-63.1,1.84-5.98,1.74-11.28.6-17.31-3.9-20.7-2.31-41.19,5.54-60.81,12.28-30.7,34.43-51.57,65.07-63.73,16.49-6.55,33.51-10.68,51.12-12.71,11.53-1.33,23.01-3.14,34.46-5.04,2.84-.47,5.7-1.76,8.17-3.29,25.47-15.77,53.48-25.16,82.18-32.75,16.37-4.33,32.94-7.88,49.32-12.19,3.62-.95,7.48-2.98,10.05-5.64,19.45-20.14,43.23-30.49,70.94-32.27,3.29-.21,6.83-.37,9.9.58,8.7,2.69,16.88.87,25.41-1.05,14.96-3.36,30.07-4.3,45.53-2.8,14.81,1.44,29.63,2.48,44.72,1.79,34.22-1.58,68.41-.77,102.58,3.81,25.79,3.46,51.29,7.53,76.34,14.62,4.95,1.4,10.59.91,15.86.55,15.27-1.06,30.52-2.43,45.76-3.81,21.85-1.97,43.7-4.04,65.55-6.09,1.65-.15,3.27-.5,6.68-1.03-3.16-1.7-4.86-2.97-6.78-3.6-29.82-9.82-58.11-23.17-85.64-38.05-9.22-4.98-17.89-11.67-25.36-19.05-14.24-14.07-17.47-31.85-12.58-50.81,1.88-7.29,5.37-14.37,9.24-20.89,6.87-11.55,17.66-17.37,31.07-15.93,13.9,1.49,22.85,9.91,27.19,23.18.6,1.85,1.25,3.68,1.79,5.27,1.2.18,1.93.53,2.43.32,68.71-27.38,139.47-48.62,210.37-69.29,63.24-18.44,126.29-37.91,190.29-53.29,91.49-21.99,182.29-47.3,275.4-62.18,17.41-2.78,34.8-5.83,52.28-8.12,6.13-.8,12.88-.95,18.71.77,22.22,6.56,29.57,35.31,13.92,52.86-1.96,2.19-4.25,4.08-8.37,7.99ZM1905.71,1252.95c-1.23,3.38-2.61,7.2-4.49,12.36,9.82.01,13.21-6.39,18.75-12.36h-14.27Z"/>
  </g>
  <g id="Flats">
    <path class="cls-7" d="M975.32,845.47c3.12-2.29,5.92-5.47,9.41-6.72,35.66-12.73,71.37-25.31,107.19-37.57,17.28-5.91,34.75-11.3,52.27-16.46,38.52-11.35,77.09-22.51,115.69-33.55,34.77-9.94,69.53-19.96,104.47-29.28,22.4-5.97,45.18-10.51,67.7-16.07,31.24-7.71,62.22-16.53,93.62-23.47,41.39-9.14,83.06-17.09,124.67-25.2,18.51-3.61,37.18-6.41,55.79-9.49,1.16-.19,2.45.39,5.57.94-2.8,2.22-4.17,3.97-5.94,4.6-8.43,3.01-17.13,5.3-25.43,8.61-18.29,7.29-35.54,16.52-50.56,29.49-4.02,3.47-8.39,6.61-11.99,10.46-5.28,5.65-4.07,11.02,2.84,14.23,2.7,1.25,5.61,2.73,8.47,2.82,14.14.45,28.16,2.87,42.47.08,14.25-2.78,28.82-3.92,43.27-5.66,15.76-1.89,31.54-3.7,47.32-5.44,8.56-.94,17.14-1.61,25.7-2.51,10.85-1.14,21.69-2.45,32.55-3.57,8.57-.89,17.15-1.64,25.73-2.38,16.17-1.39,32.33-3.02,48.52-4.01,19.97-1.21,39.8.37,59.36,4.73,4.53,1.01,9.06,2,13.55,3.16,3.11.81,5.62,2.28,4.3,7.4-10.4,2.13-21.39,3.81-32.06,6.68-19.83,5.33-39.93,10.2-57.98,20.5-6,3.42-11.85,7.49-16.81,12.26-9.24,8.89-9.01,20.36.4,28.86,6.37,5.75,13.1,11.09,21.79,13.51,14.96,4.18,29.54,10.06,44.7,13.15,20.71,4.22,41.81,6.57,62.77,9.55,5.33.76,10.55,1.17,12.11,8.69-4.18,1.11-7.86,2.68-11.64,2.99-12.22.99-24.5,1.29-36.73,2.25-21.88,1.72-43.52,4.77-63.74,14-23.35,10.66-17.67,27.12-3.47,40.6,5.54,5.26,13.68,7.86,20.76,11.42,7.68,3.86,10.37,7.73,9.66,15.16-8.97,2.41-17.59-.95-26.32-2.1-10.79-1.42-21.46-4.22-32.28-4.84-22.87-1.33-45.79-1.91-68.7-2.28-20.47-.33-40.98-.64-61.41.29-16.49.74-32.99,2.7-49.3,5.3-15.34,2.45-30.56,5.96-45.6,9.9-15.36,4.02-30.02,9.95-44.52,16.7-16.7,7.78-32.34,16.94-46.84,28.09-5.19,3.99-9.32,9.36-13.93,14.1-6.74-1.77-11.98.08-16.64,5.49-5.81,6.74-12.35,12.86-19.91,20.62-22.71-1.36-47.07-2.83-71.44-4.26-23.78-1.4-47.55-3.13-71.35-4.03-29.42-1.11-58.87-1.37-88.29-2.31-8.91-.29-17.86-1.23-26.66-2.68-4.83-.8-10.92-1.48-10.79-8.91,3.84-2.88,7.34-6.46,11.58-8.51,21.21-10.29,42.43-20.61,64-30.11,27.02-11.9,54.32-23.17,81.66-34.32,4.08-1.66,9.04-1.72,13.57-1.6,9.14.24,17.58-1.82,24.99-5.28,1.55-5.66,2.75-10.44,4.17-15.15,2.11-7.03,1.35-9.41-5.36-12.7-15.36-7.53-31.48-8.91-48.05-5.84-.31,2-.55,3.53-.84,5.4-1.77,0-3.43.21-5.03-.03-21.97-3.32-43.91-6.76-65.89-10.04-46.64-6.96-93.41-12.7-140.52-15.42-3.57-.21-7.98-.38-10.44-2.43-4.93-4.11-10.24-4.06-15.88-4-4.99.05-9.99.08-14.98-.09-10.66-.36-21.05-1.51-30.85-6.58-6.03-3.12-12.79-4.89-20.12-4.49,0,2.88-.96,5.98.16,7.23,5.9,6.62,11.27,14.83,18.78,18.67,16.52,8.45,34.22,14.9,52.88,16.95,18.47,2.03,37.08,2.81,55.63,4.12,11.27.8,22.64.88,33.8,2.5,30.23,4.37,60.26,10.35,91.03,9.66,1.68-.04,3.38.96,6.39,1.87-3.06,2.91-4.89,5.37-7.31,6.83-11.37,6.9-22.62,14.08-34.44,20.13-20.71,10.59-41.74,20.57-62.79,30.5-6.86,3.23-14.16,7.69-21.28,7.72-12.63.04-25.27-2.88-38.45-4.63,4.47-5.78,9.59-9.66,15.97-12.07,4.34-1.63,8.8-3.29,12.67-5.78,7.76-4.99,8.81-13.08,2.01-19.29-4.28-3.91-9.69-7.54-15.19-8.94-7.93-2.01-16.41-1.86-24.66-2.66-3.6-.35-7.36-.22-10.78-1.22-19.78-5.77-39.6-11.46-59.19-17.84-26.87-8.75-53.54-18.13-80.33-27.14-9.69-3.26-19.48-6.21-29.23-9.3Z"/>
    <path class="cls-17" d="M823.4,1236.57c-27.79,10.42-56.58,13.61-86.06,12.18-19.86-.96-39.75-1.54-59.59-2.7-5.83-.34-11.56-2.22-17.37-3.2-8.43-1.42-17.01-2.16-25.3-4.13-7.32-1.74-14.31-4.82-21.48-7.21-3.64-1.21-7.4-3.29-11.02-3.12-11.54.54-23.03,2-34.55,3.02-6.6.58-13.21,1.36-19.82,1.4-14.2.07-28.43.21-42.59-.59-13.87-.78-27.72-2.44-41.51-4.19-12.79-1.62-25.51-3.78-38.23-5.9-6.12-1.02-12.25-2.19-18.2-3.9-2.69-.77-4.95-3.02-6.52-4.03-19.9,3.1-39.14,7.03-58.58,8.86-20.65,1.95-41.3,1.05-61.57-5.22-9.2-2.84-18.09-5.93-26.06-11.17-12.35-8.12-15.2-20.82-7.21-33.55,3.3-5.26,4-9.59,1.74-15.47-7.61-19.82-6.38-39.5,2.79-58.6,9.64-20.06,24.93-34.08,45.8-41.92,14.96-5.62,30.18-9.7,46.33-10.52,8.5-.43,16.89-2.86,25.33-4.39.65-.12,1.39-.59,1.93-.42,10.32,3.32,17.22-3.09,24.96-8.12,15.97-10.37,33.73-16.96,51.84-22.54,12.34-3.8,24.65-7.81,37.16-10.93,14.77-3.69,29.71-6.73,44.66-9.61,4.26-.82,7.14-2.35,9.6-6,12.64-18.74,31.32-27.24,53.05-29.14,5.92-.52,12.32,1.88,18.15,3.94,3.8,1.34,6.48,1.15,10.21-.39,6.93-2.85,14.26-5.5,21.64-6.34,17.1-1.95,34.18-.36,51.22,2.1,6.18.89,12.6.12,18.91.03,13.71-.18,27.41-.59,41.12-.57,12.17.02,24.4-.17,36.5.92,34.68,3.13,69.38,6.38,102.45,18.56,2.32.86,5.1.74,7.65.66,5.6-.19,11.18-.66,16.77-1.02-3.43,3.61-5.13,7.39-3.01,12.59,1.48,3.62,2.28,7.7,2.43,11.61.17,4.5,2.75,6.85,5.44,9.93,4.49,5.14,8.08,11.12,11.68,16.97,3.99,6.49,5.69,13.89,7.71,21.16,5.4,19.48,10.51,38.98,9.62,59.48-.77,17.89-1.03,35.82-2.24,53.68-.6,8.85-2.81,17.58-4.29,26.37-5.56-.85-11.34-1.03-16.65-2.7-12.11-3.81-25.79-4.74-33.69-17.12-.8-1.26-3.9-2.35-5.09-1.77-1.72.84-3.84,3.35-3.72,5,.44,6.15-2.1,10.41-5.86,15.13-16.27,20.43-36.05,37-56.5,52.89Z"/>
    <path class="cls-27" d="M1868.51,1294.43c.95,1.4,1.81,3.92,2.88,4.02,5.58.48,11.23.69,16.81.35,7.5-.45,14.85-2.83,22.55-.46,2.06.63,5.03-.97,7.35-2.06,9.53-4.48,16.72-12.01,23.59-19.59,5.98-6.59,10.9-14.14,16.21-21.31.97-1.31,1.81-2.81,2.32-4.36,4.15-12.48,12.82-17.03,25.07-12.99,10.35,3.42,20.72,6.8,31.03,10.36,27.27,9.44,54.33,19.52,81.83,28.18,10.97,3.45,17.53,9.87,21.82,19.75,1.44,3.31,2.83,6.63,4.72,11.07-4.09,3.92-8.29,7.84-12.37,11.88-9.61,9.5-19.03,19.2-28.79,28.54-9.97,9.55-20.27,18.76-30.4,28.15-3.11,2.89-6.01,6.02-9.23,8.77-6.15,5.27-13.18,8.77-21.46,8.86-18.53.2-37.06-.05-55.58.44-23.8.62-47.59,1.71-71.37,2.74-7.56.33-15.1,1.15-22.64,1.74-11.28.03-22.56-.14-33.83.15-19.88.51-39.81.69-59.62,2.23-10.41.81-20.62,4.23-30.93,6.47-16.18,1.08-32.35,2.27-48.54,3.2-35.43,2.05-70.85,4.27-106.29,5.85-27.11,1.21-54.25,1.52-81.38,2.28-9.95.28-19.9.74-29.85,1.04-20.2.61-40.4,1.44-60.6,1.67-16.81.19-33.63-.48-50.45-.49-11.14,0-22.29.85-33.43.7-24.9-.34-49.79-1.14-74.69-1.63-11.9-.23-23.82-.02-35.72-.3-14.25-.33-28.5-.96-42.74-1.49-1.32-.05-2.64-.37-3.96-.41-27.53-1.02-55.06-1.97-82.59-3.04-18.87-.74-37.73-1.64-56.6-2.47-5.82-5.34-12.46-8.07-20.58-7.84-6.55.19-13.15-1.37-19.69-1.07-9.75.45-19.71-3.27-29.27,1.27-14.91.75-29.81,1.5-44.72,2.24-4.59-.22-9.19-.44-13.78-.66-5.96-1.47-11.86-3.76-17.9-4.28-34.34-2.96-68.73-5.25-103.06-8.28-24.71-2.18-49.34-5.34-74.04-7.73-15.46-1.49-31.02-2.02-46.47-3.62-7.89-.82-15.58-2.97-19.84-11.07-2-3.8-4.8-7.17-7.11-10.82-8.51-13.43-1.59-30.42,10.97-36.09,8.4-3.78,16.52-6.67,26.56-6.34,19.16.63,38.41-1.56,57.62-2.61,15.89-.87,31.8-1.65,47.67-2.77,6.73-.47,14.16.72,19.07-5.89,6.49,2.08,9.23,6.37,7.07,12.77,6.46,3.64,11.15-.8,17.23-3.04-1.16,3.42-1.88,5.53-3.14,9.23,15.34-4.88,29.05-9.24,42.76-13.6,1.49,2.07,2.27,3.54,3.4,4.67,9.65,9.73,21.59,12.64,34.48,9.63,4.17-.97,7.91-3.73,12.56-2.48,3.6,1.24,7.21,2.47,10.15,3.48,5.78-2.25,11.15-4.93,16.83-6.41,6.48-1.69,9.26,1.21,8.68,8.03-.14,1.63-.81,3.2-1.15,4.82-1.24,5.88-2.44,11.77-3.98,19.22,3.83-2.14,6.19-3.23,8.31-4.68,5.45-3.73,10.62-7.89,16.24-11.33,4.04-2.47,8.46-3.73,12.85.19,4.24,3.79,3.79,7.84,2.03,12.57-3.18,8.51-2.81,17.16-.66,27.4,2.21-2.48,3.58-3.71,4.57-5.19,5.13-7.72,9.94-15.66,15.29-23.22,4.48-6.33,8.41-8,14.37-5.14,4.52,2.17,8.09,1.14,12.27,0,5.07-1.39,10.32-2.13,15.5-3.12,6.54-1.25,14.61-.05,15.38-10.23.08-1.06,2.34-2.56,3.77-2.8,6.04-1.04,11.7-3.88,18.4-1.21,4.67,1.86,10.33,1.64,15.55,1.58,8.13-.09,16.31-.38,24.36-1.39,17.71-2.23,35.38-4.79,52.24-11.19,11.85-4.5,23.99-7.69,36.88-6.18,1.9.93,3.76,2.58,5.7,2.68,9.93.48,19.88.63,29.83.77,16.83.22,33.66.31,50.49.52,8.52.11,17.05.78,25.56.49,20.8-.72,41.58-1.86,62.36-2.84,6.63,1.08,13.27,2.17,20.56,3.36-1.37,2.16-2.81,4.45-5.13,8.1,5.65-.55,9.76-.78,13.82-1.37,7.15-1.05,14.54-1.5,21.35-3.68,11.94-3.8,13.44-3.18,12.65,8.65.92.14,1.89.51,2.8.41,17.22-1.85,34.23-7.29,51.85-2.68,2.37.62,5.16-.38,7.76-.63,4.04,4.49-1.97,8.65-.06,13.89,4.9-.78,10-1.91,15.16-2.32,4.79-.38,7.75-8.13,13.95-3.71-5.34,7.44-10.4,14.49-15.46,21.54,3.18,1.2,5.05.99,6.77.37,11.85-4.25,23.65-8.65,35.52-12.87,9.21-3.27,18.35-7.34,29.33-4.29-6.01,11.79-15.4,21.26-18.01,34.32,5.46-2.41,9.93-5.83,14.84-8.42,10.24-5.4,20.6-10.58,31.12-15.39,4.49-2.05,9.53-3.21,13.72,1.14-.54,2.42-1.03,4.61-1.78,7.98,8.62-.82,16.44-1.92,24.3-2.26,22.55-.97,45.12-1.6,67.67-2.46,3.95-.15,7.9-.68,11.83-1.17,11.79-1.47,23.69-2.38,35.32-4.69,12.58-2.5,25.53-4.71,35.43-14.27,7.39-7.14,15.3-13.76,22.36-21.19,7.67-8.08,17-12.41,27.61-14.63Z"/>
    <path class="cls-9" d="M944.91,1185.14c1.48-8.79,3.7-17.52,4.29-26.37,1.2-17.86,1.46-35.79,2.24-53.68.89-20.5-4.22-40-9.62-59.48-2.02-7.27-3.72-14.68-7.71-21.16-3.6-5.85-7.19-11.83-11.68-16.97-2.69-3.07-5.27-5.43-5.44-9.93-.15-3.91-.96-8-2.43-11.61-2.12-5.2-.42-8.98,3.01-12.59,15.15-1.4,30.3-2.78,45.45-4.2,17.77-1.67,35.55-3.24,53.3-5.08,23.36-2.43,46.69-5.1,70.04-7.63,4.93-.54,9.87-.94,14.81-1.41,3.38-.6,6.75-1.19,10.13-1.79,0,0,.16-.07.16-.07h25.71c-.44,3.82-.83,7.24-1.22,10.67-2.19,4.75-4.69,9.39-6.5,14.28-4.38,11.8-2.96,14.97,9.29,16.83,16.64,2.52,33.45,3.89,50.16,5.96,7.21.89,14.34,2.41,21.53,3.46,5.85.86,14.24-3.22,15.95-7.83,2.46-6.62-2.4-9.56-6.77-12.65-.26-.18-.42-.5-.63-.76,2.2-2.83,4.06-6.44,8.66-3.77-.13,7.43,5.96,8.11,10.79,8.91,8.8,1.45,17.75,2.39,26.66,2.68,29.43.95,58.87,1.2,88.29,2.31,23.8.9,47.57,2.63,71.35,4.03,24.36,1.43,48.72,2.9,71.44,4.26,7.56-7.76,14.1-13.88,19.91-20.62,4.66-5.41,9.9-7.26,16.64-5.49,11.45,2.79,22.82,5.94,34.36,8.27,12.17,2.45,24.5,4.13,36.77,6.11,30.09,4.87,60.18,9.73,90.27,14.6,10.71,1.73,21.39,3.7,32.13,5.15,15.04,2.04,30.14,3.72,45.21,5.51,17.39,2.06,34.79,4.02,52.17,6.1,10.47,1.25,20.94,2.54,31.38,4.01,3.25.46,6.4,1.56,9.6,2.37,3.06.95,6.12,1.9,10.07,3.12,1.6,3.86,3.46,8.35,5.31,12.83-2.78,1.19-4.76,2.05-6.93,2.98,2.75,7.73,5.07,14.97,7.89,22,6.96,17.35,9.64,35.77,13.55,53.85,2.3,10.61,2.84,21.61,4.17,32.43-.69,15.93-1.39,31.85-2.11,48.31,1.42.75,3.58,1.89,6,3.17-1.46,3.3-2.65,5.98-3.84,8.65-.72,1.83-1.43,3.67-2.15,5.5-5.22-.13-9.25,1.83-11.69,6.61-.72.59-1.45,1.18-2.17,1.77,0,0-.01.01-.01.01-4.48-.18-8.97-.36-14.01-.56,0-7.35.75-13.64-.13-19.7-3.72-25.74-16.05-46.6-39.15-58.93-13.54-7.23-28.61-11.9-43.39-16.43-17.7-5.42-35.7-10.04-53.8-13.92-13.86-2.97-28.04-5.44-42.16-5.99-19.42-.76-38.81-1.7-58.11,4.95-11.27,3.88-21.87,8.91-31.46,15.06-6.22,3.99-12.31,6.55-18.92,7.09-6.7.55-14.53,3.11-21.19-4.58,5.61-3.94,10.72-7.53,17.75-12.47-19.52-3.03-36.76-5.81-54.03-8.35-12.11-1.78-24.26-3.28-36.41-4.81-14.76-1.85-29.53-3.59-44.3-5.37-3.41-6.49-9.44-3.15-14.4-3.84-17.36-1.92-34.71-3.95-52.09-5.64-3.04-.29-6.22.91-9.33,1.42-3.66,0-7.34.22-10.98-.04-16.18-1.16-32.34-3.53-48.51-3.5-43.54.09-87.07-1.36-130.65,1.16-20.53,1.19-40.92,3.64-61.44,4.73-4.26.23-9.4.23-12.5,2.53-6.9,5.12-13.74,3.39-20.81,2.06-8.23-1.55-15.74-.64-22.45,4.95-2.22,1.85-5.05,3.46-7.84,4.05-8.55,1.82-16.2,5.07-23.45,10.15-19.38,13.58-32.88,31.32-40.54,53.67-1.13,3.29-.14,5.41,1.31,8.25,1.89,3.7,3.15,7.97,3.55,12.11.95,9.92,3.17,19.12,9.85,26.95,5.66,6.63,5.16,11.45-1.25,17.17-2.21,1.97-4.56,3.77-6.84,5.65-12.54,2.16-25.09,4.31-37.63,6.47-11.24.15-22.29-1.13-33.09-4.37-.84-.25-1.91.27-2.87.43,1.3-8.19,4.97-15.41,9.08-22.5,7.48-12.89,11.83-26.89,14.4-41.5ZM1382.36,1029.99c12.78,1.48,24.37,2.82,35.97,4.17.08.7.17,1.4.25,2.1-26.48,14.3-52.96,28.61-79.44,42.91,5.6.24,10.68-.92,15.83-1.52,14.44-1.68,28.5-6.73,43.38-4.52,6.87,1.02,14.13.43,20.7,2.32,12.16,3.51,19.77-3.74,29.22-9.61-12.71-3.15-25.02-1.77-37.93-6.09,24.87-13.69,48.26-26.58,73.21-40.32-2.85-.25-3.74-.46-4.61-.37-2.3.24-4.59.57-6.88.95-18.69,3.05-37.36,5.65-56.23,1.24-12.09-2.82-22.89.18-33.48,8.74ZM1390.18,1020.64c-.27-.71-.54-1.41-.81-2.12-13-1.15-25.86-4.08-39.18-3.63-4.29,17.73-8.38,34.61-12.41,51.28,13.08,4.37,21.22-3.54,30.85-8.28-2.22-1.22-3.9-2.13-6.15-3.36,1.84-8.46,3.66-16.82,5.16-23.67,8.33-3.78,15.44-7,22.55-10.22ZM1482.43,1082.12c1.53-17.65,3.03-34.88,4.5-51.7-11.77-4.5-18.57,2.89-26.82,7.05,6.49,4.41,6.55,5.57,2.22,26.9-7.64,3.95-14.78,7.65-21.93,11.34l.4,2.1c13.59,1.41,27.18,2.81,41.63,4.3Z"/>
    <path class="cls-16" d="M1898.7,1154.75c-1.33-10.82-1.87-21.82-4.17-32.43-3.92-18.08-6.59-36.51-13.55-53.85-2.82-7.03-5.14-14.27-7.89-22,2.18-.94,4.16-1.79,6.93-2.98-1.86-4.48-3.72-8.97-5.31-12.83-3.96-1.23-7.02-2.18-10.07-3.12,11.53,1.19,23.06,2.47,34.61,3.55,19.63,1.83,39.25,3.71,58.9,5.23,27.79,2.16,55.58,4.27,83.41,5.9,22.77,1.34,45.61,1.66,68.39,2.93,25.8,1.44,51.55,3.64,77.35,5.13,23.88,1.38,47.79,2.17,71.67,3.42,27.1,1.42,54.19,3.21,81.3,4.55,14.84.73,29.72.66,44.56,1.35,14.8.69,29.57,2.04,44.36,2.8,19.88,1.03,39.77,1.8,59.66,2.62,32.76,1.36,65.57,1.91,98.26,4.22,35.79,2.52,71.6,3.2,107.44,3.83,21.82.38,43.63,1.52,65.45,1.87,20.56.33,41.13-.11,61.69.21,5.19.08,10.5,1.33,15.48,2.9,5.24,1.65,8.4,5.33,6.63,12.02-23.81,13.45-48.04,26.58-75.58,32.55-23.52,5.1-46.62,12.25-70.26,16.57-30.61,5.6-61.53,9.56-92.38,13.74-34.48,4.68-69.01,9.06-103.57,13.12-23.71,2.79-47.52,4.8-71.28,7.16-6.97-.08-13.95-.12-20.92-.25-34.86-.67-69.72-1.29-104.57-2.08-20.89-.48-41.79-1.11-62.67-1.93-31.14-1.22-62.27-2.68-93.4-4.02-17.56-.76-35.12-1.49-52.68-2.24-1-.04-1.99-.1-2.98-.18-15.5-1.22-31-2.53-46.51-3.63-19.82-1.41-39.63-3.34-59.48-3.8-29.58-.68-59.19-.28-88.78-.34Z"/>
    <path class="cls-17" d="M1443.42,1104.77c14.77,1.79,29.54,3.52,44.3,5.37,12.15,1.52,24.3,3.03,36.41,4.81,17.27,2.54,34.51,5.32,54.03,8.35-7.02,4.94-12.14,8.53-17.75,12.47,6.65,7.69,14.49,5.13,21.19,4.58,6.61-.54,12.69-3.1,18.92-7.09,9.59-6.15,20.19-11.18,31.46-15.06,19.3-6.65,38.69-5.7,58.11-4.95,14.12.55,28.3,3.02,42.16,5.99,18.1,3.88,36.1,8.5,53.8,13.92,14.78,4.53,29.85,9.2,43.39,16.43,23.11,12.33,35.44,33.19,39.15,58.93.88,6.06.13,12.35.13,19.7,5.04.2,9.52.38,14.01.56-4.17,8.81-9.77,16.94-11.83,26.75-1.88,8.93-4.2,17.58.96,26.39,2.74,4.68-.36,8.83-3.36,12.52-10.61,2.22-19.94,6.55-27.61,14.63-7.06,7.44-14.97,14.06-22.36,21.19-9.9,9.57-22.85,11.77-35.43,14.27-11.63,2.31-23.53,3.22-35.32,4.69-3.93.49-7.88,1.02-11.83,1.17-22.56.86-45.12,1.49-67.67,2.46-7.86.34-15.68,1.43-24.3,2.26.75-3.37,1.24-5.56,1.78-7.98-4.19-4.35-9.23-3.19-13.72-1.14-10.52,4.81-20.89,9.99-31.12,15.39-4.91,2.59-9.38,6-14.84,8.42,2.62-13.06,12-22.53,18.01-34.32-10.98-3.05-20.12,1.02-29.33,4.29-11.87,4.21-23.66,8.62-35.52,12.87-1.72.62-3.58.83-6.77-.37,5.06-7.05,10.12-14.1,15.46-21.54-6.2-4.42-9.16,3.33-13.95,3.71-5.16.41-10.26,1.54-15.16,2.32-1.91-5.24,4.1-9.4.06-13.89,3.21-3.58,6.61-7,9.54-10.78,1.87-2.42,3.05-5.37,4.53-8.08,4.69-4.58,10.26-6.91,16.87-7.44,3.56-.28,7.9-.82,10.34-2.99,7.05-6.28,15.83-8.55,24.24-11.21,7.34-2.32,15.78-4.96,22.96-.13,7.51,5.05,15.68,8.32,23.73,12.14,12.05,5.71,23.21,3.7,32.02-7.71-5.35-4.23-10.11-10.27-16.23-12.4-17.65-6.16-30.01-20.48-47.08-27.75,1.6-1.36,2.55-2.16,3.18-2.7-6.03-8.31-12.32-16.37-17.9-24.9-3.13-4.78-6.7-6.86-12.36-6.18-8.22.99-16.59.99-24.71,2.44-20.61,3.68-41.09,1-61.47-1.14-21.69-2.28-43.21-6.11-64.8-9.26-.05-2.3-.51-4.68-.09-6.9,5.79-30.65,7.79-61.59,7.65-92.72,4.7-.12,9.4-.25,14.1-.38Z"/>
    <path class="cls-11" d="M1227.64,979.34c-4.6-2.67-6.46.94-8.66,3.77-.68-.66-1.69-1.18-2.01-1.99-7.85-20.02-24.09-25.65-43.69-25.6-2.28,0-4.88.37-6.77-.56-7.96-3.91-14.7-1.43-21.32,3.14-2.98,2.06-6.16,3.83-9.25,5.73.39-3.42.78-6.85,1.22-10.67h-25.71c9.63-6.77,19.25-13.54,29.91-21.04-25.4-7.93-49.52-15.02-73.34-23.01-24.21-8.12-48.38-16.47-72.07-25.96-15.97-6.4-31.27-14.59-46.48-22.69-5.73-3.05-11.07-7.5-15.41-12.37-8.77-9.85-7.09-24.48,3.81-35.06,3.28,21.77,19.1,28.63,37.45,32.45,9.75,3.09,19.54,6.04,29.23,9.3,26.79,9.01,53.46,18.39,80.33,27.14,19.59,6.38,39.41,12.07,59.19,17.84,3.42,1,7.17.87,10.78,1.22,8.24.8,16.72.65,24.66,2.66,5.5,1.39,10.91,5.03,15.19,8.94,6.8,6.21,5.74,14.29-2.01,19.29-3.87,2.49-8.33,4.14-12.67,5.78-6.39,2.4-11.5,6.29-15.97,12.07,13.19,1.75,25.82,4.67,38.45,4.63,7.11-.02,14.42-4.48,21.28-7.72,21.04-9.92,42.08-19.9,62.79-30.5,11.82-6.05,23.07-13.23,34.44-20.13,2.42-1.47,4.25-3.92,7.31-6.83-3-.91-4.71-1.91-6.39-1.87-30.77.69-60.8-5.29-91.03-9.66-11.15-1.61-22.53-1.7-33.8-2.5-18.55-1.31-37.16-2.09-55.63-4.12-18.65-2.05-36.36-8.51-52.88-16.95-7.51-3.84-12.88-12.05-18.78-18.67-1.12-1.25-.16-4.36-.16-7.23,7.32-.4,14.08,1.37,20.12,4.49,9.8,5.07,20.2,6.21,30.85,6.58,4.99.17,9.99.13,14.98.09,5.64-.06,10.95-.11,15.88,4,2.46,2.05,6.87,2.22,10.44,2.43,47.11,2.72,93.88,8.46,140.52,15.42,21.97,3.28,43.92,6.73,65.89,10.04,1.6.24,3.27.03,5.03.03.29-1.88.53-3.4.84-5.4,16.58-3.06,32.7-1.69,48.05,5.84,6.71,3.29,7.47,5.67,5.36,12.7-1.41,4.71-2.62,9.49-4.17,15.15-7.41,3.46-15.85,5.52-24.99,5.28-4.53-.12-9.49-.07-13.57,1.6-27.34,11.15-54.64,22.42-81.66,34.32-21.57,9.5-42.79,19.82-64,30.11-4.24,2.06-7.74,5.64-11.58,8.51Z"/>
    <path class="cls-24" d="M1898.7,1154.75c29.6.06,59.2-.35,88.78.34,19.84.46,39.66,2.39,59.48,3.8,15.51,1.1,31.01,2.42,46.51,3.63.99.08,1.99.14,2.98.18,17.56.75,35.12,1.48,52.68,2.24,31.13,1.34,62.26,2.8,93.4,4.02,20.88.82,41.77,1.45,62.67,1.93,34.85.8,69.71,1.41,104.57,2.08,6.97.13,13.95.17,20.92.25-6.77,1.08-13.52,2.42-20.32,3.17-18.68,2.05-37.37,3.95-56.08,5.72-11.75,1.11-23.55,1.71-35.31,2.81-12.83,1.21-25.63,2.8-38.46,4.11-19.44,2-38.89,3.85-58.32,5.86-17.03,1.76-34.03,3.72-51.06,5.46-9.56.98-19.15,1.66-28.72,2.53-19.45,1.75-38.89,3.55-58.34,5.29-16.14,1.45-32.3,2.77-48.43,4.3-20.43,1.94-40.83,4.07-61.26,6-3.29.31-6.64,0-9.96-.03-3.15-.57-6.3-1.59-9.45-1.63-15.61-.17-31.22.02-46.83-.16-3.13-.04-6.25-1.16-9.38-1.78,1.19-2.68,2.37-5.35,3.84-8.65-2.43-1.28-4.59-2.42-6-3.17.72-16.45,1.41-32.38,2.11-48.31Z"/>
    <path class="cls-15" d="M1748.47,1407.37c10.3-2.24,20.51-5.66,30.93-6.47,19.81-1.55,39.74-1.72,59.62-2.23,11.27-.29,22.55-.12,33.83-.15-4.15.61-8.29,1.35-12.47,1.79-4.22.44-8.46.59-14.31.96,1.89,2.52,2.63,4.57,3.87,4.95,2.49.75,5.25.58,7.9.8,23.49,1.93,41.04,20.58,42.92,44.34,1.03,13.04-.34,25.04-7.85,36.05-10.26,15.04-25.88,20.27-42.61,22.55-20.32,2.77-36.58-6.71-51.08-19.61-3.01-2.68-4.77-6.77-7.31-10.5-9.03,5.28-17.87,6.56-26.44,2.12-11.91-6.17-20.21-15.91-24.42-28.73-4.79-14.57-2.69-28.11,7.09-40.18,1.53-1.88,3.27-3.61.33-5.69ZM1845.98,1434.68c-16,10.25-20.08,17.18-18.98,31.37.65,8.43,6.18,13.07,14.52,12.32,9.1-.81,14.8-6.61,19.89-13.33,4.23-5.59,4.65-8.16.49-13.2-5-6.05-10.67-11.56-15.92-17.16Z"/>
    <path class="cls-23" d="M927.37,1406.88c14.91-.75,29.81-1.5,44.71-2.24,5.06,1.29,10.12,2.58,15.18,3.87-5.66-.08-11.31-.22-16.97-.24-7.77-.02-8.25.55-8.52,9.96,3.02.76,6.38,2.66,9.31,2.15,10.28-1.79,15.78,5.8,22.49,10.73,6.71,4.92,12.2,10.66,14.4,19.57,2.37,9.6,6.15,18.59,5.45,29-.78,11.45-4.64,20.96-13.76,27.45-8.57,6.09-18.08,10.87-27.2,16.2-.56.33-1.25.57-1.89.6-21.81,1.08-43.32.53-62.47-12.07-2.21-1.45-4.8-2.77-6.25-4.83-4.6-6.53-11.86-8.01-18.59-10.3-17.99-6.11-28.25-18.92-29.22-37.33-.78-14.62,5.98-27.16,18.7-35.41,11.21-7.27,23.41-10.73,37.87-7.07.88-2.77,1.73-5.47,2.59-8.17,4.72-.62,9.44-1.24,14.16-1.86ZM953.89,1498.6c11.03.22,19.58-8.04,19.7-19.04.15-13.53-8.93-24.44-20.74-24.92-11.34-.46-23,10.92-23.23,22.68-.22,11.45,10.68,21.02,24.27,21.28Z"/>
    <path class="cls-1" d="M957.39,1253.08c12.54-2.16,25.09-4.31,37.63-6.47,1.78.71,3.51,1.6,5.35,2.08,8.91,2.36,17.99,4.16,26.73,7.03,11.01,3.62,21.8,7.96,32.57,12.26,4.13,1.65,7.96,4.06,12.53,6.44-5.35,9.88-12.97,14.88-21.73,18.18-24.96,9.4-50.12,7.23-75.1.19-5.74-1.62-10.92-2.14-16.35.22-5.47,2.38-11.27,4.22-16.36,7.23-9.46,5.6-18.59,11.81-21.24,23.67-4.65-1.25-8.39,1.51-12.56,2.48-12.89,3.01-24.83.1-34.48-9.63-1.13-1.13-1.91-2.6-3.4-4.67-13.7,4.36-27.42,8.72-42.76,13.6,1.26-3.7,1.98-5.81,3.14-9.23-6.08,2.24-10.77,6.68-17.23,3.04,2.15-6.4-.59-10.69-7.07-12.77,5.68-11.94,13.58-22.32,22.55-31.94,9.09-1.28,18.18-2.56,27.27-3.84,9.95,5.18,19.86,10.47,29.9,15.46,2.14,1.06,4.99,1.87,7.22,1.39,22.05-4.73,41.45-15.24,59.54-28.33,1.86-1.34,2.6-4.23,3.85-6.4Z"/>
    <path class="cls-26" d="M944.91,1185.14c-2.57,14.61-6.92,28.61-14.4,41.5-4.11,7.08-7.78,14.3-9.08,22.5-.56.55-1.11,1.11-1.67,1.66-.92.54-3.79-1-2.27,2.14-7.89,6.51-17.14,9.4-27.18,9.75-12.11.42-24.26.33-36.1-2.59-3.72-.92-7.14-3.1-10.69-4.7,3.31-3.07,1.15-5.89-.37-8.78-1.62-3.08-3.18-6.19-4.97-9.69-2.95-.21-6.59-.47-8.58,3.62-2.06-1.32-4.13-2.65-6.19-3.97,20.46-15.9,40.23-32.46,56.5-52.89,3.76-4.72,6.29-8.98,5.86-15.13-.12-1.65,2-4.16,3.72-5,1.18-.58,4.28.51,5.09,1.77,7.9,12.38,21.58,13.32,33.69,17.12,5.31,1.67,11.09,1.85,16.65,2.7Z"/>
    <path class="cls-6" d="M987.27,1408.51c-5.06-1.29-10.13-2.58-15.18-3.87,9.56-4.54,19.52-.83,29.28-1.27,6.53-.3,13.14,1.26,19.69,1.07,8.13-.23,14.76,2.5,20.58,7.84-15.47-1.14-30.93-2.3-46.4-3.42-2.65-.19-5.3-.24-7.96-.36Z"/>
    <path class="cls-4" d="M1898.76,1214.88c3.13.62,6.25,1.74,9.38,1.78,15.61.18,31.22,0,46.83.16,3.16.03,6.3,1.06,9.45,1.63-8.5.74-16.99,1.99-25.49,2.1-10.94.15-21.89-.69-32.84-.93-3.15-.07-6.32.49-9.48.76.72-1.83,1.43-3.67,2.15-5.5Z"/>
    <path class="cls-13" d="M856.88,1270.96c-9.09,1.28-18.18,2.56-27.27,3.84,9.46-11.92,15.62-12.79,27.27-3.84Z"/>
    <path class="cls-4" d="M829.59,1240.55c1.99-4.09,5.63-3.83,8.58-3.62,1.79,3.5,3.35,6.61,4.97,9.69,1.52,2.88,3.67,5.71.37,8.78-5.75-3.91-11.31-8-13.92-14.85Z"/>
    <path class="cls-13" d="M927.37,1406.88c-4.72.62-9.44,1.24-14.16,1.86.12-.84.25-1.67.37-2.51,4.59.22,9.19.44,13.78.66Z"/>
    <path class="cls-11" d="M1111.29,953.24c-3.38.6-6.75,1.19-10.13,1.79,3.38-.6,6.75-1.19,10.13-1.79Z"/>
    <path class="cls-9" d="M917.49,1252.93c-1.52-3.14,1.36-1.59,2.27-2.14-.76.71-1.52,1.42-2.27,2.14Z"/>
    <path class="cls-17" d="M1882.75,1228.76c.72-.59,1.45-1.18,2.17-1.77-.72.59-1.45,1.18-2.17,1.77Z"/>
    <path class="cls-17" d="M921.42,1323.91c2.64-11.85,11.78-18.07,21.24-23.67,5.1-3.02,10.89-4.85,16.36-7.23,5.43-2.36,10.61-1.83,16.35-.22,24.98,7.04,50.14,9.21,75.1-.19,8.76-3.3,16.38-8.29,21.73-18.18-4.57-2.38-8.4-4.79-12.53-6.44-10.77-4.3-21.56-8.64-32.57-12.26-8.73-2.87-17.82-4.67-26.73-7.03-1.84-.49-3.57-1.38-5.35-2.08,2.28-1.88,4.63-3.68,6.84-5.65,6.41-5.72,6.91-10.54,1.25-17.17-6.67-7.83-8.9-17.03-9.85-26.95-.39-4.13-1.66-8.41-3.55-12.11-1.45-2.84-2.44-4.97-1.31-8.25,7.66-22.35,21.16-40.09,40.54-53.67,7.25-5.08,14.9-8.33,23.45-10.15,2.79-.59,5.62-2.2,7.84-4.05,6.71-5.6,14.22-6.51,22.45-4.95,7.07,1.34,13.91,3.06,20.81-2.06,3.11-2.3,8.24-2.31,12.5-2.53,20.51-1.09,40.91-3.55,61.44-4.73,43.58-2.52,87.11-1.07,130.65-1.16,16.17-.03,32.33,2.34,48.51,3.5,3.64.26,7.32.04,10.98.04,1.51.29,3.02.57,4.67.88-.31,2.59-.92,4.55-.7,6.43,3.31,29.08.47,58.1-.84,87.13-.09,1.89-1.1,3.74-1.68,5.61-45.92,12.56-91.04,3.3-137.91-6.65,4.09,5.89,7,9.86,9.66,13.98,5.72,8.82,12.2,17.3,16.72,26.71,4.91,10.2,5.38,21.66,1.26,32.32-3.69,9.55-9.26,18.25-17.71,24.63-3.31,2.5-4.27,5.75-3.07,9.68-6.24,3.88-12.48,7.76-18.71,11.64-12.89-1.52-25.03,1.68-36.88,6.18-16.86,6.4-34.53,8.96-52.24,11.19-8.05,1.02-16.23,1.3-24.36,1.39-5.21.06-10.88.27-15.55-1.58-6.7-2.67-12.36.17-18.4,1.21-1.43.25-3.69,1.74-3.77,2.8-.77,10.19-8.85,8.98-15.38,10.23-5.18.99-10.43,1.73-15.5,3.12-4.18,1.15-7.75,2.18-12.27,0-5.95-2.86-9.89-1.19-14.37,5.14-5.35,7.56-10.16,15.5-15.29,23.22-.99,1.49-2.37,2.71-4.57,5.19-2.15-10.24-2.51-18.89.66-27.4,1.77-4.73,2.21-8.78-2.03-12.57-4.38-3.92-8.8-2.67-12.85-.19-5.62,3.44-10.79,7.61-16.24,11.33-2.12,1.45-4.48,2.54-8.31,4.68,1.54-7.45,2.74-13.34,3.98-19.22.34-1.62,1.01-3.19,1.15-4.82.58-6.81-2.2-9.71-8.68-8.03-5.68,1.48-11.04,4.15-16.83,6.41-2.95-1.01-6.55-2.25-10.15-3.48Z"/>
    <path class="cls-19" d="M1219.3,1309.1c6.24-3.88,12.48-7.76,18.71-11.64,6.67-.23,13.34-.45,20.02-.68,1.43.65,2.82,1.77,4.28,1.87,13.16.87,26.47.61,39.45,2.57,12.18,1.84,23.58.03,35.13-2.81,6.72-2.96,13.45-5.91,20.17-8.87,14.42,1.2,28.84,2.4,43.25,3.6,4.47.22,9.09,1.2,13.39.42,3.54-.64,6.39-1.06,9.1,1.52-8.64,7.5-16.69,16.12-29.57,15.63-20.79.97-41.57,2.11-62.36,2.84-8.5.3-17.04-.38-25.56-.49-16.83-.21-33.66-.3-50.49-.52-9.94-.13-19.89-.28-29.83-.77-1.94-.09-3.8-1.75-5.7-2.68Z"/>
    <path class="cls-10" d="M1393.24,1310.72c12.87.49,20.92-8.13,29.57-15.63.82-.89,1.63-1.78,2.45-2.67,4.72,1.5,9.37,3.25,14.17,4.45,30.77,7.7,62.02,9.27,93.55,7.13-1.49,2.72-2.66,5.67-4.53,8.09-2.93,3.79-6.34,7.21-9.54,10.78-2.6.25-5.39,1.25-7.76.63-17.61-4.61-34.62.83-51.85,2.68-.91.1-1.88-.26-2.8-.41.79-11.83-.71-12.45-12.65-8.65-6.82,2.17-14.2,2.63-21.35,3.68-4.06.59-8.17.83-13.82,1.37,2.31-3.65,3.76-5.94,5.13-8.1-7.29-1.19-13.92-2.27-20.56-3.36Z"/>
    <path class="cls-25" d="M1400.32,1293.14c-14.42-1.2-28.84-2.4-43.26-3.61.1-6.61-.6-13.34.47-19.78,1.95-11.66,5.53-23.06,7.37-34.74,2-12.65,2.81-25.49,4.14-38.25.58-1.87,1.59-3.72,1.68-5.61,1.32-29.03,4.15-58.05.84-87.13-.21-1.87.4-3.84.7-6.43-1.65-.31-3.16-.6-4.67-.88,3.11-.51,6.3-1.72,9.33-1.42,17.38,1.68,34.73,3.72,52.09,5.64l.29,4.21c.13,31.13-1.87,62.08-7.65,92.72-.42,2.22.04,4.6.09,6.9-2.8,16.17-5.6,32.34-8.38,48.52q-2.94,17.1,1.12,30.05c-4.73,3.27-9.45,6.53-14.18,9.8Z"/>
    <path class="cls-18" d="M1135.94,963.84c3.09-1.9,6.27-3.67,9.25-5.73,6.62-4.57,13.35-7.06,21.32-3.14,1.9.93,4.5.57,6.77.56,19.6-.05,35.84,5.58,43.69,25.6.31.8,1.32,1.33,2.01,1.99.21.26.37.58.63.76,4.38,3.09,9.23,6.03,6.77,12.65-1.71,4.61-10.1,8.69-15.95,7.83-7.19-1.05-14.32-2.56-21.53-3.46-16.71-2.07-33.52-3.44-50.16-5.96-12.25-1.85-13.67-5.02-9.29-16.83,1.81-4.89,4.31-9.52,6.5-14.28Z"/>
    <path class="cls-8" d="M1382.36,1029.99c10.59-8.57,21.39-11.57,33.48-8.74,18.87,4.41,37.55,1.81,56.23-1.24,2.28-.37,4.58-.7,6.88-.95.86-.09,1.76.12,4.61.37-24.95,13.74-48.35,26.63-73.21,40.32,12.91,4.32,25.22,2.95,37.93,6.09-9.46,5.87-17.06,13.12-29.22,9.61-6.57-1.9-13.83-1.3-20.7-2.32-14.88-2.21-28.95,2.83-43.38,4.52-5.15.6-10.23,1.77-15.83,1.52,26.48-14.3,52.96-28.6,79.44-42.91-.08-.7-.17-1.4-.25-2.1-11.59-1.34-23.19-2.69-35.97-4.17Z"/>
    <path class="cls-3" d="M1390.18,1020.64c-7.11,3.22-14.21,6.44-22.55,10.22-1.49,6.85-3.31,15.21-5.16,23.67,2.25,1.23,3.92,2.14,6.15,3.36-9.63,4.73-17.77,12.64-30.85,8.28,4.03-16.67,8.12-33.55,12.41-51.28,13.32-.45,26.18,2.48,39.18,3.63.27.71.54,1.41.81,2.12Z"/>
    <path class="cls-12" d="M1482.43,1082.12c-14.45-1.49-28.04-2.9-41.63-4.3l-.4-2.1c7.15-3.7,14.3-7.4,21.93-11.34,4.33-21.34,4.27-22.49-2.22-26.9,8.25-4.16,15.05-11.55,26.82-7.05-1.46,16.82-2.96,34.05-4.5,51.7Z"/>
    <path class="cls-21" d="M1429.32,1105.15c-.1-1.4-.2-2.81-.29-4.21,4.95.69,10.99-2.65,14.4,3.84-4.7.12-9.4.25-14.1.37Z"/>
    <path class="cls-22" d="M1414.5,1283.34q-4.05-12.96-1.12-30.05c2.78-16.18,5.59-32.35,8.38-48.52,21.6,3.15,43.12,6.99,64.81,9.26,20.38,2.14,40.86,4.82,61.47,1.14,8.12-1.45,16.49-1.45,24.71-2.44,5.66-.68,9.23,1.4,12.36,6.18,5.59,8.52,11.87,16.59,17.9,24.9-.63.54-1.58,1.34-3.18,2.7,17.06,7.27,29.42,21.58,47.08,27.75,6.12,2.14,10.88,8.17,16.23,12.4-8.82,11.41-19.97,13.42-32.02,7.71-8.05-3.82-16.22-7.09-23.73-12.14-7.18-4.82-15.62-2.18-22.96.13-8.41,2.66-17.19,4.93-24.24,11.21-2.44,2.17-6.79,2.7-10.34,2.99-6.61.53-12.17,2.86-16.87,7.44-31.53,2.13-62.78.57-93.55-7.13-4.79-1.2-9.45-2.95-14.17-4.45-3.59-3.02-7.17-6.05-10.76-9.08Z"/>
    <path class="cls-2" d="M1845.98,1434.68c5.25,5.6,10.92,11.11,15.92,17.16,4.16,5.04,3.74,7.61-.49,13.2-5.09,6.73-10.79,12.53-19.89,13.33-8.34.74-13.87-3.89-14.52-12.32-1.1-14.19,2.98-21.12,18.98-31.37Z"/>
    <path class="cls-20" d="M953.89,1498.6c-13.59-.27-24.5-9.83-24.27-21.28.23-11.77,11.88-23.14,23.23-22.68,11.81.48,20.89,11.39,20.74,24.92-.12,11-8.67,19.26-19.7,19.04Z"/>
    <path class="cls-22" d="M1369.05,1196.77c-1.33,12.76-2.14,25.6-4.14,38.25-1.85,11.67-5.42,23.07-7.37,34.74-1.08,6.44-.37,13.18-.47,19.78-6.72,2.96-13.45,5.92-20.17,8.87-2.82-.54-5.63-1.54-8.45-1.55-23.47-.13-46.94-.08-70.41-.08-6.67.22-13.35.45-20.02.68-1.2-3.93-.24-7.19,3.07-9.68,8.45-6.38,14.02-15.08,17.71-24.63,4.12-10.67,3.64-22.12-1.26-32.32-4.52-9.41-11-17.89-16.72-26.71-2.67-4.12-5.58-8.09-9.66-13.98,46.88,9.94,91.99,19.21,137.91,6.65Z"/>
    <path class="cls-5" d="M1258.03,1296.78c23.47,0,46.94-.05,70.41.08,2.82.02,5.63,1.01,8.45,1.55-11.55,2.83-22.96,4.64-35.14,2.81-12.98-1.96-26.29-1.7-39.45-2.57-1.46-.1-2.86-1.22-4.28-1.87Z"/>
    <path class="cls-11" d="M1414.5,1283.34c3.58,3.03,7.17,6.05,10.76,9.08-.82.89-1.63,1.78-2.45,2.66-2.71-2.58-5.56-2.16-9.1-1.52-4.3.78-8.92-.2-13.39-.42,4.73-3.27,9.46-6.54,14.19-9.8Z"/>
  </g>
  <g id="Lineart">
    <path d="M1868.92,1296.71c7.03,2.44,13.14,2.05,19.42,1.5,7.2-.63,14.49-.32,21.71-.86,2.8-.21,5.9-1.03,8.21-2.56,18.29-12.11,33.81-26.7,41.65-47.95,3-8.15,13.91-13.16,23.31-10.36,11.45,3.4,22.78,7.22,34.07,11.12,27.96,9.64,55.91,19.3,83.75,29.27,6.2,2.22,12.19,5.3,17.8,8.76,9.73,6.01,11.52,15.7,4.25,24.55-5.61,6.83-12.17,12.9-18.44,19.18-7.71,7.73-15.4,15.49-23.38,22.93-8.93,8.33-18.17,16.33-27.28,24.47-2.71,2.42-5.63,4.65-8.11,7.28-6.98,7.41-15.22,10.67-25.6,10.54-18.94-.24-37.9.36-56.84.94-22.21.68-44.42,1.46-66.61,2.68-15.81.87-31.58,2.54-49.32,4.02,4.95,3.95,8.76,4.49,12.56,4.39,12.91-.35,22.59,6.24,29.65,15.76,13.31,17.96,17.17,37.9,7.87,59.06-4.13,9.39-11.26,16.39-20.27,21.31-13.66,7.45-28.54,8.92-43.61,7.48-5.36-.51-10.64-3.45-15.61-5.96-10.62-5.35-21.57-10.5-25.5-23.85-10.35,6.23-20.31,6.34-29.48,1.48-10.2-5.4-17.3-14.29-21.79-25.01-6.76-16.13-5.11-31.09,6.44-44.61.6-.7.88-1.66,2.05-3.95-262.54,19.03-524.11,17.7-785.79.01-1.11,3.62-1.95,6.37-2.91,9.5,3.72.78,7.25,2.65,10.05,1.88,7.72-2.14,12.3,2.72,17.8,6.19,15.95,10.06,22.78,25.79,25.37,43.18,3.18,21.27-6.84,38.22-26.52,48-25.46,12.66-50.71,9.66-75.6-1.75-4.09-1.88-8.32-4.57-11.07-8.01-4.75-5.95-11.35-7.93-17.86-9.59-15.7-4.01-31.25-21.55-30.3-40.66.89-17.95,13.59-35.26,32.07-40.05,7.84-2.03,16.26-1.86,25.82-2.84.1-1.73.31-5.1.57-9.58-17.64-1.34-34.8-2.54-51.93-3.96-19.55-1.63-39.08-3.41-58.61-5.22-23.81-2.21-47.62-4.42-71.42-6.8-14.53-1.45-29.02-3.23-43.54-4.83-7.54-.83-15.18-1.13-22.6-2.57-3.22-.62-6.77-2.89-8.84-5.47-4.34-5.41-8.21-11.31-11.52-17.41-7.34-13.53,1.96-30.83,12.91-35.28,9.02-3.67,17.72-6.13,27.78-6.28,25.93-.39,51.83-2.37,77.75-3.74,10.96-.58,21.92-1.61,32.89-1.7,6.59-.06,10.07-3.23,13.39-8.35,6.12-9.47,12.71-18.66,19.53-27.65,2.54-3.35,5.98-6.25,9.53-8.57,5.47-3.59,11.2-3.18,16.97.1,10.68,6.08,21.43,12.04,32.36,17.66,2.71,1.4,6.44,2.41,9.27,1.75,22.41-5.2,42.05-16.03,59.92-31.89-3.71-.22-7.44-.3-11.13-.7-2.64-.28-5.29-.78-7.83-1.55-7.8-2.37-14.7-.95-21.51,3.57-12.26,8.14-26.03,9.29-40.24,7.45-5.24-.68-10.47-1.54-15.74-2-13.54-1.17-23.36-7.84-29.98-19.56-.8-1.42-2.06-2.57-3.36-4.16-22.75,7.37-46.12,12.47-70.14,12.95-17.58.35-35.19-.62-52.78-1.35-10.59-.44-21.26-.89-31.71-2.52-15.61-2.44-31.06-5.88-46.54-9.06-2.57-.53-5.46-1.34-7.35-2.99-10.84-9.51-23.56-5.85-35.17-4.06-25.45,3.94-50.84,5.49-76.38,2.59-27.02-3.06-54.08-6.08-80.86-10.66-7.65-1.31-16.61-.23-23.42-6.53-1.54-1.43-5.68-.5-8.52-.02-17.03,2.83-33.94,7.35-51.07,8.4-21.11,1.3-42.36.57-63.06-6.11-8.58-2.77-16.72-5.79-24.13-10.81-12.35-8.35-15.36-19.32-8.88-32.68,1.59-3.28,3.49-6.41,5.39-9.85-6.89-16.61-9.32-33.77-4.86-51.45,6.72-26.67,23.2-45.11,48.28-55.89,15.34-6.59,31.45-10.33,48.1-12.05,9.17-.95,18.27-4.09,27.36-3.89,9.91.22,17.6-2.51,25.6-8.16,15.03-10.63,32.42-16.7,49.8-22.45,28.09-9.29,56.83-16.08,85.88-21.53,3.72-.7,5.76-2.41,7.74-5.32,12.49-18.28,30.33-27.54,52.03-28.98,6.75-.45,13.67,1.94,20.54,2.85,2.78.37,6.05,1.25,8.35.22,17.3-7.72,35.1-8.06,53.63-6.1,17.71,1.87,35.59,1.33,53.48.98,29.45-.57,58.99-1.3,88.4,3.61,20.61,3.45,41.55,4.97,61.75,10.8,3.51,1.01,7.17,1.65,10.5,3.09,5.57,2.4,10.82,3.14,17.15,2.33,15.07-1.95,30.38-1.96,45.53-3.46,30.69-3.04,61.31-6.74,91.99-9.82,30.08-3.02,60.23-5.42,90.3-8.5,6.81-.7,13.58-2.71,20.13-4.85,12.04-3.94,24.09-4.56,36.38-1.76,11.26,2.56,21.68,2.04,32.36-3.93,22.91-12.81,46.49-24.44,69.74-36.64,3.18-1.67,6.08-3.85,11.25-7.17-7.43-1.35-12.64-2.47-17.9-3.21-22.99-3.24-45.96-6.62-68.99-9.45-20.46-2.51-41.03-4.06-61.49-6.59-20.81-2.57-41.62-6.07-60.05-16.69-8.18-4.71-15.23-11.61-22.11-18.23-2.6-2.5-4.06-6.89-4.64-10.63-1.04-6.71,3.39-9.99,9.83-7.73,4.69,1.65,9.23,3.72,13.83,5.63,15.71,6.51,32.28,8,48.96,7.29,7.5-.32,15.04-2.55,22.33-4.67,51.93-15.15,103.57-31.34,155.76-45.51,39.7-10.78,80.02-19.38,120.18-28.42,32.38-7.28,64.84-14.3,97.45-20.42,27.08-5.09,54.41-8.97,81.69-12.92,30.94-4.48,61.9-8.87,92.94-12.5,38.29-4.47,76.68-8.21,115.04-12.09,23.8-2.41,47.63-4.44,71.44-6.75,15.06-1.47,29.85,1.01,44.67,2.86,7.9.99,15.72,2.82,23.49,4.64,3.75.88,7.29,2.63,12.21,4.47-2.41,2.59-3.58,4.93-5.33,5.51-5.02,1.66-10.23,2.89-15.45,3.79-25.98,4.47-51.28,11.17-74.43,24.09-6.82,3.81-13.13,9.09-18.51,14.79-6.16,6.53-5.38,17.53,1.52,23.25,6.07,5.02,12.82,9.71,20.03,12.77,27.41,11.63,56.38,17.35,85.8,21.08,9.54,1.21,19.07,2.54,28.6,3.81,5.22.69,8.6,3.09,8.56,9.22-5.97,3.8-12.71,2.93-19.19,3.36-27.15,1.8-54.37,2.93-80.57,11.48-9.23,3.01-18.22,6.1-24.89,13.79-3.12,3.6-3.91,6.75-2.58,11.67,3.65,13.55,12.89,21.17,24.99,26.47,5.73,2.51,12.23,4,15.78,9.83,1.42,2.33,3.09,5.32,2.73,7.71-.56,3.64-4.33,3.55-7.36,3.18-7.91-.95-15.79-2.25-23.72-3.07-20.76-2.17-41.51-4.55-62.31-6.1-14.58-1.09-29.25-1.21-43.88-1.31-41.61-.29-83.13.7-124.02,9.76-36.98,8.2-71.83,21.53-103.58,42.49-9.14,6.03-17,13.4-25.6,22.31,12.38,2.51,23.23,4.86,34.14,6.89,9.1,1.69,18.28,2.97,27.41,4.45,33.1,5.37,66.17,10.87,99.3,16.07,25.83,4.05,51.7,7.93,77.61,11.46,13.77,1.87,27.71,2.51,41.5,4.27,17.42,2.23,34.73,5.28,52.14,7.51,14.78,1.9,29.63,3.18,44.46,4.67,8.24.82,16.49,1.61,24.74,2.21,29.09,2.09,58.19,4.16,87.29,6.11,26.49,1.78,52.99,3.55,79.5,5.05,35.44,2.01,70.9,3.72,106.35,5.62,43.46,2.33,86.91,4.71,130.36,7.12,20.85,1.16,41.69,2.61,62.55,3.63,36.46,1.78,72.93,3.39,109.41,4.97,30.5,1.32,61,2.49,91.51,3.72,23.14.93,46.28,2.1,69.43,2.73,26.14.71,52.29,1.06,78.44,1.34,23.48.25,46.96,0,70.43.41,5.9.1,11.99,1.28,17.57,3.21,3.02,1.04,5.87,4.32,7.44,7.3,1.64,3.1.34,6.31-3.37,8.17-14.15,7.07-27.83,15.23-42.42,21.2-13.73,5.62-28.28,9.39-42.65,13.27-37.18,10.01-75.05,16.58-113.13,22.03-16.42,2.35-32.81,4.85-49.24,7.08-10.84,1.47-21.73,2.59-32.6,3.85-18.48,2.13-36.96,4.35-55.46,6.33-21.76,2.34-43.55,4.4-65.32,6.7-19.11,2.02-38.19,4.31-57.31,6.26-18.43,1.89-36.9,3.36-55.33,5.27-15.76,1.64-31.46,3.8-47.21,5.46-16.84,1.78-33.72,3.18-50.57,4.85-20.11,1.99-40.19,4.31-60.32,6.11-31.75,2.84-63.55,5.24-95.3,8.09-19.82,1.78-39.58,4.28-59.4,6.05-27.42,2.44-54.85,4.76-82.31,6.54-9.09.59-18.31-.61-27.46-1.06-11.39-.56-19.06,5.43-24.97,14.29-8.15,12.23-10.89,26-11.01,40.44,0,.64,0,1.48.37,1.89,5.79,6.45,2.93,12.85-1.16,19.57ZM977.89,1300.39c-3.29-1.55-6.49-3.38-9.91-4.55-2.39-.82-5.59-1.8-7.56-.87-13.62,6.48-25.5,14.86-29.84,31.49,1.69-.56,2.62-.67,3.32-1.14,10.44-6.88,20.69-14.06,31.35-20.57,3.82-2.34,8.61-3.11,12.95-4.59,2.9,5.1.78,8.19-3.49,11.59-12.13,9.66-19.29,22.28-20.86,38.68,10.53-5.77,15.99-18.29,28.84-18.21,1.67-3.14,2.71-6.06,4.57-8.33,2.01-2.45,4.48-4.96,7.3-6.17,2.01-.86,5.66-.42,7.21.97,1.27,1.13,1.29,4.81.51,6.85-2.68,7.1-6.03,13.96-8.97,20.96-3.75,8.91-4.93,17.98-1.62,28.18,3.26-5.07,5.88-9.23,8.59-13.32,2.93-4.43,5.76-8.95,8.98-13.17,5.39-7.06,9.33-7.94,17.92-5.02,1.71.58,3.79.62,5.58.28,8.15-1.56,16.33-3.04,24.34-5.16,4.25-1.12,10.67-.64,9.52-8.43-.12-.8,1.52-2.54,2.55-2.73,6.09-1.13,12.23-2.61,18.36-2.65,6.89-.05,13.82,2.18,20.66,1.86,12.56-.58,25.14-1.75,37.57-3.65,39.81-6.08,75.85-19.59,101.51-53.01,5.34-6.96,7.73-14.1,6.31-22.97-2.76-17.24-8.16-33.53-18.55-47.5-8.28-11.13-17.01-22.43-27.53-31.28-15.92-13.4-33.56-24.59-53.22-32.41-29.39-11.69-59.08-20.33-91.2-14.28-2.3.43-4.79-.2-8.03-.39,3.44-9.03,10.53-7.95,16.34-8.58,5.89-.63,11.91-.14,17.87-.14-53.66-9.5-90.54,29.76-100.79,69.36,4.63,5.22,7.37,10.93,5.71,18.18-.41,1.81-.4,4.29.54,5.74,4.03,6.24,5.78,13.4,10.39,19.69,12.19,16.63,27.89,27.14,47.24,32.68,11.04,3.16,21.72,3.58,29.18-7.8,1.22-1.86,3.4-3.19,5.34-4.44,23.6-15.09,49.67-22.5,77.44-22.19,14.77.16,29.52,3.27,44.25,5.29,2.28.31,4.39,1.9,7.31,3.24-5.25,7.53-11.36,5.45-16.83,3.95-24.8-6.81-49.17-5.71-73.36,2.81-16.33,5.75-30.82,13.18-39.12,29.96-4.19,8.47-10.82,15.75-19.18,21.27-10.5,6.94-22.22,10.14-34.1,13.22-16.65,4.32-33.22,6.35-49.56-1.37-1.75-.83-3.84-.94-5.83-1.33ZM715.19,967.4c-.56,1.15-1.04,2.36-1.7,3.44-5.51,8.95-8.95,9.74-18.28,4.4-1.12-.64-2.47-.89-3.69-1.39-15.64-6.47-31.89-8.96-48.67-6.71-18.11,2.43-33.96,8.94-43.71,25.78-2.7,4.66-6.96,7.18-12.46,6.81-17.96-1.23-35.84-.87-53.73,1.34-24.77,3.07-49.18,7.3-72.83,15.91-19.8,7.2-37.95,17.56-56.72,26.76-7.04,3.46-14.44,6.31-19.46,13.2-1.51,2.07-6.03,3.09-8.99,2.78-23.1-2.39-45.85-.41-68.18,5.47-15.65,4.12-27.83,13.08-36.33,27.44-9.37,15.84-8.85,32.3-5.3,49.2.77,3.68,2.49,7.88,5.18,10.24,2.47,2.17,6.84,2.18,11.23,3.38,1.59,5.55,3.37,11.76,5.45,19,4.48-7.13,7.98-13.63,12.39-19.45,4.46-5.88,9.83-11.08,14.23-15.94,9.49,2.76,4.94,10.96,7.95,15.07,37.97-11.81,74.8-13.17,110.87,5.21,4.3-6.38,7.94-12.74,12.51-18.34,6.53-8,13.07-6.65,16.85,2.9,2.61,6.6,5.29,13.18,8.25,20.53,6.64-4.75,11.95-9.23,19.64-8.14,12.19,1.72,21.86-3.24,30.25-11.88,12.9-13.29,28.11-23.09,45.39-30.02,5.44-2.18,9.64-2.22,13.75,1.26,7.08,6.01,14.09,12.16,20.71,18.67,4.4,4.32,8.99,7.43,15.18,8.78,13.24,2.89,26.51,2.04,39.72.84,6.89-.63,13.78-2.39,20.4-4.5,17.18-5.48,24.78-19.03,20.58-36.32-3.62-14.92-13.9-23.17-28.18-27.31-8.75-2.54-9.73-6.55-3.22-12.77,1.62-1.55,3.81-2.52,5.79-3.79,13.41,6.61,22.86,16.4,30.35,29.1,10.76,18.25,4.32,46.17-20.13,54.84-9.84,3.49-19.59,5.82-30.06,5.86-11.28.05-22.55.99-33.83,1.3-5.84.16-10.74-1.81-15.21-6.1-6.44-6.2-13.63-11.64-20.63-17.25-4.09-3.28-8.58-4.01-13.98-3.06-15.75,2.77-29.4,10.05-39.35,21.87-9.29,11.04-21.07,15.57-33.9,19.11-4.33,1.2-8.94,1.4-14.8,2.26-1.32,1.21-3.61,3.66-6.25,5.64-4.24,3.19-7.26,2.77-9.86-1.83-2.6-4.6-4.38-9.66-6.7-14.43-1.65-3.4-3.59-6.67-5.7-10.54-1.54,1.8-2.28,2.43-2.73,3.23-1.61,2.91-3.16,5.85-4.67,8.82-3.83,7.56-8.44,8.98-16.06,4.93-2.63-1.4-5.13-3.24-7.93-4.08-32.95-9.93-65.39-10.72-96.82,5.71-1.93,1.01-4.2,1.39-6.93,2.27-1.25-5.28-2.34-9.9-3.98-16.82-3.88,10.08-12.96,13.83-14.74,22.88-.89,4.51-2.95,8.25-8.2,8.69-5.58.46-8.55-1.95-11.49-8.82-1.45-3.39-3.08-6.7-5.19-11.24-2.59,3.79-4.16,5.91-5.54,8.14-6.85,11.15-5.47,17.8,5.37,25.14,7.4,5.01,15.5,8.37,23.92,11.52,34.12,12.74,68.2,9.71,101.81-.57,13.66-4.18,26.11-4.41,39.45-.49,13,3.82,26.18,7.24,39.48,9.84,15.58,3.04,31.3,5.8,47.09,7.22,16.51,1.49,33.15,1.74,49.51-2.69,13.71-3.72,27.12-8.85,41.51-9.62,1.96-.1,4.11-.55,5.86.06,8.11,2.82,16.41,5.34,24.09,9.1,15,7.34,30.96,11.73,47.12,14.51,22.85,3.93,45.96,6.07,69.32,5.34,27.81-.87,54.16-6.83,77.96-21.28,8.91-5.41,17.71-12.35,23.92-20.58,9.74-12.93,17.31-27.51,25.63-41.49,2.16-3.63,3.58-7.76,9.76-7.53-.38,2.72-.31,5.04-1.07,7.05-2.7,7.14-5.39,14.31-8.6,21.22-7.95,17.11-18.85,32.1-33.47,44.15-6.28,5.18-6.99,7.39-1.77,13.46,2.1,2.45,5.02,4.3,7.81,6.03,12.81,7.92,27.27,6.93,41.45,7.46,9.56.36,16.71-3.56,21.45-11.76,3.98-6.88,8.27-13.66,11.45-20.91,7.95-18.09,11.77-37.25,13.8-56.85,2.92-28.11,3.89-56.14-1.25-84.14-3.17-17.3-7.01-34.39-14.39-50.47-3.62-7.88-8-15.17-16.42-18.65-8.57,5.36-8.54,5.34-13.82-2.45-5.31-7.82-11.95-14.2-20.54-18.39-22.16-10.81-46.06-15.55-70.21-17.27-31.78-2.27-63.73-3.3-96.82.71ZM967.89,1219.62c-.32-2.61-.71-3.94-.61-5.23,1.99-23.54,8.76-45.53,21.83-65.34,14.69-22.27,35.56-36.57,60.56-44.74,9.99-3.27,20.53-5.17,30.97-6.61,10.49-1.45,21.16-1.56,31.75-2.23,34.18-2.14,68.34-5.2,102.55-6.2,55.5-1.62,110.93.73,166.28,5.44,63.01,5.36,125.57,14.24,188.05,23.66,7.18,1.08,13.75.16,20.3-2.34,6.13-2.34,12.15-5.01,18.36-7.12,3.65-1.24,7.56-1.7,11.37-2.43,8.37-1.61,16.7-3.93,25.15-4.61,26.77-2.15,53.17,1.9,79.02,8.03,21.91,5.19,43.29,12.66,64.79,19.5,4.23,1.35,7.26,1.95,10.71-1.6,1.51-1.55,5.02-2.6,7.03-1.97,6.59,2.06,13.51,4.06,19.17,7.8,7.69,5.08,14.68,11.39,21.37,17.79,13.07,12.52,21.7,27.59,24.45,45.74.47,3.07,1.54,6.04,2.33,9.06,3.93-8.07,11.21-6.02,17.68-7.13.62-2.99,1.29-5.84,1.8-8.72,3.2-17.88,2.47-35.8-.01-53.65-4.05-29.05-10.44-57.36-26.67-82.57-3.76-5.85-7.72-10.28-14.92-11.62-6.82-1.27-13.47-3.42-20.26-5.21-2.31,1.67-4.25,3.91-6.63,4.6-4.01,1.15-8.64,2.61-12.42,1.64-13.69-3.49-27.02-8.37-40.69-11.93-21.74-5.65-43.48-11.27-65.71-14.99-38.28-6.41-76.43-13.57-114.64-20.41-10.1-1.81-20.18-3.72-30.31-5.4-12.04-2.01-24.12-3.83-37.48-5.94-2.71,6.41-5.24,12.39-7.76,18.37-.75,1.78-.96,4.64-2.23,5.22-7.58,3.48-14.16,9.8-24.01,6.7-9.38-2.95-19.15-4.98-28.89-6.43-17.09-2.54-34.24-4.91-51.45-6.3-27.82-2.24-55.71-3.77-83.58-5.32-15.94-.89-31.92-1.38-47.88-1.74-12.27-.27-24.55-.05-37-.05-10.51,14.56-13.31,16.04-29.45,11.88-1.29-.33-2.62-.51-3.94-.67-30.38-3.5-60.57-9.12-91.35-8.45-2.35.05-4.72-.99-8.4-1.83,3.54-3.63,7.67-5.88,8-8.58,1.17-9.87,6.29-17.87,11.76-27.09-66.02,5.46-130.65,11.65-195.86,21.96.89,3.7.74,7.43,2.5,9.66,8.76,11.11,14.19,23.41,17.32,37.26,5.74,25.37,7.92,51.05,8.34,76.92.39,24.29-1.48,48.46-6.04,72.35-3.75,19.68-9.48,38.7-20.78,55.62-1.15,1.72-1.59,3.91-2.68,6.7,21.01,3.9,40.69,1.7,61.01-2.23-2.99-3.43-5.84-5.58-7.17-8.44-3.06-6.57-7.37-10.95-15.63-10.79ZM2826.17,1089.03c-1.51-5.67-1.51-5.91-5.66-5.98-7.31-.12-14.63.24-21.94.15-35.83-.42-71.66-.62-107.48-1.46-34.82-.81-69.63-2.07-104.42-3.54-33.85-1.44-67.68-3.51-101.53-5.11-32.51-1.54-65.04-2.68-97.55-4.29-32.83-1.63-65.63-3.66-98.45-5.45-51.46-2.81-102.92-5.57-154.38-8.34-30.87-1.66-61.74-3.31-92.61-4.94-22.2-1.18-44.4-2.84-66.61-3.35-29.18-.67-58.39-.4-87.58-.6-4.4-.03-8.79-.4-14.18-.67,10.54,25.93,17.8,51.45,22.12,77.73,4.31,26.18,5.07,52.52.67,79.24,13.57.7,25.69,1.26,37.8,1.99,4.31.26,8.59,1.35,12.88,1.33,13.25-.04,26.51-.12,39.74-.74,29.51-1.39,59.01-2.97,88.5-4.78,10.94-.67,21.82-2.31,32.74-3.31,35.03-3.22,70.08-6.18,105.09-9.57,21.39-2.07,42.71-4.88,64.09-7.09,15.73-1.63,31.53-2.61,47.25-4.26,20.11-2.11,40.16-4.73,60.26-6.9,16.45-1.77,32.95-2.97,49.39-4.83,21.7-2.45,43.34-5.42,65.03-7.94,26.35-3.06,52.77-5.59,79.09-8.92,25.33-3.21,50.62-6.78,75.82-10.86,40.13-6.5,80.22-13.26,119.15-25.49,18.31-5.75,36.16-12.46,52.79-22.03ZM1711.72,1306.14c-2.35.58-4.79,1.56-7.3,1.75-18.14,1.42-36.19,2.63-54.39-.83-18.13-3.45-35.48-8.41-50.9-18.84-3.44-2.33-6.56-3.44-11.03-2.35-19.03,4.66-36.45,12.27-50.98,25.69-7.03,6.5-13.06,13.79-18.16,23.62,11.12-1.36,19.84-2.93,26.75-11.34,6.26-7.63,14.1-14.11,21.86-20.32,5.64-4.51,12.08-8.21,18.58-11.42,4.96-2.46,9.84-1.11,10.52,1.91.94,4.18-2.61,5.67-5.28,7.55-1.36.96-2.74,1.91-4.22,2.66-10.47,5.29-19.87,12.13-28.15,20.36-8.39,8.33-16.33,17.13-24.76,26.04,1.66.63,2.33,1.16,2.78,1.01,18.23-6.16,36.47-12.31,54.63-18.7,1.97-.69,3.45-2.82,5.11-4.32,6.14-5.56,11.93-11.58,18.52-16.55,4.53-3.41,10.43-2.77,11.67.23,2.12,5.14-2.29,7.07-5.46,9.21-16.82,11.35-25.7,28.5-34.24,46.07,4.93-2.33,9.09-5.66,13.74-8,11.25-5.65,22.46-11.53,34.21-15.97,8.34-3.15,11.04-.42,11.65,9.08,3.26,0,6.57.13,9.86-.02,29.21-1.33,58.43-2.37,87.61-4.25,13.17-.85,26.31-3.03,39.33-5.36,7.46-1.33,15.01-3.38,21.88-6.5,16.84-7.64,28.17-21.14,38.57-36.19,8.04-11.63,6.85-22.89,4.39-35.21-2.67-13.38-11.49-22.7-20.1-32.19-11.16-12.31-23.67-23.06-37.46-32.39-14.1-9.54-28.8-17.64-45.1-22.86-9.35-2.99-18.39-6.96-27.88-10.6,5.49-7.2,5.85-7.54,12.72-4.43,16.63,7.54,33.39,14.85,49.61,23.21,16.2,8.36,32.41,16.83,46.19,29.2,9.51,8.54,19.66,16.38,29.67,24.64,9.65-10.57,15.51-22.37,10.57-38.16-8.99-28.72-25.43-50.09-55.03-59.36-8.14-2.55-16.33-4.79-24.35-7.85-23.06-8.78-47.11-14.17-71.47-17.55-28.29-3.92-56.41-6.6-84.77,2.61-16.33,5.3-29.43,15.09-43.67,23.46-1.27.74-1.91,2.6-2.75,4.01-3.33,5.62-6.81,11.16-9.85,16.93-1.62,3.08-3.09,6.49-3.56,9.89-1.29,9.35,2.78,17.79,6.54,25.75,9.79,20.75,24.8,37.62,42.08,52.49,24.3,20.91,53.8,32.23,82.79,44.45,4.31,1.82,9.1,2.93,9.09,9.72ZM1844.76,894.09c-206.21-39.96-413.87-64.49-624.79-47.77,2.98,1.25,6.06,2.11,9.2,2.55,9.22,1.29,18.48,2.34,27.71,3.6,31.95,4.34,63.89,8.67,95.82,13.18,4.6.65,8.25.13,11.85-3.2,2.01-1.86,5.3-2.92,8.13-3.2,17.99-1.77,35.79-.45,52.95,5.42,4.2,1.44,8.32,4.54,11.16,7.97,1.57,1.9.3,6.07.51,9.2.11,1.6.63,3.17,1.01,4.74,1.85,7.73-.82,14.45-7.63,18.73-6.02,3.78-12.53,5.78-19.75,6.13-10.14.5-20.21-1.7-30.41,3.36-9.65,4.79-20.99,6.02-31.26,9.72-37.59,13.53-73.67,30.52-109.1,48.89-4.02,2.08-7.72,4.78-11.78,7.32,5.92,5.61,5.89,5.87,11.6,6.49,9.24.99,18.5,1.93,27.78,2.32,33.55,1.4,67.12,2.44,100.67,3.85,22.24.94,44.48,2.16,66.7,3.47,16.87,1,33.71,2.55,50.59,3.44,6.53.34,12.15-.86,17.06-7.11,7.13-9.08,15.83-17.09,24.61-24.69,34.77-30.12,74.96-49.96,119.25-61.89,45.09-12.15,91.13-14.28,137.47-13.59,20.23.3,40.45.72,60.68,1.09ZM1937.09,708.64l-.49-1.93c-20.55-.67-41.15-2.52-61.65-1.72-29.88,1.16-59.75,3.58-89.51,6.66-37.03,3.84-73.98,8.52-110.86,13.56-38.52,5.26-77.04,10.72-115.34,17.32-40.58,6.99-80.98,15.13-121.34,23.36-21.78,4.44-43.34,10.01-64.95,15.29-26.44,6.47-52.97,12.62-79.18,19.91-36.47,10.15-72.69,21.21-109.01,31.93-2.67.79-5.23,1.94-7.84,2.92,4.33,1.16,8.29,1.03,12.22.56,13.52-1.62,27.01-3.52,40.55-5.03,38.34-4.27,76.68-8.55,115.06-12.53,33.07-3.43,66.15-6.9,99.29-9.55,33.48-2.68,67.02-5.04,100.58-6.35,52.85-2.06,105.73-3.95,158.62-4.4,56.87-.48,113.73,1.46,170.45,6.22,2.64.22,5.32.03,7.98.03-6.53-3.34-13.22-5.16-19.63-7.67-16.56-6.48-25.08-21.66-16.91-37.28,2.98-5.69,7.78-10.81,12.74-15.02,12.06-10.25,26.5-16.42,41.17-21.99,12.67-4.81,25.37-9.53,38.05-14.29ZM1193.49,839.77c0,.68,0,1.35,0,2.03,1.27.15,2.54.47,3.8.42,27.58-1.16,55.14-2.85,82.73-3.43,40.91-.85,81.86-2.11,122.74-1,46.53,1.26,93.09,3.89,139.48,7.8,59.65,5.03,119.07,12.63,178.15,22.43,50.53,8.39,100.97,17.34,151.46,25.97,4.3.74,8.71.89,13.88,1.4-1.07-1.92-1.24-2.72-1.69-2.94-3.84-1.94-7.73-3.79-11.61-5.64-8.84-4.23-13.78-13.95-10.49-22.19,4.16-10.43,10.67-19.53,20.82-24.68,12.45-6.32,25.62-10.96,39.65-12.8,15.7-2.05,31.35-4.45,47.02-6.7-1.77-1.47-3.61-1.99-5.49-2.25-16.78-2.32-33.5-5.43-50.36-6.71-41.79-3.18-83.61-6.34-125.47-7.94-38.19-1.45-76.46-1.34-114.69-.99-37.25.34-74.5,1.41-111.72,2.97-33.56,1.41-67.11,3.57-100.61,6.04-31.5,2.33-62.96,5.32-94.4,8.38-28.8,2.8-57.57,5.88-86.31,9.18-28.98,3.33-57.91,7.08-86.86,10.64ZM1005.41,1376.21c16.18.85,29.68,1.66,43.19,2.25,40.2,1.75,80.4,4,120.62,4.98,63.83,1.56,127.67,2.92,191.51,3.11,63.2.19,126.4-1.46,189.6-1.61,10.78-.03,17.48-2.34,20.73-13.28,1.89-6.35,5.87-12.07,9.14-18.54-13.18-1.87-24.09,2.45-34.89,6.65-7.7,3-15.07,6.83-22.53,10.43-3.01,1.45-6.21,1.89-8.16-.78-1.32-1.81-1.67-4.96-1.22-7.27.47-2.45,2.16-4.81,3.75-6.88,2.19-2.84,4.79-5.37,8.22-9.14-8.41,1.43-15.08,6.78-23.23,3.43,1.55-5.77,2.97-11.02,4.57-16.97-4.79-.27-8.4-.49-12-.68-19.1-1.05-37.83,1.9-56.54,5.12-2.36.41-4.85.06-8.36.06,1.85-3.99,3.05-6.59,4.53-9.81-1.87,0-3.18-.24-4.37.04-10.34,2.43-20.66,4.92-30.97,7.47-4.84,1.2-9.6,2.39-13.6-1.93,2.41-4.65,4.56-8.8,7.09-13.69-3.95-.23-6.26-.47-8.58-.49-54.56-.4-109.11-1-163.67-.89-7.09.01-14.13-2.15-21.62.61-11.78,4.35-24.01,8.09-36.37,10.13-21.27,3.52-42.81,5.47-64.21,8.27-2.7.35-5.83,1.24-7.75,2.99-6.14,5.62-13.19,9.13-21.34,9.85-13.21,1.17-26.48,1.69-39.7,2.8-2.7.23-6.11,1.13-7.75,2.99-5.21,5.93-9.74,12.45-16.1,20.8ZM2019.29,1358.85c-8.02,0-15.96-.41-23.85.08-18.25,1.14-36.5,2.37-54.7,4.17-43.67,4.32-87.28,9.37-130.98,13.39-27.47,2.53-55.05,3.97-82.61,5.49-37.51,2.07-75.04,4.17-112.58,5.48-39.2,1.37-78.42,2.2-117.64,2.61-58.44.62-116.89.97-175.34.86-36.25-.07-72.5-.91-108.74-1.94-49.19-1.4-98.38-3.22-147.56-5.03-20.56-.76-41.1-1.95-61.71-2.95-1.39,1.77-2.39,3.58-3.87,4.83-4.71,3.98-10.28,6.01-16.42,5.43-5.65-.53-5.32-6.1-7.31-9.68-.47-.84-1.11-1.58-1.31-1.87-41.29-3.02-82.12-5.71-122.89-9.05-39.79-3.26-79.54-7.05-119.28-10.88-11.91-1.15-23.74-3.16-35.6-4.86-11.44-1.64-23.26-.99-34.14-6.08-2.5,8.45.21,14.75,7.33,18.01,9.26,4.25,18.83,8.33,28.69,10.62,9.61,2.23,19.77,2.07,29.68,3.04,19.16,1.88,38.3,3.93,57.47,5.7,23.18,2.14,46.37,4.19,69.57,6.03,28.73,2.27,57.48,4.29,86.22,6.41,22.87,1.68,45.72,3.68,68.62,4.95,28.84,1.6,57.72,2.61,86.58,3.87,24.57,1.07,49.13,2.29,73.71,3.13,27.57.94,55.16,1.55,82.73,2.27,17.24.45,34.48,1.25,51.73,1.2,38.18-.11,76.35-.66,114.53-1.03,24.89-.24,49.8-.08,74.68-.78,28.57-.8,57.12-2.36,85.68-3.58,31.19-1.33,62.4-2.38,93.58-4.05,30.8-1.65,61.56-3.87,92.34-5.97,24.85-1.7,49.68-3.62,74.52-5.4,16.56-1.19,33.18-1.84,49.68-3.57,24.4-2.55,48.77-5.45,73.05-8.96,20.4-2.95,41.3-3.04,61.61-9.76-1.84-4.1-3.58-7.95-5.46-12.14ZM1103.54,1101.4c2.96,5.06,1.14,8.82-2.91,10.61,17.2,5.17,34.63,9.43,51.33,15.64,26.27,9.76,50.31,23.8,72.14,41.52,20.69,16.79,35.7,37.9,47.1,61.7,2.1,4.38,2.47,9.31,6.67,13,1.76,1.54,1.71,6.42.87,9.3-1.07,3.68-3.49,7.11-5.85,10.26-6.26,8.37-12.8,16.53-19.26,24.82.92.27,1.85.69,2.82.8,29.56,3.54,58.68,4.67,87.02-8.02,8.36-3.75,12.75-8.38,14.45-16.67,2.46-12.02,5.56-23.95,7.33-36.07,6.04-41.5,7.54-83.25,5.8-125.13-.07-1.58-.5-3.13-.88-5.37-88.99-6.67-177.49-7.61-266.63,3.6ZM1430.69,1103.06c-.37,59.85-10.64,116.33-19.82,174,14.09,5.31,27.47,11.1,41.31,15.41,21.24,6.61,43.3,7.33,65.2,4.95,10.71-1.16,21.83-3.75,31.44-8.42,12.54-6.1,24.63-13.11,38.25-16.45,11.51-2.82,22.66-3.19,32.61,5.71,8.17,7.31,17.69,12.69,29.54,12.8,1.02-1.99,1.99-3.89,3.05-5.94-1.89-1.1-3.03-1.75-4.16-2.41-35.01-20.62-64.04-47.22-83.75-83.27-9.41-17.21-11.97-35.5-9.62-54.7.16-1.28.51-2.72,1.27-3.7,4.18-5.46,7.75-11.58,14.93-13.91,1.46-.47,2.64-1.81,5.65-3.95-49.52-6.82-96.87-13.34-145.9-20.1ZM1218.83,998.45c-4.52-15.98-4.09-17.11,11.1-24.83,10.67-5.42,21.36-10.83,32.28-15.7,36.42-16.21,72.93-32.22,109.45-48.19,5.8-2.54,11.88-4.46,18.65-6.97-5.27-4.55-9.2-8.14-13.34-11.45-4.89-3.91-6.56-3.65-13.31,1.88,3.54,3.03,6.94,5.94,11.45,9.8-5.43,0-9.09.45-12.59-.09-7.94-1.23-10.21-7.83-4.74-13.8,4.79-5.24,11.17-6.94,18.09-6.67,9.69.38,18.89,2.47,28.15,5.76,6.94,2.46,10.45,5.66,9.75,13.75,3.74-1.31,6.45-2.25,8-2.79,1.84-5.46,3.22-9.77,4.75-14.02,1.94-5.41,1.04-9.41-3.88-11.83-14.92-7.34-30.59-9.64-46.71-6.62-.26,2.63-.44,4.44-.68,6.85-9.29-1.54-17.75-3.18-26.28-4.3-51.1-6.7-102.2-13.47-153.35-19.78-16.15-1.99-32.6-4.56-48.67-3.39-18.39,1.34-35.67-2.57-53.31-5.46-3.95-.65-7.75-2.28-12.82-3.82,7.73,11.75,20.74,20.56,33.27,22.34,16.04,2.28,32.17,3.89,48.25,5.94,20.42,2.6,40.79,5.72,61.25,7.95,23.05,2.52,46.17,4.46,69.28,6.35,16.16,1.32,32.36,2.08,48.54,3.23,3.59.25,8.43.32,8.85,4.68.29,3.03-1.77,7.02-4.05,9.33-2.09,2.11-5.99,3.73-8.91,3.47-10.16-.89-18.85,3.3-27.61,7.03-37.01,15.76-73.76,32.07-107.02,55.13-4.54,3.15-9.95,3.97-13.99.47-5.82-5.05-12.71-5.11-19.45-6.65-15.47-3.52-34.38,7.03-38.71,23.77-.97,3.75-2.41,7.37-3.97,12.05,5.14.56,9.88,1.08,14.59,1.59,7.63-14.19,17.19-24.14,34.11-22.24,15.73,1.77,18.94,14.55,23.09,27.24h20.49ZM1922.52,1307.7c-7.93,1.31-14.02,2.96-20.17,3.18-11.22.41-22.52.52-33.71-.32-6.94-.52-11.34,2.4-15.51,6.99-13.15,14.48-28.5,25.76-47.19,32.13-4.96,1.69-10.39,2.56-14.76,5.21-4.88,2.96-9.74,3.92-15.15,3.78-5.98-.16-11.98-.46-17.95-.26-37.89,1.33-75.79,3.87-113.68,3.74-18.92-.06-35.09,4.96-50.65,14.43-1.98,1.21-4.13,2.14-6.14,3.31-1.45.85-2.78,1.89-5.44,3.74,3.08.28,4.39.54,5.68.49,27.24-1.1,54.49-2.06,81.72-3.43,28.55-1.43,57.09-3.13,85.62-4.96,19.55-1.25,39.08-2.8,58.6-4.45,21.84-1.85,43.68-3.8,65.49-6,20.14-2.03,40.28-4.16,60.34-6.79,10.63-1.4,21.11-3.96,33.17-6.28-16.04-11.6-32.23-20.19-45.34-33.04,10.53,4.76,20.41,10.52,30.2,16.43,21.44,12.94,24.81,14.41,30.96,12.65-22.9-14.05-45.36-27.82-66.1-40.54ZM798.63,1319.61c-3.28.22-6.5.48-9.72.64-31.88,1.57-63.79,2.79-95.64,4.87-10.4.68-21.33,2.14-28.65,13.41,6.31,3.44,12.1,8.86,18.51,9.71,40.21,5.34,80.5,10.26,120.88,14.14,41.05,3.95,82.23,6.56,123.36,9.7,3.19.24,6.42.03,9.58.03-3.4-14-1.94-26.83,4.86-39.31-5.47,3.2-10.19,6.73-14.79,10.42-7.69,6.18-11.73,5.42-15.95-3.17-.69-1.42-1.35-2.85-1.92-4.07-20.25.85-39.96,1.88-56.59-11.78-9.62,4.54-18.78,9.29-28.3,13.14-3.74,1.51-8.78,2.32-12.33,1.02-2.78-1.02-4.17-5.8-5.97-8.59-3.31-.19-6.72-.39-11.08-.65,1.63-4.13,2.69-6.82,3.76-9.53ZM1938.53,1302.39l1.31-1.58c26.24,15.41,52.49,30.81,79.27,46.53,3.51-3.54,6.94-6.23,9.41-9.63,12.77-17.58,25.3-35.33,38.16-53.38,10.91,2.93,21.69,5.82,32.47,8.71-35.04-19.96-71.82-35.3-111.18-46.49-15.85,24.01-39.98,39.13-62.35,57.73,7.24,4.71,13.2,8.89,19.45,12.59,17.67,10.47,35.42,20.81,53.27,30.96,1.31.74,3.72-.44,7.85-1.08-7.65-5-13.18-8.64-18.73-12.24-5.58-3.61-11.19-7.18-16.78-10.77-5.6-3.59-11.43-6.86-16.71-10.87-4.95-3.76-12.05-4.65-15.43-10.49ZM1361.47,1280.09c11.44,0,22.31.02,33.17,0,9.14-.02,9.9-.07,11.44-8.71,4.65-26.08,9.18-52.19,13-78.39,1.96-13.42,2.5-27.07,3.31-40.64.98-16.59-1.08-32.95-3.85-49.78-12.8-1.25-24.87-2.43-37.63-3.68-4.1,61.52-8.01,121.92-19.43,181.21ZM818.84,1308.76c6.13,1.44,6.07,1.38,9.02-1.73,3.64-3.84,7.1-7.95,11.22-11.2,2.44-1.92,5.97-3.17,9.09-3.36,5.01-.32,7.31,4.12,4.18,7.98-2.67,3.3-6.34,5.78-9.49,8.72-4.4,4.1-8.72,8.29-13.07,12.45.41.55.83,1.11,1.24,1.66,13.45-4.32,26.89-8.63,39.83-12.78,10.5,14.01,23.96,17.04,37.54,15.55,8.04-10.81,14.8-20.53,22.27-29.66,3.73-4.56,9.04-7.8,13.18-12.07,6.04-6.23,12.65-8.22,20.65-4.26,13.82,6.84,29.15,8.83,43.57,13.62,10,3.32,18.95,1.33,27.96-1.53,11.21-3.55,20.81-9.73,26.96-21.02-21.7-2.18-41.37-8.32-58.7-21.16-6.92,4.63-13.86,7.05-21.98,5.51-2.07-.39-4.81,1.65-6.98,3.01-26.95,16.86-55.79,29.3-86.57,37.25-9.26,2.39-17.74.79-25.56-4.79-6.16-4.4-12.47-8.6-19.14-13.18-10.08,9.2-17.64,19.82-25.24,31.01ZM1889.3,1462.98c-.83-15.56-8.04-29.27-23.63-37.92-6.94-3.85-14.15-6.58-22.25-7.88-18.89-3.04-31.17,5.71-40.83,20.41-9.13,13.9-7.09,28.38.51,41.36,9.84,16.8,27.67,23.79,45.51,24.41,23.36.81,39.3-13.13,40.69-40.38ZM954.85,1518.62c5.37-.68,9.66-1.1,13.91-1.78,12.57-2,21.7-8.95,28.79-19.37,6.28-9.24,5.44-18.31,1.82-28.18-5.09-13.9-12.84-25.25-26.76-31.44-2.98-1.32-6.13-2.42-9.32-3.06-9-1.81-18.08-4.74-27.1-4.65-14.63.14-24,10.12-31.59,21.46-8.66,12.93-7.88,32.84,2.12,44.79,12.71,15.21,30.17,20.49,48.13,22.21ZM1222.15,1308.67c.2.92.4,1.84.6,2.76,13.18,0,26.39-.58,39.53.11,41.2,2.17,82.34.22,123.48-1.37,6.54-.25,13.52-.57,19.41-3.02,5.79-2.41,10.44-7.55,17.11-12.66-3.58-.19-5.34-.44-7.08-.35-4.27.21-8.58,1.13-12.8.77-12.22-1.04-24.38-2.65-36.59-3.82-2.88-.28-6.39-.62-8.69.68-17.83,10.11-37.17,11.89-56.97,10.52-17.21-1.19-34.37-3.22-51.56-4.76-2.89-.26-6.3-.8-8.66.4-6.16,3.1-11.88,7.1-17.77,10.73ZM2054,1355.66c15.28-18.09,32.96-33.07,43.77-55.11-10.03-3.18-18.68-5.93-26.04-8.26-13.79,19.06-26.73,36.94-39.6,54.74,3.77,6.23,7.17,11.83,11,18.16,2.39-2.05,4.2-3.59,5.78-4.94-2.51-7.18-8.98-11.34-10.23-18.62,1.32,0,2.19-.26,2.47.04,4.05,4.32,8.03,8.71,12.85,13.99ZM1792.41,1405.79c-7.17.93-13.28-.37-17.82,5.14-1.18,1.43-4.23,1.62-6.47,1.82-10.03.93-16.79,5.85-18.74,15.68-4.17,21,4.73,37.44,24.63,45.27,4.09,1.61,9.06,2.13,12.97-1.1.55-4.08-1.41-5.22-4.63-6.55-13.2-5.42-17.84-19.18-9.88-30.89,3.38-4.97,8.95-8.57,13.9-12.3,2.24-1.69,5.36-2.21,8.73-3.51-.91-4.6-1.72-8.68-2.68-13.57ZM1522.97,1308.83c-6.52,0-11.16-.17-15.79.03-19.36.83-38.5-1.34-57.28-5.59-7.58-1.71-13.88-2.16-20.22,2.87-3.6,2.86-8,4.7-11.83,7.3-2.31,1.58-4.22,3.74-6.31,5.65.28.65.56,1.29.84,1.94,11.07-2.69,22.62-1.83,33.5-6.15,9.98-3.96,13.57-1.08,11.89,9.51,18.38-1.02,36.48-7.18,55.12-2.18,3.09-4.1,6.02-8,10.08-13.39ZM888.61,1475.13c-11.1-1.47-12.99-10.22-13.97-17.6-1.02-7.7,4.26-13.92,11.54-16.96,4.13-1.73,8.9-1.97,13.39-2.85,4-.79,8.85-.39,9.3-6.75-1.37-.43-2.67-.68-3.83-1.23-1.19-.56-2.15-1.61-3.36-2.09-9.88-3.98-22.01-4.32-29.14,4.9-12.45,16.08-9.02,46.46,16.75,54.45-.22-3.79-.43-7.37-.69-11.86ZM1186.47,997.61c-1.96-14.23-9.38-21.18-20.13-20.32-8.56.69-15.34,8.18-15.3,17.51,11.49.91,23.02,1.83,35.43,2.81ZM974.7,1348.24c-10.98,7.2-20.75,13.57-28.94,24.73,10.72.55,19.96,1.02,28.94,1.48v-26.21ZM596.09,976.07c-15.85-6.12-33.1-1.65-40.15,7.51,10.64-.81,21.82-1.39,32.91-2.71,2.57-.31,4.83-3.13,7.23-4.79ZM2027.71,1350.65c-4.18,1.49-6.56,3.68-4.17,7.58,3.01,4.94,6.51,9.57,9.99,14.6,4.92-6.1,4-9.14-5.82-22.18ZM1384.92,890.12c7.1,3.79,9.52,15.7,21.35,12.38-2.86-12.28-13.31-10.24-21.35-12.38Z"/>
    <path d="M695.46,1020.95c-28.65-9.72-55.37-5.06-81.99,3.43.91-15.91,19.84-32.95,37.97-34.82,18.73-1.94,38.61,11.62,44.02,31.39Z"/>
    <path d="M299.94,1122.35c-4.8-3.49-8.35-4.78-9.28-7.11-.86-2.16.35-5.94,1.88-8.15,9.5-13.74,35.35-22.96,51.8-18.84,9.88,2.48,12.18,5.73,10.58,15.45-1.05.35-2.25,1.04-3.49,1.13-11.57.83-23.15,1.83-34.74,2.21-8.58.28-16.33.97-16.74,15.31ZM316.39,1100.05c9.93,1.44,19.49-.11,30.55-3.6-12.12-5.05-21.47-2.13-30.55,3.6Z"/>
    <path d="M1842.47,1483.12c-15.13-.71-23.13-11.83-18.36-26.05,3.38-10.05,8.34-18.79,18.97-23,8.82-3.49,14.04-2.29,20.27,4.94,6.61,7.67,8.79,16.31,5.31,25.86-1.08,2.96-3.32,5.77-5.68,7.94-3.34,3.08-7.05,5.94-11.04,8.07-2.77,1.47-6.29,1.54-9.47,2.24ZM1835.34,1455.57c-.1,12.94,5.83,17.08,15.88,12.87,5.21-2.19,6.63-4.94,4.55-10.17-1.33-3.37-3.28-6.5-5.1-9.66-3.54-6.14-6.98-6.63-11.17-1.15-2.13,2.79-3.28,6.34-4.16,8.11Z"/>
    <path d="M924.82,1477.13c1.32-9.14,5.26-17.16,13.76-22.63,9.47-6.1,20-7.43,30.65-5.8,4.09.63,8.88,3.81,11.28,7.27,12.05,17.34,1.78,41.38-14.24,46.36-5.04,1.57-10.31,2.58-15.55,3.19-1.89.22-4.06-1.34-5.99-2.3-2.03-1.01-3.86-2.43-5.9-3.39-9.4-4.44-13.24-12.32-13.99-22.7ZM971.53,1480.43c.13-9.37-3.94-15.63-12.57-19.3-9.85-4.19-19.99,1.58-21.48,12.25-1.61,11.57,2.57,15.41,15.74,20.51,10.63,4.11,18.15-1.96,18.31-13.46Z"/>
  </g>
</svg>
